<svg width="24" height="24" viewBox="0 0 24 24" fill="none" xmlns="http://www.w3.org/2000/svg">
<g clip-path="url(#clip0_1271_26)">
<path d="M1.1399 9.29506L1.3099 9.54806C0.969898 9.53806 0.613898 9.50506 0.545898 9.35906C0.545898 9.3524 0.547232 9.3454 0.549898 9.33806C0.739898 9.28806 0.902898 9.28506 1.1399 9.29506ZM2.9459 10.0651L3.0279 10.3151L2.8359 10.3231L2.8819 10.0671L2.9459 10.0651ZM3.5999 11.8901C3.4299 12.0461 3.2989 12.1501 3.1979 12.3871C3.0579 12.2721 2.9849 12.0441 2.9399 11.7891C2.8899 11.5111 2.8739 11.2021 2.8359 10.9711L2.8479 10.8531L3.0449 10.8391L3.5469 11.7891L3.5999 11.8891V11.8901ZM3.3459 9.54806L3.4229 9.03606L3.4879 9.03206L3.3459 9.54806ZM3.2089 7.22606L4.1089 7.47006L4.1049 7.51006C3.6859 7.82006 3.2989 7.95606 3.0909 8.51606L3.1699 7.27006L3.2089 7.22606ZM4.0489 5.93606C3.9909 6.51606 4.0729 6.77206 4.1739 7.13206C4.3339 7.24606 4.3979 7.31506 4.3459 7.48406C4.0759 7.35006 3.7899 7.21006 3.3759 7.23206L3.3459 7.19706C3.4619 6.74006 3.6879 6.45906 3.8629 6.09706L4.0499 5.93506L4.0489 5.93606ZM5.3429 5.16406L5.3819 5.16106C5.2579 5.58906 5.2079 6.57606 4.9909 6.96806C4.4779 6.72506 4.4879 5.67206 5.0619 5.25606L5.3429 5.16406ZM4.8649 8.33406L5.2969 8.80306C5.1269 9.32506 4.8059 9.71806 4.6699 10.3231L4.4149 10.3031C4.1969 9.69406 4.7419 8.70206 4.8349 8.25806L5.2349 8.30406L5.3819 8.68006L4.8649 8.33406ZM6.0469 5.16006C6.0029 5.66706 6.1149 5.93006 6.1449 6.32206L5.3819 6.70906C5.42964 6.18435 5.55536 5.66969 5.7549 5.18206L6.0469 5.16006ZM6.3429 4.39006L6.3999 4.38606L6.3139 4.63306L6.1449 4.64406L6.2749 4.49106L6.3429 4.39006ZM6.3999 6.75506L5.6359 7.22506C5.6519 6.94106 6.0139 6.55806 6.3169 6.45206L6.3869 6.49006L6.3999 6.75506ZM6.9099 4.97706L6.7719 5.76206L6.6289 5.85206L6.5529 5.93506C6.4149 5.74106 6.3799 5.26506 6.4099 4.90306L6.9099 4.97706ZM7.4179 4.38706C7.4179 4.39639 7.4169 4.40506 7.4149 4.41306L7.2199 4.60006C7.0899 4.65006 7.0739 4.64806 6.9099 4.64206L6.9779 4.38706H7.4179ZM7.9279 3.35506L7.6999 3.87006L6.9099 3.81306L6.9129 3.77106C7.2379 3.62106 7.5229 3.44306 7.9269 3.35406L7.9279 3.35506ZM7.5159 4.69506L7.5999 4.64506L7.6729 4.90306L7.4179 4.85306L7.5159 4.69506ZM8.1819 5.45806C7.8789 5.57606 7.4599 5.54306 7.2169 5.67806L7.1639 5.36806L7.3219 5.16106C7.57923 5.26106 7.8359 5.36206 8.0919 5.46406L8.1819 5.45806ZM7.5309 5.92206L7.1849 5.93506L7.1639 5.82606C7.4069 5.72706 7.8149 5.71806 8.1819 5.67706L7.7949 5.89006L7.5309 5.92206ZM8.4359 5.92206C8.1449 5.99506 7.8659 6.25206 7.6749 6.45206C7.6379 6.21806 8.0869 5.80606 8.3019 5.67706C8.3969 5.76206 8.4069 5.75306 8.4359 5.92206ZM8.9459 2.83906L8.9419 2.87906L8.6359 3.06406L8.1819 3.09706L8.1859 3.05706L8.9459 2.83906ZM8.5339 3.61306L8.4359 3.46806C8.6659 3.27506 9.1729 3.38106 9.4549 3.41006L8.5339 3.61306ZM10.8119 2.85306C11.2369 2.88806 11.6259 2.98806 11.9219 3.17306L11.9999 3.16806L11.9529 3.23406L11.5459 3.35406L10.8119 3.24906L9.1999 3.02006L9.2039 2.98706C9.73021 2.86245 10.2723 2.81762 10.8119 2.85406V2.85306ZM12.5049 2.71706L12.4149 2.83906C12.1709 2.82161 11.9376 2.73178 11.7449 2.58106L12.5089 2.67806L12.5049 2.71706ZM13.8609 3.67106L14.0719 3.59106L14.2909 3.77906C14.2609 3.99406 14.0539 4.17006 13.8949 4.37906L13.7729 4.38706C13.4409 3.83706 13.0219 3.23606 12.2869 3.02406L12.2549 2.95906L12.5519 2.83906C13.0509 3.01306 13.4669 3.27706 13.9299 3.42906C13.9899 3.57406 13.9709 3.52506 13.8599 3.67106H13.8609ZM14.4749 4.89406L14.4169 4.83706L14.2909 4.84606L14.5009 4.64606L14.4749 4.89406ZM14.6999 7.74206C15.0439 8.04006 15.1319 8.47206 14.9889 9.03206L14.5449 8.03506L14.6909 7.81306L14.6999 7.74206ZM14.7999 5.42206L14.7959 5.47006L14.6149 5.67706L14.5449 5.54006C14.6539 5.34506 14.5749 5.45006 14.7179 5.43006L14.7999 5.42206ZM15.0119 5.41906L15.8179 5.71806L15.8109 5.79806C15.7429 5.84473 15.6749 5.89039 15.6069 5.93506L14.7999 5.63706L14.8069 5.55606L15.0119 5.41906ZM16.5819 6.45206L16.1349 6.15506L16.0729 6.03506C16.2669 5.91506 16.2389 5.92106 16.4439 5.96106C16.4892 6.12506 16.5352 6.28939 16.5819 6.45206ZM16.8359 6.35406L16.7459 6.45206C16.6379 6.39606 16.6189 6.32506 16.5819 6.19306L16.8149 6.29506L16.8359 6.35406ZM16.6459 5.61506L16.5819 5.62006L16.7939 5.42006C16.7432 5.48539 16.6939 5.55039 16.6459 5.61506ZM17.8549 6.91306L17.7299 6.96806L17.0489 6.58506L16.8359 6.29506C17.1889 6.03506 17.2019 6.33706 17.5349 6.50206L17.8549 6.91306ZM18.1089 7.14106L17.8549 7.04806L18.0079 6.96806L18.1089 7.14106ZM17.7989 7.55706C17.8909 7.74206 17.8909 7.69006 18.1089 7.66206L17.7179 8.00006L17.3449 7.28806L17.3499 7.24406C17.6249 7.18506 17.7129 7.28406 17.9819 7.32406L18.0849 7.49006L17.7989 7.55706ZM17.8549 8.02006L18.3639 7.74206C18.2619 7.97206 18.1289 8.09006 17.9719 8.25806L17.8549 8.02006ZM18.8729 9.00506C18.7349 9.12406 18.6449 9.16206 18.3839 9.18406L18.5939 9.20706L18.5899 9.24406L17.8729 9.54806L17.8549 8.62806L18.3489 8.04306L18.4389 8.00006L18.8729 9.00506ZM18.6179 7.59306C20.0239 7.20106 19.7519 7.94706 19.1249 8.51606C18.9549 8.2094 18.7859 7.90173 18.6179 7.59306ZM19.8909 7.74206C19.3729 10.1761 19.2729 10.3091 17.4409 11.3551C17.4103 11.3058 17.3783 11.2575 17.3449 11.2101L17.4099 10.9381C18.6049 10.5981 19.2839 9.97206 19.2129 8.55506L19.8119 7.78506L19.8909 7.74206ZM19.9529 7.74206L19.8909 7.49006L20.0809 7.48406L19.9529 7.74206ZM16.8359 10.1091L16.8539 9.84006L16.8699 9.61006L17.0459 9.55106C17.0546 9.55106 17.0629 9.55006 17.0709 9.54806C17.1209 9.85306 17.0709 10.0781 16.9709 10.3231C16.8849 10.2681 16.8679 10.2451 16.8359 10.1091ZM15.8179 12.3671L15.8219 12.3221L16.1559 11.5231L16.2259 11.3551L16.8139 11.3951C16.8226 11.4391 16.8286 11.4817 16.8319 11.5231C16.8579 11.8271 16.7529 12.0701 16.6449 12.3871L15.8179 12.3671ZM16.0729 13.4031L16.0799 13.0031L16.0899 12.9031L16.5199 12.9351L16.5819 12.9301C16.4826 13.0927 16.3846 13.2561 16.2879 13.4201L16.0729 13.4031ZM15.8209 11.7331L15.8469 11.7201L16.0499 11.6151L16.0729 11.6131L16.0429 11.7201L15.9239 12.1291L15.8179 11.7651L15.8209 11.7331ZM15.4239 13.0181L15.3089 12.9031C15.4209 12.9811 15.3479 12.9051 15.4239 13.0181ZM14.7999 12.7111C14.9429 12.6211 15.0979 12.6491 15.3099 12.6511L15.2469 12.8581C15.0719 12.9281 15.0469 12.9021 14.8499 12.8811L14.7999 12.7111ZM15.1119 13.6771L15.3089 14.1431L14.8519 14.4521C14.7159 14.2651 14.8639 13.7421 15.1119 13.6771ZM14.6089 12.0571L14.5449 12.0621L14.6289 11.8711L14.6089 12.0571ZM15.3419 12.1291L15.3089 12.1081L15.4209 11.8721L15.4579 11.8711L15.5639 12.1191L15.3419 12.1291ZM17.1049 8.77406L17.0909 8.68706C17.1579 8.60506 17.2009 8.55406 17.3159 8.51706L17.3459 8.66906L17.1969 8.76806L17.1049 8.77406ZM17.0909 9.40406C17.0449 9.46506 16.9629 9.49906 16.9049 9.54806L16.8359 8.25806L17.0909 9.40406ZM16.6239 11.1341C16.7919 11.0401 16.8159 11.1271 16.8359 11.3541H16.3269L16.3359 11.2741L16.6239 11.1341ZM16.3739 10.4211L16.4889 10.3231L16.5819 10.4891L16.5389 10.5811L16.3269 10.5561L16.3739 10.4211ZM16.3269 11.1051L16.0619 11.3551L15.8889 11.3261L15.8189 11.3331C15.8589 11.2537 15.8999 11.1751 15.9419 11.0971L16.3269 11.1051ZM15.3669 10.9581C15.2609 10.8841 15.3369 10.8941 15.3169 10.8381L15.3669 10.9581ZM16.1689 9.80606L15.3089 9.36006C15.3489 8.77006 15.4209 8.09206 15.3629 7.48406C16.0259 7.72406 16.6209 8.80306 16.1689 9.80606ZM15.5639 9.80606C15.7749 9.91806 15.7639 10.0201 16.0569 10.1101C16.1079 10.3011 16.0299 10.3771 15.9079 10.5801L15.5959 10.5681C15.5319 10.2281 15.6019 10.0331 15.5639 9.80606ZM15.6219 11.4751C15.5149 11.4011 15.5919 11.4111 15.5719 11.3551L15.6219 11.4751ZM17.3449 8.99106L17.3479 8.94306L17.5779 8.77406C17.6179 9.03806 17.6029 9.47806 17.5429 9.80606C17.4069 9.70006 17.3819 9.25206 17.3449 8.99106ZM17.3449 9.80606L17.4989 9.54806L17.4089 9.80206L17.3449 9.80606ZM18.8299 9.03506L18.8729 9.03206C18.8849 10.0211 18.2749 10.2011 17.4729 10.5721L17.3449 10.5811L17.8449 9.54506L18.8299 9.03506ZM17.3199 7.10306L17.3439 7.18006L17.2809 7.22606L17.0899 6.96806L17.3199 7.10306ZM17.0899 7.53306L17.0969 7.48806L17.1529 7.48406L17.3449 7.74206C17.1969 7.67206 17.1729 7.65506 17.0899 7.53306ZM17.3439 8.19306L17.0009 8.51606L16.2639 7.44606L15.3079 6.61606L15.5179 6.45206C15.9809 6.65206 16.7909 7.03306 16.9539 7.50906C17.0069 7.66406 16.8239 7.79206 16.9479 7.92106C17.0959 8.07506 17.2439 7.96506 17.3449 8.19206L17.3439 8.19306ZM15.1959 9.80606L15.2739 9.83706L15.3079 10.5811L15.1889 10.5531C15.0769 10.4701 14.9989 10.0861 15.1009 9.91906L15.1959 9.80606ZM14.6319 11.1001L14.7139 11.0971L14.7989 11.2991L14.6689 11.3491L14.5439 11.3551C14.5746 11.2697 14.6039 11.1847 14.6319 11.1001ZM14.3999 15.2261L14.2899 14.8491C14.4466 14.8044 14.6032 14.7587 14.7599 14.7121L14.7999 14.7101L14.7949 14.7451L14.3999 15.2261ZM14.0349 14.1941C14.0819 14.0421 14.1149 14.0191 14.1999 13.9351L14.2699 13.9631L14.2899 14.0291L14.1329 14.1831L14.0349 14.1931V14.1941ZM14.1549 14.4521L14.0349 14.3201L14.2899 14.1941L14.2239 14.4471L14.1549 14.4521ZM13.8869 15.6221C13.8516 15.5941 13.8162 15.5651 13.7809 15.5351L13.8589 15.5301L14.2519 15.2261L14.2899 15.5361L13.9889 15.7421L13.8869 15.6221ZM13.9069 18.5781C13.2939 18.6041 12.9269 18.4481 12.4269 18.4041L11.8539 17.2711L11.7439 17.1571C12.7059 17.0431 13.3109 16.5791 14.0239 16.2581C14.2759 16.4981 14.8469 17.7201 14.3439 18.2611C14.2239 18.4461 14.0899 18.4651 13.9069 18.5781ZM11.2749 17.3051L11.5049 17.2901C11.8519 17.5231 12.0879 17.9401 12.2539 18.3231L11.2349 18.0281C11.3109 17.7701 11.3429 17.5081 11.2749 17.3051ZM10.5429 16.3311L11.6909 16.0001L13.4949 16.1761L13.5269 16.2671C12.9899 16.5091 12.3789 16.7131 11.7629 17.0251C11.0959 17.0781 10.9349 16.8291 10.4729 16.6651L10.5429 16.3311ZM10.4719 17.5471L10.4949 17.3231L10.9339 17.2901C10.9699 17.4851 11.0079 17.5941 10.9539 17.8061L10.4719 17.5461V17.5471ZM9.9619 17.9511L10.1329 17.8571C10.3429 17.7181 10.4999 17.9031 10.7259 17.9761L10.6359 18.0641L9.9619 17.9511ZM10.4569 17.5481L10.2909 17.4731L10.2169 17.2901L10.4719 17.3061L10.4569 17.5481ZM9.7079 17.5481L9.9629 17.7671C9.9629 17.9021 9.9509 17.8871 9.9199 18.0641L9.7079 17.5481ZM9.0479 16.5811C9.2869 16.5081 9.6049 16.5241 9.9629 16.5161L9.6299 16.7741L8.9449 16.7071L9.0479 16.5811ZM8.4359 3.64806C8.9089 3.19606 10.0949 3.33106 10.3919 3.61806L10.4719 3.61106C10.0769 3.98006 9.4649 4.02206 9.0889 4.38706C8.7939 4.19106 8.5499 4.06506 8.4359 3.64806ZM11.0359 4.38706L11.2359 4.61406C11.0579 4.62406 10.8709 4.63506 10.6839 4.65106C10.2629 4.68706 9.8469 4.75006 9.5559 4.90106L9.5179 4.90306L9.4549 4.80406C9.93253 4.55336 10.4599 4.41195 10.9989 4.39006L11.0359 4.38706ZM12.0279 3.09706C12.3569 3.42706 12.8479 3.62306 13.0179 4.12906C12.3279 3.80806 11.2659 3.81306 10.7279 3.30206C11.2019 3.40306 11.6059 3.36506 12.0279 3.09706ZM12.2549 4.90306L13.1989 5.03306L13.2729 5.02706L12.5159 5.67706C12.3959 5.43806 12.3679 5.11406 12.2549 4.90306ZM13.4679 6.00706L13.2729 5.97706L13.5269 5.93506L13.4669 6.00706H13.4679ZM13.2729 5.39006L13.5059 5.16106L13.5269 5.41906L13.3579 5.38206L13.2729 5.39006ZM13.7349 13.9301L13.6229 13.9351L13.5269 13.8451L13.6009 13.7481L13.7809 13.6781L13.7349 13.9301ZM13.5319 14.4021L13.6259 14.2941L13.6339 14.1941L13.7819 14.4291L13.5269 14.4521L13.5319 14.4021ZM13.4309 15.2261L13.2729 15.0361L13.7819 14.9681L13.5389 15.2181L13.4309 15.2261ZM13.5269 16.0001L13.0179 15.9391L13.3779 15.7421L13.5269 16.0001ZM13.1699 15.2721L13.2729 15.3701L12.9039 15.4641L12.5089 15.4841L13.0589 15.2261L13.1699 15.2721ZM11.7459 4.12906C12.0429 4.13706 12.3569 4.21206 12.5089 4.38706C12.3039 4.36706 11.9349 4.40006 11.8419 4.24206L11.7459 4.12906ZM12.0039 5.16106C12.1489 5.28806 12.1999 5.43806 12.1739 5.67706C11.9499 5.60006 12.0079 5.35506 12.0039 5.16106ZM12.2539 6.78806L12.2629 6.74406C12.7699 6.63406 12.8789 6.81006 12.6479 6.96806C12.4479 6.94006 12.3569 6.86506 12.2539 6.78806ZM12.9069 13.4191L13.0179 13.4471L13.0139 13.4831L12.7639 13.6771L12.8679 13.4221L12.9069 13.4191ZM12.7669 7.12506L12.9569 6.96806L13.0179 7.22606L12.7639 7.17006L12.7669 7.12506ZM13.5269 14.0251L12.9119 14.1861L12.7639 14.1931C12.7639 14.1851 12.7652 14.1767 12.7679 14.1681C12.9979 14.1221 13.1459 14.0461 13.2819 13.9351L13.4979 13.9751L13.5269 14.0251ZM13.0879 13.4191L13.0179 13.2761L13.1929 13.1611L13.2729 13.2041L13.1729 13.4121L13.0879 13.4191ZM11.4909 15.2041L11.7939 14.9681L12.7319 15.0481L12.7639 15.1181L12.1299 15.4841C11.8949 15.4451 11.6919 15.3411 11.5699 15.1981L11.4909 15.2041ZM11.0199 15.2261L11.4899 15.4841L10.7269 15.3491C10.8242 15.3091 10.9219 15.2681 11.0199 15.2261ZM10.9819 15.7531L10.9789 15.8151L10.8339 15.8951L10.7269 15.9091L10.7309 15.8471C10.8419 15.7001 10.8229 15.7491 10.9809 15.7531H10.9819ZM9.7819 5.25006L9.7089 5.17306C9.9619 5.03506 10.3609 4.96906 10.7529 4.93806C11.0759 4.91106 11.3939 4.90806 11.6219 4.90306L11.7459 5.67706C11.4129 5.64106 11.0959 5.59706 10.7529 5.58206C10.4565 5.56635 10.1594 5.57706 9.8649 5.61406L9.7819 5.25006ZM10.1559 15.6051L10.2179 15.7151L10.1579 15.9461L9.4549 16.0001C9.5299 15.7701 9.6419 15.6591 9.7629 15.4841L10.1559 15.6051ZM9.2879 14.7101C8.9679 14.6921 8.5299 14.4581 8.4359 14.1941L9.4549 14.4531L9.2879 14.7101ZM9.6459 14.6961L9.4549 14.7101L9.4609 14.6481L9.6729 14.4521L9.6459 14.6961ZM8.9459 5.25906L9.2559 5.16106L9.4549 5.41106L9.2449 5.41906L8.9459 5.25906ZM8.9419 16.3391C8.92523 16.3951 8.90923 16.4517 8.8939 16.5091L8.8199 16.5161L8.6909 16.2581L8.9459 16.2841L8.9419 16.3391ZM9.0829 15.2261L9.6769 15.3461L9.7089 15.4261L9.2479 16.0001L8.6909 15.9181L9.0829 15.2261ZM13.5269 7.13806L13.6419 6.96906L13.6839 6.96806L14.0039 7.04806L14.0359 7.09406L13.6789 7.22606L13.5269 7.13806ZM14.2159 6.30406L14.0359 6.19406C14.2189 6.26106 14.1139 6.18506 14.2159 6.30406ZM14.1579 7.48406L14.0359 7.38006L14.2909 7.22606L14.1579 7.48406ZM14.0359 9.29006L14.4319 9.38806C14.5389 9.43006 14.5359 9.44106 14.5449 9.54806C14.3749 9.48306 14.0909 9.43806 14.0359 9.29006ZM14.0759 8.58706L14.1299 8.51706L14.2909 8.77406L14.0359 8.72406L14.0759 8.58706ZM8.9189 17.0781L8.9459 17.1461L8.6029 17.2771L8.4359 17.2901L8.4399 17.2551L8.5569 17.0721C8.7189 16.9971 8.7229 17.0461 8.9189 17.0781ZM8.1819 4.12806C8.4039 4.29406 8.4619 4.49806 8.4269 5.16106C8.2809 4.97406 8.1919 4.57706 8.1819 4.12906V4.12806ZM8.3279 3.61306L8.3099 3.80006L8.1829 3.80906L8.3289 3.61306H8.3279ZM8.1819 3.87106L8.1619 4.05706L7.9269 4.01406L8.1209 3.87506L8.1819 3.87106ZM8.1819 18.8391L8.3079 17.5251L9.1999 17.2901L8.2619 18.7911L8.1819 18.8391ZM8.2449 15.3071L8.3819 15.2261C8.5069 15.3741 8.3949 15.5871 8.2769 15.7421C8.1789 15.6501 8.1679 15.5921 8.1939 15.3831L8.2449 15.3071ZM7.4179 15.1811L7.7109 14.7101L8.1809 14.9861C8.02023 15.2381 7.85857 15.4901 7.6959 15.7421C7.5499 15.6121 7.4599 15.4211 7.4179 15.1821V15.1811ZM7.4179 17.2021L7.8879 16.7741L8.1089 16.7941L8.1819 16.9141C8.1619 17.0401 8.14323 17.1654 8.1259 17.2901L7.4179 17.2021ZM6.6549 16.8521L7.2149 16.5161L7.6409 16.5831L7.6729 16.6421L7.2239 17.0321C6.9999 17.0091 6.8509 16.9491 6.7339 16.8471L6.6549 16.8521ZM6.5799 16.3531L6.7849 16.2581L6.8729 16.2771L6.9089 16.3191L6.3159 16.5161L6.1459 16.4561L6.5799 16.3531ZM5.8909 16.1111L6.0409 15.7481C6.3189 15.7121 6.3849 15.8491 6.5939 15.9361L6.6539 16.0281L6.3429 16.2411L6.0899 16.2581L5.8909 16.1111ZM5.3809 17.1701L5.7519 16.5161C5.9979 16.5161 6.0279 16.5361 6.1289 16.6661C6.1739 16.7421 6.1349 16.7011 6.0369 16.7181L6.0139 16.9431L6.3999 17.0031C6.3239 17.1921 6.3119 17.1671 6.1979 17.2871C5.8179 17.3071 5.6459 17.2351 5.3809 17.1701ZM4.9529 16.2581L5.5999 16.4531L5.6359 16.5301L5.2209 17.0321L4.6179 16.8341L4.9529 16.2581ZM2.4599 15.5601L2.4679 15.4831L2.8289 15.7611L2.8599 15.8351C2.1089 16.4151 3.2579 18.3051 4.5649 17.0801L5.1269 17.3061C4.9109 17.6911 4.5399 17.8431 4.1489 18.0611C3.2139 18.1391 1.9059 16.6121 2.4599 15.5601ZM3.3319 15.8241L3.3459 15.9991L3.1379 15.8421L3.0909 15.7411L3.3319 15.8241ZM4.6179 16.9201L4.1529 17.2801C3.2369 17.3761 2.8659 16.7421 2.8359 15.9631L3.0149 15.7471L3.0929 15.7411C3.5539 16.1041 3.9619 16.6581 4.5879 16.8411L4.6179 16.9201ZM3.7309 13.1601C3.6479 13.1001 3.6429 13.0701 3.6009 12.9681L3.7749 12.3061L3.9779 12.1281L4.1089 12.3201L3.7309 13.1601ZM3.6009 13.3831L4.0019 12.4341L4.0839 12.3861C4.2689 12.7121 4.5369 12.8601 4.6179 13.3031L4.0139 13.9341C3.82515 13.7951 3.68122 13.6039 3.5999 13.3841L3.6009 13.3831ZM4.3639 14.1731L4.8739 13.6761L5.1269 14.1931L4.3639 14.1731ZM5.6359 8.95806C5.3949 9.47306 5.0739 9.82306 4.8819 10.3221C4.7979 9.86906 5.3039 9.21806 5.4669 8.81806L5.5449 8.77306L5.6359 8.95806ZM5.6359 7.53806C6.0149 7.42106 6.2689 7.20706 6.5399 6.96706L6.6549 7.31106L6.3329 7.74106L5.6359 7.53806ZM6.9089 7.56506L6.7709 7.74106L6.6549 7.72106L6.6569 7.69306L6.8889 7.48306L6.9089 7.56506ZM6.7089 6.45306L6.7489 6.45106L6.9089 6.78806L6.8489 6.96706C6.6159 6.84506 6.6249 6.70006 6.7089 6.45306ZM6.6609 13.9341L6.8959 14.1031L6.6549 13.9971L6.6609 13.9341ZM6.6569 14.1931L6.9089 14.3021L6.9049 14.3321L6.3649 14.7091C6.2099 14.6391 6.1909 14.5001 6.1449 14.3491L6.1499 14.3171L6.6569 14.1931ZM5.9039 13.6761L6.1459 13.7741L6.0159 13.8491L5.8909 13.8631L5.9039 13.6761ZM5.8909 8.51606C6.1969 8.60206 6.0999 8.54406 6.1129 8.77306C5.9729 8.69106 5.9629 8.65306 5.8909 8.51606ZM5.8909 13.1251L5.9119 12.9021C6.0309 12.9851 6.0719 13.0341 6.1459 13.1601L5.8909 13.1251ZM6.4009 9.90206C6.3049 10.0251 6.3089 9.99206 6.1459 10.0631L6.2569 9.80506L6.4009 9.90206ZM6.4009 8.86406L6.2409 9.03106C6.0809 8.94106 6.1559 8.97706 6.2279 8.81006L6.3229 8.77306L6.4009 8.86406ZM6.3799 8.42506L6.1459 8.25706C6.3259 8.32606 6.2839 8.28406 6.3799 8.42506ZM5.8909 13.1601L6.1459 13.3631C6.0159 13.3601 5.9459 13.3321 5.8909 13.1601ZM6.6549 13.1501L6.5509 13.1601L6.4619 12.9961L6.3999 12.9161L6.5379 12.9021L6.6549 13.1501ZM6.5149 8.37206L6.3999 8.25806C6.5119 8.33606 6.4379 8.26006 6.5139 8.37306L6.5149 8.37206ZM6.5299 12.6221L6.3999 12.3521L6.4549 12.1301L6.4869 12.1281L6.6549 12.6441L6.5299 12.6221ZM5.8629 15.6251L5.8909 15.6591L5.7999 16.0001C5.69295 15.9554 5.59877 15.8848 5.52582 15.7948C5.45286 15.7047 5.40341 15.598 5.3819 15.4841L5.8629 15.6251ZM5.1269 16.0001L5.3819 16.2261C5.2189 16.1541 5.2089 16.1571 5.1269 16.0001ZM5.5669 13.7121L5.5969 13.9351L5.3819 13.6771L5.5669 13.7121ZM5.3149 14.9191L5.1269 14.4521C5.3499 14.5371 5.5239 14.7921 5.6369 14.9681L5.3149 14.9191ZM5.5149 10.3251L5.5779 10.3231L5.3919 10.5811C5.3619 10.5171 5.3989 10.4561 5.5019 10.3811L5.5149 10.3251ZM5.3819 12.5431L5.3309 12.6451L5.1849 12.5321L5.1269 12.4091L5.3269 12.3871L5.3819 12.5431ZM3.5999 14.7101C4.1099 15.0421 4.9769 15.3501 5.1269 16.0001C4.5215 15.6992 3.99766 15.2567 3.5999 14.7101ZM4.9229 14.4601L5.1269 14.7101L4.6179 14.4521L4.9229 14.4601ZM6.7869 15.2261L6.3999 14.8361L7.0769 14.1941L7.1639 14.9011L6.7869 15.2261ZM7.1639 15.6571L7.2309 15.4891L7.3209 15.4841L7.4179 15.7421L7.1639 15.6571ZM7.5069 14.7101L7.4179 14.4521L7.6029 14.4861L7.5069 14.7101ZM7.1639 6.02006L7.1659 5.99706L7.4179 5.93506L7.2419 6.19306L7.1639 6.02006ZM4.5969 11.3551L4.3639 10.8391C4.6629 10.9041 4.6139 11.1171 4.5969 11.3551ZM3.9739 11.6131C3.7559 11.4621 3.6169 11.1611 3.5999 10.8391C4.0469 10.9441 4.0219 11.1201 4.1099 11.5281L3.9739 11.6131ZM3.7109 10.2661C3.3859 9.95906 3.8589 8.73106 4.0669 8.44806C4.1769 8.30906 4.3149 8.31206 4.4969 8.25806L4.6179 8.28906C4.3119 8.83106 4.1059 9.56906 4.0329 10.3231L3.7109 10.2661ZM3.2359 14.4521L3.3909 14.7131L3.2519 15.0381L3.1719 15.1231C3.2859 15.1391 3.3119 15.0411 3.4819 14.9021C3.8119 15.4371 4.3159 15.9491 4.8719 16.2401L4.5689 16.7741L3.6489 16.1821C3.5439 15.9871 3.6889 15.7631 3.5199 15.6441C3.3669 15.5361 3.1699 15.6921 3.0139 15.6451L2.5819 15.2491C2.7089 14.9651 2.8309 14.6871 3.0819 14.5421L3.2359 14.4521ZM2.3559 11.6061C2.39136 11.3488 2.4411 11.0938 2.5049 10.8421L2.5389 10.8391L2.6719 11.6061L2.7419 12.0061C2.9419 12.5641 3.14323 13.1211 3.3459 13.6771C2.8619 13.4131 2.5629 12.8021 2.6059 11.9801C2.4899 12.2451 2.5859 12.6621 2.6239 12.8961C2.3269 12.6441 2.2899 12.1431 2.3559 11.6061ZM1.9139 11.8711C1.86869 11.773 1.83965 11.6684 1.8279 11.5611C1.81341 11.4163 1.81475 11.2705 1.8319 11.1261L1.8759 11.0341L2.0729 10.8391L1.9619 11.5601L1.9139 11.8701V11.8711ZM19.6359 14.4511L19.1269 14.2551L19.6209 14.1941L19.6359 14.4511ZM6.1659 18.6511L6.2989 18.5811L6.1449 18.8381L6.1649 18.6521L6.1659 18.6511ZM2.3269 9.80706L2.1099 9.78706C1.8399 9.69806 1.5869 9.38306 1.5639 9.03306C1.9769 9.07006 2.1169 9.26606 2.3209 9.50506C2.32357 9.60506 2.32557 9.70573 2.3269 9.80706ZM2.2969 9.78606C2.3269 9.22906 1.9019 8.88106 1.3499 8.89606C1.4439 8.11406 2.1239 7.71406 2.7299 7.45106L2.8469 7.44206C2.7459 8.42406 2.8229 9.27006 2.4559 10.1201C2.1849 10.7461 1.2239 10.7341 1.2759 11.7001L1.2829 11.7801C1.4199 13.0641 2.8159 13.3251 3.0089 14.4541C0.938899 15.5071 3.4619 19.9321 5.0989 17.3331C5.3929 17.3751 5.6539 17.5081 6.0189 17.3801C6.1889 17.2861 6.2219 17.2101 6.2879 17.0141L6.8729 17.3171L6.9029 17.3911C6.3669 17.8071 5.9889 18.3781 5.4129 18.7681L5.4679 18.6101L5.3179 18.5831L5.2349 18.6281L5.1599 18.9781C5.4889 19.3141 6.4859 18.0991 6.7779 17.8611C6.6129 18.4381 6.2049 18.7351 5.9779 19.2631L6.0479 19.3351C6.4779 19.0271 7.0049 18.1551 7.0849 17.4921L7.7289 17.5991C6.9219 18.6901 4.8489 21.0901 3.7589 21.7311C3.9249 21.2101 4.1889 20.8121 4.3229 20.3841L4.2449 20.3901L4.1749 20.3181C3.9099 20.8401 3.4729 21.2071 3.3949 21.9111C3.4417 21.9807 3.50064 22.0413 3.5689 22.0901C4.8649 21.8741 7.0289 18.6171 8.0629 17.7271C7.7829 20.5371 6.2769 20.9751 4.9709 22.6771C6.1579 22.0851 6.8779 20.5751 7.8929 19.7371C7.7809 20.9101 7.5019 23.5331 6.7999 24.0001L6.9159 23.9911C7.7039 23.5011 7.7499 21.4861 8.0129 20.4561L8.1249 19.3731L9.2499 17.7931L9.3319 17.7481C9.4579 18.1431 10.0279 18.5721 10.6449 18.4571L11.0879 18.2711L12.1999 18.6871C12.3459 20.2871 12.2899 21.1841 11.2769 22.4021C12.3119 21.8731 12.6919 19.8351 12.3469 18.7531C14.7539 19.0321 14.6569 18.2201 14.2009 16.4671L14.6239 16.4741C14.5459 16.3571 14.3349 16.4441 14.1739 16.3541C14.1009 16.3071 14.1149 16.3161 14.0699 16.2461C14.6419 15.6011 16.0199 16.2421 15.7299 17.3131C16.1259 16.4251 15.2509 15.6351 14.4079 15.9531C14.7679 15.5261 15.2039 15.1751 15.4319 14.6101L15.5139 14.5661L17.4939 16.6461L17.6109 16.6371L17.7009 16.5151C17.0709 15.7684 16.4419 15.0217 15.8139 14.2751L16.0159 14.1831C16.0605 14.137 16.1154 14.102 16.176 14.081C16.2366 14.06 16.3013 14.0535 16.3649 14.0621L16.2649 14.0121C17.2759 14.1131 18.5679 14.9561 19.6229 14.6841C19.7199 14.5151 19.7249 14.4241 19.6659 14.2591C20.7899 14.2871 22.8119 13.9111 23.4559 13.3651C21.7259 13.7281 19.7779 13.8511 18.1899 13.6391L16.7829 13.4741L16.7039 13.4801L17.0829 12.8001C18.2429 12.7781 21.2849 12.7491 21.8999 12.0211L21.7639 11.8391L21.2339 11.7631C21.197 11.8224 21.1764 11.8903 21.1739 11.9601L21.5939 12.0051C20.6819 12.2351 18.1419 12.7201 17.3129 12.4371C17.2259 12.3311 17.2899 11.9631 17.2939 11.6981C17.2953 11.6506 17.2933 11.6032 17.2879 11.5561C18.4799 11.2001 19.3649 10.3981 19.7279 9.18806C19.9349 8.49506 19.7979 7.58506 20.2459 7.15306C20.5319 7.17806 20.5899 7.29906 20.7999 7.38106C20.6889 7.22706 20.5299 7.14106 20.3309 7.07106L19.9579 7.32806C19.6169 7.46006 19.2599 7.11506 18.6809 7.38406C18.2109 6.98206 17.9459 6.34706 17.3109 6.10406L17.2459 5.99406L18.0159 5.24506C17.7639 5.45606 17.5069 5.70506 17.2499 5.95506L16.7339 5.72406L16.7039 5.64906C17.2919 5.23306 17.8139 5.07906 18.4829 5.21106C18.5142 5.27306 18.5462 5.33473 18.5789 5.39606C18.5479 5.44906 18.5199 5.46406 18.4929 5.47906L18.2679 5.41906C18.3649 5.47606 18.4659 5.49406 18.5669 5.51206L18.6519 5.42906L18.6649 5.31306C18.5189 5.18306 18.4739 5.08906 18.1869 5.07906L18.3239 4.87706C17.9959 5.10306 17.3299 5.16306 17.0039 5.35906L17.7579 4.76506L17.8479 4.64406L16.4529 5.47606C16.1549 5.45606 15.8379 5.31606 15.6769 5.14906L15.5999 5.15506L17.2559 4.03506L17.2289 3.92206L15.3449 5.02106L14.7429 4.87306L14.7989 4.33206L19.1159 0.942062L19.1929 0.936062L19.1319 0.787062C18.9719 0.711062 18.3149 1.24406 18.0669 1.40306C17.1109 2.01606 16.2659 2.77906 15.3259 3.33306C15.7139 2.84006 16.4239 2.34906 16.5419 1.63106L16.3519 1.60706L16.0559 1.85906L16.3779 1.71906C16.1699 2.35206 15.2279 3.48206 14.6959 3.84006L14.6339 3.69106C14.9799 3.10906 15.3209 2.32606 15.1609 1.57906L14.8709 1.40906L14.5599 1.43206C14.7589 1.51106 14.8939 1.53006 15.0399 1.62706C15.1329 2.35106 14.7769 2.84106 14.5849 3.42706L14.5029 3.47106C14.3749 3.23406 14.3829 3.12006 14.1199 3.07706L14.0969 2.92506L14.2769 2.68106L14.4009 2.59506C14.4429 2.67506 14.4449 2.64606 14.4579 2.78306C14.4942 2.72395 14.5146 2.65641 14.5169 2.58706L14.3699 2.52106L13.9809 2.93306C13.6559 2.71606 13.2979 2.48806 12.8409 2.40306C13.0999 1.86606 13.8869 1.00306 13.4809 0.322062C12.9849 -0.505938 11.2919 0.448062 10.6719 1.10506C10.5997 1.1781 10.5372 1.2601 10.4859 1.34906L10.6719 1.20506C11.2839 0.749062 12.9129 -0.342938 13.2659 0.530062C13.6359 1.01706 12.9269 1.95406 12.7339 2.33506C12.0739 2.26806 11.3839 2.20506 10.6739 2.21906C9.92657 2.22524 9.18448 2.34459 8.4729 2.57306C8.1129 2.69206 6.5769 3.61206 6.5179 3.60006L5.8179 2.92206L4.3539 2.18706L4.3459 2.26406L4.2599 2.34706L6.1359 3.93506L5.8499 4.11006C5.0779 3.52506 4.5459 3.17006 3.3969 2.87106L3.2029 2.88606C3.8739 3.34806 4.5499 3.77106 5.2249 4.19506L5.3599 4.37706C4.8779 4.58006 4.6739 5.00206 4.2669 5.26406C3.6309 4.96006 3.0419 4.68406 2.2709 4.45106L2.2169 4.60906L3.6609 5.53906L3.7389 5.53306L3.4899 5.70506C3.3749 6.09206 3.1499 6.54106 2.9619 7.08706C2.2419 7.67306 1.3089 7.63806 1.1639 8.83206C0.933898 8.89506 0.771898 8.91506 0.561898 9.06906L0.545898 9.22406C0.677898 9.40806 1.8469 9.90306 2.1259 9.95106L2.2979 9.78506L2.2969 9.78606ZM10.8369 1.53006L10.9439 1.55006L10.8009 1.53206C10.7756 1.53206 10.7509 1.53306 10.7269 1.53506C10.8399 1.32506 11.1719 1.27306 11.4909 1.29606L11.4689 1.44806L10.8449 1.47906L10.8369 1.53006ZM11.2829 1.80706L11.5829 1.70906C11.7129 1.49306 11.7869 1.26406 11.7209 1.05506C11.4119 0.994062 11.2339 1.06906 10.9449 1.19106L10.7879 1.44806L10.7279 1.54806L10.7879 1.60806C10.8859 1.68806 11.0039 1.71606 11.2209 1.69806C11.2809 1.80006 11.2109 1.75506 11.1039 1.78306L11.2829 1.80706ZM18.6859 4.13006L18.3639 4.19006L18.5619 4.17606L18.7889 4.27406L18.4449 4.90406C18.6219 4.69506 18.7979 4.54706 18.8729 4.23006L18.6859 4.13006ZM16.8359 14.1951C16.7559 14.0521 16.6689 13.9581 16.5819 13.9361C16.6589 14.0091 16.7479 14.0951 16.8359 14.1951ZM15.8179 17.2911L15.5639 17.4391L15.7589 17.4211L15.8179 17.2911ZM16.8359 14.1951C17.0949 14.4871 17.2889 15.0471 17.2329 15.4851C17.5269 14.8501 17.1919 14.4541 16.8359 14.1951Z" fill="#242424"/>
</g>
<defs>
<clipPath id="clip0_1271_26">
<rect width="24" height="24" fill="white"/>
</clipPath>
</defs>
</svg>
