<svg width="23" height="24" viewBox="0 0 23 24" fill="none" xmlns="http://www.w3.org/2000/svg">
<g clip-path="url(#clip0_1271_24)">
<path d="M18.008 11.1855C19.6643 11.1855 20.9112 10.4955 21.8305 9.29426L20.6018 8.35676C20.2983 8.75677 19.906 9.08082 19.4559 9.30338C19.0058 9.52594 18.5102 9.64092 18.008 9.63926C16.2105 9.63926 14.908 8.17488 14.908 6.378C14.908 4.58113 16.1893 3.03427 18.0593 3.03427C18.8905 3.03427 19.478 3.23051 19.9905 3.54801V5.128H21.5368V2.82427L21.2405 2.59113C20.3905 1.92238 19.0924 1.56738 18.0074 1.56738C15.3549 1.56738 13.1974 3.72489 13.1974 6.37739C13.1974 9.02739 15.3543 11.1855 18.008 11.1855ZM21.2162 20.673L21.1612 18.4586V13.0549H17.9362V14.6018H19.5324V18.268C19.5324 19.8474 18.3262 20.9655 17.1093 20.9655C15.8924 20.9655 15.2574 20.1218 15.2574 18.543V13.0543H12.2449V14.6011H13.6287V18.8111C13.6287 20.9536 14.8299 22.4299 16.9724 22.4299C18.2037 22.4299 19.1412 21.7468 19.7005 20.6936H19.7255L19.9462 22.1661H22.4243V20.6749H21.218V20.6718L21.2162 20.673ZM12.8412 1.79426H10.1537L7.81617 8.58175H7.77992L5.45492 1.79426H2.59117V3.34175H4.2018L6.97367 11.078H8.44617V11.0761L11.3368 3.34238H12.8399V1.79489L12.8412 1.79426ZM0.0761719 22.1861H1.66867V20.5943H0.0767969V22.1861H0.0761719ZM6.22617 14.8486H6.20867L6.10867 13.0549H3.26617V14.4649H4.77867V20.6736H3.26617V22.1655H10.2912V20.703H6.37992V16.9561C6.5568 15.5999 7.57367 14.4418 8.96117 14.4418H8.98617L8.95805 15.828H10.5043V13.0293H9.2818C7.8818 13.0255 6.84305 13.783 6.22555 14.8493L6.22617 14.8486Z" fill="#242424"/>
</g>
<defs>
<clipPath id="clip0_1271_24">
<rect width="22.5" height="24" fill="white"/>
</clipPath>
</defs>
</svg>
