<svg width="24" height="24" viewBox="0 0 24 24" fill="none" xmlns="http://www.w3.org/2000/svg">
<path d="M16.051 18.0901C15.5965 18.0801 15.231 17.7001 15.231 17.2401C15.2211 16.7801 15.5867 16.4011 16.0411 16.3911H16.051C16.5153 16.3911 16.8907 16.7711 16.8907 17.2401C16.8907 17.7101 16.5153 18.0901 16.051 18.0901ZM12.0202 14.4101C11.5658 14.4311 11.1904 14.0701 11.1706 13.6111C11.1706 13.1511 11.5263 12.7711 11.9807 12.7501C12.4253 12.7501 12.7908 13.1011 12.8007 13.5501C12.8205 14.0111 12.4648 14.3911 12.0202 14.4101ZM12.0202 18.0401C11.5658 18.0611 11.1904 17.7001 11.1706 17.2401C11.1706 16.7801 11.5263 16.4011 11.9807 16.3801C12.4253 16.3801 12.7908 16.7311 12.8007 17.1811C12.8205 17.6411 12.4648 18.0211 12.0202 18.0401ZM7.95987 14.4101C7.50543 14.4311 7.13002 14.0701 7.11026 13.6111C7.11026 13.1511 7.46591 12.7711 7.92036 12.7501C8.36492 12.7501 8.73046 13.1011 8.74033 13.5501C8.76009 14.0111 8.40444 14.3911 7.95987 14.4101ZM7.94999 18.0401C7.49555 18.0611 7.12014 17.7001 7.10038 17.2401C7.10038 16.7801 7.45603 16.4011 7.91048 16.3801C8.35504 16.3801 8.72058 16.7311 8.73046 17.1811C8.75021 17.6411 8.39456 18.0211 7.94999 18.0401ZM15.2409 13.6011C15.2409 13.1411 15.5965 12.7711 16.051 12.7611C16.4955 12.7611 16.8512 13.1201 16.871 13.5611C16.8808 14.0211 16.5252 14.4011 16.0806 14.4101C15.6262 14.4201 15.2508 14.0701 15.2409 13.6111V13.6011ZM3.00049 9.25708V16.8701C3.00049 20.0301 4.9961 22.0001 8.12782 22.0001H15.8633C19.0246 22.0001 21.0005 20.0701 21.0005 16.9311V9.25708H3.00049Z" fill="url(#paint0_linear_615_1992)"/>
<path opacity="0.4" d="M3.00391 9.25699C3.01675 8.66999 3.06615 7.50499 3.15901 7.12999C3.63321 5.02099 5.24353 3.68099 7.5454 3.48999H16.4565C18.7386 3.69099 20.3687 5.03999 20.8429 7.12999C20.9348 7.49499 20.9841 8.66899 20.997 9.25699H3.00391Z" fill="white"/>
<path d="M8.30514 6.59C8.73982 6.59 9.06584 6.261 9.06584 5.82V2.771C9.06584 2.33 8.73982 2 8.30514 2C7.87045 2 7.54443 2.33 7.54443 2.771V5.82C7.54443 6.261 7.87045 6.59 8.30514 6.59Z" fill="white"/>
<path d="M15.6953 6.59C16.1201 6.59 16.456 6.261 16.456 5.82V2.771C16.456 2.33 16.1201 2 15.6953 2C15.2606 2 14.9346 2.33 14.9346 2.771V5.82C14.9346 6.261 15.2606 6.59 15.6953 6.59Z" fill="white"/>
<defs>
<linearGradient id="paint0_linear_615_1992" x1="3.00049" y1="9.25708" x2="15.0194" y2="26.2343" gradientUnits="userSpaceOnUse">
<stop stop-color="white" stop-opacity="0"/>
<stop offset="1" stop-color="white"/>
</linearGradient>
</defs>
</svg>
