<svg width="32" height="32" viewBox="0 0 32 32" fill="none" xmlns="http://www.w3.org/2000/svg">
<rect width="32" height="32" rx="7" fill="#010004"/>
<path d="M17.606 13.2963C17.606 12.2153 18.4629 11.3389 19.5199 11.3389H28.0858C29.143 11.3389 29.9998 12.2153 29.9998 13.2963V18.557C29.9998 19.6381 29.143 20.5144 28.0858 20.5144H19.5199C18.4629 20.5144 17.606 19.6381 17.606 18.557V13.2963Z" fill="#3843FF"/>
<path d="M8.61623 14.859V15.2417C8.61623 16.5047 8.06125 17.5381 6.07098 17.5381H5.80308C5.11413 17.5381 4.4539 17.5381 3.83195 17.4425V19.1648H2.10962V12.7539C3.20043 12.6295 4.45392 12.5625 5.61169 12.5625H5.87962C8.02298 12.5625 8.61623 13.5959 8.61623 14.859ZM5.53515 16.0072C6.89389 16.0072 6.89389 15.6053 6.89389 15.0503C6.89389 14.4858 6.89389 14.0935 5.60213 14.0935C5.20026 14.0935 4.46348 14.1222 3.83195 14.1796V15.9211C4.42521 15.9976 4.9419 16.0072 5.53515 16.0072Z" fill="white"/>
<path d="M16.5747 19.1648H14.9098L13.6276 17.1554C12.9482 17.1554 12.3072 17.1554 11.6948 17.0597V19.1648H9.97241V12.7539C11.0632 12.6295 12.3167 12.5625 13.4745 12.5625H13.7424C15.8858 12.5625 16.479 13.5098 16.479 14.6676V15.0503C16.479 15.8541 16.2111 16.5526 15.3882 16.9066L16.5747 18.782V19.1648ZM13.4936 14.0935C13.0535 14.0935 12.3263 14.1222 11.6948 14.1796V15.5383C12.288 15.6149 12.8717 15.6244 13.197 15.6244C14.728 15.6244 14.7567 15.3565 14.7567 14.7537C14.7567 14.4092 14.7471 14.0935 13.4936 14.0935Z" fill="white"/>
<path fill-rule="evenodd" clip-rule="evenodd" d="M18.4216 19.177H19.9717L20.5171 17.9331H23.7417L24.2967 19.177H25.8468V18.7943L22.9954 12.7661H21.273L19.8473 15.7802L18.4216 18.7943V19.177ZM21.1582 16.4978H23.1102L22.1342 14.3067L21.1582 16.4978ZM28.7653 12.7662H27.043V19.1771H28.7653V12.7662Z" fill="white"/>
</svg>
