<svg width="48" height="48" viewBox="0 0 48 48" fill="none" xmlns="http://www.w3.org/2000/svg">
<path d="M33.3511 4H14.6667C7.85778 4 4 7.85778 4 14.6667V33.3333C4 40.1422 7.85778 44 14.6667 44H33.3511C40.16 44 44 40.1422 44 33.3333V14.6667C44 7.85778 40.16 4 33.3511 4Z" fill="url(#paint0_linear_1_225)"/>
<path fill-rule="evenodd" clip-rule="evenodd" d="M24.0713 12.1777C23.1646 12.1777 22.418 12.9244 22.418 13.8488V34.1511C22.418 35.0577 23.1646 35.8044 24.0713 35.8044C24.9957 35.8044 25.7424 35.0577 25.7424 34.1511V13.8488C25.7424 12.9244 24.9957 12.1777 24.0713 12.1777ZM14.7373 18.7383C13.8307 18.7383 13.084 19.4849 13.084 20.4094V34.1516C13.084 35.0583 13.8307 35.8049 14.7373 35.8049C15.6618 35.8049 16.4084 35.0583 16.4084 34.1516V20.4094C16.4084 19.4849 15.6618 18.7383 14.7373 18.7383ZM31.6094 27.6633C31.6094 26.7389 32.356 25.9922 33.2805 25.9922C34.1872 25.9922 34.9338 26.7389 34.9338 27.6633V34.1522C34.9338 35.0589 34.1872 35.8055 33.2627 35.8055C32.356 35.8055 31.6094 35.0589 31.6094 34.1522V27.6633Z" fill="white"/>
<defs>
<linearGradient id="paint0_linear_1_225" x1="49.5" y1="49" x2="10.6025" y2="3.42527" gradientUnits="userSpaceOnUse">
<stop stop-color="white"/>
<stop offset="1" stop-color="white" stop-opacity="0"/>
</linearGradient>
</defs>
</svg>
