<svg width="48" height="48" viewBox="0 0 48 48" fill="none" xmlns="http://www.w3.org/2000/svg">
<path d="M24.04 4C12.42 4 4 13.48 4 24C4 27.36 4.98 30.82 6.7 33.98C7.02 34.5 7.06 35.16 6.84 35.78L5.5 40.26C5.2 41.34 6.12 42.14 7.14 41.82L11.18 40.62C12.28 40.26 13.14 40.72 14.162 41.34C17.082 43.06 20.72 43.94 24 43.94C33.92 43.94 44 36.28 44 23.94C44 13.3 35.4 4 24.04 4Z" fill="url(#paint0_linear_1_161)"/>
<path d="M14.7397 21.4612C16.1597 21.4612 17.2997 22.6012 17.2997 24.0212C17.2997 25.4212 16.1597 26.5612 14.7397 26.5812C13.3397 26.5812 12.1797 25.4212 12.1797 24.0212C12.1797 22.6012 13.3197 21.4612 14.7397 21.4612ZM23.9605 21.4612C25.3805 21.4612 26.5205 22.6012 26.5205 24.0212C26.5205 25.4212 25.3805 26.5812 23.9605 26.5812C22.5405 26.5612 21.4005 25.4212 21.4005 24.0012C21.4005 22.6012 22.5605 21.4412 23.9605 21.4612ZM33.1801 21.4612C34.6001 21.4612 35.7401 22.6012 35.7401 24.0212C35.7401 25.4212 34.6001 26.5812 33.1801 26.5812C31.7601 26.5812 30.6201 25.4212 30.6201 24.0212C30.6201 22.6012 31.7601 21.4612 33.1801 21.4612Z" fill="white"/>
<defs>
<linearGradient id="paint0_linear_1_161" x1="47.5" y1="49" x2="7.88115" y2="0.809207" gradientUnits="userSpaceOnUse">
<stop stop-color="white"/>
<stop offset="0.834495" stop-color="white" stop-opacity="0"/>
</linearGradient>
</defs>
</svg>
