<svg width="48" height="48" viewBox="0 0 48 48" fill="none" xmlns="http://www.w3.org/2000/svg">
<path d="M44 24C44 35.048 35.046 44 24 44C12.954 44 4 35.048 4 24C4 12.956 12.954 4 24 4C35.046 4 44 12.956 44 24Z" fill="url(#paint0_linear_1_235)"/>
<path d="M31.1469 31.6296C30.8849 31.6296 30.6209 31.5616 30.3789 31.4196L22.5269 26.7356C22.0749 26.4636 21.7969 25.9736 21.7969 25.4456V15.3516C21.7969 14.5236 22.4689 13.8516 23.2969 13.8516C24.1249 13.8516 24.7969 14.5236 24.7969 15.3516V24.5936L31.9169 28.8396C32.6269 29.2656 32.8609 30.1856 32.4369 30.8976C32.1549 31.3676 31.6569 31.6296 31.1469 31.6296Z" fill="white"/>
<defs>
<linearGradient id="paint0_linear_1_235" x1="49" y1="49.5" x2="14.3782" y2="6.76325" gradientUnits="userSpaceOnUse">
<stop stop-color="white"/>
<stop offset="1" stop-color="white" stop-opacity="0"/>
</linearGradient>
</defs>
</svg>
