<svg width="48" height="48" viewBox="0 0 48 48" fill="none" xmlns="http://www.w3.org/2000/svg">
<path d="M42.6619 14.8855C41.8238 14.3576 40.7938 14.3109 39.9158 14.7576L36.9518 16.254C35.8558 16.8063 35.1758 17.9231 35.1758 19.1657V30.8327C35.1758 32.0753 35.8558 33.1901 36.9518 33.7464L39.9138 35.2408C40.3158 35.4479 40.7458 35.5474 41.1758 35.5474C41.6918 35.5474 42.2039 35.4012 42.6619 35.1149C43.4999 34.5891 43.9999 33.6774 43.9999 32.6784V17.3241C43.9999 16.3251 43.4999 15.4134 42.6619 14.8855Z" fill="white"/>
<path d="M23.8102 40H12.2261C7.38203 40 4 36.6599 4 31.8782V18.1218C4 13.3381 7.38203 10 12.2261 10H23.8102C28.6542 10 32.0363 13.3381 32.0363 18.1218V31.8782C32.0363 36.6599 28.6542 40 23.8102 40Z" fill="url(#paint0_linear_1_175)"/>
<defs>
<linearGradient id="paint0_linear_1_175" x1="30.5" y1="40" x2="7.785" y2="12.7623" gradientUnits="userSpaceOnUse">
<stop stop-color="white"/>
<stop offset="1" stop-color="white" stop-opacity="0"/>
</linearGradient>
</defs>
</svg>
