<svg width="28" height="28" viewBox="0 0 28 28" fill="none" xmlns="http://www.w3.org/2000/svg">
<path d="M4.66667 6.99984H24.5C25.1443 6.99984 25.6667 6.4775 25.6667 5.83317V5.83317C25.6667 5.18884 25.1443 4.6665 24.5 4.6665H4.66667C4.04783 4.6665 3.45434 4.91234 3.01675 5.34992C2.57917 5.78751 2.33333 6.381 2.33333 6.99984V19.8332H1.75C0.783502 19.8332 0 20.6167 0 21.5832V21.5832C0 22.5497 0.783502 23.3332 1.75 23.3332H16.3333V19.8332H4.66667V6.99984Z" fill="url(#paint0_linear_428_517)"/>
<path d="M25.6667 19.833H21.0001V11.6663H25.6667M26.8334 9.33301H19.8334C19.524 9.33301 19.2272 9.45592 19.0085 9.67472C18.7897 9.89351 18.6667 10.1903 18.6667 10.4997V22.1663C18.6667 22.4758 18.7897 22.7725 19.0085 22.9913C19.2272 23.2101 19.524 23.333 19.8334 23.333H26.8334C27.1428 23.333 27.4396 23.2101 27.6584 22.9913C27.8772 22.7725 28.0001 22.4758 28.0001 22.1663V10.4997C28.0001 10.1903 27.8772 9.89351 27.6584 9.67472C27.4396 9.45592 27.1428 9.33301 26.8334 9.33301Z" fill="white"/>
<defs>
<linearGradient id="paint0_linear_428_517" x1="29.1958" y1="25.6665" x2="10.6302" y2="-9.05536" gradientUnits="userSpaceOnUse">
<stop stop-color="white"/>
<stop offset="1" stop-color="white" stop-opacity="0"/>
</linearGradient>
</defs>
</svg>
