<svg width="28" height="28" viewBox="0 0 28 28" fill="none" xmlns="http://www.w3.org/2000/svg">
<g clip-path="url(#clip0_957_1175)">
<path d="M16.625 11.0755L27.9878 6.20703C27.9962 6.28842 28.0003 6.3702 28 6.45203V18.0475C28.0001 18.578 27.8394 19.0961 27.5392 19.5334C27.239 19.9708 26.8133 20.3069 26.3183 20.4975L17.6348 23.8383C17.3082 23.9638 16.97 24.0565 16.625 24.1148V11.0755ZM14.875 18.3748V11.0773L3.51225 6.20703C3.50436 6.28846 3.50028 6.37022 3.5 6.45203V10.9495C4.3225 10.6573 5.2045 10.4998 6.125 10.4998C10.9567 10.4998 14.875 14.026 14.875 18.3748Z" fill="url(#paint0_linear_957_1175)"/>
<path d="M20.3822 7.5637L8.81296 2.60595L5.18346 4.00245C4.82296 4.14245 4.50621 4.35245 4.24721 4.61845L15.75 9.5482L20.3822 7.5637ZM13.8652 0.663454L11.1527 1.70645L22.6047 6.60995L27.2527 4.61845C26.9892 4.34824 26.6704 4.13812 26.3182 4.00245L17.6347 0.663454C16.4215 0.196817 15.0784 0.196817 13.8652 0.663454ZM6.12496 24.5002C7.50046 24.5002 8.77096 24.0452 9.79296 23.2805L14.2555 27.743C14.3367 27.8243 14.4332 27.8889 14.5394 27.9329C14.6455 27.977 14.7594 27.9997 14.8743 27.9998C14.9893 27.9999 15.1032 27.9773 15.2094 27.9334C15.3157 27.8895 15.4122 27.8251 15.4936 27.7438C15.5749 27.6626 15.6395 27.5661 15.6836 27.4599C15.7276 27.3537 15.7504 27.2399 15.7504 27.1249C15.7505 27.01 15.728 26.8961 15.684 26.7899C15.6401 26.6836 15.5757 26.5871 15.4945 26.5057L11.032 22.0432C11.858 20.9386 12.287 19.5874 12.2494 18.2086C12.2119 16.8298 11.7101 15.504 10.8253 14.4459C9.94041 13.3878 8.72432 12.6594 7.37389 12.3785C6.02346 12.0977 4.61776 12.2808 3.38441 12.8984C2.15105 13.516 1.16225 14.5317 0.578103 15.7813C-0.00604266 17.0308 -0.151331 18.4409 0.165764 19.7833C0.482858 21.1257 1.24377 22.3217 2.32529 23.1778C3.40682 24.0339 4.74563 24.4998 6.12496 24.5002ZM6.12496 22.7502C4.96463 22.7502 3.85184 22.2893 3.03136 21.4688C2.21089 20.6483 1.74996 19.5355 1.74996 18.3752C1.74996 17.2149 2.21089 16.1021 3.03136 15.2816C3.85184 14.4611 4.96463 14.0002 6.12496 14.0002C7.28528 14.0002 8.39808 14.4611 9.21855 15.2816C10.039 16.1021 10.5 17.2149 10.5 18.3752C10.5 19.5355 10.039 20.6483 9.21855 21.4688C8.39808 22.2893 7.28528 22.7502 6.12496 22.7502Z" fill="white"/>
</g>
<defs>
<linearGradient id="paint0_linear_957_1175" x1="36" y1="31.5" x2="-2.79451" y2="8.98362" gradientUnits="userSpaceOnUse">
<stop stop-color="white"/>
<stop offset="1" stop-color="white" stop-opacity="0"/>
</linearGradient>
<clipPath id="clip0_957_1175">
<rect width="28" height="28" fill="white"/>
</clipPath>
</defs>
</svg>
