<svg width="28" height="28" viewBox="0 0 28 28" fill="none" xmlns="http://www.w3.org/2000/svg">
<path d="M18.8767 22.8665L16.5317 18.8065C17.675 17.9665 18.4684 16.6598 18.6317 15.1665H23.3334C23.237 16.7073 22.7844 18.2047 22.011 19.5409C21.2377 20.877 20.1648 22.0154 18.8767 22.8665ZM8.1667 14.5832C8.1667 15.3298 8.31837 16.0415 8.61003 16.6832L4.55003 19.0282C3.85566 17.6496 3.49594 16.1268 3.50003 14.5832C3.50003 9.29817 7.63003 4.9815 12.8334 4.6665V9.36817C10.2084 9.65984 8.1667 11.8765 8.1667 14.5832ZM13.4167 24.4998C9.9517 24.4998 6.9067 22.7498 5.13337 20.0432L9.19337 17.6982C9.67911 18.3619 10.3149 18.9012 11.0489 19.2723C11.7829 19.6434 12.5943 19.8355 13.4167 19.8332C14.1634 19.8332 14.875 19.6815 15.5167 19.3898L17.8617 23.4498C16.52 24.1265 15.015 24.4998 13.4167 24.4998Z" fill="url(#paint0_linear_428_552)"/>
<path d="M15.1665 8.20167V3.5C20.1832 3.80333 24.1965 7.81667 24.4998 12.8333H19.7982C19.6679 11.6497 19.138 10.5458 18.296 9.70382C17.454 8.86181 16.3501 8.33196 15.1665 8.20167Z" fill="white"/>
<defs>
<linearGradient id="paint0_linear_428_552" x1="28.5833" y1="32.6665" x2="-11.5926" y2="14.7413" gradientUnits="userSpaceOnUse">
<stop stop-color="white"/>
<stop offset="1" stop-color="white" stop-opacity="0"/>
</linearGradient>
</defs>
</svg>
