<svg width="28" height="28" viewBox="0 0 28 28" fill="none" xmlns="http://www.w3.org/2000/svg">
<path d="M2.33325 11.7077C2.33325 8.46258 4.96292 5.8335 8.20742 5.8335H12.7924C16.0375 5.8335 18.6666 8.46316 18.6666 11.7077C18.6666 14.951 16.0369 17.5812 12.7924 17.5812H9.33325V20.4168C9.33325 20.4168 2.33325 18.9993 2.33325 11.7077Z" fill="url(#paint0_linear_428_491)"/>
<path d="M14.2781 18.5891C15.1524 19.4305 16.3191 19.8998 17.5325 19.8981H19.2498V22.1667C19.2498 22.1667 25.6665 21.0327 25.6665 15.1993C25.6665 13.9531 25.1715 12.7579 24.2903 11.8766C23.4091 10.9953 22.214 10.5002 20.9677 10.5H19.6786C19.7795 10.8827 19.8332 11.2846 19.8332 11.6993C19.8332 15.0792 17.4532 17.9037 14.2781 18.5891Z" fill="white"/>
<defs>
<linearGradient id="paint0_linear_428_491" x1="20.9124" y1="22.2397" x2="4.30092" y2="-5.20812" gradientUnits="userSpaceOnUse">
<stop stop-color="white"/>
<stop offset="1" stop-color="white" stop-opacity="0"/>
</linearGradient>
</defs>
</svg>
