<svg width="28" height="28" viewBox="0 0 28 28" fill="none" xmlns="http://www.w3.org/2000/svg">
<path d="M12.1017 10.1346C11.7097 9.85876 11.4297 9.84896 11.1945 9.92036C11.1287 9.94403 11.0654 9.97404 11.0055 10.01L6.6193 12.642C6.30845 12.8285 6.05121 13.0924 5.8726 13.4079C5.694 13.7234 5.60012 14.0798 5.6001 14.4424V23.1C5.6001 23.6569 5.82135 24.1911 6.21517 24.5849C6.609 24.9787 7.14314 25.2 7.7001 25.2H12.6001V11.2056C12.6003 11.0015 12.5558 10.7998 12.4697 10.6148C12.3835 10.4298 12.258 10.2658 12.1017 10.1346ZM21.7001 12.6V12.6056H20.3001C19.7431 12.6056 19.209 12.8268 18.8152 13.2206C18.4213 13.6145 18.2001 14.1486 18.2001 14.7056V25.2H23.1001C23.6571 25.2 24.1912 24.9787 24.585 24.5849C24.9788 24.1911 25.2001 23.6569 25.2001 23.1V14.7C25.2001 14.143 24.9788 13.6089 24.585 13.215C24.1912 12.8212 23.6571 12.6 23.1001 12.6H21.7001Z" fill="url(#paint0_linear_957_1171)"/>
<path d="M15.4002 2.7998C15.5858 2.7998 15.7639 2.87355 15.8952 3.00483C16.0264 3.13611 16.1002 3.31415 16.1002 3.4998V5.5998L17.5002 5.6012C18.0571 5.6012 18.5913 5.82245 18.9851 6.21628C19.3789 6.61011 19.6002 7.14425 19.6002 7.7012V11.2754C18.8096 11.4368 18.0991 11.8663 17.5889 12.4914C17.0786 13.1164 16.8 13.8985 16.8002 14.7054V25.1998H14.0002V11.2054C14.0002 10.4628 13.7052 9.75061 13.1801 9.22551C12.655 8.7004 11.9428 8.40541 11.2002 8.40541V7.7012C11.2002 7.14425 11.4214 6.61011 11.8153 6.21628C12.2091 5.82245 12.7432 5.6012 13.3002 5.6012H14.7002V3.4998C14.7002 3.31415 14.7739 3.13611 14.9052 3.00483C15.0365 2.87355 15.2145 2.7998 15.4002 2.7998Z" fill="white"/>
<defs>
<linearGradient id="paint0_linear_957_1171" x1="30.5" y1="31.5" x2="-2.1315" y2="11.1159" gradientUnits="userSpaceOnUse">
<stop stop-color="white"/>
<stop offset="1" stop-color="white" stop-opacity="0"/>
</linearGradient>
</defs>
</svg>
