<svg width="28" height="28" viewBox="0 0 28 28" fill="none" xmlns="http://www.w3.org/2000/svg">
<path d="M13.9998 2.3335C12.4678 2.3335 10.9507 2.63526 9.5352 3.22157C8.11974 3.80787 6.83362 4.66723 5.75026 5.75058C3.56234 7.93851 2.33318 10.906 2.33318 14.0002C2.32298 16.6942 3.25577 19.3068 4.96984 21.3852L2.63651 23.7185C2.47463 23.8826 2.36496 24.0909 2.32136 24.3172C2.27776 24.5435 2.30217 24.7777 2.39151 24.9902C2.48841 25.2001 2.6455 25.3765 2.84283 25.4969C3.04016 25.6174 3.26884 25.6766 3.49984 25.6668H13.9998C17.094 25.6668 20.0615 24.4377 22.2494 22.2497C24.4373 20.0618 25.6665 17.0944 25.6665 14.0002C25.6665 10.906 24.4373 7.93851 22.2494 5.75058C20.0615 3.56266 17.094 2.3335 13.9998 2.3335Z" fill="url(#paint0_linear_428_541)"/>
<path d="M13.9998 9.74168C13.3332 9.3999 12.5762 9.27573 11.8353 9.38665C11.0945 9.49757 10.4071 9.83799 9.86978 10.36C9.21434 11.0163 8.84619 11.9058 8.84619 12.8333C8.84619 13.7608 9.21434 14.6504 9.86978 15.3067L13.1714 18.6667C13.2799 18.776 13.4089 18.8628 13.5511 18.922C13.6933 18.9813 13.8458 19.0118 13.9998 19.0118C14.1538 19.0118 14.3063 18.9813 14.4485 18.922C14.5906 18.8628 14.7197 18.776 14.8281 18.6667L18.1298 15.365C18.7852 14.7088 19.1534 13.8192 19.1534 12.8917C19.1534 11.9642 18.7852 11.0746 18.1298 10.4183C17.5992 9.8868 16.915 9.53548 16.1739 9.41405C15.4328 9.29262 14.6722 9.40723 13.9998 9.74168Z" fill="white"/>
<defs>
<linearGradient id="paint0_linear_428_541" x1="31.5" y1="36.1668" x2="-11.7224" y2="17.9738" gradientUnits="userSpaceOnUse">
<stop stop-color="white"/>
<stop offset="1" stop-color="white" stop-opacity="0"/>
</linearGradient>
</defs>
</svg>
