<svg width="28" height="28" viewBox="0 0 28 28" fill="none" xmlns="http://www.w3.org/2000/svg">
<path d="M6.12492 4.6665C5.11931 4.6665 4.15488 5.06598 3.44381 5.77706C2.73273 6.48813 2.33325 7.45256 2.33325 8.45817V19.5415C2.33325 20.5471 2.73273 21.5115 3.44381 22.2226C4.15488 22.9337 5.11931 23.3332 6.12492 23.3332H13.0666C13.1599 23.1512 13.2836 22.9832 13.4318 22.835L14.6836 21.5832H11.0833V6.4165H21.8749C23.0019 6.4165 23.9166 7.33117 23.9166 8.45817V12.9627C24.5412 13.1052 25.1343 13.361 25.6666 13.7175V8.45817C25.6666 7.96024 25.5685 7.46719 25.378 7.00716C25.1874 6.54714 24.9081 6.12915 24.556 5.77706C24.2039 5.42497 23.786 5.14568 23.3259 4.95513C22.8659 4.76458 22.3728 4.6665 21.8749 4.6665H6.12492Z" fill="url(#paint0_linear_782_2631)"/>
<path d="M26.8333 18.0834C26.8333 19.1664 26.4031 20.205 25.6374 20.9707C24.8716 21.7365 23.833 22.1667 22.75 22.1667H21V23.3334C21 23.4881 20.9385 23.6365 20.8291 23.7459C20.7197 23.8553 20.5714 23.9167 20.4167 23.9167H19.25V25.0834C19.25 25.2381 19.1885 25.3865 19.0791 25.4959C18.9697 25.6053 18.8214 25.6667 18.6667 25.6667H17.5V26.2501C17.5 26.4048 17.4385 26.5531 17.3291 26.6625C17.2198 26.7719 17.0714 26.8334 16.9167 26.8334H14.875C14.6429 26.8334 14.4204 26.7412 14.2563 26.5771C14.0922 26.413 14 26.1905 14 25.9584V24.2784C14.0002 24.0464 14.0925 23.824 14.2567 23.6601L18.6317 19.2851C18.684 19.2327 18.7428 19.1873 18.8067 19.1497C18.6558 18.5885 18.6265 18.0016 18.7206 17.4282C18.8148 16.8547 19.0302 16.308 19.3526 15.8245C19.675 15.341 20.0968 14.9319 20.59 14.6244C21.0831 14.317 21.6362 14.1184 22.2123 14.0419C22.7883 13.9654 23.3741 14.0127 23.9304 14.1807C24.4867 14.3487 25.0007 14.6335 25.4382 15.016C25.8756 15.3986 26.2263 15.8701 26.4669 16.3991C26.7075 16.928 26.8324 17.5023 26.8333 18.0834ZM23.3333 18.6667C23.6428 18.6667 23.9395 18.5438 24.1583 18.325C24.3771 18.1062 24.5 17.8095 24.5 17.5001C24.5 17.1906 24.3771 16.8939 24.1583 16.6751C23.9395 16.4563 23.6428 16.3334 23.3333 16.3334C23.0239 16.3334 22.7272 16.4563 22.5084 16.6751C22.2896 16.8939 22.1667 17.1906 22.1667 17.5001C22.1667 17.8095 22.2896 18.1062 22.5084 18.325C22.7272 18.5438 23.0239 18.6667 23.3333 18.6667Z" fill="white"/>
<defs>
<linearGradient id="paint0_linear_782_2631" x1="28.8749" y1="25.6665" x2="10.3442" y2="-14.6708" gradientUnits="userSpaceOnUse">
<stop stop-color="white"/>
<stop offset="1" stop-color="white" stop-opacity="0"/>
</linearGradient>
</defs>
</svg>
