<svg width="28" height="28" viewBox="0 0 28 28" fill="none" xmlns="http://www.w3.org/2000/svg">
<path fill-rule="evenodd" clip-rule="evenodd" d="M12.6548 25.5898C6.84475 24.9225 2.33325 19.9887 2.33325 14.0002C2.33325 7.55666 7.55642 2.3335 13.9999 2.3335C20.4434 2.3335 25.6666 7.55666 25.6666 14.0002C25.6666 20.0167 21.8364 19.522 18.5663 19.0985C16.6786 18.8547 14.9788 18.6353 14.3056 19.7028C13.8448 20.4332 14.3429 21.3432 14.9531 21.9533C15.1343 22.1346 15.2781 22.3497 15.3762 22.5866C15.4743 22.8234 15.5248 23.0772 15.5248 23.3335C15.5248 23.5898 15.4743 23.8436 15.3762 24.0804C15.2781 24.3172 15.1343 24.5324 14.9531 24.7137C14.3429 25.3238 13.5123 25.689 12.6548 25.5898ZM12.9324 8.16683C12.9324 8.63096 12.748 9.07608 12.4199 9.40427C12.0917 9.73246 11.6465 9.91683 11.1824 9.91683C10.7183 9.91683 10.2732 9.73246 9.94498 9.40427C9.61679 9.07608 9.43242 8.63096 9.43242 8.16683C9.43242 7.7027 9.61679 7.25758 9.94498 6.92939C10.2732 6.6012 10.7183 6.41683 11.1824 6.41683C11.6465 6.41683 12.0917 6.6012 12.4199 6.92939C12.748 7.25758 12.9324 7.7027 12.9324 8.16683ZM7.58325 15.1668C8.04738 15.1668 8.4925 14.9825 8.82069 14.6543C9.14888 14.3261 9.33325 13.881 9.33325 13.4168C9.33325 12.9527 9.14888 12.5076 8.82069 12.1794C8.4925 11.8512 8.04738 11.6668 7.58325 11.6668C7.11912 11.6668 6.674 11.8512 6.34581 12.1794C6.01763 12.5076 5.83325 12.9527 5.83325 13.4168C5.83325 13.881 6.01763 14.3261 6.34581 14.6543C6.674 14.9825 7.11912 15.1668 7.58325 15.1668ZM20.4166 15.1668C20.8807 15.1668 21.3258 14.9825 21.654 14.6543C21.9822 14.3261 22.1666 13.881 22.1666 13.4168C22.1666 12.9527 21.9822 12.5076 21.654 12.1794C21.3258 11.8512 20.8807 11.6668 20.4166 11.6668C19.9525 11.6668 19.5073 11.8512 19.1791 12.1794C18.851 12.5076 18.6666 12.9527 18.6666 13.4168C18.6666 13.881 18.851 14.3261 19.1791 14.6543C19.5073 14.9825 19.9525 15.1668 20.4166 15.1668ZM16.9166 9.91683C17.1464 9.91683 17.374 9.87156 17.5863 9.78362C17.7986 9.69567 17.9915 9.56677 18.154 9.40427C18.3165 9.24176 18.4454 9.04885 18.5334 8.83653C18.6213 8.62421 18.6666 8.39664 18.6666 8.16683C18.6666 7.93702 18.6213 7.70945 18.5334 7.49713C18.4454 7.28481 18.3165 7.09189 18.154 6.92939C17.9915 6.76689 17.7986 6.63799 17.5863 6.55004C17.374 6.46209 17.1464 6.41683 16.9166 6.41683C16.4525 6.41683 16.0073 6.6012 15.6791 6.92939C15.351 7.25758 15.1666 7.7027 15.1666 8.16683C15.1666 8.63096 15.351 9.07608 15.6791 9.40427C16.0073 9.73246 16.4525 9.91683 16.9166 9.91683Z" fill="url(#paint0_linear_428_557)"/>
<path d="M12.4199 9.40443C12.748 9.07624 12.9324 8.63112 12.9324 8.16699C12.9324 7.70286 12.748 7.25774 12.4199 6.92956C12.0917 6.60137 11.6465 6.41699 11.1824 6.41699C10.7183 6.41699 10.2732 6.60137 9.94498 6.92956C9.61679 7.25774 9.43242 7.70286 9.43242 8.16699C9.43242 8.63112 9.61679 9.07624 9.94498 9.40443C10.2732 9.73262 10.7183 9.91699 11.1824 9.91699C11.6465 9.91699 12.0917 9.73262 12.4199 9.40443Z" fill="white"/>
<path d="M8.82069 14.6544C8.4925 14.9826 8.04738 15.167 7.58325 15.167C7.11912 15.167 6.674 14.9826 6.34581 14.6544C6.01763 14.3262 5.83325 13.8811 5.83325 13.417C5.83325 12.9529 6.01763 12.5077 6.34581 12.1796C6.674 11.8514 7.11912 11.667 7.58325 11.667C8.04738 11.667 8.4925 11.8514 8.82069 12.1796C9.14888 12.5077 9.33325 12.9529 9.33325 13.417C9.33325 13.8811 9.14888 14.3262 8.82069 14.6544Z" fill="white"/>
<path d="M21.654 14.6544C21.3258 14.9826 20.8807 15.167 20.4166 15.167C19.9525 15.167 19.5073 14.9826 19.1791 14.6544C18.851 14.3262 18.6666 13.8811 18.6666 13.417C18.6666 12.9529 18.851 12.5077 19.1791 12.1796C19.5073 11.8514 19.9525 11.667 20.4166 11.667C20.8807 11.667 21.3258 11.8514 21.654 12.1796C21.9822 12.5077 22.1666 12.9529 22.1666 13.417C22.1666 13.8811 21.9822 14.3262 21.654 14.6544Z" fill="white"/>
<path d="M17.5863 9.78378C17.374 9.87173 17.1464 9.91699 16.9166 9.91699C16.4525 9.91699 16.0073 9.73262 15.6791 9.40443C15.351 9.07624 15.1666 8.63112 15.1666 8.16699C15.1666 7.70286 15.351 7.25774 15.6791 6.92956C16.0073 6.60137 16.4525 6.41699 16.9166 6.41699C17.1464 6.41699 17.374 6.46226 17.5863 6.5502C17.7986 6.63815 17.9915 6.76705 18.154 6.92956C18.3165 7.09206 18.4454 7.28498 18.5334 7.4973C18.6213 7.70962 18.6666 7.93718 18.6666 8.16699C18.6666 8.39681 18.6213 8.62437 18.5334 8.83669C18.4454 9.04901 18.3165 9.24193 18.154 9.40443C17.9915 9.56693 17.7986 9.69584 17.5863 9.78378Z" fill="white"/>
<defs>
<linearGradient id="paint0_linear_428_557" x1="28.8749" y1="28.5151" x2="2.65657" y2="-10.1409" gradientUnits="userSpaceOnUse">
<stop stop-color="white"/>
<stop offset="1" stop-color="white" stop-opacity="0"/>
</linearGradient>
</defs>
</svg>
