<svg width="28" height="28" viewBox="0 0 28 28" fill="none" xmlns="http://www.w3.org/2000/svg">
<path d="M5.83325 15.3765V18.6548C5.83325 19.5065 6.29992 20.2998 7.04659 20.7081L12.8799 23.8931C13.5799 24.2781 14.4199 24.2781 15.1199 23.8931L20.9532 20.7081C21.6999 20.2998 22.1666 19.5065 22.1666 18.6548V15.3765L15.1199 19.2265C14.4199 19.6115 13.5799 19.6115 12.8799 19.2265L5.83325 15.3765Z" fill="white"/>
<path d="M12.8802 4.10666L3.04516 9.47333C2.24016 9.91666 2.24016 11.0833 3.04516 11.5267L12.8802 16.8933C13.5802 17.2783 14.4202 17.2783 15.1202 16.8933L24.5002 11.7717V18.6667C24.5002 19.3083 25.0252 19.8333 25.6668 19.8333C26.3085 19.8333 26.8335 19.3083 26.8335 18.6667V11.1883C26.8335 10.7567 26.6002 10.3717 26.2268 10.1617L15.1202 4.10666C14.7755 3.92282 14.3908 3.82666 14.0002 3.82666C13.6095 3.82666 13.2249 3.92282 12.8802 4.10666Z" fill="url(#paint0_linear_428_500)"/>
<defs>
<linearGradient id="paint0_linear_428_500" x1="30.1874" y1="21.8342" x2="16.6215" y2="-12.0541" gradientUnits="userSpaceOnUse">
<stop stop-color="white"/>
<stop offset="1" stop-color="white" stop-opacity="0"/>
</linearGradient>
</defs>
</svg>
