<svg width="28" height="28" viewBox="0 0 28 28" fill="none" xmlns="http://www.w3.org/2000/svg">
<path fill-rule="evenodd" clip-rule="evenodd" d="M7.58325 1.33301C7.94453 1.33301 8.27771 1.52787 8.45483 1.84275L13.7048 11.1761C13.879 11.4857 13.8758 11.8645 13.6965 12.1712C13.5171 12.4779 13.1885 12.6663 12.8333 12.6663H2.33325C1.97799 12.6663 1.6494 12.4779 1.47004 12.1712C1.29069 11.8645 1.2875 11.4857 1.46168 11.1761L6.71168 1.84275C6.8888 1.52787 7.22198 1.33301 7.58325 1.33301ZM16.993 2.99274C18.0557 1.93003 19.497 1.33301 20.9999 1.33301C22.5028 1.33301 23.9442 1.93003 25.0069 2.99274C26.0696 4.05544 26.6666 5.49678 26.6666 6.99967C26.6666 8.50257 26.0696 9.94391 25.0069 11.0066C23.9442 12.0693 22.5028 12.6663 20.9999 12.6663C19.497 12.6663 18.0557 12.0693 16.993 11.0066C15.9303 9.94391 15.3333 8.50257 15.3333 6.99967C15.3333 5.49678 15.9303 4.05544 16.993 2.99274ZM20.9999 3.33301C20.0275 3.33301 19.0948 3.71932 18.4072 4.40695C17.7196 5.09458 17.3333 6.02721 17.3333 6.99967C17.3333 7.97214 17.7196 8.90477 18.4072 9.5924C19.0948 10.28 20.0275 10.6663 20.9999 10.6663C21.9724 10.6663 22.905 10.28 23.5926 9.5924C24.2803 8.90477 24.6666 7.97213 24.6666 6.99967C24.6666 6.02722 24.2803 5.09458 23.5926 4.40695C22.905 3.71932 21.9724 3.33301 20.9999 3.33301ZM4.0431 10.6663H11.1234L7.58325 4.37274L4.0431 10.6663ZM15.3333 16.333C15.3333 15.7807 15.781 15.333 16.3333 15.333H25.6666C26.2189 15.333 26.6666 15.7807 26.6666 16.333V25.6663C26.6666 26.2186 26.2189 26.6663 25.6666 26.6663H16.3333C15.781 26.6663 15.3333 26.2186 15.3333 25.6663V16.333ZM17.3333 17.333V24.6663H24.6666V17.333H17.3333Z" fill="url(#paint0_linear_428_511)"/>
<path fill-rule="evenodd" clip-rule="evenodd" d="M1.62615 15.6259C2.01667 15.2354 2.64983 15.2354 3.04036 15.6259L6.99992 19.5855L10.9595 15.6259C11.35 15.2354 11.9832 15.2354 12.3737 15.6259C12.7642 16.0164 12.7642 16.6496 12.3737 17.0401L8.41413 20.9997L12.3737 24.9592C12.7642 25.3498 12.7642 25.9829 12.3737 26.3734C11.9832 26.764 11.35 26.764 10.9595 26.3734L6.99992 22.4139L3.04036 26.3734C2.64983 26.764 2.01667 26.764 1.62615 26.3734C1.23562 25.9829 1.23562 25.3498 1.62615 24.9592L5.58571 20.9997L1.62615 17.0401C1.23562 16.6496 1.23562 16.0164 1.62615 15.6259Z" fill="white"/>
<defs>
<linearGradient id="paint0_linear_428_511" x1="30.1499" y1="29.833" x2="-1.57405" y2="-13.5077" gradientUnits="userSpaceOnUse">
<stop stop-color="white"/>
<stop offset="1" stop-color="white" stop-opacity="0"/>
</linearGradient>
</defs>
</svg>
