<svg width="28" height="28" viewBox="0 0 28 28" fill="none" xmlns="http://www.w3.org/2000/svg">
<path d="M13.1834 2.63658L6.18341 5.26158C5.27341 5.61158 4.66675 6.47491 4.66675 7.45491V12.9382C4.66675 18.8299 8.64508 24.3249 14.0001 25.6666C19.3551 24.3249 23.3334 18.8299 23.3334 12.9382V7.45491C23.3326 6.98015 23.1869 6.51694 22.9159 6.12711C22.6449 5.73729 22.2615 5.43941 21.8167 5.27325L14.8167 2.64825C14.2917 2.43825 13.7084 2.43825 13.1834 2.63658Z" fill="url(#paint0_linear_428_527)"/>
<path d="M12.2499 15.1667H11.0833C10.1149 15.1667 9.33325 14.385 9.33325 13.4167C9.33325 12.4483 10.1149 11.6667 11.0833 11.6667H12.2499V10.5C12.2499 9.53167 13.0316 8.75 13.9999 8.75C14.9683 8.75 15.7499 9.53167 15.7499 10.5V11.6667H16.9166C17.8849 11.6667 18.6666 12.4483 18.6666 13.4167C18.6666 14.385 17.8849 15.1667 16.9166 15.1667H15.7499V16.3333C15.7499 17.3017 14.9683 18.0833 13.9999 18.0833C13.0316 18.0833 12.2499 17.3017 12.2499 16.3333V15.1667Z" fill="white"/>
<defs>
<linearGradient id="paint0_linear_428_527" x1="25.9001" y1="28.5637" x2="-5.58153" y2="-1.18" gradientUnits="userSpaceOnUse">
<stop stop-color="white"/>
<stop offset="1" stop-color="white" stop-opacity="0"/>
</linearGradient>
</defs>
</svg>
