<svg width="28" height="28" viewBox="0 0 28 28" fill="none" xmlns="http://www.w3.org/2000/svg">
<path d="M13.9999 8.16667C13.9999 9.40434 13.5083 10.5913 12.6331 11.4665C11.7579 12.3417 10.5709 12.8333 9.33325 12.8333C8.09557 12.8333 6.90859 12.3417 6.03342 11.4665C5.15825 10.5913 4.66659 9.40434 4.66659 8.16667C4.66659 6.92899 5.15825 5.742 6.03342 4.86683C6.90859 3.99167 8.09557 3.5 9.33325 3.5C10.5709 3.5 11.7579 3.99167 12.6331 4.86683C13.5083 5.742 13.9999 6.92899 13.9999 8.16667ZM23.3333 9.33333C23.3333 10.2616 22.9645 11.1518 22.3081 11.8082C21.6517 12.4646 20.7615 12.8333 19.8333 12.8333C18.905 12.8333 18.0148 12.4646 17.3584 11.8082C16.702 11.1518 16.3333 10.2616 16.3333 9.33333C16.3333 8.40508 16.702 7.51484 17.3584 6.85846C18.0148 6.20208 18.905 5.83333 19.8333 5.83333C20.7615 5.83333 21.6517 6.20208 22.3081 6.85846C22.9645 7.51484 23.3333 8.40508 23.3333 9.33333ZM2.33325 17.7917C2.33325 17.0955 2.60981 16.4278 3.1021 15.9355C3.59438 15.4432 4.26206 15.1667 4.95825 15.1667H13.7083C14.0769 15.1667 14.4281 15.2425 14.7466 15.3802C13.5115 16.7668 12.8303 18.5597 12.8333 20.4167C12.8325 21.1625 12.9418 21.9043 13.1576 22.6182C12.2009 23.0533 10.9549 23.3333 9.33325 23.3333C2.33325 23.3333 2.33325 18.0833 2.33325 18.0833V17.7917Z" fill="url(#paint0_linear_957_1173)"/>
<path d="M20.4178 26.8357C21.8258 26.8353 23.1946 26.372 24.3133 25.517C25.432 24.6621 26.2385 23.463 26.6085 22.1045C26.9785 20.746 26.8915 19.3035 26.3609 17.9993C25.8304 16.6951 24.8856 15.6016 23.6723 14.8873C22.459 14.173 21.0444 13.8775 19.6466 14.0463C18.2487 14.2152 16.9452 14.839 15.9369 15.8217C14.9286 16.8044 14.2714 18.0915 14.0667 19.4845C13.8619 20.8775 14.1209 22.2992 14.8038 23.5305L14.0268 26.0808C13.9957 26.1821 13.9927 26.2899 14.0182 26.3926C14.0438 26.4954 14.0968 26.5893 14.1716 26.6643C14.2464 26.7392 14.3402 26.7924 14.443 26.818C14.5457 26.8437 14.6535 26.8409 14.7548 26.81L17.3063 26.033C18.2279 26.5452 19.2896 26.8357 20.4178 26.8357ZM18.0844 19.8357C17.9296 19.8357 17.7811 19.7742 17.6716 19.6647C17.562 19.5551 17.5005 19.4066 17.5005 19.2518C17.5005 19.0969 17.562 18.9484 17.6716 18.8389C17.7811 18.7294 17.9296 18.6678 18.0844 18.6678H22.7511C22.9058 18.6678 23.0542 18.7293 23.1636 18.8387C23.273 18.9481 23.3344 19.0965 23.3344 19.2512C23.3344 19.4059 23.273 19.5543 23.1636 19.6637C23.0542 19.7731 22.9058 19.8345 22.7511 19.8345L18.0844 19.8357ZM20.4178 22.169H18.0844C17.9297 22.169 17.7814 22.1075 17.672 21.9982C17.5626 21.8888 17.5011 21.7404 17.5011 21.5857C17.5011 21.431 17.5626 21.2826 17.672 21.1732C17.7814 21.0638 17.9297 21.0023 18.0844 21.0023H20.4178C20.5725 21.0023 20.7209 21.0638 20.8303 21.1732C20.9397 21.2826 21.0011 21.431 21.0011 21.5857C21.0011 21.7404 20.9397 21.8888 20.8303 21.9982C20.7209 22.1075 20.5725 22.169 20.4178 22.169Z" fill="white"/>
<defs>
<linearGradient id="paint0_linear_957_1173" x1="29.5" y1="29.5" x2="-8.45774" y2="12.4949" gradientUnits="userSpaceOnUse">
<stop stop-color="white"/>
<stop offset="1" stop-color="white" stop-opacity="0"/>
</linearGradient>
</defs>
</svg>
