<svg width="28" height="28" viewBox="0 0 28 28" fill="none" xmlns="http://www.w3.org/2000/svg">
<path d="M21.0823 13.0497C21.8818 13.0263 22.6408 12.6923 23.1981 12.1185C23.7554 11.5446 24.0672 10.7762 24.0672 9.97627C24.0672 9.17635 23.7554 8.40792 23.1981 7.83409C22.6408 7.26026 21.8818 6.9262 21.0823 6.90283C20.2669 6.90295 19.485 7.22696 18.9085 7.80359C18.3321 8.38021 18.0083 9.16222 18.0084 9.97758C18.0085 10.7929 18.3325 11.5749 18.9091 12.1513C19.4858 12.7278 20.2678 13.0516 21.0831 13.0515L21.0823 13.0497ZM24.8273 14.9135C24.388 14.119 23.8508 13.4767 23.3118 13.0278C22.667 13.5055 21.8864 13.7646 21.084 13.7672C20.4225 13.7672 19.8065 13.5861 19.2675 13.286C19.7015 14.2423 19.9701 15.211 20.02 16.0772C20.1023 17.4037 19.6875 18.3872 18.858 18.8466C18.6802 18.9443 18.4869 19.0106 18.2866 19.0426C18.2368 19.3856 18.2026 19.7426 18.2026 20.1188C18.2026 22.2302 19.0208 23.9356 20.0296 23.9356C20.6369 23.9356 20.9396 23.3143 21.0831 22.3641C21.2258 23.3091 21.5276 23.9356 22.1331 23.9356C23.135 23.9356 23.9619 22.2293 23.9619 20.1206C23.9619 19.6455 23.9155 19.1931 23.8394 18.7731C24.2699 19.187 24.6846 19.3576 25.0801 19.1301C25.9613 18.6401 25.8475 16.7518 24.8264 14.9126L24.8273 14.9135ZM6.04277 13.0497C6.65047 13.0494 7.24444 12.8688 7.74956 12.531C8.25468 12.1931 8.64828 11.713 8.8806 11.1515C9.11292 10.5899 9.17353 9.97211 9.05476 9.37612C8.93599 8.78013 8.64317 8.23274 8.21334 7.80315C7.7835 7.37356 7.23594 7.08106 6.63989 6.96263C6.04383 6.8442 5.42604 6.90515 4.86463 7.13779C4.30321 7.37043 3.82338 7.76431 3.48579 8.26962C3.1482 8.77494 2.96802 9.369 2.96802 9.97671C2.96825 10.7921 3.29227 11.574 3.86885 12.1506C4.44542 12.7272 5.22736 13.0512 6.04277 13.0515V13.0497ZM8.26089 18.844C6.86789 18.0696 6.74014 15.7605 7.86189 13.2842C7.30743 13.599 6.68122 13.7656 6.04364 13.7681C5.20714 13.7681 4.44064 13.4881 3.81239 13.0278C3.27427 13.4758 2.73789 14.1181 2.29689 14.9117C1.27577 16.7527 1.16377 18.641 2.04577 19.1292C2.43952 19.355 2.85514 19.1861 3.28302 18.774C3.20443 19.2182 3.1649 19.6685 3.16489 20.1197C3.16489 22.2302 3.98302 23.9347 4.99189 23.9347C5.59914 23.9347 5.90189 23.3135 6.04539 22.3641C6.18977 23.3091 6.49164 23.9356 7.09539 23.9356C8.09902 23.9356 8.92414 22.2293 8.92414 20.1206C8.92414 19.7417 8.88914 19.3838 8.83927 19.0408C8.63676 19.0089 8.44134 18.942 8.26177 18.8431L8.26089 18.844Z" fill="url(#paint0_linear_957_1169)"/>
<path d="M18.4327 18.0835C19.5063 17.4867 19.3672 15.1872 18.1229 12.9437C17.5892 11.9777 16.9329 11.1955 16.2767 10.6486C15.492 11.231 14.5414 11.5468 13.5642 11.5498C12.5855 11.5477 11.6333 11.2318 10.8473 10.6486C10.1911 11.1955 9.53656 11.9786 9.00106 12.9437C7.75593 15.1863 7.61856 17.4867 8.69481 18.0835C9.17431 18.3565 9.68006 18.1517 10.2016 17.6495C10.1039 18.1906 10.055 18.7394 10.0554 19.2892C10.0554 21.86 11.0529 23.9372 12.2806 23.9372C13.0208 23.9372 13.3874 23.1803 13.5633 22.0227C13.7383 23.1725 14.1058 23.9372 14.8408 23.9372C16.0632 23.9372 17.0686 21.8591 17.0686 19.2892C17.0686 18.7117 17.0143 18.1605 16.9216 17.6503C17.4466 18.1535 17.9506 18.3617 18.4318 18.0852L18.4327 18.0835ZM13.5624 10.6748C14.0589 10.6823 14.5518 10.5909 15.0126 10.406C15.4734 10.2211 15.8928 9.94638 16.2465 9.59787C16.6001 9.24936 16.8809 8.83399 17.0725 8.37595C17.2641 7.9179 17.3626 7.42632 17.3625 6.92982C17.3623 6.43332 17.2634 5.94182 17.0715 5.48391C16.8795 5.02599 16.5985 4.61083 16.2446 4.26257C15.8907 3.9143 15.4711 3.6399 15.0102 3.45533C14.5493 3.27076 14.0562 3.17971 13.5598 3.18747C12.5768 3.20284 11.6393 3.6042 10.9498 4.30488C10.2602 5.00557 9.87387 5.94936 9.87422 6.93245C9.87456 7.91554 10.2615 8.85906 10.9516 9.55926C11.6417 10.2595 12.5795 10.6602 13.5624 10.6748Z" fill="white"/>
<defs>
<linearGradient id="paint0_linear_957_1169" x1="29.5" y1="28" x2="-5.07738" y2="7.05756" gradientUnits="userSpaceOnUse">
<stop stop-color="white"/>
<stop offset="1" stop-color="white" stop-opacity="0"/>
</linearGradient>
</defs>
</svg>
