<svg width="28" height="28" viewBox="0 0 28 28" fill="none" xmlns="http://www.w3.org/2000/svg">
<path fill-rule="evenodd" clip-rule="evenodd" d="M16.9167 3.2085C16.9167 2.97643 17.0089 2.75387 17.173 2.58978C17.3371 2.42568 17.5596 2.3335 17.7917 2.3335H24.7917C25.0237 2.3335 25.2463 2.42568 25.4104 2.58978C25.5745 2.75387 25.6667 2.97643 25.6667 3.2085V10.2085C25.6667 10.4406 25.5745 10.6631 25.4104 10.8272C25.2463 10.9913 25.0237 11.0835 24.7917 11.0835C24.5596 11.0835 24.3371 10.9913 24.173 10.8272C24.0089 10.6631 23.9167 10.4406 23.9167 10.2085V5.32016L16.0767 13.1602C15.9966 13.2461 15.9 13.3151 15.7926 13.3629C15.6853 13.4107 15.5694 13.4364 15.452 13.4385C15.3345 13.4406 15.2178 13.419 15.1088 13.375C14.9999 13.331 14.9009 13.2655 14.8178 13.1824C14.7347 13.0993 14.6692 13.0003 14.6252 12.8914C14.5812 12.7824 14.5596 12.6657 14.5617 12.5482C14.5637 12.4307 14.5894 12.3149 14.6373 12.2075C14.6851 12.1002 14.754 12.0036 14.84 11.9235L22.68 4.0835H17.7917C17.5596 4.0835 17.3371 3.99131 17.173 3.82721C17.0089 3.66312 16.9167 3.44056 16.9167 3.2085Z" fill="white"/>
<path d="M13.1252 3.2085C6.68166 3.2085 1.4585 8.43166 1.4585 14.8752C1.4585 21.3187 6.68166 26.5418 13.1252 26.5418C19.5687 26.5418 24.7918 21.3187 24.7918 14.8752C24.7918 14.1763 24.73 13.4927 24.6122 12.8277C23.9486 12.7821 23.327 12.4864 22.8731 12.0002C22.4192 11.514 22.1667 10.8736 22.1668 10.2085V9.54583L17.3147 14.398C16.8224 14.8903 16.1547 15.1668 15.4585 15.1668C14.7623 15.1668 14.0946 14.8903 13.6023 14.398C13.11 13.9057 12.8335 13.238 12.8335 12.5418C12.8335 11.8456 13.11 11.178 13.6023 10.6857L18.4545 5.8335H17.7918C17.1267 5.83358 16.4863 5.58115 16.0001 5.12723C15.5139 4.67331 15.2182 4.05175 15.1727 3.38816C14.4967 3.26845 13.8116 3.20833 13.1252 3.2085Z" fill="url(#paint0_linear_428_537)"/>
<defs>
<linearGradient id="paint0_linear_428_537" x1="29.5" y1="46.5" x2="-17.0437" y2="18.5048" gradientUnits="userSpaceOnUse">
<stop stop-color="white"/>
<stop offset="1" stop-color="white" stop-opacity="0"/>
</linearGradient>
</defs>
</svg>
