<svg width="28" height="28" viewBox="0 0 28 28" fill="none" xmlns="http://www.w3.org/2000/svg">
<path fill-rule="evenodd" clip-rule="evenodd" d="M8.45844 8.31852V8.75019H6.70728C6.45486 8.75003 6.21081 8.8407 6.01973 9.00565C5.82865 9.17059 5.70331 9.39878 5.66661 9.64852L5.41344 11.3904C4.91525 14.7905 4.91525 18.2452 5.41344 21.6454C5.52203 22.3858 5.87429 23.0689 6.41455 23.5868C6.9548 24.1047 7.65223 24.4277 8.39661 24.5049L9.13044 24.5819C12.3691 24.9179 15.6334 24.9179 18.8721 24.5819L19.6071 24.5049C20.3513 24.4274 21.0484 24.1043 21.5885 23.5865C22.1285 23.0686 22.4806 22.3856 22.5891 21.6454C23.0873 18.2452 23.0873 14.7905 22.5891 11.3904L22.3348 9.64852C22.2981 9.39878 22.1727 9.17059 21.9817 9.00565C21.7906 8.8407 21.5465 8.75003 21.2941 8.75019H19.5418V8.31852C19.5418 6.84878 18.9579 5.43924 17.9187 4.39997C16.8794 3.36071 15.4699 2.77686 14.0001 2.77686C12.5304 2.77686 11.1208 3.36071 10.0816 4.39997C9.0423 5.43924 8.45844 6.84878 8.45844 8.31852ZM14.9451 4.64702C14.385 4.50287 13.7993 4.48877 13.2329 4.6058C12.6665 4.72284 12.1343 4.96789 11.6772 5.32223C11.2201 5.67656 10.8501 6.13078 10.5955 6.65011C10.3409 7.16945 10.2085 7.74014 10.2084 8.31852V8.75019H17.7918V8.31852C17.7917 7.4775 17.5119 6.66038 16.9966 5.99573C16.4813 5.33108 15.7596 4.85663 14.9451 4.64702ZM10.2084 10.5002C10.2084 10.2681 10.1163 10.0456 9.95216 9.88147C9.78807 9.71738 9.56551 9.62519 9.33344 9.62519C9.10138 9.62519 8.87882 9.71738 8.71472 9.88147C8.55063 10.0456 8.45844 10.2681 8.45844 10.5002V12.8335C8.45844 13.0656 8.55063 13.2881 8.71472 13.4522C8.87882 13.6163 9.10138 13.7085 9.33344 13.7085C9.56551 13.7085 9.78807 13.6163 9.95216 13.4522C10.1163 13.2881 10.2084 13.0656 10.2084 12.8335V10.5002ZM19.5418 10.5002C19.5418 10.2681 19.4496 10.0456 19.2855 9.88147C19.1214 9.71738 18.8988 9.62519 18.6668 9.62519C18.4347 9.62519 18.2122 9.71738 18.0481 9.88147C17.884 10.0456 17.7918 10.2681 17.7918 10.5002V12.8335C17.7918 13.0656 17.884 13.2881 18.0481 13.4522C18.2122 13.6163 18.4347 13.7085 18.6668 13.7085C18.8988 13.7085 19.1214 13.6163 19.2855 13.4522C19.4496 13.2881 19.5418 13.0656 19.5418 12.8335V10.5002Z" fill="url(#paint0_linear_782_2634)"/>
<path fill-rule="evenodd" clip-rule="evenodd" d="M10.2083 10.5C10.2083 10.2679 10.1161 10.0454 9.95197 9.88128C9.78788 9.71719 9.56532 9.625 9.33325 9.625C9.10119 9.625 8.87863 9.71719 8.71453 9.88128C8.55044 10.0454 8.45825 10.2679 8.45825 10.5V12.8333C8.45825 13.0654 8.55044 13.288 8.71453 13.4521C8.87863 13.6161 9.10119 13.7083 9.33325 13.7083C9.56532 13.7083 9.78788 13.6161 9.95197 13.4521C10.1161 13.288 10.2083 13.0654 10.2083 12.8333V10.5ZM19.5416 10.5C19.5416 10.2679 19.4494 10.0454 19.2853 9.88128C19.1212 9.71719 18.8986 9.625 18.6666 9.625C18.4345 9.625 18.212 9.71719 18.0479 9.88128C17.8838 10.0454 17.7916 10.2679 17.7916 10.5V12.8333C17.7916 13.0654 17.8838 13.288 18.0479 13.4521C18.212 13.6161 18.4345 13.7083 18.6666 13.7083C18.8986 13.7083 19.1212 13.6161 19.2853 13.4521C19.4494 13.288 19.5416 13.0654 19.5416 12.8333V10.5Z" fill="white"/>
<defs>
<linearGradient id="paint0_linear_782_2634" x1="25.4271" y1="27.591" x2="-3.27279" y2="-1.81819" gradientUnits="userSpaceOnUse">
<stop stop-color="white"/>
<stop offset="1" stop-color="white" stop-opacity="0"/>
</linearGradient>
</defs>
</svg>
