<svg width="28" height="28" viewBox="0 0 28 28" fill="none" xmlns="http://www.w3.org/2000/svg">
<path d="M5.25 24.5002C4.76389 24.5002 4.3505 24.3299 4.00984 23.9892C3.66917 23.6486 3.49922 23.2356 3.5 22.7502V20.5336L8.16667 16.3919V24.5002H5.25ZM19.8333 24.5002V14.9336L14.8458 10.5002L18.375 7.37939L23.9167 12.3086C24.1111 12.4836 24.2569 12.6831 24.3542 12.9071C24.4514 13.1311 24.5 13.3691 24.5 13.6211V22.7502C24.5 23.2363 24.3297 23.6497 23.989 23.9904C23.6483 24.3311 23.2353 24.501 22.75 24.5002H19.8333Z" fill="white"/>
<path d="M9.33333 24.4998V19.8331H18.6667V24.4998H9.33333ZM3.5 18.9581V13.6206C3.5 13.3679 3.54861 13.1248 3.64583 12.8915C3.74306 12.6581 3.88889 12.4637 4.08333 12.3081L12.8333 4.5498C12.9889 4.39425 13.1689 4.28264 13.3735 4.21497C13.5781 4.1473 13.7869 4.11308 14 4.1123C14.2139 4.1123 14.4227 4.14653 14.6265 4.21497C14.8303 4.28342 15.0103 4.39503 15.1667 4.5498L17.5 6.62064L3.5 18.9581Z" fill="url(#paint0_linear_428_523)"/>
<defs>
<linearGradient id="paint0_linear_428_523" x1="20.7521" y1="27.0482" x2="-11.2021" y2="-6.04598" gradientUnits="userSpaceOnUse">
<stop stop-color="white"/>
<stop offset="1" stop-color="white" stop-opacity="0"/>
</linearGradient>
</defs>
</svg>
