<svg width="28" height="28" viewBox="0 0 28 28" fill="none" xmlns="http://www.w3.org/2000/svg">
<path d="M19.4555 2.33398H8.55621C4.58436 2.33398 2.33398 4.58436 2.33398 8.55621V19.4451C2.33398 23.4169 4.58436 25.6673 8.55621 25.6673H19.4555C23.4273 25.6673 25.6673 23.4169 25.6673 19.4451V8.55621C25.6673 4.58436 23.4273 2.33398 19.4555 2.33398Z" fill="url(#paint0_linear_428_561)"/>
<path fill-rule="evenodd" clip-rule="evenodd" d="M14.0431 7.10352C13.5142 7.10352 13.0786 7.53907 13.0786 8.07833V19.9213C13.0786 20.4502 13.5142 20.8857 14.0431 20.8857C14.5823 20.8857 15.0179 20.4502 15.0179 19.9213V8.07833C15.0179 7.53907 14.5823 7.10352 14.0431 7.10352ZM8.59823 10.9312C8.06934 10.9312 7.63379 11.3668 7.63379 11.906V19.9223C7.63379 20.4512 8.06934 20.8868 8.59823 20.8868C9.13749 20.8868 9.57305 20.4512 9.57305 19.9223V11.906C9.57305 11.3668 9.13749 10.9312 8.59823 10.9312ZM18.4414 16.1356C18.4414 15.5964 18.877 15.1608 19.4162 15.1608C19.9451 15.1608 20.3807 15.5964 20.3807 16.1356V19.9208C20.3807 20.4497 19.9451 20.8853 19.4059 20.8853C18.877 20.8853 18.4414 20.4497 18.4414 19.9208V16.1356Z" fill="white"/>
<defs>
<linearGradient id="paint0_linear_428_561" x1="28.8757" y1="28.584" x2="6.18547" y2="1.99873" gradientUnits="userSpaceOnUse">
<stop stop-color="white"/>
<stop offset="1" stop-color="white" stop-opacity="0"/>
</linearGradient>
</defs>
</svg>
