<svg width="28" height="28" viewBox="0 0 28 28" fill="none" xmlns="http://www.w3.org/2000/svg">
<path d="M3.0625 4.375C2.7144 4.375 2.38056 4.51328 2.13442 4.75942C1.88828 5.00556 1.75 5.3394 1.75 5.6875C1.75 6.0356 1.88828 6.36944 2.13442 6.61558C2.38056 6.86172 2.7144 7 3.0625 7H11.8125C12.1606 7 12.4944 6.86172 12.7406 6.61558C12.9867 6.36944 13.125 6.0356 13.125 5.6875C13.125 5.3394 12.9867 5.00556 12.7406 4.75942C12.4944 4.51328 12.1606 4.375 11.8125 4.375H3.0625ZM8.3125 9.625C7.9644 9.625 7.63056 9.76328 7.38442 10.0094C7.13828 10.2556 7 10.5894 7 10.9375C7 11.2856 7.13828 11.6194 7.38442 11.8656C7.63056 12.1117 7.9644 12.25 8.3125 12.25H14.4375C14.7856 12.25 15.1194 12.1117 15.3656 11.8656C15.6117 11.6194 15.75 11.2856 15.75 10.9375C15.75 10.5894 15.6117 10.2556 15.3656 10.0094C15.1194 9.76328 14.7856 9.625 14.4375 9.625H8.3125ZM3.0625 20.125C2.7144 20.125 2.38056 20.2633 2.13442 20.5094C1.88828 20.7556 1.75 21.0894 1.75 21.4375C1.75 21.7856 1.88828 22.1194 2.13442 22.3656C2.38056 22.6117 2.7144 22.75 3.0625 22.75H15.3125C15.6606 22.75 15.9944 22.6117 16.2406 22.3656C16.4867 22.1194 16.625 21.7856 16.625 21.4375C16.625 21.0894 16.4867 20.7556 16.2406 20.5094C15.9944 20.2633 15.6606 20.125 15.3125 20.125H3.0625ZM17.0625 4.375C16.7144 4.375 16.3806 4.51328 16.1344 4.75942C15.8883 5.00556 15.75 5.3394 15.75 5.6875C15.75 6.0356 15.8883 6.36944 16.1344 6.61558C16.3806 6.86172 16.7144 7 17.0625 7H24.9375C25.2856 7 25.6194 6.86172 25.8656 6.61558C26.1117 6.36944 26.25 6.0356 26.25 5.6875C26.25 5.3394 26.1117 5.00556 25.8656 4.75942C25.6194 4.51328 25.2856 4.375 24.9375 4.375H17.0625Z" fill="url(#paint0_linear_428_533)"/>
<path d="M5.25 16.1875C5.25 15.8394 5.38828 15.5056 5.63442 15.2594C5.88056 15.0133 6.2144 14.875 6.5625 14.875H19.6875C20.0356 14.875 20.3694 15.0133 20.6156 15.2594C20.8617 15.5056 21 15.8394 21 16.1875C21 16.5356 20.8617 16.8694 20.6156 17.1156C20.3694 17.3617 20.0356 17.5 19.6875 17.5H6.5625C6.2144 17.5 5.88056 17.3617 5.63442 17.1156C5.38828 16.8694 5.25 16.5356 5.25 16.1875ZM18.375 10.9375C18.375 10.5894 18.5133 10.2556 18.7594 10.0094C19.0056 9.76328 19.3394 9.625 19.6875 9.625H23.1875C23.5356 9.625 23.8694 9.76328 24.1156 10.0094C24.3617 10.2556 24.5 10.5894 24.5 10.9375C24.5 11.2856 24.3617 11.6194 24.1156 11.8656C23.8694 12.1117 23.5356 12.25 23.1875 12.25H19.6875C19.3394 12.25 19.0056 12.1117 18.7594 11.8656C18.5133 11.6194 18.375 11.2856 18.375 10.9375Z" fill="white"/>
<defs>
<linearGradient id="paint0_linear_428_533" x1="28.5" y1="28.5" x2="10.2097" y2="-14.8407" gradientUnits="userSpaceOnUse">
<stop stop-color="white"/>
<stop offset="1" stop-color="white" stop-opacity="0"/>
</linearGradient>
</defs>
</svg>
