<svg width="28" height="28" viewBox="0 0 28 28" fill="none" xmlns="http://www.w3.org/2000/svg">
<path fill-rule="evenodd" clip-rule="evenodd" d="M18.1999 4.2002V5.9782C18.1999 6.25667 18.3105 6.52374 18.5074 6.72066C18.7044 6.91757 18.9714 7.0282 19.2499 7.0282C19.5284 7.0282 19.7955 6.91757 19.9924 6.72066C20.1893 6.52374 20.2999 6.25667 20.2999 5.9782V4.2002H23.4499C23.8636 4.2002 24.2732 4.28167 24.6554 4.43997C25.0375 4.59828 25.3848 4.8303 25.6773 5.12281C25.9698 5.41531 26.2018 5.76257 26.3601 6.14474C26.5184 6.52692 26.5999 6.93653 26.5999 7.3502V11.0294C26.5999 11.2465 26.5325 11.4583 26.4072 11.6355C26.2818 11.8128 26.1046 11.9468 25.8999 12.0192C25.4897 12.1635 25.1344 12.4316 24.8831 12.7864C24.6318 13.1413 24.4968 13.5654 24.4968 14.0002C24.4968 14.435 24.6318 14.8591 24.8831 15.214C25.1344 15.5688 25.4897 15.8369 25.8999 15.9812C26.3199 16.1296 26.5999 16.5272 26.5999 16.971V20.6502C26.5999 21.0639 26.5184 21.4735 26.3601 21.8556C26.2018 22.2378 25.9698 22.5851 25.6773 22.8776C25.3848 23.1701 25.0375 23.4021 24.6554 23.5604C24.2732 23.7187 23.8636 23.8002 23.4499 23.8002H20.2999V22.0222C20.2999 21.7437 20.1893 21.4766 19.9924 21.2797C19.7955 21.0828 19.5284 20.9722 19.2499 20.9722C18.9714 20.9722 18.7044 21.0828 18.5074 21.2797C18.3105 21.4766 18.1999 21.7437 18.1999 22.0222V23.8002H4.5499C3.71447 23.8002 2.91326 23.4683 2.32252 22.8776C1.73178 22.2868 1.3999 21.4856 1.3999 20.6502V16.971C1.3999 16.5258 1.6799 16.1296 2.0999 15.9812C2.5101 15.8369 2.86538 15.5688 3.11671 15.214C3.36804 14.8591 3.50302 14.435 3.50302 14.0002C3.50302 13.5654 3.36804 13.1413 3.11671 12.7864C2.86538 12.4316 2.5101 12.1635 2.0999 12.0192C1.89521 11.9468 1.71798 11.8128 1.59262 11.6355C1.46726 11.4583 1.39993 11.2465 1.3999 11.0294V7.3502C1.3999 6.51476 1.73178 5.71355 2.32252 5.12281C2.91326 4.53207 3.71447 4.2002 4.5499 4.2002H18.1999ZM20.2999 10.3546C20.2999 10.0761 20.1893 9.80905 19.9924 9.61213C19.7955 9.41522 19.5284 9.3046 19.2499 9.3046C18.9714 9.3046 18.7044 9.41522 18.5074 9.61213C18.3105 9.80905 18.1999 10.0761 18.1999 10.3546V11.8134C18.1999 12.0919 18.3105 12.3589 18.5074 12.5559C18.7044 12.7528 18.9714 12.8634 19.2499 12.8634C19.5284 12.8634 19.7955 12.7528 19.9924 12.5559C20.1893 12.3589 20.2999 12.0919 20.2999 11.8134V10.3546ZM20.2999 16.1884C20.2999 15.9099 20.1893 15.6428 19.9924 15.4459C19.7955 15.249 19.5284 15.1384 19.2499 15.1384C18.9714 15.1384 18.7044 15.249 18.5074 15.4459C18.3105 15.6428 18.1999 15.9099 18.1999 16.1884V17.6458C18.1999 17.9243 18.3105 18.1913 18.5074 18.3883C18.7044 18.5852 18.9714 18.6958 19.2499 18.6958C19.5284 18.6958 19.7955 18.5852 19.9924 18.3883C20.1893 18.1913 20.2999 17.9243 20.2999 17.6458V16.1884ZM8.3999 15.0502C8.3999 14.7717 8.51053 14.5046 8.70744 14.3077C8.90435 14.1108 9.17143 14.0002 9.4499 14.0002H14.3499C14.6284 14.0002 14.8955 14.1108 15.0924 14.3077C15.2893 14.5046 15.3999 14.7717 15.3999 15.0502C15.3999 15.3287 15.2893 15.5957 15.0924 15.7927C14.8955 15.9896 14.6284 16.1002 14.3499 16.1002H9.4499C9.17143 16.1002 8.90435 15.9896 8.70744 15.7927C8.51053 15.5957 8.3999 15.3287 8.3999 15.0502ZM8.3999 18.5502C8.3999 18.2717 8.51053 18.0046 8.70744 17.8077C8.90435 17.6108 9.17143 17.5002 9.4499 17.5002H11.5499C11.8284 17.5002 12.0955 17.6108 12.2924 17.8077C12.4893 18.0046 12.5999 18.2717 12.5999 18.5502C12.5999 18.8287 12.4893 19.0957 12.2924 19.2927C12.0955 19.4896 11.8284 19.6002 11.5499 19.6002H9.4499C9.17143 19.6002 8.90435 19.4896 8.70744 19.2927C8.51053 19.0957 8.3999 18.8287 8.3999 18.5502Z" fill="url(#paint0_linear_782_2624)"/>
<path fill-rule="evenodd" clip-rule="evenodd" d="M20.2999 10.3546C20.2999 10.0761 20.1893 9.80905 19.9924 9.61213C19.7955 9.41522 19.5284 9.30459 19.2499 9.30459C18.9714 9.30459 18.7044 9.41522 18.5074 9.61213C18.3105 9.80905 18.1999 10.0761 18.1999 10.3546V11.8134C18.1999 12.0919 18.3105 12.3589 18.5074 12.5559C18.7044 12.7528 18.9714 12.8634 19.2499 12.8634C19.5284 12.8634 19.7955 12.7528 19.9924 12.5559C20.1893 12.3589 20.2999 12.0919 20.2999 11.8134V10.3546ZM20.2999 16.1884C20.2999 15.9099 20.1893 15.6428 19.9924 15.4459C19.7955 15.249 19.5284 15.1384 19.2499 15.1384C18.9714 15.1384 18.7044 15.249 18.5074 15.4459C18.3105 15.6428 18.1999 15.9099 18.1999 16.1884V17.6458C18.1999 17.9243 18.3105 18.1913 18.5074 18.3883C18.7044 18.5852 18.9714 18.6958 19.2499 18.6958C19.5284 18.6958 19.7955 18.5852 19.9924 18.3883C20.1893 18.1913 20.2999 17.9243 20.2999 17.6458V16.1884ZM8.3999 15.0502C8.3999 14.7717 8.51053 14.5046 8.70744 14.3077C8.90435 14.1108 9.17142 14.0002 9.4499 14.0002H14.3499C14.6284 14.0002 14.8955 14.1108 15.0924 14.3077C15.2893 14.5046 15.3999 14.7717 15.3999 15.0502C15.3999 15.3287 15.2893 15.5957 15.0924 15.7927C14.8955 15.9896 14.6284 16.1002 14.3499 16.1002H9.4499C9.17142 16.1002 8.90435 15.9896 8.70744 15.7927C8.51053 15.5957 8.3999 15.3287 8.3999 15.0502ZM8.3999 18.5502C8.3999 18.2717 8.51053 18.0046 8.70744 17.8077C8.90435 17.6108 9.17142 17.5002 9.4499 17.5002H11.5499C11.8284 17.5002 12.0955 17.6108 12.2924 17.8077C12.4893 18.0046 12.5999 18.2717 12.5999 18.5502C12.5999 18.8287 12.4893 19.0957 12.2924 19.2927C12.0955 19.4896 11.8284 19.6002 11.5499 19.6002H9.4499C9.17142 19.6002 8.90435 19.4896 8.70744 19.2927C8.51053 19.0957 8.3999 18.8287 8.3999 18.5502Z" fill="white"/>
<defs>
<linearGradient id="paint0_linear_782_2624" x1="30.0649" y1="26.2502" x2="9.77291" y2="-13.3085" gradientUnits="userSpaceOnUse">
<stop stop-color="white"/>
<stop offset="1" stop-color="white" stop-opacity="0"/>
</linearGradient>
</defs>
</svg>
