<svg width="28" height="28" viewBox="0 0 28 28" fill="none" xmlns="http://www.w3.org/2000/svg">
<path d="M11.5938 13.8053C12.8641 14.636 14.32 15.1399 15.832 15.272L14.5895 17.7592C12.7932 17.4418 11.0942 16.7142 9.625 15.633C7.59903 17.1316 5.14504 17.9395 2.625 17.9375C2.2769 17.9375 1.94306 17.7992 1.69692 17.5531C1.45078 17.3069 1.3125 16.9731 1.3125 16.625C1.3125 16.2769 1.45078 15.9431 1.69692 15.6969C1.94306 15.4508 2.2769 15.3125 2.625 15.3125C4.41322 15.314 6.16257 14.7907 7.65625 13.8075C6.9392 12.9746 6.34241 12.0454 5.88328 11.0469C5.8066 10.8896 5.76215 10.7186 5.75253 10.5438C5.74291 10.3691 5.76833 10.1943 5.82728 10.0295C5.88623 9.86476 5.97753 9.71346 6.09581 9.58451C6.21409 9.45556 6.35696 9.35157 6.51602 9.27864C6.67507 9.20571 6.84711 9.16532 7.022 9.15985C7.19689 9.15438 7.37112 9.18393 7.53442 9.24678C7.69773 9.30962 7.84682 9.40448 7.97293 9.52578C8.09903 9.64709 8.19961 9.79238 8.26875 9.95312C8.62173 10.7174 9.07809 11.4295 9.625 12.0695C10.7457 10.754 11.4711 9.14807 11.7173 7.4375H2.625C2.2769 7.4375 1.94306 7.29922 1.69692 7.05308C1.45078 6.80694 1.3125 6.4731 1.3125 6.125C1.3125 5.7769 1.45078 5.44306 1.69692 5.19692C1.94306 4.95078 2.2769 4.8125 2.625 4.8125H8.3125V3.5C8.3125 3.1519 8.45078 2.81806 8.69692 2.57192C8.94306 2.32578 9.2769 2.1875 9.625 2.1875C9.9731 2.1875 10.3069 2.32578 10.5531 2.57192C10.7992 2.81806 10.9375 3.1519 10.9375 3.5V4.8125H16.625C16.9731 4.8125 17.3069 4.95078 17.5531 5.19692C17.7992 5.44306 17.9375 5.7769 17.9375 6.125C17.9375 6.4731 17.7992 6.80694 17.5531 7.05308C17.3069 7.29922 16.9731 7.4375 16.625 7.4375H14.3642C14.103 9.79066 13.1374 12.0101 11.5938 13.8053Z" fill="white"/>
<path fill-rule="evenodd" clip-rule="evenodd" d="M26.5487 23.0378L20.4237 10.7878C20.3146 10.57 20.1471 10.3868 19.9398 10.2588C19.7326 10.1308 19.4937 10.063 19.2501 10.063C19.0065 10.063 18.7677 10.1308 18.5604 10.2588C18.3532 10.3868 18.1856 10.57 18.0765 10.7878L15.8322 15.2722L14.5897 17.7594L11.9504 23.0378C11.8684 23.1925 11.8181 23.3619 11.8026 23.5362C11.787 23.7106 11.8065 23.8863 11.8598 24.053C11.9131 24.2197 11.9993 24.374 12.1132 24.5069C12.227 24.6398 12.3663 24.7486 12.5229 24.8269C12.6794 24.9052 12.8501 24.9513 13.0247 24.9627C13.1994 24.9741 13.3745 24.9504 13.5399 24.893C13.7053 24.8357 13.8575 24.7458 13.9876 24.6288C14.1177 24.5117 14.2232 24.3698 14.2976 24.2114L15.6856 21.4377H22.8136L24.2004 24.2114C24.2775 24.3656 24.3842 24.5031 24.5144 24.6161C24.6446 24.7291 24.7957 24.8153 24.9593 24.8698C25.1228 24.9243 25.2954 24.9461 25.4674 24.934C25.6393 24.9218 25.8072 24.8758 25.9614 24.7988C26.1156 24.7217 26.2531 24.615 26.366 24.4848C26.479 24.3546 26.5652 24.2035 26.6197 24.0399C26.6743 23.8764 26.6961 23.7038 26.6839 23.5318C26.6717 23.3599 26.6258 23.192 26.5487 23.0378ZM19.2501 14.3096L16.998 18.8125H21.501L19.2501 14.3096Z" fill="url(#paint0_linear_782_2658)"/>
<defs>
<linearGradient id="paint0_linear_782_2658" x1="26" y1="26" x2="-1.65875" y2="11.3716" gradientUnits="userSpaceOnUse">
<stop stop-color="white"/>
<stop offset="1" stop-color="white" stop-opacity="0"/>
</linearGradient>
</defs>
</svg>
