<svg width="28" height="28" viewBox="0 0 28 28" fill="none" xmlns="http://www.w3.org/2000/svg">
<path d="M14 16.3335C13.0278 16.3335 12.2014 15.9932 11.5208 15.3127C10.8403 14.6321 10.5 13.8057 10.5 12.8335V5.8335C10.5 4.86127 10.8403 4.03488 11.5208 3.35433C12.2014 2.67377 13.0278 2.3335 14 2.3335C14.9722 2.3335 15.7986 2.67377 16.4792 3.35433C17.1597 4.03488 17.5 4.86127 17.5 5.8335V12.8335C17.5 13.8057 17.1597 14.6321 16.4792 15.3127C15.7986 15.9932 14.9722 16.3335 14 16.3335Z" fill="white"/>
<path d="M12.8335 24.5002V20.9127C10.8113 20.6404 9.13905 19.7363 7.81683 18.2002C6.49461 16.6641 5.8335 14.8752 5.8335 12.8335H8.16683C8.16683 14.4474 8.73577 15.8233 9.87366 16.9612C11.0116 18.0991 12.3871 18.6676 14.0002 18.6668C15.6141 18.6668 16.9899 18.0979 18.1278 16.96C19.2657 15.8221 19.8343 14.4466 19.8335 12.8335H22.1668C22.1668 14.8752 21.5057 16.6641 20.1835 18.2002C18.8613 19.7363 17.1891 20.6404 15.1668 20.9127V24.5002H12.8335Z" fill="url(#paint0_linear_428_535)"/>
<defs>
<linearGradient id="paint0_linear_428_535" x1="24.4127" y1="27.271" x2="-3.8533" y2="5.92736" gradientUnits="userSpaceOnUse">
<stop stop-color="white"/>
<stop offset="1" stop-color="white" stop-opacity="0"/>
</linearGradient>
</defs>
</svg>
