<svg width="28" height="28" viewBox="0 0 28 28" fill="none" xmlns="http://www.w3.org/2000/svg">
<path d="M2 18.1096V15.9663L8.48939 7.23595H11.8324L5.48067 15.9663L3.92715 15.514H14.7625V18.1096H2ZM9.41364 21V18.1096L9.51196 15.514V12.9382H12.5207V21H9.41364Z" fill="url(#paint0_linear_76_94)"/>
<path d="M15.5973 21V18.9354L20.9068 13.9213C21.3263 13.5412 21.6344 13.2004 21.8311 12.8989C22.0277 12.5974 22.1588 12.3221 22.2244 12.073C22.303 11.824 22.3423 11.5946 22.3423 11.3848C22.3423 10.8343 22.1522 10.4148 21.7721 10.1264C21.405 9.82491 20.8609 9.67416 20.1399 9.67416C19.563 9.67416 19.0255 9.78558 18.5274 10.0084C18.0423 10.2313 17.6293 10.5787 17.2885 11.0506L14.968 9.55618C15.4924 8.76966 16.2266 8.147 17.1705 7.6882C18.1144 7.2294 19.2025 7 20.4349 7C21.4574 7 22.3489 7.17041 23.1093 7.51124C23.8828 7.83895 24.4793 8.30431 24.8988 8.9073C25.3314 9.5103 25.5477 10.2313 25.5477 11.0702C25.5477 11.5159 25.4887 11.9616 25.3707 12.4073C25.2658 12.8399 25.043 13.2987 24.7021 13.7837C24.3744 14.2687 23.8893 14.8127 23.2469 15.4157L18.842 19.5646L18.2324 18.4045H26V21H15.5973Z" fill="url(#paint1_linear_76_94)"/>
<defs>
<linearGradient id="paint0_linear_76_94" x1="29.3" y1="22.75" x2="17.3998" y2="-6.80995" gradientUnits="userSpaceOnUse">
<stop stop-color="white"/>
<stop offset="1" stop-color="white" stop-opacity="0"/>
</linearGradient>
<linearGradient id="paint1_linear_76_94" x1="29.3" y1="22.75" x2="17.3998" y2="-6.80995" gradientUnits="userSpaceOnUse">
<stop stop-color="white"/>
<stop offset="1" stop-color="white" stop-opacity="0"/>
</linearGradient>
</defs>
</svg>
