<svg width="28" height="28" viewBox="0 0 28 28" fill="none" xmlns="http://www.w3.org/2000/svg">
<path d="M21.8294 0H6.37524C3.14591 0 0.528015 2.61789 0.528015 5.84722V21.3013C0.528015 24.5307 3.14591 27.1486 6.37524 27.1486H21.8294C25.0587 27.1486 27.6766 24.5307 27.6766 21.3013V5.84722C27.6766 2.61789 25.0587 0 21.8294 0Z" fill="#E14459"/>
<path d="M7.14584 1.77525C6.94113 1.77552 6.74491 1.85676 6.60029 2.00113C6.45567 2.14549 6.37448 2.34116 6.37457 2.54514C6.37476 2.74918 6.45625 2.94479 6.60114 3.08897C6.74602 3.23315 6.94244 3.3141 7.14721 3.31401C7.35198 3.31392 7.54832 3.2328 7.69308 3.08849C7.83784 2.94418 7.91916 2.74849 7.91916 2.54446V2.54308C7.9188 2.33905 7.83713 2.1435 7.69211 1.99945C7.5471 1.8554 7.3506 1.77497 7.14584 1.77525ZM20.9608 1.77525C20.756 1.77552 20.5598 1.85676 20.4152 2.00113C20.2706 2.14549 20.1894 2.34116 20.1895 2.54514C20.1897 2.74924 20.2712 2.9449 20.4162 3.0891C20.5611 3.23329 20.7576 3.31419 20.9625 3.31401C21.1672 3.31392 21.3636 3.2328 21.5083 3.08849C21.6531 2.94418 21.7344 2.74849 21.7344 2.54446V2.54308C21.7341 2.33899 21.6523 2.14339 21.5073 1.99933C21.3622 1.85527 21.1656 1.77488 20.9608 1.77525Z" fill="#C73148"/>
<path d="M7.11535 2.43842C6.84695 2.45282 6.86032 2.8429 6.86032 2.8429C8.3031 5.65237 10.959 7.03002 14.0221 7.03036C17.0811 7.02591 19.7634 5.63283 21.2042 2.82748C21.2042 2.82748 21.2611 2.29925 20.6989 2.48229C19.2215 4.93115 16.7397 6.37976 14.0238 6.38422C11.3032 6.3849 8.82996 4.95137 7.34981 2.49806C7.25383 2.45179 7.17739 2.43499 7.11535 2.43842ZM16.8779 13.3575L16.0572 15.8015L15.2585 13.3592H14.4787L15.7374 16.9125H16.3445L17.1672 14.5785L17.9885 16.9125H18.6007L19.857 13.3595H19.0967L18.2963 15.8019L17.4757 13.3578L16.8779 13.3575ZM12.519 13.3585L10.9268 16.9101H11.6751L11.9826 16.2225L12.0045 16.1707H13.6588L13.983 16.9101H14.7519L13.1741 13.3794L13.1604 13.3585H12.519ZM24.051 13.3585V16.9081H24.7746V13.3589L24.051 13.3585ZM3.30255 13.3592V16.9135H4.03611V15.4701H5.69176V16.9132H6.42566V13.3595H5.6921V14.7934H4.03645V13.3595L3.30255 13.3592ZM9.82026 13.3602V15.3947C9.82026 15.9723 9.5289 16.2808 8.99861 16.2808C8.46592 16.2808 8.1725 15.9637 8.1725 15.37V13.3623H7.43859V15.3947C7.43859 16.3946 8.00419 16.9677 8.98901 16.9677C9.98309 16.9677 10.5531 16.3836 10.5531 15.3652V13.3599L9.82026 13.3602ZM20.4487 13.3616V16.9108H23.1782V16.2636H21.1719V15.3837H22.5057V14.7358H21.1719V14.0091H23.1087V13.3619L20.4487 13.3616ZM12.8296 14.2576L13.3527 15.4478L13.3883 15.5297H12.2787L12.3137 15.4478L12.8296 14.2576Z" fill="white"/>
</svg>
