<svg width="22" height="27" viewBox="0 0 22 27" fill="none" xmlns="http://www.w3.org/2000/svg">
<path d="M18.3742 14.3584C18.3922 13.3244 18.6695 12.3114 19.1808 11.412C19.6921 10.5127 20.421 9.75565 21.3009 9.21022C20.7357 8.41432 19.9946 7.759 19.135 7.295C18.2754 6.831 17.3204 6.57076 16.344 6.53444C14.2591 6.31622 12.2376 7.78058 11.1747 7.78058C10.0919 7.78058 8.45528 6.55676 6.69451 6.59272C5.55619 6.63469 4.44772 6.96775 3.47522 7.56001C2.50272 8.15226 1.69875 8.98388 1.14028 9.97526C-1.26121 14.1265 0.530599 20.2295 2.83027 23.5847C3.98135 25.2277 5.32613 27.064 7.0869 26.9983C8.80917 26.9276 9.45238 25.9022 11.5323 25.9022C13.5911 25.9022 14.1945 26.9983 15.9901 26.9561C17.839 26.9276 19.0025 25.307 20.1126 23.648C20.9404 22.477 21.5774 21.1827 22 19.8129C20.9301 19.354 20.0174 18.5937 19.3734 17.625C18.7295 16.6562 18.3822 15.5211 18.3742 14.3584ZM14.9818 4.32736C15.9896 3.11973 16.4862 1.56739 16.3663 0C14.8265 0.16141 13.4042 0.896341 12.3829 2.05829C11.3801 3.20694 10.8703 4.70349 10.9636 6.22446C11.7327 6.22798 12.4929 6.0594 13.1882 5.73111C13.8835 5.40282 14.4964 4.92316 14.9818 4.32736Z" fill="white"/>
</svg>
