<svg width="25" height="28" viewBox="0 0 25 28" fill="none" xmlns="http://www.w3.org/2000/svg">
<g filter="url(#filter0_dd_746_212)">
<path d="M1.15758 1.41251C0.855262 1.73248 0.676575 2.22907 0.676575 2.87213V25.848C0.676575 26.4921 0.855262 26.9876 1.15758 27.3076L1.23445 27.3824L14.1051 14.5107V14.2084L1.23341 1.33667L1.15758 1.41251Z" fill="url(#paint0_linear_746_212)"/>
<path d="M18.3936 18.8033L14.1041 14.5116V14.2083L18.3946 9.91772L18.4913 9.97278L23.5745 12.8609C25.0258 13.6857 25.0258 15.0352 23.5745 15.8612L18.4913 18.7492L18.3936 18.8033Z" fill="url(#paint1_linear_746_212)"/>
<g filter="url(#filter1_d_746_212)">
<path d="M18.4923 18.7483L14.1041 14.3601L1.15652 27.3077C1.63441 27.8146 2.425 27.877 3.31635 27.3721L18.4923 18.7483Z" fill="url(#paint2_linear_746_212)"/>
</g>
<path d="M18.4923 9.97184L3.31635 1.34914C2.42603 0.843208 1.63545 0.90658 1.15652 1.41355L14.1041 14.3611L18.4923 9.97184Z" fill="url(#paint3_linear_746_212)"/>
</g>
<defs>
<filter id="filter0_dd_746_212" x="0.676575" y="0.85" width="23.9864" height="27.0207" filterUnits="userSpaceOnUse" color-interpolation-filters="sRGB">
<feFlood flood-opacity="0" result="BackgroundImageFix"/>
<feColorMatrix in="SourceAlpha" type="matrix" values="0 0 0 0 0 0 0 0 0 0 0 0 0 0 0 0 0 0 127 0" result="hardAlpha"/>
<feOffset dy="-0.15"/>
<feComposite in2="hardAlpha" operator="out"/>
<feColorMatrix type="matrix" values="0 0 0 0 0 0 0 0 0 0 0 0 0 0 0 0 0 0 0.12 0"/>
<feBlend mode="normal" in2="BackgroundImageFix" result="effect1_dropShadow_746_212"/>
<feColorMatrix in="SourceAlpha" type="matrix" values="0 0 0 0 0 0 0 0 0 0 0 0 0 0 0 0 0 0 127 0" result="hardAlpha"/>
<feOffset dy="0.15"/>
<feComposite in2="hardAlpha" operator="out"/>
<feColorMatrix type="matrix" values="0 0 0 0 1 0 0 0 0 1 0 0 0 0 1 0 0 0 0.25 0"/>
<feBlend mode="normal" in2="effect1_dropShadow_746_212" result="effect2_dropShadow_746_212"/>
<feBlend mode="normal" in="SourceGraphic" in2="effect2_dropShadow_746_212" result="shape"/>
</filter>
<filter id="filter1_d_746_212" x="1.15652" y="14.2101" width="17.3358" height="13.5106" filterUnits="userSpaceOnUse" color-interpolation-filters="sRGB">
<feFlood flood-opacity="0" result="BackgroundImageFix"/>
<feColorMatrix in="SourceAlpha" type="matrix" values="0 0 0 0 0 0 0 0 0 0 0 0 0 0 0 0 0 0 127 0" result="hardAlpha"/>
<feOffset dy="-0.15"/>
<feComposite in2="hardAlpha" operator="out"/>
<feColorMatrix type="matrix" values="0 0 0 0 0 0 0 0 0 0 0 0 0 0 0 0 0 0 0.08 0"/>
<feBlend mode="normal" in2="BackgroundImageFix" result="effect1_dropShadow_746_212"/>
<feBlend mode="normal" in="SourceGraphic" in2="effect1_dropShadow_746_212" result="shape"/>
</filter>
<linearGradient id="paint0_linear_746_212" x1="12.9634" y1="2.62904" x2="-4.47107" y2="20.0635" gradientUnits="userSpaceOnUse">
<stop stop-color="#00A0FF"/>
<stop offset="0.007" stop-color="#00A1FF"/>
<stop offset="0.26" stop-color="#00BEFF"/>
<stop offset="0.512" stop-color="#00D2FF"/>
<stop offset="0.76" stop-color="#00DFFF"/>
<stop offset="1" stop-color="#00E3FF"/>
</linearGradient>
<linearGradient id="paint1_linear_746_212" x1="25.4642" y1="14.36" x2="0.327491" y2="14.36" gradientUnits="userSpaceOnUse">
<stop stop-color="#FFE000"/>
<stop offset="0.409" stop-color="#FFBD00"/>
<stop offset="0.775" stop-color="#FFA500"/>
<stop offset="1" stop-color="#FF9C00"/>
</linearGradient>
<linearGradient id="paint2_linear_746_212" x1="16.1091" y1="16.7433" x2="-7.53474" y2="40.3861" gradientUnits="userSpaceOnUse">
<stop stop-color="#FF3A44"/>
<stop offset="1" stop-color="#C31162"/>
</linearGradient>
<linearGradient id="paint3_linear_746_212" x1="-2.10348" y1="-6.23467" x2="8.45361" y2="4.32241" gradientUnits="userSpaceOnUse">
<stop stop-color="#32A071"/>
<stop offset="0.069" stop-color="#2DA771"/>
<stop offset="0.476" stop-color="#15CF74"/>
<stop offset="0.801" stop-color="#06E775"/>
<stop offset="1" stop-color="#00F076"/>
</linearGradient>
</defs>
</svg>
