<svg width="28" height="28" viewBox="0 0 28 28" fill="none" xmlns="http://www.w3.org/2000/svg">
<path d="M15.5575 11.92C15.5575 10.8596 16.4177 10 17.4789 10H26.0785C27.1398 10 28 10.8596 28 11.92V17.08C28 18.1404 27.1398 19 26.0785 19H17.4789C16.4177 19 15.5575 18.1404 15.5575 17.08V11.92Z" fill="url(#paint0_linear_76_93)"/>
<path d="M6.53217 13.4526V13.828C6.53217 15.0669 5.97501 16.0805 3.97692 16.0805H3.70796C3.01631 16.0805 2.35349 16.0805 1.7291 15.9867V17.676H0V11.3878C1.0951 11.2658 2.35351 11.2001 3.51583 11.2001H3.78481C5.93658 11.2001 6.53217 12.2137 6.53217 13.4526ZM3.43898 14.5789C4.80306 14.5789 4.80306 14.1847 4.80306 13.6403C4.80306 13.0866 4.80306 12.7018 3.50623 12.7018C3.10278 12.7018 2.36311 12.7299 1.7291 12.7862V14.4944C2.32469 14.5695 2.8434 14.5789 3.43898 14.5789Z" fill="url(#paint1_linear_76_93)"/>
<path d="M14.5219 17.6758H12.8504L11.5632 15.7049C10.8812 15.7049 10.2376 15.7049 9.62279 15.611V17.6758H7.89369V11.3876C8.98879 11.2656 10.2472 11.1999 11.4095 11.1999H11.6785C13.8303 11.1999 14.4259 12.1291 14.4259 13.2647V13.6401C14.4259 14.4285 14.1569 15.1136 13.3308 15.4609L14.5219 17.3004V17.6758ZM11.4287 12.7016C10.9869 12.7016 10.2568 12.7297 9.62279 12.786V14.1188C10.2184 14.1938 10.8044 14.2032 11.131 14.2032C12.6679 14.2032 12.6968 13.9404 12.6968 13.3492C12.6968 13.0113 12.6872 12.7016 11.4287 12.7016Z" fill="url(#paint2_linear_76_93)"/>
<path fill-rule="evenodd" clip-rule="evenodd" d="M16.376 17.6881H17.9322L18.4797 16.468H21.717L22.2742 17.6881H23.8303V17.3127L20.9677 11.3999H19.2386L17.8073 14.3563L16.376 17.3127V17.6881ZM19.1233 15.0602H21.083L20.1031 12.911L19.1233 15.0602ZM26.7604 11.3999H25.0313V17.6882H26.7604V11.3999Z" fill="white"/>
<defs>
<linearGradient id="paint0_linear_76_93" x1="11.5862" y1="19.905" x2="12.6565" y2="10.1927" gradientUnits="userSpaceOnUse">
<stop stop-color="white"/>
<stop offset="1" stop-color="white" stop-opacity="0"/>
</linearGradient>
<linearGradient id="paint1_linear_76_93" x1="11.5862" y1="19.905" x2="12.6565" y2="10.1927" gradientUnits="userSpaceOnUse">
<stop stop-color="white"/>
<stop offset="1" stop-color="white" stop-opacity="0"/>
</linearGradient>
<linearGradient id="paint2_linear_76_93" x1="11.5862" y1="19.905" x2="12.6565" y2="10.1927" gradientUnits="userSpaceOnUse">
<stop stop-color="white"/>
<stop offset="1" stop-color="white" stop-opacity="0"/>
</linearGradient>
</defs>
</svg>
