<svg width="28" height="28" viewBox="0 0 28 28" fill="none" xmlns="http://www.w3.org/2000/svg">
<path d="M1.935 25.2348C3.87008 27.1428 6.98454 27.1428 13.2135 27.1428H14.3145C20.5435 27.1428 23.6579 27.1428 25.593 25.2348C27.528 23.3269 27.528 20.256 27.528 14.1142V13.0285C27.528 6.88677 27.528 3.81592 25.593 1.90792C23.6579 0 20.5435 0 14.3145 0H13.2135C6.98454 0 3.87008 0 1.935 1.90792C7.33596e-07 3.81592 0 6.88677 0 13.0285V14.1142C0 20.256 7.33596e-07 23.3269 1.935 25.2348Z" fill="#0077FF"/>
<path fill-rule="evenodd" clip-rule="evenodd" d="M21.2522 18.0407L19.3922 17.5825C19.1682 17.5192 19.0101 17.3205 19.0022 17.0895L18.77 10.3395C18.7029 9.44608 18.0302 8.73546 17.3274 8.52623C17.2879 8.51446 17.2458 8.53031 17.2224 8.56377C17.1986 8.59785 17.2079 8.64492 17.2409 8.67015C17.4145 8.80269 17.8922 9.235 17.8922 9.98069L17.8909 18.8062C17.8909 19.6584 17.0742 20.2834 16.2318 20.0759L14.343 19.6107C14.1336 19.5385 13.9881 19.3462 13.9805 19.1243L13.7484 12.3738C13.6812 11.4804 13.0086 10.7698 12.3058 10.5605C12.2663 10.5488 12.2242 10.5646 12.2008 10.5981C12.1771 10.6322 12.1862 10.6792 12.2193 10.7045C12.3929 10.837 12.8706 11.2693 12.8706 12.015L12.8692 19.3715L12.8703 19.3717V20.8414C12.8703 21.6935 12.0535 22.3186 11.2112 22.1111L5.87632 20.7971C5.13462 20.6144 4.61462 19.9602 4.61462 19.2099V10.3706C4.61462 9.51846 5.43132 8.89346 6.2737 9.10092L9.63524 9.92892V8.33546C9.63524 7.48331 10.4519 6.85823 11.2943 7.06577L14.6556 7.89369V6.30023C14.6556 5.44808 15.4723 4.823 16.3148 5.03054L21.6496 6.34454C22.3913 6.52723 22.9113 7.18138 22.9113 7.93169V16.771C22.9113 17.6232 22.0946 18.2482 21.2522 18.0407Z" fill="white"/>
</svg>
