<svg width="24" height="50" viewBox="0 0 24 50" fill="none" xmlns="http://www.w3.org/2000/svg">
<g clip-path="url(#clip0_244_332)">
<path d="M20.442 1.21357C19.6949 1.66156 18.4437 2.94858 16.9495 4.80751V4.92188L18.2568 7.39102L18.3222 7.43868C19.2841 6.0373 20.2553 4.76942 21.2452 3.69219C21.3199 3.60634 21.3572 3.56825 21.3572 3.56825C21.3199 3.60634 21.2825 3.654 21.2452 3.69219C20.9276 4.05443 19.9564 5.19836 18.4996 7.48634L18.6677 7.52443C18.6677 7.52443 22.0763 7.18124 23.7199 6.89528L23.8133 6.80943C24.3362 3.81603 23.2996 2.44336 23.2996 2.44336C23.2996 2.44336 21.9922 0.288794 20.442 1.21357Z" fill="url(#paint0_linear_244_332)"/>
<path d="M14.288 14.2547C14.7082 13.4635 15.1285 12.6818 15.5487 11.9286C15.9876 11.1469 16.4358 10.3842 16.8934 9.65019C16.9214 9.6121 16.9495 9.56444 16.9681 9.51678C17.4033 8.81318 17.8548 8.12025 18.3223 7.43859L16.9495 4.79785C16.8467 4.92179 16.744 5.05529 16.6413 5.1887C16.2491 5.69402 15.8382 6.22785 15.4179 6.79987C14.9207 7.47765 14.4351 8.16413 13.9611 8.85901C13.4896 9.54739 13.0289 10.2434 12.579 10.9467C12.1868 11.5664 11.7853 12.1956 11.3931 12.8534C11.3743 12.8819 11.365 12.901 11.3463 12.9296V13.0344L13.0553 16.495L13.13 16.5236C13.5129 15.7608 13.8958 14.9983 14.288 14.2547Z" fill="url(#paint1_linear_244_332)"/>
<path d="M6.84519 31.195C7.15335 30.3751 7.48016 29.5458 7.80707 28.7069C8.1245 27.9061 8.44204 27.0958 8.77832 26.2854C9.10513 25.4751 9.4506 24.6649 9.79616 23.845C10.151 23.0156 10.5058 22.1863 10.8701 21.3664C11.2343 20.5561 11.5985 19.7458 11.972 18.945C12.1052 18.654 12.2422 18.3648 12.3829 18.0775C12.6163 17.5817 12.8592 17.086 13.0926 16.5998C13.102 16.5713 13.1207 16.5522 13.13 16.5236L11.3463 12.9297L11.2623 13.0727C10.8514 13.7685 10.4311 14.474 10.0296 15.1985C9.61695 15.9358 9.21534 16.6795 8.82491 17.4293C8.48872 18.068 8.17129 18.7067 7.85366 19.3549C7.78832 19.4884 7.73235 19.6123 7.667 19.7458C7.29494 20.5242 6.94307 21.3126 6.61175 22.11C6.25682 22.968 5.93938 23.7878 5.65925 24.5696C5.47241 25.0843 5.31369 25.5705 5.15488 26.0472C5.03232 26.4495 4.91403 26.853 4.80004 27.2579C4.53323 28.1977 4.30577 29.1486 4.11829 30.1082L4.14641 30.2227L5.85529 33.6927L5.91135 33.7213C6.14479 33.073 6.3876 32.4248 6.63979 31.7575C6.70513 31.5668 6.77994 31.3857 6.84519 31.195Z" fill="url(#paint2_linear_244_332)"/>
<path d="M4.09966 30.2322C3.8755 31.3857 3.71669 32.5393 3.63269 33.6833C3.63269 33.7214 3.62331 33.7595 3.62331 33.8071C3.06297 32.892 1.56887 32.0054 1.56887 32.0054C2.64278 33.5879 3.45522 35.1609 3.57662 36.7052C3.007 36.8292 2.2225 36.648 1.30741 36.3144C2.25053 37.201 2.96022 37.4488 3.24044 37.5155C2.37194 37.5728 1.46612 38.1829 0.550937 38.8787C1.88631 38.3259 2.96031 38.1066 3.73534 38.2782C2.512 41.815 1.28866 45.7235 0.0560303 49.8609C0.42953 49.7465 0.653687 49.489 0.784468 49.1364C0.999155 48.3832 2.45603 43.4642 4.72525 36.9912C4.79059 36.8101 4.85603 36.6195 4.92137 36.4383C4.94012 36.3906 4.95869 36.3334 4.97744 36.2857C5.22025 35.6089 5.46306 34.913 5.72444 34.2076C5.7805 34.0455 5.84584 33.8834 5.90191 33.7214V33.7118L4.11822 30.1084C4.11822 30.1561 4.10884 30.1942 4.09956 30.2323L4.09966 30.2322Z" fill="url(#paint3_linear_244_332)"/>
<path d="M18.4996 7.49566C18.098 8.12491 17.6591 8.83981 17.1828 9.65013C17.1548 9.68831 17.1361 9.73597 17.1081 9.77406C16.6628 10.5388 16.2301 11.3111 15.8101 12.0907C15.3885 12.8697 14.9776 13.6546 14.5774 14.4453C14.1833 15.218 13.8003 15.9966 13.4287 16.7809L13.5128 16.8191L17.8552 16.3425L17.958 16.2661C19.2747 15.6465 19.863 15.0841 20.4327 14.2737C20.5895 14.0447 20.742 13.8127 20.8902 13.5778C21.3571 12.8342 21.8147 12.0239 22.2163 11.2136C22.6085 10.4318 22.9541 9.65013 23.2248 8.95427C23.3929 8.50619 23.533 8.09629 23.6265 7.73406C23.7105 7.40991 23.7758 7.10481 23.8225 6.81885C22.0669 7.13342 19.9096 7.42895 18.4996 7.49566H18.4996Z" fill="url(#paint4_linear_244_332)"/>
<path d="M13.2607 17.1527C13.1113 17.4768 12.9525 17.8104 12.7938 18.1442C12.6257 18.5064 12.4482 18.8878 12.2801 19.2691C12.1961 19.4597 12.1028 19.6599 12.0187 19.8505C11.7479 20.4416 11.4864 21.0517 11.2062 21.6809C10.8575 22.482 10.5151 23.286 10.179 24.0928C9.84283 24.8935 9.50665 25.7134 9.17046 26.5714C8.83555 27.4038 8.50866 28.2396 8.18984 29.0785C7.89105 29.8508 7.59227 30.6325 7.2934 31.4523C7.27465 31.4904 7.26537 31.5285 7.24671 31.5667C6.94793 32.377 6.65646 33.2013 6.34821 34.0497C6.33883 34.0689 6.32224 34.1184 6.31287 34.1375L6.37737 34.1521L7.67627 34.0095L7.74959 33.9785C7.72155 33.969 7.7043 33.9309 7.67627 33.9214C9.39462 33.7021 11.6825 32.3865 13.1673 30.7659C13.8491 30.0223 14.4654 29.1358 15.0444 28.1063C15.4739 27.334 15.8662 26.4856 16.2491 25.5418C16.5852 24.7219 16.9028 23.8259 17.2109 22.8631C16.8187 23.0727 16.3611 23.2348 15.8662 23.3397C15.7821 23.3587 15.6887 23.3778 15.5953 23.3968C15.502 23.416 15.4086 23.4255 15.3245 23.4445C16.9308 22.8153 17.9394 21.5951 18.677 20.108C18.2568 20.4034 17.5658 20.7848 16.744 20.9754C16.6319 21.0041 16.5199 21.0231 16.3985 21.0421C16.3704 21.0421 16.3424 21.0517 16.3144 21.0517C16.8747 20.8134 17.3416 20.5464 17.7525 20.2318C17.8366 20.1651 17.9206 20.0984 18.0047 20.0221C18.1261 19.9078 18.2475 19.7934 18.3596 19.679C18.4343 19.6027 18.4996 19.5264 18.5743 19.4407C18.7385 19.2423 18.8883 19.032 19.0226 18.8114C19.0692 18.7447 19.1066 18.6684 19.1533 18.6017C19.2094 18.4968 19.2561 18.392 19.3028 18.2871C19.5268 17.8296 19.7043 17.4196 19.8444 17.0574C19.9191 16.8762 19.9751 16.7142 20.0311 16.552C20.0499 16.4949 20.0685 16.4282 20.0966 16.371C20.1525 16.1994 20.1992 16.0468 20.2366 15.9039C20.28 15.7472 20.3143 15.5881 20.3394 15.4272C20.2833 15.4749 20.2272 15.513 20.1525 15.5607C19.6669 15.8562 18.8358 16.1231 18.1634 16.247C18.0701 16.2662 18.0047 16.2757 17.93 16.2947C17.9362 16.2884 16.4384 16.45 13.4369 16.7796C13.4182 16.7988 13.3075 17.0383 13.2607 17.1527Z" fill="url(#paint5_linear_244_332)"/>
<path d="M6.17274 34.4935C5.93931 35.1514 5.69649 35.8282 5.46306 36.5145C5.46306 36.5241 5.45368 36.5337 5.45368 36.5432C5.41628 36.6385 5.38824 36.7338 5.35093 36.8387C5.19221 37.3057 5.05206 37.7157 4.73462 38.669C5.25756 38.9169 5.67774 39.5556 6.07937 40.2897C6.04196 39.5365 5.73381 38.8216 5.14553 38.2782C7.73228 38.3925 9.96418 37.7252 11.1128 35.7996C11.2173 35.6246 11.3108 35.4431 11.3929 35.2562C10.87 35.9331 10.2164 36.2189 9.00231 36.1523C10.8047 35.3324 11.7011 34.5412 12.5042 33.2352C12.7029 32.9021 12.8898 32.5619 13.0646 32.2151C11.4863 33.8643 9.66531 34.3315 7.75093 33.9787L6.31281 34.1408C6.26612 34.2456 6.21943 34.3696 6.17274 34.4935Z" fill="url(#paint6_linear_244_332)"/>
</g>
<defs>
<linearGradient id="paint0_linear_244_332" x1="131.674" y1="419.019" x2="1126.14" y2="94.7756" gradientUnits="userSpaceOnUse">
<stop stop-color="#F69923"/>
<stop offset="0.3123" stop-color="#F79A23"/>
<stop offset="0.8383" stop-color="#E97826"/>
</linearGradient>
<linearGradient id="paint1_linear_244_332" x1="-1506.97" y1="4632.62" x2="1929.55" y2="1969.81" gradientUnits="userSpaceOnUse">
<stop offset="0.3233" stop-color="#9E2064"/>
<stop offset="0.6302" stop-color="#C92037"/>
<stop offset="0.7514" stop-color="#CD2335"/>
<stop offset="1" stop-color="#E97826"/>
</linearGradient>
<linearGradient id="paint2_linear_244_332" x1="-717.216" y1="3556.19" x2="2597.39" y2="2192.98" gradientUnits="userSpaceOnUse">
<stop offset="0.3233" stop-color="#9E2064"/>
<stop offset="0.6302" stop-color="#C92037"/>
<stop offset="0.7514" stop-color="#CD2335"/>
<stop offset="1" stop-color="#E97826"/>
</linearGradient>
<linearGradient id="paint3_linear_244_332" x1="-107.017" y1="1558.16" x2="1360.56" y2="1276.74" gradientUnits="userSpaceOnUse">
<stop stop-color="#282662"/>
<stop offset="0.09548" stop-color="#662E8D"/>
<stop offset="0.7882" stop-color="#9F2064"/>
<stop offset="0.9487" stop-color="#CD2032"/>
</linearGradient>
<linearGradient id="paint4_linear_244_332" x1="-1335.51" y1="4644.07" x2="575.6" y2="124.363" gradientUnits="userSpaceOnUse">
<stop offset="0.3233" stop-color="#9E2064"/>
<stop offset="0.6302" stop-color="#C92037"/>
<stop offset="0.7514" stop-color="#CD2335"/>
<stop offset="1" stop-color="#E97826"/>
</linearGradient>
<linearGradient id="paint5_linear_244_332" x1="-482.931" y1="3530.2" x2="2518.27" y2="-160.171" gradientUnits="userSpaceOnUse">
<stop offset="0.3233" stop-color="#9E2064"/>
<stop offset="0.6302" stop-color="#C92037"/>
<stop offset="0.7514" stop-color="#CD2335"/>
<stop offset="1" stop-color="#E97826"/>
</linearGradient>
<linearGradient id="paint6_linear_244_332" x1="-167.021" y1="1587.09" x2="986.187" y2="-1099.83" gradientUnits="userSpaceOnUse">
<stop stop-color="#282662"/>
<stop offset="0.09548" stop-color="#662E8D"/>
<stop offset="0.7882" stop-color="#9F2064"/>
<stop offset="0.9487" stop-color="#CD2032"/>
</linearGradient>
<clipPath id="clip0_244_332">
<rect width="24" height="49" fill="white" transform="translate(0 0.937012)"/>
</clipPath>
</defs>
</svg>
