<svg width="34" height="35" viewBox="0 0 34 35" fill="none" xmlns="http://www.w3.org/2000/svg">
<g clip-path="url(#clip0_244_228)">
<path d="M5.2943 7.33252L0.0413047 12.592L8.1422 20.7174L0 28.884L5.23653 34.1459L13.3952 25.977L21.5096 34.0876L26.7626 28.828L5.2943 7.33252Z" fill="#53B9FF"/>
<path d="M18.6616 20.7173L13.3945 25.9768L21.509 34.0875L26.762 28.8279L18.6616 20.7173Z" fill="#119EFF"/>
<path d="M18.6616 20.7173L13.3945 25.9768L15.4222 27.9932L18.6616 20.7173Z" fill="black" fill-opacity="0.2"/>
<path d="M25.8417 13.5571L34.0004 5.38819L28.7451 0.14502L20.5888 8.29758L12.4737 0.186324L7.2207 5.44596L28.6892 26.9414L33.9422 21.6818L25.8417 13.5571Z" fill="#53B9FF"/>
<path d="M15.3216 13.5568L20.5888 8.29716L12.4737 0.186035L7.2207 5.44554L15.3216 13.5568Z" fill="#119EFF"/>
<path d="M15.3203 13.5562L20.5875 8.29668L18.5593 6.27979L15.3203 13.5562Z" fill="black" fill-opacity="0.2"/>
</g>
<defs>
<clipPath id="clip0_244_228">
<rect width="34" height="34" fill="white" transform="translate(0 0.14502)"/>
</clipPath>
</defs>
</svg>
