<svg width="37" height="42" viewBox="0 0 37 42" fill="none" xmlns="http://www.w3.org/2000/svg">
<path d="M35.3228 21.146C29.4512 21.2612 30.6742 24.9782 26.5361 25.9182C22.3324 26.8732 21.6689 15.6516 17.4662 15.6516C13.2631 15.6516 12.332 26.5522 7.06913 34.0355L6.91898 34.2474L18.2025 40.7608L35.3228 30.8774V21.146Z" fill="#36A2EB"/>
<path d="M35.3228 20.8075C33.3572 18.2849 32.0239 15.3848 29.1556 15.3848C24.0796 15.3848 25.4152 23.6653 19.8053 23.6653C14.1949 23.6653 13.6051 14.7584 7.24945 23.1311C5.22426 25.7989 3.59413 28.7736 2.31366 31.5884L18.2025 40.7609L35.3228 30.8775V20.8075Z" fill="#FFCE56"/>
<path opacity="0.8" d="M1.08176 24.2377C3.00798 18.9035 3.83932 14.5833 7.51668 14.5833C13.1266 14.5833 14.4619 30.3435 19.2712 28.7401C24.0796 27.1376 23.5452 18.5895 31.0257 18.5895C32.4495 18.5895 33.9032 19.4618 35.323 20.8728V30.8774L18.2028 40.7608L1.08202 30.8774L1.08176 24.2377Z" fill="#FE6184"/>
<path d="M18.1891 42L0 31.5003V10.5L18.1891 0L36.3783 10.5V31.5L18.1891 42ZM2.13701 30.2665L18.1891 39.533L34.2413 30.2665V11.7337L18.1891 2.46724L2.13701 11.7337V30.2665Z" fill="#E7E9ED"/>
</svg>
