<svg width="33" height="36" viewBox="0 0 33 36" fill="none" xmlns="http://www.w3.org/2000/svg">
<path d="M14.5547 19.0301C13.3086 19.743 12.2961 20.348 12.2961 20.378C12.2961 20.4798 12.6915 21.001 13.069 21.4024C14.8183 23.2236 17.6399 23.4812 19.7846 22.0135C20.3837 21.6061 21.3842 20.4319 21.2464 20.3061C21.1985 20.2582 17.2385 17.9577 16.933 17.796C16.8252 17.7361 16.5196 17.8978 14.5547 19.0301Z" fill="#6B156B"/>
<path d="M25.5477 23.589C23.5169 26.7102 19.7307 28.5734 16.0164 28.2678C13.1708 28.0342 10.7205 26.8121 8.83942 24.6793C8.56385 24.3618 8.18643 23.8706 7.99472 23.583C7.80901 23.2895 7.6233 23.0618 7.58735 23.0678C7.55141 23.0798 6.11961 23.8945 4.40025 24.883L1.27905 26.6803L1.37491 26.83C1.50071 27.0337 2.0938 27.6088 2.17168 27.6088C2.20163 27.6088 2.23159 27.6268 2.23159 27.6508C2.23159 27.6807 2.33942 27.7526 2.47122 27.8125C2.60302 27.8784 2.71085 27.9503 2.71085 27.9743C2.71085 27.9982 2.77675 28.0342 2.85463 28.0522C2.9385 28.0701 3.04034 28.124 3.08228 28.166C3.12421 28.2019 3.31592 28.3157 3.50763 28.4176C3.69334 28.5134 3.8491 28.6213 3.8491 28.6452C3.8491 28.6752 3.87306 28.6752 3.90901 28.6572C3.93896 28.6392 3.96892 28.6512 3.96892 28.6812C3.96892 28.7171 4.00486 28.7471 4.05279 28.7471C4.10071 28.7471 4.18458 28.795 4.24449 28.8489C4.3044 28.9088 4.35233 28.9448 4.35233 28.9388C4.36431 28.8909 4.68781 29.0706 4.68781 29.1185C4.68781 29.1485 4.71776 29.1545 4.74772 29.1365C4.78366 29.1185 4.80763 29.1305 4.80763 29.1604C4.80763 29.1964 4.84357 29.2263 4.8915 29.2263C4.93942 29.2263 5.0173 29.2623 5.05924 29.2982C5.10117 29.3402 5.31684 29.472 5.5385 29.5858C5.76016 29.6996 5.94588 29.8134 5.94588 29.8374C5.94588 29.8674 5.98182 29.8853 6.02975 29.8853C6.07767 29.8853 6.16154 29.9333 6.22145 29.9872C6.28136 30.0471 6.32929 30.083 6.32929 30.077C6.34127 30.0411 6.66477 30.2028 6.66477 30.2448C6.66477 30.2628 6.76062 30.3167 6.87445 30.3586C6.98827 30.4005 7.08412 30.4604 7.08412 30.4904C7.08412 30.5263 7.10809 30.5323 7.14403 30.5144C7.17399 30.4964 7.20394 30.5024 7.20394 30.5323C7.20394 30.5683 7.26984 30.6102 7.35371 30.6282C7.43758 30.6522 7.50348 30.6941 7.50348 30.724C7.50348 30.76 7.53343 30.7839 7.56339 30.7839C7.64726 30.7839 8.59979 31.3231 8.64772 31.395C8.66569 31.425 8.69565 31.4489 8.70763 31.4429C8.74956 31.425 9.06108 31.5807 9.06108 31.6227C9.06108 31.6406 9.15694 31.6945 9.27076 31.7365C9.38459 31.7784 9.48044 31.8383 9.48044 31.8683C9.48044 31.9042 9.51039 31.9102 9.54035 31.8922C9.57629 31.8743 9.60025 31.8863 9.60025 31.9162C9.60025 31.9522 9.63021 31.9821 9.66615 31.9821C9.73804 31.9821 10.5528 32.4554 10.6666 32.5632C10.7085 32.6051 10.7864 32.6411 10.8284 32.6411C10.8703 32.6411 10.9542 32.689 11.0141 32.7429C11.074 32.8028 11.1339 32.8448 11.1519 32.8448C11.2238 32.8328 11.4574 32.9586 11.4574 33.0125C11.4574 33.0425 11.4874 33.0485 11.5173 33.0305C11.5533 33.0125 11.5772 33.0245 11.5772 33.0545C11.5772 33.0904 11.6072 33.1204 11.6431 33.1204C11.721 33.1204 12.5537 33.5996 12.6016 33.6715C12.6196 33.7075 12.6615 33.7314 12.6915 33.7314C12.8053 33.7374 13.015 33.8632 13.015 33.9171C13.015 33.9531 13.033 33.9651 13.0509 33.9411C13.0869 33.9051 13.674 34.2406 13.7399 34.3365C13.7579 34.3664 13.7998 34.3904 13.8297 34.3904C13.9316 34.3964 14.1533 34.5162 14.1533 34.5701C14.1533 34.5941 14.1712 34.6121 14.2012 34.6061C14.2731 34.5881 14.5726 34.7499 14.5726 34.8098C14.5726 34.8337 14.6086 34.8577 14.6565 34.8577C14.7044 34.8577 14.7823 34.8936 14.8242 34.9356C14.962 35.0793 15.9086 35.4448 16.3099 35.5167C16.5256 35.5586 16.8431 35.5706 17.0288 35.5466C17.7657 35.4568 17.6938 35.4927 22.8998 32.4913C25.0565 31.2512 26.9915 30.131 29.25 28.8369C30.3224 28.2199 31.3348 27.6148 31.5026 27.483C31.844 27.2194 32.2275 26.7282 32.1496 26.6503C32.1196 26.6204 30.7897 25.8356 29.1901 24.913C27.5906 23.9844 26.2067 23.1757 26.1049 23.1157L25.9251 23.0079L25.5477 23.589Z" fill="#6B156B"/>
<path d="M15.8845 0.0990247C15.7048 0.158933 15.3813 0.302711 15.1656 0.416536C14.7642 0.632205 3.18403 7.30594 2.45315 7.73728C1.74025 8.16861 1.20108 8.86954 1.03333 9.59442C0.949463 9.95387 0.955454 25.6437 1.03333 25.9612C1.09923 26.2009 1.27297 26.6502 1.30891 26.6502C1.32089 26.6502 7.57527 23.0557 7.60523 23.0318C7.61122 23.0258 7.49739 22.7801 7.35361 22.4926C6.88633 21.552 6.55684 20.5456 6.35315 19.4013C6.25131 18.8023 6.25131 16.7594 6.35315 16.1663C6.65269 14.4889 7.13794 13.2668 8.01859 11.9368C9.42043 9.82806 11.4633 8.34235 13.9435 7.64142C14.92 7.36585 15.6748 7.27 16.879 7.27C17.9753 7.27599 18.4246 7.3299 19.473 7.60548C21.9172 8.24649 24.0859 9.8041 25.5297 11.9608C25.7393 12.2723 25.8951 12.5299 25.8831 12.5359C25.7513 12.6317 21.3301 15.1479 21.3002 15.1479C21.2702 15.1479 21.1744 15.0221 21.0785 14.8723C20.6771 14.2373 19.8744 13.5184 19.1555 13.1529C16.5974 11.8649 13.5361 12.8175 12.1882 15.3276C11.5412 16.5318 11.3974 18.1013 11.8227 19.3654C11.9785 19.8267 12.278 20.4437 12.302 20.3659C12.32 20.3179 16.7532 17.7239 16.825 17.7239C16.837 17.7239 17.8195 18.293 19.0177 18.988C20.2158 19.6829 21.2762 20.294 21.3721 20.3479C21.7135 20.5216 25.6854 22.8281 25.985 23.0198C26.1527 23.1276 27.6085 23.9783 29.22 24.9129C30.8375 25.8474 32.1674 26.6202 32.1794 26.6322C32.2693 26.6981 31.7661 27.2972 31.3467 27.6327C31.2029 27.7465 31.185 27.7765 31.2868 27.7225C31.5384 27.5967 32.1015 26.9917 32.2633 26.6742C32.6227 25.9612 32.6048 26.4765 32.6048 17.7898C32.6048 11.3497 32.5868 9.79212 32.5209 9.54649C32.3412 8.87553 31.9039 8.25848 31.3347 7.88106C30.6877 7.45571 18.2449 0.326675 17.8974 0.182896C17.4062 -0.020791 16.3817 -0.0627265 15.8845 0.0990247ZM27.1532 15.6871V16.1064H27.7522H28.3513V15.6871V15.2677H28.8905H29.4297V15.6871V16.1064H29.849H30.2684V16.6456V17.1847H29.849H29.4297V17.8138V18.4428H29.849H30.2684V18.982V19.5212H29.849H29.4297V19.9405V20.3599H28.8905H28.3513V19.9405V19.5212H27.7522H27.1532V19.9405V20.3599H26.614H26.0748V19.9405V19.5212H25.6555H25.2361V18.982V18.4428H25.6555H26.0748V17.8138V17.1847H25.6555H25.2361V16.6456V16.1064H25.6555H26.0748V15.6871V15.2677H26.614H27.1532V15.6871Z" fill="#964096"/>
<path d="M27.1531 17.8138V18.4429H27.7522H28.3512V17.8138V17.1848H27.7522H27.1531V17.8138Z" fill="#964096"/>
<path d="M24.1815 25.2244L24.0078 25.4221L24.2055 25.2484C24.3074 25.1465 24.3972 25.0627 24.3972 25.0507C24.3972 25.0028 24.3493 25.0447 24.1815 25.2244Z" fill="#964096"/>
<path d="M30.3762 28.1958C29.9928 28.4175 29.6573 28.6212 29.6273 28.6511C29.5674 28.717 29.5435 28.729 30.4061 28.2378C30.9992 27.9023 31.179 27.7825 31.0951 27.7885C31.0831 27.7885 30.7596 27.9742 30.3762 28.1958Z" fill="#964096"/>
<path d="M29.3577 28.7829C29.1301 28.9027 29.1421 28.9506 29.3697 28.8368C29.4716 28.7829 29.5494 28.7289 29.5494 28.717C29.5494 28.675 29.5435 28.681 29.3577 28.7829Z" fill="#964096"/>
<path d="M28.1895 29.4539C27.6923 29.7414 27.261 29.999 27.231 30.029C27.1711 30.0949 27.1172 30.1249 28.2195 29.4958C28.9863 29.0585 29.208 28.9207 29.1181 28.9267C29.1061 28.9267 28.6928 29.1663 28.1895 29.4539Z" fill="#964096"/>
<path d="M26.9613 30.1608C26.7336 30.2806 26.7456 30.3285 26.9732 30.2147C27.0751 30.1608 27.153 30.1069 27.153 30.0949C27.153 30.053 27.147 30.0589 26.9613 30.1608Z" fill="#964096"/>
<path d="M25.7933 30.8317C25.2961 31.1192 24.8647 31.3769 24.8348 31.4068C24.7749 31.4727 24.721 31.5027 25.8233 30.8736C26.5901 30.4363 26.8117 30.2985 26.7219 30.3045C26.7099 30.3045 26.2965 30.5441 25.7933 30.8317Z" fill="#964096"/>
<path d="M24.565 31.5387C24.3374 31.6585 24.3493 31.7065 24.577 31.5926C24.6788 31.5387 24.7567 31.4848 24.7567 31.4728C24.7567 31.4309 24.7507 31.4369 24.565 31.5387Z" fill="#964096"/>
<path d="M23.6064 32.0898C23.223 32.3114 22.8875 32.5151 22.8576 32.5451C22.7977 32.611 22.7737 32.6229 23.6364 32.1317C24.2295 31.7962 24.4092 31.6764 24.3253 31.6824C24.3133 31.6824 23.9898 31.8681 23.6064 32.0898Z" fill="#964096"/>
<path d="M22.5882 32.6769C22.3606 32.7967 22.3725 32.8446 22.6002 32.7308C22.702 32.6769 22.7799 32.623 22.7799 32.611C22.7799 32.5691 22.7739 32.5751 22.5882 32.6769Z" fill="#964096"/>
<path d="M21.8392 33.1082C21.5696 33.264 21.33 33.4138 21.3001 33.4437C21.2401 33.5096 21.2461 33.5096 21.8692 33.1502C22.1388 32.9944 22.3604 32.8566 22.3604 32.8446C22.3604 32.8087 22.3544 32.8087 21.8392 33.1082Z" fill="#964096"/>
<path d="M21.0306 33.5756C20.8029 33.6954 20.8149 33.7433 21.0426 33.6295C21.1444 33.5756 21.2223 33.5217 21.2223 33.5097C21.2223 33.4678 21.2163 33.4737 21.0306 33.5756Z" fill="#964096"/>
<path d="M20.072 34.1266C19.6886 34.3483 19.3531 34.552 19.3231 34.5819C19.2632 34.6478 19.2393 34.6598 20.1019 34.1686C20.695 33.8331 20.8748 33.7133 20.7909 33.7193C20.7789 33.7193 20.4554 33.905 20.072 34.1266Z" fill="#964096"/>
<path d="M18.5863 34.9773C18.2388 35.175 17.9812 35.3368 18.0112 35.3368C18.083 35.3368 19.2453 34.6838 19.2453 34.6419C19.2453 34.6059 19.2632 34.5939 18.5863 34.9773Z" fill="#964096"/>
<path d="M17.6278 35.4267C17.514 35.4687 17.4601 35.5106 17.508 35.5106C17.5559 35.5106 17.6817 35.4747 17.7776 35.4267C18.0112 35.3249 17.9034 35.3189 17.6278 35.4267Z" fill="#964096"/>
<path d="M15.1716 7.41394C14.3508 7.54574 13.9135 7.65956 13.1706 7.92316C9.8877 9.11532 7.38355 11.925 6.58078 15.3278C6.32917 16.3762 6.28724 16.8614 6.32318 18.1015C6.35912 19.4015 6.49092 20.1623 6.87433 21.2527C8.0006 24.4637 10.8283 27.0697 14.1112 27.9144C18.5084 29.0467 23.0315 27.3033 25.5596 23.5112C25.7094 23.2775 25.8352 23.0619 25.8352 23.0259C25.8352 22.984 24.8826 22.4089 23.7264 21.7379C22.5642 21.0669 21.5518 20.4798 21.4799 20.4379C21.3601 20.354 21.3361 20.372 21.1024 20.7195C20.1319 22.1513 18.5324 23.002 16.8011 23.002C15.2435 23.002 14.0153 22.4688 12.943 21.3245C11.1637 19.4315 11.0559 16.5619 12.6854 14.501C14.0633 12.7577 16.4177 12.0927 18.5444 12.8476C19.5329 13.195 20.3236 13.7881 20.9766 14.6688L21.3181 15.1241L23.5227 13.854C24.7329 13.1591 25.7513 12.56 25.7813 12.5301C25.8112 12.5001 25.6914 12.2665 25.4877 11.9669C24.3794 10.3075 22.702 8.90565 20.9107 8.14482C20.2338 7.85127 19.5688 7.64758 18.766 7.47385C17.9273 7.29412 16.1121 7.26417 15.1716 7.41394Z" fill="#ECECEC"/>
<path d="M26.0748 15.7471V16.1664H25.6554H25.2361V16.6756V17.1848H25.6554H26.0748V17.8139V18.4429H25.6554H25.2361V18.9521V19.4613H25.6554H26.0748V19.8807V20.3H26.584H27.0932V19.8807V19.4613H27.7522H28.4112V19.8807V20.3H28.9204H29.4296V19.8807V19.4613H29.849H30.2683V18.9521V18.4429H29.849H29.4296V17.8139V17.1848H29.849H30.2683V16.6756V16.1664H29.849H29.4296V15.7471V15.3277H28.9204H28.4112V15.7471V16.1664H27.7522H27.0932V15.7471V15.3277H26.584H26.0748V15.7471ZM28.4112 17.8139V18.4429H27.7522H27.0932V17.8139V17.1848H27.7522H28.4112V17.8139Z" fill="#ECECEC"/>
</svg>
