<svg width="42" height="39" viewBox="0 0 42 39" fill="none" xmlns="http://www.w3.org/2000/svg">
<g clip-path="url(#clip0_364_409)">
<path d="M41.9212 28.1859C41.9401 28.0069 41.9536 27.8264 41.9641 27.6448C41.9769 27.4299 28.7469 15.1504 28.7469 15.1504H28.4305C28.4305 15.1504 41.8404 28.9874 41.9212 28.1857V28.1859Z" fill="url(#paint0_linear_364_409)"/>
<path d="M13.6946 23.926C13.6771 23.9637 13.6597 24.0014 13.6416 24.039C13.6229 24.0785 13.6036 24.1178 13.5844 24.1568C13.1627 25.017 19.4885 31.0665 19.9972 30.3316C20.0204 30.2992 20.0437 30.2649 20.0668 30.2324C20.0926 30.1939 20.118 30.157 20.1434 30.1185C20.5503 29.5142 13.8753 23.5331 13.6946 23.926Z" fill="url(#paint1_linear_364_409)"/>
<path d="M22.6336 32.4331C22.6157 32.4716 22.4884 32.6822 22.3721 32.7934C22.3524 32.8319 28.5474 38.8421 28.5474 38.8421H29.1052C29.1055 38.8421 23.2898 32.6872 22.6336 32.4331Z" fill="url(#paint2_linear_364_409)"/>
<path d="M41.9729 27.5356C41.6832 33.8185 36.3699 38.8421 29.8782 38.8421H29.0005L22.5177 32.5944C23.0509 31.8587 23.5467 31.0965 23.9881 30.3017H29.8782C31.741 30.3017 33.2569 28.8196 33.2569 26.9963C33.2569 25.1739 31.741 23.691 29.8782 23.691H26.3926C26.6582 22.3176 26.8034 20.9014 26.8034 19.4527C26.8034 17.9817 26.6556 16.5455 26.3804 15.1501H28.5456L41.9347 28.0561C41.9506 27.8831 41.9633 27.7102 41.9729 27.5356ZM3.52193 0H0V8.54036H3.52193C9.67312 8.54036 14.6782 13.4353 14.6782 19.4527C14.6782 21.0897 14.3049 22.6438 13.6416 24.0389L20.0668 30.2324C22.1765 27.1445 23.4098 23.4372 23.4098 19.4527C23.4098 8.72653 14.4879 0 3.52193 0Z" fill="url(#paint3_linear_364_409)"/>
<path d="M29.8782 0H15.6166C19.1 2.08048 21.9844 5.03052 23.9497 8.54036H29.8782C31.741 8.54036 33.2569 10.0225 33.2569 11.8457C33.2569 13.6685 31.741 15.1506 29.8782 15.1506H28.546L41.9352 28.0564C41.9667 27.7064 41.9864 27.3541 41.9864 26.9963C41.9864 24.1172 40.9303 21.4762 39.1768 19.4206C40.9303 17.3659 41.9864 14.7243 41.9864 11.8457C41.9864 5.31427 36.5553 0 29.8782 0Z" fill="url(#paint4_linear_364_409)"/>
<path d="M29.0005 38.842H15.7185C18.3921 37.2268 20.7034 35.0944 22.5177 32.5943L29.0005 38.842ZM20.0668 30.2323L13.6421 24.0388C11.8671 27.7705 7.9992 30.3658 3.52193 30.3658H0V38.9054H3.52193C10.4142 38.9054 16.4976 35.4567 20.0668 30.2323Z" fill="url(#paint5_linear_364_409)"/>
</g>
<defs>
<linearGradient id="paint0_linear_364_409" x1="-1089.94" y1="-1197.9" x2="1339.18" y2="1485.71" gradientUnits="userSpaceOnUse">
<stop stop-color="#F9A03C"/>
<stop offset="1" stop-color="#F7974E"/>
</linearGradient>
<linearGradient id="paint1_linear_364_409" x1="-1694.58" y1="-1590.89" x2="618.583" y2="703.811" gradientUnits="userSpaceOnUse">
<stop stop-color="#F9A03C"/>
<stop offset="1" stop-color="#F7974E"/>
</linearGradient>
<linearGradient id="paint2_linear_364_409" x1="-1480.22" y1="-1646.52" x2="536.673" y2="782.807" gradientUnits="userSpaceOnUse">
<stop stop-color="#F9A03C"/>
<stop offset="1" stop-color="#F7974E"/>
</linearGradient>
<linearGradient id="paint3_linear_364_409" x1="475.931" y1="-70.7703" x2="3175" y2="3779.25" gradientUnits="userSpaceOnUse">
<stop stop-color="#F26D58"/>
<stop offset="1" stop-color="#F9A03C"/>
</linearGradient>
<linearGradient id="paint4_linear_364_409" x1="433.419" y1="108.242" x2="3283.54" y2="1868.43" gradientUnits="userSpaceOnUse">
<stop stop-color="#B84E51"/>
<stop offset="1" stop-color="#F68E48"/>
</linearGradient>
<linearGradient id="paint5_linear_364_409" x1="1362.56" y1="372.897" x2="1399.92" y2="2217.35" gradientUnits="userSpaceOnUse">
<stop stop-color="#F9A03C"/>
<stop offset="1" stop-color="#F7974E"/>
</linearGradient>
<clipPath id="clip0_364_409">
<rect width="42" height="39" fill="white"/>
</clipPath>
</defs>
</svg>
