<svg width="48" height="38" viewBox="0 0 48 38" fill="none" xmlns="http://www.w3.org/2000/svg">
<path d="M32.695 4.56196L33.2926 4.99214C34.332 5.82562 34.9296 6.76673 35.0595 7.84218C36.1768 7.62709 37.6057 7.78844 38.2294 8.21862L38.801 8.56819L38.6971 8.78344C38.5151 9.18659 38.4633 9.29421 38.4373 9.34795C37.424 11.3645 35.4232 11.3914 34.4879 11.3645C32.1234 17.2528 27.0827 20.5062 20.2749 20.5062C17.1311 20.5062 14.7406 19.5113 13.1296 17.5485C10.9991 14.9676 10.9991 11.6065 11.1809 10.531L11.2329 10.3158H30.0187C31.0059 10.3158 31.7597 10.0471 32.1234 9.83186C31.7336 9.24033 31.6037 8.56819 31.5777 8.19175C31.4997 7.11631 31.7597 5.98698 32.2794 5.18036L32.695 4.56196ZM7.25299 25.6604C7.46272 25.6604 7.64006 25.7302 7.78546 25.87C7.93071 26.0097 8.00348 26.186 8.00348 26.3993V33.0493C8.00348 34.1576 7.61273 35.0955 6.83138 35.8627C6.04066 36.6396 5.09732 37.0279 4.00168 37.0279C2.89652 37.0279 1.95318 36.6396 1.17198 35.8627C0.390626 35.086 2.89356e-05 34.1481 2.89356e-05 33.0493C2.89356e-05 31.9503 0.390626 31.0126 1.17198 30.2359C1.95318 29.4589 2.89652 29.0707 4.00168 29.0707C4.94977 29.0707 5.78579 29.362 6.50987 29.9445V26.3993C6.50987 26.1862 6.58019 26.0097 6.72068 25.87C6.86116 25.7302 7.03865 25.6604 7.25299 25.6604ZM12.8556 29.0707C13.9514 29.0707 14.8946 29.459 15.6853 30.2357C16.076 30.6242 16.3679 31.0529 16.5607 31.5217C16.7537 31.9906 16.8525 32.4999 16.8574 33.0493C16.8574 34.1576 16.4666 35.0955 15.6854 35.8627C14.8947 36.6396 13.9514 37.0279 12.8557 37.0279C11.7504 37.0279 10.8072 36.6396 10.026 35.8627C9.24453 35.086 8.85393 34.1481 8.85393 33.0493C8.85393 31.9503 9.24468 31.0126 10.0259 30.2359C10.8072 29.4589 11.7504 29.0707 12.8556 29.0707ZM21.6954 29.0707C22.7006 29.0707 23.57 29.3928 24.3036 30.037C24.4752 30.1884 24.5608 30.3756 24.5608 30.5981C24.5608 30.8112 24.4905 30.9889 24.35 31.1309C24.2095 31.273 24.032 31.3442 23.8177 31.3442C23.6406 31.3456 23.4687 31.2852 23.3318 31.1736C23.0889 30.97 22.834 30.816 22.5671 30.7119C22.3003 30.6076 22.0098 30.5555 21.6954 30.5555C21.3476 30.5555 21.0213 30.6206 20.7164 30.7509C20.4182 30.8767 20.1466 31.0575 19.916 31.2837C19.6861 31.5105 19.5029 31.7796 19.3765 32.076C19.2455 32.379 19.1799 32.7034 19.1799 33.0493C19.1799 33.3951 19.2455 33.7194 19.3765 34.0226C19.5029 34.319 19.6861 34.5881 19.916 34.8149C20.1466 35.0411 20.4182 35.2219 20.7164 35.3476C21.0213 35.4779 21.3476 35.543 21.6954 35.543C22.0098 35.543 22.3003 35.4921 22.5671 35.3904C22.834 35.2884 23.0864 35.1356 23.3245 34.932C23.4581 34.8326 23.6152 34.7804 23.7962 34.7757C24.0105 34.7757 24.188 34.8456 24.3285 34.9852C24.4692 35.1251 24.5393 35.3014 24.5393 35.5147C24.5393 35.723 24.4607 35.9054 24.3036 36.0616C23.5651 36.7058 22.6958 37.0279 21.6954 37.0279C20.5902 37.0279 19.6469 36.6396 18.8657 35.8627C18.0843 35.086 17.6937 34.1481 17.6937 33.0493C17.6937 31.9503 18.0843 31.0126 18.8657 30.2359C19.6469 29.4589 20.5902 29.0707 21.6954 29.0707ZM26.1547 25.6604C26.3595 25.6604 26.5346 25.7326 26.6798 25.8772C26.8252 26.0216 26.8978 26.1979 26.8978 26.4064V31.9481L31.1711 29.1843C31.2901 29.1085 31.4235 29.0707 31.5712 29.0707C31.6761 29.0707 31.7737 29.0896 31.8642 29.1275C31.9547 29.1653 32.0333 29.2186 32.1 29.2873C32.1666 29.356 32.2202 29.4354 32.2607 29.5254C32.3011 29.6147 32.3218 29.7115 32.3215 29.8094C32.3215 30.0747 32.2263 30.2713 32.0356 30.3992L29.0417 32.3318L32.1143 35.7703C32.2524 35.9219 32.3215 36.0947 32.3215 36.2891C32.3215 36.3884 32.3013 36.4832 32.2607 36.5731C32.2216 36.6613 32.1672 36.7419 32.1 36.8113C32.0333 36.88 31.9547 36.9331 31.8642 36.971C31.7713 37.0093 31.6717 37.0287 31.5712 37.0279C31.3711 37.0279 31.2042 36.9639 31.071 36.836L27.7696 33.1487L26.8978 33.7172V36.2819C26.8978 36.4855 26.8252 36.6608 26.6798 36.8076C26.5346 36.9545 26.3595 37.0279 26.1547 37.0279C25.945 37.0279 25.7676 36.9545 25.6222 36.8076C25.477 36.6608 25.4042 36.4855 25.4042 36.2819V26.4064C25.4042 26.1979 25.477 26.0216 25.6222 25.877C25.7676 25.7326 25.945 25.6604 26.1547 25.6604ZM37.131 29.0707C38.2266 29.0707 39.1699 29.459 39.9606 30.2357C40.3512 30.6195 40.6444 31.0469 40.8397 31.5182C41.035 31.9894 41.1326 32.4997 41.1326 33.0493C41.1326 33.2624 41.06 33.4389 40.9146 33.5785C40.7693 33.7182 40.5918 33.7881 40.3823 33.7881H34.7229C34.8016 34.0441 34.9223 34.2853 35.0801 34.5021C35.2343 34.7146 35.4211 34.9016 35.6338 35.0562C35.8473 35.211 36.0836 35.332 36.3342 35.4151C36.5891 35.5003 36.8547 35.543 37.131 35.543C37.4454 35.543 37.7336 35.4957 37.9955 35.4009C38.2576 35.3063 38.5007 35.1642 38.7245 34.9746C38.8623 34.8581 39.0365 34.7928 39.2174 34.7899C39.4319 34.7899 39.6093 34.8598 39.7498 34.9994C39.8905 35.1393 39.9606 35.3156 39.9606 35.5288C39.9606 35.7372 39.8893 35.9148 39.7463 36.0616C39.0078 36.7058 38.1362 37.0279 37.131 37.0279C36.0256 37.0279 35.0824 36.6396 34.3012 35.8627C33.5199 35.086 33.1293 34.1481 33.1293 33.0493C33.1293 31.9503 33.5199 31.0126 34.3012 30.2359C35.0824 29.4589 36.0256 29.0707 37.131 29.0707ZM45.9563 29.0707C46.1659 29.0707 46.391 29.0849 46.6315 29.1133C46.8721 29.1417 47.0937 29.1927 47.2962 29.2659C47.4986 29.3394 47.6665 29.44 47.7998 29.5679C47.9334 29.6958 48 29.8616 48 30.0652C48 30.1695 47.9798 30.2667 47.9392 30.3566C47.9 30.4447 47.8456 30.5252 47.7785 30.5946C47.7118 30.6633 47.6332 30.7166 47.5426 30.7545C47.4498 30.7928 47.3502 30.8121 47.2497 30.8112C47.1591 30.8112 47.0544 30.7853 46.9352 30.7331C46.6352 30.6148 46.3088 30.5555 45.9563 30.5555C45.6085 30.5555 45.2823 30.6206 44.9773 30.7509C44.6724 30.8812 44.4069 31.0587 44.1805 31.2837C43.9543 31.5087 43.7756 31.7728 43.6446 32.076C43.5137 32.379 43.4481 32.7034 43.4481 33.0493V36.2891C43.4481 36.4927 43.3755 36.6667 43.2301 36.8111C43.0848 36.9557 42.9098 37.0279 42.705 37.0279C42.4954 37.0279 42.3179 36.9557 42.1727 36.8111C42.0273 36.6667 41.9546 36.4927 41.9546 36.2891V29.8095C41.9546 29.6059 42.0273 29.4317 42.1727 29.2875C42.3179 29.1429 42.4954 29.0707 42.705 29.0707C42.9098 29.0707 43.0848 29.1429 43.2301 29.2875C43.3755 29.4317 43.4481 29.6059 43.4481 29.8095V29.9515C43.7977 29.6717 44.1912 29.4509 44.6128 29.298C45.032 29.1464 45.4799 29.0707 45.9563 29.0707ZM4.00168 30.5554C3.64916 30.5554 3.32043 30.6217 3.01551 30.7543C2.71073 30.887 2.44634 31.0657 2.22233 31.2907C1.99847 31.5157 1.82098 31.7797 1.69002 32.083C1.55905 32.386 1.49349 32.7081 1.49349 33.0491C1.49349 33.3902 1.55905 33.7123 1.69002 34.0154C1.82098 34.3185 1.99847 34.5825 2.22233 34.8076C2.44634 35.0324 2.71058 35.2113 3.01551 35.344C3.32043 35.4765 3.64916 35.5429 4.00168 35.5429C4.34944 35.5429 4.67571 35.4765 4.98063 35.344C5.27848 35.2161 5.54896 35.0328 5.77749 34.8039C6.00443 34.5756 6.1862 34.3069 6.31334 34.0118C6.44431 33.711 6.50987 33.3902 6.50987 33.0491C6.50987 32.7081 6.44431 32.3872 6.31334 32.0864C6.1862 31.7913 6.00443 31.5226 5.77749 31.2942C5.54895 31.0654 5.27846 30.8821 4.98063 30.7543C4.67571 30.6217 4.3496 30.5554 4.00168 30.5554ZM12.8557 30.5554C12.5032 30.5554 12.1745 30.6217 11.8696 30.7543C11.5646 30.887 11.3002 31.0657 11.0764 31.2907C10.8525 31.5157 10.675 31.7797 10.5439 32.083C10.4129 32.386 10.3474 32.7081 10.3474 33.0491C10.3474 33.3902 10.4129 33.7123 10.5439 34.0154C10.675 34.3185 10.8525 34.5825 11.0764 34.8076C11.3002 35.0324 11.5646 35.2113 11.8696 35.344C12.1745 35.4765 12.5032 35.5429 12.8557 35.5429C13.2035 35.5429 13.5298 35.4765 13.8347 35.344C14.1325 35.2161 14.403 35.0328 14.6315 34.8039C14.8585 34.5756 15.0402 34.3069 15.1674 34.0118C15.2984 33.711 15.3639 33.3902 15.3639 33.0491C15.3639 32.7081 15.2984 32.3872 15.1674 32.0864C15.0402 31.7913 14.8585 31.5226 14.6315 31.2942C14.403 31.0654 14.1325 30.8821 13.8347 30.7543C13.5298 30.6217 13.2035 30.5554 12.8557 30.5554ZM37.131 30.5554C36.8593 30.5554 36.5951 30.598 36.3378 30.6832C36.0849 30.7662 35.8463 30.8871 35.6303 31.0419C35.4159 31.1959 35.2277 31.383 35.0729 31.5962C34.9155 31.8122 34.797 32.0538 34.7229 32.3102H39.539C39.4601 32.0537 39.3381 31.8123 39.1782 31.5962C39.0221 31.3842 38.8341 31.1973 38.6209 31.0421C38.4074 30.8874 38.1712 30.7664 37.9206 30.6833C37.6662 30.5981 37.3994 30.5549 37.131 30.5554ZM16.1177 7.08914V9.77797H13.2596V7.08944L16.1177 7.08914ZM19.4955 7.08914V9.77797H16.6374V7.08944L19.4955 7.08914ZM22.8734 7.08914V9.77797H20.0151V7.08944L22.8734 7.08914ZM26.2512 7.08914V9.77797H23.3929V7.08944L26.2512 7.08914ZM29.629 7.08914V9.77797H26.7708V7.08944L29.629 7.08914ZM26.2512 3.86281V6.55149H23.3929V3.86296L26.2512 3.86281ZM22.8734 3.86281V6.55149H20.0151V3.86296L22.8734 3.86281ZM19.4955 3.86281V6.55149H16.6374V3.86296L19.4955 3.86281ZM26.2512 0.636475V3.32516H23.3929V0.636475H26.2512Z" fill="#2396ED"/>
</svg>
