<svg width="38" height="45" viewBox="0 0 38 45" fill="none" xmlns="http://www.w3.org/2000/svg">
<g clip-path="url(#clip0_244_265)">
<path d="M0 22.9096C0 24.8102 0.258875 26.6437 0.699141 28.4029H26.6856C29.633 28.4029 32.0227 25.9432 32.0227 22.9096C32.0227 19.8747 29.6329 17.4165 26.6856 17.4165H0.699141C0.258875 19.1744 0 21.0091 0 22.9096Z" fill="#343741"/>
<path d="M35.9238 11.4577C36.6697 10.7505 37.3636 9.99108 38 9.17678C34.0865 4.15741 28.0863 0.937012 21.3482 0.937012C12.914 0.937012 5.65557 5.98662 2.19312 13.2967H31.3698C33.0591 13.2967 34.6828 12.6361 35.9236 11.4577" fill="#FEC514"/>
<path d="M31.3699 32.5227H2.19299C5.65693 39.8314 12.914 44.8824 21.3481 44.8824C28.0861 44.8824 34.0864 41.6606 37.9998 36.6427C37.3642 35.8295 36.6702 35.0665 35.9236 34.3602C34.6827 33.1806 33.0589 32.5227 31.3699 32.5227Z" fill="#00BFB3"/>
</g>
<defs>
<clipPath id="clip0_244_265">
<rect width="38" height="44" fill="white" transform="translate(0 0.937012)"/>
</clipPath>
</defs>
</svg>
