<svg width="32" height="49" viewBox="0 0 32 49" fill="none" xmlns="http://www.w3.org/2000/svg">
<g clip-path="url(#clip0_244_218)">
<path d="M7.88571 48.145C12.2386 48.145 15.7714 44.561 15.7714 40.145V32.145H7.88571C3.5328 32.145 0 35.729 0 40.145C0 44.561 3.5328 48.145 7.88571 48.145Z" fill="#0ACF83"/>
<path d="M0 24.145C0 19.729 3.5328 16.145 7.88571 16.145H15.7714V32.145H7.88571C3.5328 32.145 0 28.561 0 24.145Z" fill="#A259FF"/>
<path d="M0 8.14502C0 3.72902 3.5328 0.14502 7.88571 0.14502H15.7714V16.145H7.88571C3.5328 16.145 0 12.561 0 8.14502Z" fill="#F24E1E"/>
<path d="M15.7715 0.14502H23.6572C28.0101 0.14502 31.5429 3.72902 31.5429 8.14502C31.5429 12.561 28.0101 16.145 23.6572 16.145H15.7715V0.14502Z" fill="#FF7262"/>
<path d="M31.5429 24.145C31.5429 28.561 28.0101 32.145 23.6572 32.145C19.3043 32.145 15.7715 28.561 15.7715 24.145C15.7715 19.729 19.3043 16.145 23.6572 16.145C28.0101 16.145 31.5429 19.729 31.5429 24.145Z" fill="#1ABCFE"/>
</g>
<defs>
<clipPath id="clip0_244_218">
<rect width="31.5429" height="48" fill="white" transform="translate(0 0.14502)"/>
</clipPath>
</defs>
</svg>
