<svg width="48" height="44" viewBox="0 0 48 44" fill="none" xmlns="http://www.w3.org/2000/svg">
<g clip-path="url(#clip0_244_240)">
<path d="M24.0138 43.6506L32.8458 16.8457H15.1816L24.0136 43.6506H24.0138Z" fill="#E24329"/>
<path d="M24.0145 43.6487L15.1823 16.8438H2.80469L24.0145 43.6487Z" fill="#FC6D26"/>
<path d="M2.80464 16.8438L0.120762 24.9897C0.00142871 25.3518 0.00141225 25.7419 0.120715 26.1041C0.240018 26.4662 0.472515 26.7818 0.784887 27.0057L24.0144 43.6489L2.80445 16.8439L2.80464 16.8438Z" fill="#FCA326"/>
<path d="M2.80469 16.8457H15.1823L9.86313 0.701122C9.58938 -0.129633 8.39762 -0.129448 8.12406 0.701122L2.80469 16.8457Z" fill="#E24329"/>
<path d="M24.0139 43.6487L32.8459 16.8438H45.2237L24.0137 43.6487H24.0139Z" fill="#FC6D26"/>
<path d="M45.2235 16.8438L47.9074 24.9897C48.0267 25.3519 48.0267 25.742 47.9073 26.1041C47.788 26.4663 47.5555 26.7819 47.243 27.0057L24.0137 43.6489L45.2235 16.8439V16.8438Z" fill="#FCA326"/>
<path d="M45.2235 16.8457H32.8457L38.1651 0.701122C38.4388 -0.129633 39.6306 -0.129448 39.9041 0.701122L45.2235 16.8457Z" fill="#E24329"/>
</g>
<defs>
<clipPath id="clip0_244_240">
<rect width="48" height="43.6364" fill="white"/>
</clipPath>
</defs>
</svg>
