<svg width="30" height="49" viewBox="0 0 30 49" fill="none" xmlns="http://www.w3.org/2000/svg">
<g clip-path="url(#clip0_244_273)">
<path d="M28.9326 20.4236C28.9326 28.4186 22.5783 34.9061 14.7358 34.9061C6.89318 34.9061 0.539062 28.4186 0.539062 20.4236C0.539062 12.4284 6.89329 5.94092 14.7358 5.94092C22.5784 5.94092 28.9327 12.4284 28.9327 20.4236" fill="#D33833"/>
<path d="M1.12314 24.0083C1.12314 24.0083 0.092752 8.90908 14.0491 8.4749L13.0759 6.85303L5.5081 9.38862L3.34429 11.8671L1.45521 15.4763L0.378906 19.6795L0.69956 22.4893" fill="#EF3D3A"/>
<path d="M5.01509 10.5415C2.53075 13.0885 0.985054 16.595 0.985054 20.4783C0.985054 24.3616 2.53075 27.868 5.01509 30.415C7.51098 32.962 10.9343 34.5268 14.7353 34.5268C18.5364 34.5268 21.9597 32.962 24.4556 30.4151C26.94 27.868 28.4856 24.3616 28.4856 20.4783C28.4856 16.5949 26.94 13.0885 24.4556 10.5415C21.9598 8.00589 18.5364 6.42983 14.7353 6.42983C10.9457 6.42983 7.51109 7.99449 5.01509 10.5415V10.5415ZM4.38544 31.0203C1.74082 28.3249 0.103516 24.5901 0.103516 20.4783C0.103516 16.3665 1.74082 12.6316 4.38544 9.92474C7.03017 7.22926 10.6939 5.55029 14.7354 5.55029C18.7769 5.55029 22.4406 7.22926 25.0853 9.92474C27.7299 12.6202 29.3672 16.355 29.3672 20.4783C29.3672 24.5899 27.7299 28.3249 25.0853 31.0203C22.4406 33.7272 18.7769 35.3948 14.7353 35.3948C10.6939 35.3948 7.03017 33.7272 4.38544 31.0203V31.0203Z" fill="#231F20"/>
<path d="M20.7113 20.5022L18.5474 20.8219L15.628 21.1532L13.7389 21.1989L11.8956 21.1418L10.4873 20.7079L9.23934 19.36L8.26618 16.6074L8.04868 16.0134L6.75499 15.5795L5.99922 14.3346L5.46118 12.5527L6.05657 10.988L7.46484 10.4969L8.59826 11.0337L9.1363 12.2217L9.78891 12.1187L10.0064 11.8447L9.78891 10.5997L9.73168 9.03489L10.0522 6.87627L10.0408 5.64278L11.0254 4.0666L12.7542 2.8216L15.7768 1.53101L19.1314 2.02206L22.0508 4.1237L23.4019 6.28232L24.2719 7.84709L24.4895 11.7304L23.8369 15.0769L22.6461 18.0466L21.5242 19.6341" fill="#F0D6B7"/>
<path d="M18.8788 29.8345L11.1506 30.1543V31.4448L11.8033 35.9793L11.4826 36.3562L6.07869 34.5173L5.70092 33.8663L5.16276 27.7671L3.89192 24.1122L3.61719 23.2442L7.94492 20.2747L9.29596 19.7378L10.4866 21.1997L11.517 22.1135L12.7078 22.4904L13.2458 22.6504L13.8984 25.46L14.3908 26.054L15.6386 25.6199L14.7685 27.2988L19.4626 29.5146L18.8788 29.8344" fill="#335061"/>
<path d="M6.05734 11.0123L7.46561 10.5212L8.59904 11.058L9.13707 12.2459L9.78969 12.1431L9.95007 11.492L9.62942 10.247L9.94996 7.27747L9.67523 5.6556L10.6484 4.52489L12.755 2.85732L12.1596 2.04639L9.18288 3.50826L7.935 4.47919L7.23657 5.98676L6.16038 7.44875L5.83984 9.17341L6.05734 11.0123" fill="#6D6B6D"/>
<path d="M8.2785 5.93979C8.2785 5.93979 9.09127 3.94105 12.3314 2.97023C15.5714 1.99941 12.4918 2.27348 12.4918 2.27348L8.97669 3.62128L7.62588 4.96897L7.0305 6.04258L8.2785 5.93979M6.65273 10.6341C6.65273 10.6341 5.51919 6.85351 9.84692 6.31676L9.68665 5.66571L6.70996 6.36246L5.83984 9.17225L6.05734 11.011L6.65273 10.6341" fill="#DCD9D8"/>
<path d="M8.37933 15.6467L9.08906 14.9614C9.08906 14.9614 9.40972 14.9957 9.46695 15.3725C9.52418 15.7495 9.68445 19.1531 12.0086 20.9806C12.2261 21.1519 10.2798 20.7064 10.2798 20.7064L8.55091 18.0109M18.3285 14.6187C18.3285 14.6187 18.4544 12.9854 18.9009 13.1111C19.3474 13.2367 19.3474 13.6821 19.3474 13.6821C19.3474 13.6821 18.2713 14.3674 18.3285 14.6187M22.8165 8.63389C22.8165 8.63389 21.9234 8.81657 21.8433 9.60471C21.7631 10.3927 22.8165 9.7646 22.9768 9.70751M16.2791 8.69099C16.2791 8.69099 15.0884 8.85087 15.0884 9.60471C15.0884 10.3584 16.4394 10.3013 16.8172 9.98158M8.92879 12.1974C8.92879 12.1974 6.87956 10.9524 6.66206 12.1403C6.44456 13.3281 5.96364 14.1846 6.9826 15.4296L6.28418 15.2127L5.63168 13.5451L5.41406 11.9232L6.66206 10.6326L8.07022 10.7354L8.8831 11.3865L8.92891 12.1974M9.90206 8.79378C9.90206 8.79378 10.8179 4.04235 15.4663 3.12863C19.2901 2.37479 21.3052 3.28863 22.0608 4.15654C22.0608 4.15654 18.649 0.113376 15.4089 1.34687C12.1689 2.59188 9.78749 4.85329 9.84472 6.30388C9.93633 8.79366 9.90195 8.79366 9.90195 8.79366M22.4386 4.69341C22.4386 4.69341 20.8702 4.63631 20.8128 6.04109C20.8128 6.04109 20.8128 6.25818 20.916 6.47516C20.916 6.47516 22.1639 5.07027 22.9195 5.82411" fill="#F7E4CD"/>
<path d="M15.5821 6.62405C15.5821 6.62405 15.3074 4.47683 13.4756 5.72172C12.2848 6.53265 12.3992 7.66336 12.6054 7.88045C12.8229 8.09743 12.7657 8.53139 12.926 8.23452C13.0862 7.93754 13.0404 6.96672 13.6358 6.69254C14.2197 6.41847 15.2044 6.1216 15.5821 6.62405" fill="#F7E4CD"/>
<path d="M10.4986 21.1987L5.41494 23.46C5.41494 23.46 7.52164 31.8206 6.44533 34.4133L5.68979 34.1393L5.63256 30.9526L4.22429 24.9221L3.62891 23.2544L8.92979 19.6909L10.4983 21.1986M11.0136 25.8243L11.7349 26.7039V29.9361H10.8763C10.8763 29.9361 10.7733 27.6747 10.7733 27.4006C10.7733 27.1264 10.8763 26.1556 10.8763 26.1556M11.0366 30.4273L8.59794 30.5301L9.29637 31.0212L11.0251 31.2954" fill="#49728B"/>
<path d="M19.3595 29.8906L21.3629 29.8335L21.8553 34.7904L19.8059 35.0646L19.3594 29.8905" fill="#335061"/>
<path d="M19.8984 29.8902L22.9209 29.7302C22.9209 29.7302 24.1689 26.6008 24.1689 26.4409C24.1689 26.2809 25.2451 21.9066 25.2451 21.9066L22.8065 19.371L22.3141 18.937L21.0204 20.2276V25.2417L19.8984 29.8902" fill="#335061"/>
<path d="M21.2485 29.5136L19.3594 29.8905L19.6342 31.3982C20.3325 31.718 21.5233 30.8614 21.5233 30.8614M21.3057 20.068L25.0954 22.8777L25.1984 21.587L22.3362 18.9487L21.3058 20.068" fill="#49728B"/>
<path d="M12.9152 40.5119L11.7932 35.9775L11.2322 32.631L11.1406 30.1525L16.2125 29.8784H19.361L19.0748 35.5435L19.567 39.9179L19.5098 40.7288L15.3996 41.0487L12.9152 40.5119" fill="white"/>
<path d="M18.6607 29.835C18.6607 29.835 18.386 35.4431 19.1989 39.4405C19.1989 39.4405 17.5731 40.4685 15.2031 40.7311L19.7485 40.5713L20.2865 40.2515L19.634 31.4112L19.4622 29.5151" fill="#DCD9D8"/>
<path d="M21.9358 34.3669L24.0424 33.773L28.0382 33.556L28.6336 31.7171L27.5572 28.5305L26.3094 28.3706L24.5805 28.9075L22.9318 29.7184L22.0503 29.5584L21.3633 29.8326" fill="white"/>
<path d="M21.9023 33.2825C21.9023 33.2825 23.3106 32.6315 23.5281 32.6886L22.9327 29.719L23.6312 29.4448C23.6312 29.4448 24.1235 32.2546 24.1235 32.5744C24.1235 32.5744 27.146 32.7343 27.4207 32.7343C27.4207 32.7343 28.0733 31.4893 27.9131 30.1987L28.5085 31.9233L28.5657 32.8942L27.6956 34.1847L26.7224 34.4018L25.0967 34.3447L24.5585 33.648L22.6694 33.9221L22.074 34.1392" fill="#DCD9D8"/>
<path d="M19.7724 29.4566L18.5816 26.4414L17.3337 24.6595C17.3337 24.6595 17.6086 23.9058 17.9864 23.9058H19.2344L20.4251 24.3397L20.322 26.3386L19.7724 29.4566" fill="white"/>
<path d="M20.0131 28.4293C20.0131 28.4293 18.5018 25.5168 18.5018 25.0827C18.5018 25.0827 18.7766 24.4317 19.1544 24.5917C19.5323 24.7516 20.3452 25.1857 20.3452 25.1857V24.1576L18.5018 23.7808L17.2539 23.9406L19.3605 28.9204L19.7955 28.9775" fill="#DCD9D8"/>
<path d="M13.3963 21.3122L11.8966 21.1522L10.4883 20.7183V21.2094L11.1752 21.9633L13.3391 22.9341" fill="white"/>
<path d="M10.9809 21.4722C10.9809 21.4722 12.6523 22.1689 13.202 22.009L13.2591 22.6601L11.748 22.3402L10.832 21.6891L10.9809 21.4722" fill="#DCD9D8"/>
<path d="M21.9367 24.0886C21.0208 24.0657 20.185 23.9515 19.4637 23.7459C19.5095 23.4489 19.4179 23.1635 19.4981 22.9464C19.7042 22.7979 20.0361 22.7979 20.3452 22.7637C20.0819 22.638 19.7042 22.5809 19.4065 22.6609C19.3949 22.4553 19.3034 22.3296 19.2461 22.1697C19.7614 21.9869 20.975 20.7878 21.6619 21.176C21.994 21.3702 22.1314 22.4438 22.1542 22.9807C22.1771 23.4146 22.1084 23.8487 21.9367 24.0886" fill="#D33833"/>
<path d="M21.9367 24.0886C21.0208 24.0657 20.185 23.9515 19.4637 23.7459C19.5095 23.4489 19.4179 23.1635 19.4981 22.9464C19.7042 22.7979 20.0361 22.7979 20.3452 22.7637C20.0819 22.638 19.7042 22.5809 19.4065 22.6609C19.3949 22.4553 19.3034 22.3296 19.2461 22.1697C19.7614 21.9869 20.975 20.7878 21.6619 21.176C21.994 21.3702 22.1314 22.4438 22.1542 22.9807C22.1771 23.4146 22.1084 23.8487 21.9367 24.0886V24.0886Z" fill="black" stroke="#D33833" stroke-width="2"/>
<path d="M17.551 22.5925C17.551 22.6611 17.551 22.7295 17.5395 22.7981C17.2533 22.9809 16.7952 22.9809 16.4747 23.1408C16.9328 23.1636 17.2991 23.2777 17.6197 23.4262C17.6081 23.5976 17.6081 23.7804 17.5968 23.9517C17.0701 24.3058 16.5893 24.8426 15.971 25.1852C15.6733 25.3452 14.6544 25.7564 14.3453 25.6764C14.1735 25.6307 14.1506 25.4137 14.082 25.2081C13.9331 24.7741 13.5896 24.0659 13.5552 23.4034C13.5208 22.5697 13.4293 21.1648 14.3337 21.3361C15.0664 21.4732 15.9137 21.8045 16.4747 22.1129C16.8296 22.3184 17.0243 22.5468 17.551 22.5925" fill="#D33833"/>
<path d="M17.551 22.5925C17.551 22.6611 17.551 22.7295 17.5395 22.7981C17.2533 22.9809 16.7952 22.9809 16.4747 23.1408C16.9328 23.1636 17.2991 23.2777 17.6197 23.4262C17.6081 23.5976 17.6081 23.7804 17.5968 23.9517C17.0701 24.3058 16.5893 24.8426 15.971 25.1852C15.6733 25.3452 14.6544 25.7564 14.3453 25.6764C14.1735 25.6307 14.1506 25.4137 14.082 25.2081C13.9331 24.7741 13.5896 24.0659 13.5552 23.4034C13.5208 22.5697 13.4293 21.1648 14.3337 21.3361C15.0664 21.4732 15.9137 21.8045 16.4747 22.1129C16.8296 22.3184 17.0243 22.5468 17.551 22.5925V22.5925Z" fill="black" stroke="#D33833" stroke-width="2"/>
<path d="M18.0667 23.5864C17.9865 23.1295 17.8949 23.004 17.9293 22.6041C19.1543 21.7932 19.3718 23.9976 18.0666 23.5864" fill="#D33833"/>
<path d="M18.0667 23.5864C17.9865 23.1295 17.8949 23.004 17.9293 22.6041C19.1543 21.7932 19.3718 23.9976 18.0666 23.5864H18.0667Z" fill="black" stroke="#D33833" stroke-width="2"/>
<path d="M19.8296 23.9522C19.8296 23.9522 19.4519 23.4154 19.7266 23.2555C20.0014 23.0956 20.2647 23.2555 20.425 22.9814C20.5854 22.7072 20.425 22.5475 20.4822 22.2276C20.5395 21.9078 20.8028 21.8507 21.0776 21.7936C21.3524 21.7364 22.108 21.6336 22.2111 21.8964L21.8905 20.9255L21.2379 20.7085L19.1886 21.8964L19.0855 22.4904V23.6782M14.151 25.734C14.0823 24.8888 14.0137 24.055 13.9449 23.2098C13.8304 21.9535 14.2426 22.1704 15.3416 22.1704C15.5134 22.1704 16.372 22.3647 16.4294 22.4904C16.7271 23.0956 15.937 22.9585 16.7727 23.4154C17.4712 23.7924 18.7192 23.187 18.4329 22.3304C18.2725 22.1362 17.6086 22.2733 17.3681 22.1476L16.0973 21.4966C15.5592 21.2225 14.3227 20.8113 13.7502 21.1997C12.2962 22.1819 13.8419 24.649 14.3571 25.6769" fill="#EF3D3A"/>
<path d="M15.5825 6.62507C14.1055 6.28239 13.3729 7.24182 12.9263 8.23543C12.5256 8.14415 12.6859 7.59589 12.789 7.32182C13.0522 6.60228 14.1171 5.63134 14.9871 5.76843C15.3534 5.81413 15.8572 6.15681 15.5825 6.62507M22.761 8.29252H22.8297C23.1617 8.97787 23.4479 9.70892 23.8716 10.3257C23.5854 10.9881 21.742 11.5592 21.7649 10.3942C22.1656 10.2229 22.8526 10.3599 23.2075 10.1315C23.0015 9.57183 22.7152 9.09206 22.761 8.29264M16.3267 8.31554C16.6472 8.89799 16.7502 9.50334 17.1967 9.93741C17.4029 10.1315 17.7921 10.3714 17.5975 10.9195C17.5517 11.0452 17.2197 11.3308 17.025 11.3879C16.3267 11.5935 14.6894 11.4336 15.239 10.554C15.8228 10.577 16.6014 10.931 17.0365 10.5083C16.7045 9.983 16.1091 8.93218 16.3267 8.31554ZM22.4977 14.186C21.4444 14.86 20.265 15.6024 18.5249 15.4311C18.1585 15.1113 18.0097 14.3916 18.376 13.9235C18.5592 14.2433 18.4447 14.8372 18.9714 14.9285C19.956 15.0999 21.1009 14.3231 21.8107 14.0606C22.2457 13.3181 21.7764 13.0555 21.3757 12.5757C20.5628 11.6049 19.4866 10.3942 19.5209 8.94369C19.853 8.7038 19.8758 9.30915 19.9216 9.41195C20.3452 10.3942 21.4101 11.662 22.177 12.5072C22.3717 12.7128 22.6808 12.9184 22.7152 13.0555C22.8182 13.4437 22.4519 13.9234 22.4977 14.1862M8.55266 13.478C8.2207 13.2838 8.14062 12.4615 7.75132 12.4386C7.19032 12.4044 7.29335 13.5123 7.29335 14.1633C6.91558 13.8207 6.84681 12.747 7.12166 12.1988C6.80112 12.0388 6.66358 12.3701 6.48047 12.4843C6.72093 10.8282 8.91912 11.7191 8.55278 13.478M23.1617 14.8828C22.6694 15.8194 21.971 16.8473 20.5284 16.8816C20.494 16.5847 20.4712 16.1164 20.5284 15.9336C21.639 15.8194 22.3259 15.2598 23.1617 14.8828M16.2465 15.4881C17.1624 15.9679 18.8569 16.025 20.1163 15.9907C20.1849 16.2649 20.1849 16.6075 20.1849 16.9387C18.5707 17.0072 16.6701 16.6075 16.2465 15.4881ZM16.0748 16.3791C16.7159 17.978 18.9027 17.7954 20.7459 17.7497C20.6659 17.9553 20.494 18.2065 20.2651 18.2864C19.6697 18.5263 18.044 18.7091 17.2197 18.275C16.7045 18.001 16.361 17.3727 16.0748 17.0072C15.9488 16.8359 15.2619 16.3905 16.0748 16.3791" fill="#231F20"/>
<path d="M22.4172 25.1842C21.673 26.4633 20.9519 27.7768 20.0703 28.8962C20.4365 27.8111 20.5968 25.9837 20.6542 24.5903C21.4327 24.2247 22.0967 24.6702 22.4172 25.1843" fill="#81B0C4"/>
<path d="M26.4354 29.7769C25.5997 29.9481 25.0157 30.7591 24.1914 30.702C24.6494 30.0737 25.4279 29.7996 26.4354 29.7769M26.8018 31.0788C26.1149 31.1474 25.3134 31.2616 24.6265 31.2045C24.9585 30.702 26.2179 30.8847 26.8018 31.0788ZM27.0422 32.2097C26.2751 32.2211 25.3248 32.2097 24.5921 32.1525C25.0271 31.6842 26.5499 31.9812 27.0422 32.2097Z" fill="#231F20"/>
<path d="M20.9745 35.2922C21.089 36.2517 21.4669 37.2226 21.4211 38.2733C20.9974 38.4103 20.757 38.536 20.1845 38.536C20.1502 37.645 20.0242 36.2746 20.0586 35.4179C20.3334 35.4407 20.7455 35.2237 20.9745 35.2922" fill="#DCD9D8"/>
<path d="M19.739 21.1305C19.3497 21.3817 19.0292 21.69 18.6513 21.9642C17.827 22.0099 17.3804 21.9071 16.7852 21.4389C16.7966 21.4046 16.8538 21.416 16.8538 21.3703C17.7353 21.7586 18.8573 21.2104 19.739 21.1304" fill="#F0D6B7"/>
<path d="M15.1367 27.1034C15.3772 26.064 16.3275 25.5159 17.1861 24.9448C18.0676 26.0641 18.6058 27.5032 19.2011 28.8966C17.7929 28.474 16.3618 27.8002 15.1367 27.1034" fill="#81B0C4"/>
<path d="M20.0587 35.4293C20.0244 36.2859 20.1388 37.6451 20.1846 38.5473C20.7572 38.5473 20.9975 38.4217 21.4212 38.2846C21.467 37.2338 21.0891 36.263 20.9747 35.3036C20.7456 35.2237 20.3335 35.4407 20.0587 35.4293V35.4293ZM11.22 30.5866C11.5979 34.0244 12.136 36.9025 13.132 39.9522C15.3417 40.626 17.9979 40.6831 19.9557 40.0778C19.6008 38.3646 19.7496 36.2745 19.5435 34.4355C19.3832 33.0536 19.4634 31.6716 19.2459 30.2667C16.8759 29.7756 13.5328 30.1525 11.22 30.5866ZM19.8069 30.2896C19.7839 31.763 19.8755 33.2248 19.9901 34.6982C20.5624 34.6183 20.9403 34.5612 21.467 34.4355C21.2952 33.0193 21.3182 31.4089 20.9632 30.1525C20.5625 30.164 20.2075 30.1525 19.8069 30.2895V30.2896ZM22.6805 30.0497C22.4058 29.9926 22.0967 30.0497 21.8448 30.0497C21.9707 31.249 22.2569 32.5739 22.36 33.8417C22.7607 33.8531 22.9782 33.6589 23.3103 33.6018C23.3331 32.4939 23.2187 30.9634 22.6805 30.0497ZM27.0426 34.0244C27.8899 33.8188 28.4165 32.7909 28.176 31.7287C28.0158 31.0205 27.741 29.6728 27.4318 29.2159C27.2143 28.8847 26.6075 28.4392 26.1153 28.7476C25.3252 29.2502 23.9399 29.3986 23.3675 30.004C23.6537 30.9634 23.7453 32.2655 23.8597 33.4761C24.8444 33.5333 26.0465 33.2022 26.8709 33.5561C26.2984 33.7389 25.5657 33.7389 25.0734 34.013C25.4855 34.2072 26.4244 34.173 27.0426 34.0245V34.0244ZM19.1886 28.8961C18.5932 27.5027 18.0552 26.0636 17.1735 24.9443C16.3149 25.5153 15.3761 26.0636 15.1242 27.1029C16.3607 27.7997 17.7919 28.4735 19.1886 28.8961ZM20.654 24.5902C20.5968 25.9836 20.4365 27.8111 20.0702 28.8961C20.9517 27.7654 21.6731 26.4633 22.4172 25.1841C22.0967 24.6701 21.4326 24.2247 20.6541 24.5901L20.654 24.5902ZM18.994 24.0078C18.6619 23.9734 18.3757 24.3961 17.9406 24.2133C17.8376 24.3275 17.746 24.4418 17.6429 24.5559C18.6047 25.7208 19.0512 27.3657 19.7954 28.7248C20.1962 27.4114 20.1504 25.9836 20.242 24.5559C19.6924 24.5787 19.3833 24.042 18.994 24.0077V24.0078ZM17.9292 22.6028C17.8948 23.0026 17.9864 23.1283 18.0665 23.5851C19.3717 23.9963 19.1542 21.7919 17.9292 22.6028ZM16.4751 22.1231C15.9141 21.8146 15.067 21.4835 14.3342 21.3465C13.4298 21.1751 13.5213 22.58 13.5557 23.4138C13.59 24.0762 13.9335 24.7729 14.0824 25.2184C14.151 25.424 14.1739 25.641 14.3457 25.6867C14.6548 25.7553 15.6852 25.3555 15.9715 25.1955C16.5897 24.8643 17.0705 24.3276 17.5972 23.962C17.6087 23.7907 17.6087 23.6079 17.6201 23.4366C17.2995 23.2766 16.9446 23.174 16.4751 23.1512C16.7844 22.9912 17.2537 22.9912 17.5399 22.8085C17.5399 22.7399 17.5399 22.6714 17.5514 22.6028C17.0247 22.5457 16.83 22.3173 16.4751 22.1231ZM11.0942 21.1523C10.6248 21.632 12.4107 22.2716 12.9718 22.3059C12.9718 22.009 13.1435 21.7235 13.1091 21.5064C12.4337 21.3922 11.5521 21.4721 11.0942 21.1523ZM16.8645 21.3693C16.8645 21.415 16.8072 21.4036 16.7958 21.4379C17.4026 21.9062 17.849 22.0088 18.6619 21.9633C19.0284 21.7006 19.3603 21.3808 19.7496 21.1294C18.8565 21.2094 17.7345 21.7577 16.8644 21.3693H16.8645ZM22.1539 22.9684C22.131 22.4429 21.9935 21.3579 21.6615 21.1637C20.9747 20.7639 19.761 21.9746 19.2459 22.1574C19.3031 22.3173 19.3947 22.4429 19.4061 22.6485C19.7154 22.5686 20.0816 22.6257 20.3449 22.7513C20.0358 22.7856 19.7038 22.7856 19.4977 22.9341C19.429 23.1511 19.5206 23.4366 19.4634 23.7336C20.1846 23.9392 21.0205 24.042 21.9364 24.0762C22.1081 23.8478 22.1767 23.4137 22.1539 22.9684V22.9684ZM10.3041 21.6092C10.1553 21.5064 9.15927 20.2157 9.02185 20.2728C7.22439 20.981 5.54139 22.2031 4.0415 23.368C5.47262 26.4405 6.05658 30.1982 6.15962 33.8188C7.79693 34.584 9.23935 35.6919 11.4719 35.8061C11.2086 33.9902 10.9797 32.3568 10.8309 30.6435C10.2699 30.4038 9.46839 30.6551 8.94177 30.5751C8.94177 29.9469 9.74312 30.301 9.81177 29.8784C9.8577 29.5585 9.36524 29.5357 9.52562 29.0332C9.93777 29.1817 10.1553 29.5128 10.5904 29.6385C10.9911 28.7705 10.5904 27.2286 10.6476 26.4976C10.6592 26.3606 10.7163 25.7437 11.0254 25.8465C11.3002 25.9379 11.014 27.5027 11.0369 28.1879C11.0598 28.8276 10.9567 29.433 11.22 29.8327C13.3725 29.5357 15.5593 29.353 17.8948 29.2845C17.3796 29.0675 16.7728 28.8619 16.1088 28.4849C15.7424 28.2793 14.609 27.8568 14.506 27.5141C14.3342 26.9658 14.941 26.6804 15.044 26.212C13.9564 26.806 13.7503 25.6411 13.487 24.83C13.258 24.0876 13.1207 23.528 13.0634 23.1054C12.1131 22.6257 11.1056 22.1802 10.3041 21.6092V21.6092ZM21.2036 20.4213C22.7035 19.7018 22.9782 23.1283 22.3828 24.2362C22.4744 24.5673 22.7835 24.693 22.9095 24.9899C22.0737 26.4862 21.1465 27.8796 20.2877 29.353C20.9174 28.9532 21.8334 29.2845 22.5775 28.9875C22.8523 28.8847 23.047 28.2565 23.253 27.754C23.8254 26.3834 24.4207 24.6472 24.6842 23.3454C24.7414 23.0484 24.9131 22.3972 24.8673 22.1345C24.7986 21.6549 24.1574 21.3008 23.8254 21.0152C23.2187 20.467 22.8408 19.9988 22.1996 19.4848C21.9592 19.8617 21.4097 20.1129 21.2036 20.4214V20.4213ZM6.88089 7.16084C6.17104 7.94898 6.31989 9.41097 6.40008 10.4617C7.69377 9.65085 9.39974 10.5303 9.3882 11.9009C10.0064 11.8894 9.61724 11.1356 9.50277 10.6445C9.13631 9.05689 10.121 7.34363 9.54847 5.89315C8.438 5.98443 7.5335 6.4299 6.88089 7.16095V7.16084ZM11.9871 2.60371C10.3729 3.06058 8.30058 4.23698 7.63654 5.68746C8.15174 5.60757 8.50666 5.35629 9.01043 5.32199C9.20508 5.31059 9.45697 5.40199 9.67447 5.34489C10.1095 5.23071 10.4874 4.24838 10.8193 3.88291C11.14 3.52884 11.5292 3.36895 11.7926 3.04918C11.9643 2.96918 12.216 2.96918 12.2276 2.7179C12.1589 2.6379 12.0787 2.58092 11.9871 2.60371V2.60371ZM20.4021 3.03767C18.7192 2.08976 15.8799 1.38161 14.0938 2.27243C12.6512 2.99197 10.705 4.17977 10.0408 5.67618C10.659 7.12654 9.8577 8.45143 9.80035 9.92481C9.7775 10.713 10.1668 11.3869 10.2011 12.2435C9.98358 12.5976 9.34239 12.6318 8.89597 12.609C8.74712 11.8551 8.48381 11.0099 7.7052 10.9185C6.60616 10.793 5.79327 11.7067 5.74747 12.6547C5.69024 13.774 6.60616 15.6243 7.91127 15.4987C8.41504 15.453 8.54104 14.9504 9.0905 14.9504C9.3882 15.5444 8.63266 15.7271 8.55247 16.1496C8.52951 16.2639 8.6097 16.6865 8.66693 16.8921C8.90739 17.8629 9.434 19.1307 9.9492 19.8731C10.6132 20.821 11.907 20.9581 13.3038 21.0495C13.5557 20.5127 14.4716 20.5584 15.0669 20.6955C14.3457 20.41 13.6817 19.7246 13.1321 19.1193C12.5023 18.4225 11.8612 17.6802 11.8269 16.7665C13.029 18.4225 14.0136 19.8731 16.189 20.6042C17.8376 21.1523 19.761 20.3528 21.0319 19.462C21.5585 19.0964 21.8676 18.5025 22.2455 17.9771C23.6422 15.9669 24.2949 13.1115 24.1574 10.3361C24.1002 9.19399 24.1002 8.05177 23.7109 7.28653C23.3103 6.487 21.9478 5.75606 21.1464 6.487C20.9975 5.69897 21.8104 5.2192 22.7606 5.50478C22.0852 4.62535 21.3754 3.58593 20.4021 3.03767V3.03767ZM23.5392 28.8619C24.8559 28.2109 27.3059 27.1143 28.1188 28.8619C28.428 29.5128 28.7829 30.598 28.9317 31.2718C29.1492 32.2084 28.6912 34.1958 27.7181 34.504C26.8594 34.7782 25.8634 34.7668 24.833 34.5612C24.707 34.4585 24.5811 34.2871 24.4781 34.1043C23.7454 34.0815 23.047 34.1387 22.4744 34.4471C22.5317 34.9952 22.1653 35.0752 21.8104 35.1895C21.5585 36.2059 22.3256 37.5308 22.1425 38.4445C22.0165 39.107 21.2036 39.2098 20.6083 39.3239C20.5854 39.6895 20.6312 39.9979 20.677 40.3063C20.5397 40.8088 19.9327 41.0943 19.3489 41.1629C17.437 41.3913 14.5404 41.4941 12.7085 40.8316C12.1932 39.5753 11.7926 38.0563 11.3689 36.6286C9.58285 36.8227 8.12889 35.8632 6.76643 35.2237C6.29704 35.0067 5.64443 34.881 5.4612 34.5041C5.2895 34.1387 5.35816 33.4419 5.31235 32.7909C5.20931 31.1119 5.10627 29.49 4.67127 27.7768C4.47662 27.0001 4.1217 26.3263 3.88124 25.584C3.65231 24.8986 3.263 24.042 3.15997 23.3566C3.01112 22.3402 3.97285 22.283 4.57966 21.8376C5.52997 21.1523 6.27408 20.7753 7.30447 20.1586C7.6137 19.9759 8.52951 19.5191 8.63254 19.302C8.83874 18.8795 8.27774 18.2856 8.12889 17.9543C7.88843 17.4289 7.76243 16.9835 7.72816 16.4694C6.86947 16.3324 6.20543 15.8184 5.81624 15.2474C5.1635 14.288 4.70554 12.5176 5.27808 11.1813C5.32389 11.0785 5.54139 10.8614 5.57577 10.7016C5.64443 10.3818 5.44977 9.95911 5.43835 9.61655C5.38112 7.86898 5.73604 6.3613 6.91527 5.83595C7.39608 3.92861 9.11335 3.30046 10.7278 2.35243C11.3346 1.99836 11.9987 1.76999 12.6855 1.51859C15.147 0.616376 18.9367 0.787657 20.9861 2.32953C21.8562 2.98058 23.2415 4.36256 23.7339 5.36769C25.0504 8.00607 24.9475 12.4262 24.0315 15.6472C23.9055 16.0811 23.7339 16.7093 23.482 17.2347C23.3103 17.6002 22.7721 18.3197 22.8294 18.6395C22.8981 18.9708 24.0659 19.8502 24.3178 20.0901C24.7644 20.5241 25.6229 21.0952 25.6916 21.6435C25.7718 22.2259 25.4398 23.0255 25.2681 23.5851C24.7184 25.4583 24.169 27.1829 23.5392 28.8619V28.8619Z" fill="#231F20"/>
<path d="M14.7796 15.8864C14.8483 15.795 15.2374 15.6467 15.787 15.9094C15.787 15.9094 15.1344 16.0121 15.1916 17.0973L14.9169 17.0401C14.9284 17.0516 14.6422 16.0692 14.7796 15.8864Z" fill="#F7E4CD"/>
<path d="M19.5212 25.1617C19.5212 25.3216 19.3839 25.4587 19.2235 25.4587C19.0632 25.4587 18.9258 25.3216 18.9258 25.1617C18.9258 25.0017 19.0632 24.8647 19.2235 24.8647C19.3953 24.8647 19.5212 25.0017 19.5212 25.1617ZM19.8189 26.5437C19.8189 26.7037 19.6815 26.8407 19.5212 26.8407C19.3609 26.8407 19.2235 26.7037 19.2235 26.5437C19.2235 26.3837 19.3609 26.2467 19.5212 26.2467C19.693 26.2467 19.8189 26.3724 19.8189 26.5437Z" fill="#1D1919"/>
<path d="M4.22546 44.019C4.13385 44.0305 4.05366 44.0419 3.985 44.0533C3.91635 44.0648 3.8477 44.0761 3.75596 44.099C3.65293 44.1218 3.5957 44.1675 3.57285 44.236C3.54989 44.3046 3.52704 44.3731 3.52704 44.4644V47.2512C3.52698 47.4962 3.47219 47.7382 3.36666 47.9595C3.26373 48.1764 3.12631 48.3477 2.9432 48.4962C2.75997 48.6333 2.55389 48.7475 2.32485 48.8161C2.09593 48.8846 1.85547 48.9303 1.6037 48.9303C1.15716 48.9303 0.802119 48.8275 0.527388 48.6105C0.252657 48.3934 0.115234 48.108 0.115234 47.7311C0.115234 47.514 0.172465 47.3312 0.298465 47.1827C0.42435 47.0342 0.596157 46.9657 0.813657 46.9657C1.01973 46.9657 1.18 47.0228 1.30589 47.1485C1.43189 47.2741 1.48912 47.4226 1.48912 47.594C1.48912 47.7425 1.43189 47.891 1.32873 48.0164C1.22581 48.1421 1.09981 48.2678 0.962504 48.3706V48.4163C0.98535 48.462 1.03116 48.5077 1.09981 48.5419C1.16858 48.5762 1.24866 48.5876 1.31743 48.5876C1.60358 48.5876 1.83262 48.4848 1.99289 48.2792C2.15316 48.0737 2.23335 47.7653 2.23335 47.3541V44.4987C2.23335 44.4187 2.22181 44.3388 2.19897 44.2817C2.176 44.2246 2.10735 44.1789 2.00431 44.1332C1.93566 44.099 1.84393 44.0761 1.741 44.0533C1.63797 44.0304 1.55777 44.019 1.48912 44.0076V43.7335H4.19108V44.019H4.22546V44.019ZM8.46158 47.9481C8.38139 48.0851 8.27835 48.2107 8.16389 48.3363C8.04943 48.462 7.912 48.5533 7.76316 48.6448C7.60289 48.7361 7.44262 48.8046 7.28235 48.8503C7.12196 48.896 6.92743 48.9189 6.72135 48.9189C6.36643 48.9189 6.06873 48.8732 5.80543 48.7704C5.55354 48.6676 5.33604 48.5419 5.17566 48.3706C5.00396 48.1992 4.8895 48.0052 4.79789 47.7767C4.71438 47.538 4.67179 47.287 4.67189 47.0342C4.67189 46.7945 4.7177 46.5546 4.80931 46.3376C4.90093 46.1206 5.02681 45.915 5.1872 45.7436C5.34747 45.5724 5.55354 45.4353 5.80543 45.3325C6.06705 45.2258 6.34712 45.1715 6.62973 45.1725C6.9617 45.1725 7.23654 45.2183 7.45404 45.2982C7.67154 45.3782 7.84335 45.4924 7.98066 45.6295C8.11808 45.7664 8.2097 45.9264 8.27835 46.1091C8.33558 46.2919 8.36997 46.4861 8.36997 46.6916V46.92H5.95427C5.95427 47.4112 6.04577 47.7767 6.24043 48.028C6.42366 48.2792 6.73277 48.4049 7.1335 48.4049C7.36243 48.4049 7.55708 48.3477 7.74031 48.2221C7.92322 48.0987 8.07903 47.9393 8.19827 47.7539L8.46158 47.9481V47.9481ZM7.09912 46.5889C7.09912 46.4519 7.08758 46.3034 7.07627 46.1549C7.06473 46.0064 7.04189 45.8807 6.99608 45.7893C6.95027 45.6752 6.90447 45.5952 6.82439 45.5381C6.75562 45.481 6.664 45.4582 6.56108 45.4582C6.37785 45.4582 6.229 45.5495 6.12597 45.7321C6.0115 45.915 5.95427 46.2119 5.94273 46.6117L7.09912 46.5889V46.5889ZM13.5106 48.7932H11.3582V48.5305C11.404 48.5305 11.4612 48.519 11.5185 48.5077C11.5871 48.4962 11.6329 48.4848 11.6673 48.4734C11.7131 48.4505 11.7474 48.4049 11.7704 48.3592C11.7932 48.3135 11.8047 48.2335 11.8047 48.1421V46.4747C11.8047 46.2348 11.7589 46.052 11.6673 45.9264C11.5757 45.8007 11.4498 45.7436 11.2666 45.7436C11.175 45.7436 11.0834 45.7552 11.0033 45.7893C10.9231 45.8121 10.8429 45.8578 10.7628 45.915C10.6942 45.9606 10.6369 46.0063 10.5911 46.0635C10.5453 46.1091 10.5109 46.1548 10.4881 46.2005V48.1078C10.4881 48.1878 10.4995 48.2563 10.5223 48.3135C10.5453 48.3706 10.5911 48.4163 10.6369 48.4391C10.6785 48.467 10.7251 48.4864 10.7742 48.4962L10.946 48.5305V48.7932H8.7707V48.5305C8.82793 48.5305 8.88516 48.519 8.95393 48.5077C9.01116 48.4962 9.06839 48.4848 9.1142 48.4734C9.19427 48.4505 9.24008 48.4049 9.27447 48.3477C9.29731 48.2906 9.32027 48.2221 9.32027 48.1308V46.052C9.32027 45.9835 9.29731 45.9035 9.26304 45.835C9.22866 45.7665 9.17143 45.7093 9.1142 45.6638C9.06839 45.6409 9.02258 45.6065 8.95381 45.5952C8.88371 45.5718 8.81021 45.5603 8.73631 45.561V45.2982L10.4423 45.2069L10.4995 45.264V45.7779H10.511C10.5945 45.7094 10.6747 45.637 10.7514 45.561C10.8357 45.4881 10.9236 45.4195 11.0147 45.3553C11.1063 45.2982 11.2208 45.2525 11.3582 45.2068C11.4955 45.1612 11.6559 45.1497 11.8162 45.1497C12.2054 45.1497 12.4916 45.264 12.6862 45.481C12.8809 45.6979 12.9724 45.9949 12.9724 46.3604V48.1081C12.9724 48.1994 12.984 48.268 13.0068 48.3137C13.0298 48.3707 13.087 48.4051 13.1557 48.4392C13.19 48.4507 13.2358 48.4735 13.293 48.4849C13.3503 48.4964 13.4075 48.5078 13.4877 48.5192V48.7933H13.5106V48.7932ZM18.4337 48.7932H16.7507C16.5732 48.4768 16.3822 48.1682 16.1782 47.8681C16.0065 47.6168 15.8462 47.3769 15.6973 47.1713L15.4913 47.3541V48.1308C15.4913 48.2108 15.5028 48.2907 15.5257 48.3363C15.5485 48.3934 15.5943 48.4277 15.6745 48.462C15.7202 48.4848 15.766 48.4962 15.8233 48.5077C15.8806 48.5191 15.9378 48.5305 15.995 48.5305V48.7932H13.7739V48.5305C13.8311 48.5305 13.8884 48.519 13.9571 48.5077C14.0144 48.4962 14.0716 48.4848 14.1174 48.4734C14.1976 48.4505 14.2433 48.4049 14.2778 48.3477C14.3006 48.2906 14.3235 48.2221 14.3235 48.1308V44.1561C14.3235 44.0761 14.3006 43.9961 14.2662 43.9162C14.2319 43.8363 14.186 43.7677 14.1174 43.722C14.0716 43.6992 14.0029 43.6649 13.9113 43.6535C13.8197 43.6307 13.7396 43.6192 13.6594 43.6192V43.3565L15.434 43.2651L15.4913 43.3222V46.9999C15.663 46.8402 15.869 46.6574 16.0867 46.4518C16.3042 46.2462 16.4873 46.0749 16.6133 45.9378C16.6935 45.8578 16.7392 45.8009 16.7392 45.755C16.7507 45.7093 16.7507 45.6865 16.7507 45.6752C16.7507 45.6295 16.7163 45.5952 16.6361 45.5724C16.556 45.5495 16.453 45.5153 16.2927 45.4924V45.2411H18.1016V45.4924C17.8612 45.561 17.678 45.6181 17.552 45.6752C17.4262 45.7322 17.2887 45.8121 17.1399 45.9035C17.0426 45.9693 16.9471 46.0379 16.8537 46.1091C16.7621 46.1777 16.6591 46.2691 16.5331 46.3718C16.7621 46.7145 16.9796 47.0228 17.1743 47.3084C17.3689 47.5939 17.575 47.9024 17.7925 48.2221C17.8612 48.3363 17.9529 48.4049 18.0672 48.4505C18.1818 48.4848 18.2848 48.5077 18.3993 48.5191V48.7932H18.4337V48.7932ZM20.7235 48.7932H18.468V48.5305C18.5252 48.5305 18.594 48.519 18.6512 48.5077C18.7084 48.4962 18.7657 48.4848 18.8 48.4734C18.8801 48.4505 18.9259 48.4049 18.9603 48.3477C18.9947 48.2906 19.0061 48.2221 19.0061 48.1308V46.052C19.0061 45.9721 18.9832 45.8921 18.9489 45.835C18.9189 45.7731 18.8711 45.7214 18.8116 45.6865C18.7657 45.6638 18.7084 45.6295 18.6168 45.6065C18.5252 45.5838 18.4451 45.561 18.3765 45.561V45.2982L20.1281 45.2069L20.1853 45.264V48.0964C20.1853 48.1764 20.2083 48.2449 20.2426 48.3135C20.277 48.3706 20.3342 48.4163 20.3914 48.4391C20.4422 48.465 20.4961 48.4842 20.5518 48.4962C20.6089 48.5077 20.6663 48.5191 20.7349 48.5305V48.7932H20.7234H20.7235ZM20.2083 43.9391C20.2083 44.1218 20.1395 44.2703 20.0021 44.396C19.8648 44.5215 19.693 44.59 19.5099 44.59C19.3152 44.59 19.155 44.5215 19.0061 44.396C18.8688 44.2703 18.8 44.1104 18.8 43.939C18.8 43.7563 18.8687 43.6078 19.0061 43.4707C19.1434 43.3451 19.3152 43.2766 19.5099 43.2766C19.7045 43.2766 19.8648 43.3451 20.0021 43.4707C20.1395 43.5964 20.2083 43.7563 20.2083 43.9391ZM25.7725 48.7932H23.62V48.5305C23.6657 48.5305 23.723 48.519 23.7803 48.5077C23.8489 48.4962 23.8947 48.4848 23.9291 48.4734C23.9748 48.4505 24.0092 48.4049 24.0322 48.3592C24.055 48.3135 24.0664 48.2335 24.0664 48.1421V46.4747C24.0664 46.2348 24.0206 46.052 23.9291 45.9264C23.8375 45.8007 23.7115 45.7436 23.5284 45.7436C23.4368 45.7436 23.3452 45.7552 23.2651 45.7893C23.1849 45.8236 23.1047 45.8578 23.0246 45.915C22.9558 45.9606 22.8986 46.0063 22.8528 46.0635C22.8071 46.1091 22.7727 46.1548 22.7498 46.2005V48.1078C22.7498 48.1878 22.7613 48.2563 22.7842 48.3135C22.8071 48.3706 22.8528 48.4163 22.8986 48.4391C22.933 48.462 22.9788 48.4848 23.036 48.4962L23.2077 48.5305V48.7932H21.0325V48.5305C21.0897 48.5305 21.147 48.519 21.2156 48.5077C21.2728 48.4962 21.3302 48.4848 21.376 48.4734C21.4561 48.4505 21.5018 48.4049 21.5363 48.3477C21.5591 48.2906 21.5821 48.2221 21.5821 48.1308V46.052C21.5821 45.9835 21.5591 45.9035 21.5247 45.835C21.4905 45.7665 21.4332 45.7093 21.3759 45.6638C21.3302 45.6409 21.2844 45.6065 21.2156 45.5952C21.1455 45.5718 21.072 45.5603 20.9981 45.561V45.2982L22.7041 45.2069L22.7613 45.264V45.7779H22.7727C22.8563 45.7094 22.9365 45.637 23.0132 45.561C23.0975 45.4881 23.1854 45.4195 23.2765 45.3553C23.3681 45.2982 23.4826 45.2525 23.62 45.2068C23.7573 45.1612 23.9177 45.1497 24.078 45.1497C24.4672 45.1497 24.7534 45.264 24.948 45.481C25.1426 45.6979 25.2342 45.9949 25.2342 46.3604V48.1081C25.2342 48.1994 25.2458 48.268 25.2686 48.3137C25.2915 48.3707 25.3487 48.4051 25.4175 48.4392C25.4517 48.4507 25.4975 48.4735 25.5548 48.4849C25.6121 48.4964 25.6693 48.5078 25.7494 48.5192V48.7933H25.7724L25.7725 48.7932ZM27.7531 48.9189C27.5242 48.9189 27.2952 48.8846 27.0776 48.8161C26.8601 48.7475 26.6884 48.679 26.5624 48.599L26.4594 48.8389H26.1847L26.1388 47.514H26.4022C26.4365 47.6168 26.4938 47.7424 26.5854 47.8795C26.6655 48.0164 26.7685 48.1308 26.8715 48.2449C26.9897 48.3517 27.1204 48.4438 27.2608 48.5191C27.4097 48.5876 27.5585 48.6333 27.7188 48.6333C27.9363 48.6333 28.0966 48.5876 28.1996 48.5077C28.3027 48.4277 28.36 48.2906 28.36 48.1194C28.36 48.028 28.337 47.9481 28.2912 47.8795C28.2454 47.8224 28.1768 47.7653 28.0966 47.7196C28.0051 47.6739 27.902 47.6282 27.7875 47.594C27.673 47.5597 27.5356 47.5254 27.3753 47.4683C27.215 47.4226 27.0776 47.3769 26.9632 47.3198C26.8487 47.2741 26.7227 47.1942 26.6082 47.0914C26.5052 47 26.4136 46.8859 26.3563 46.7602C26.2877 46.6346 26.2647 46.4747 26.2647 46.2919C26.2647 45.9606 26.4022 45.6865 26.6884 45.481C26.9746 45.2754 27.341 45.1725 27.799 45.1725C28.0165 45.1725 28.2112 45.1955 28.3944 45.2411C28.5775 45.2868 28.7264 45.3325 28.8522 45.3896L28.9324 45.184H29.2072L29.2644 46.3947H29.0125C28.9324 46.1434 28.7836 45.9378 28.589 45.755C28.3828 45.5724 28.1653 45.481 27.9363 45.481C27.7532 45.481 27.6043 45.5153 27.5013 45.5952C27.3983 45.6752 27.3409 45.7779 27.3409 45.915C27.3409 46.0977 27.4211 46.2234 27.57 46.3033C27.7188 46.3833 27.9363 46.4633 28.2112 46.5318C28.6347 46.646 28.9439 46.7945 29.1499 46.9773C29.3446 47.1713 29.4476 47.4112 29.4476 47.6967C29.4476 48.0851 29.2988 48.3934 28.9897 48.5991C28.6462 48.8046 28.2454 48.9189 27.7532 48.9189H27.7531Z" fill="#231F20"/>
</g>
<defs>
<clipPath id="clip0_244_273">
<rect width="29.5385" height="48" fill="white" transform="translate(0 0.937012)"/>
</clipPath>
</defs>
</svg>
