<svg width="33" height="33" viewBox="0 0 33 33" fill="none" xmlns="http://www.w3.org/2000/svg">
<g clip-path="url(#clip0_785_2911)">
<path d="M33 33H0V0H33V33Z" fill="#D00000"/>
<path d="M8.7915 25.6008C8.7915 25.6265 8.81729 25.6523 8.81729 25.6781L9.38447 26.2453C9.41025 26.2711 9.43604 26.2711 9.46182 26.2711H11.3954C11.4212 26.2711 11.447 26.2453 11.4728 26.2453L12.0399 25.6781C12.0657 25.6523 12.0657 25.6265 12.0657 25.6008V19.4648C12.0657 19.439 12.0915 19.4133 12.0915 19.3875L14.5407 17.0414C14.5665 17.0156 14.5923 17.0156 14.5923 17.0414L20.8056 26.2195C20.8313 26.2453 20.8571 26.2453 20.8829 26.2453H23.6157C23.6415 26.2453 23.6673 26.2195 23.6931 26.1937L24.1829 25.2398V25.1625L16.9384 14.6695C16.9126 14.6437 16.9384 14.6179 16.9384 14.5922L23.6157 7.9406C23.6415 7.91482 23.6415 7.88904 23.6415 7.86326V7.73435C23.6415 7.70857 23.6415 7.68279 23.6157 7.65701L23.229 6.78044C23.229 6.75466 23.2032 6.72888 23.1774 6.72888H20.4704C20.4446 6.72888 20.4188 6.75466 20.3931 6.75466L12.1173 15.082C12.0915 15.1078 12.0915 15.082 12.0915 15.0562V7.45076C12.0915 7.42498 12.0657 7.39919 12.0657 7.37341L11.4985 6.78044C11.4728 6.75466 11.447 6.75466 11.4212 6.75466H9.46182C9.43604 6.75466 9.41025 6.78044 9.38447 6.78044L8.81729 7.39919C8.7915 7.42498 8.7915 7.45076 8.7915 7.47654V25.6008Z" fill="white"/>
</g>
<defs>
<clipPath id="clip0_785_2911">
<rect width="33" height="33" fill="white"/>
</clipPath>
</defs>
</svg>
