<svg width="48" height="47" viewBox="0 0 48 47" fill="none" xmlns="http://www.w3.org/2000/svg">
<g clip-path="url(#clip0_244_257)">
<path d="M15.3908 46.1701C14.2759 46.1701 13.2231 45.6724 12.5108 44.77L1.67233 31.2351C0.960016 30.3327 0.681391 29.1816 0.960016 28.0613L4.83095 11.1661C5.07864 10.0459 5.82189 9.14355 6.84395 8.64582L22.5135 1.11588C23.0091 0.867202 23.5665 0.742676 24.124 0.742676C24.6814 0.742676 25.2386 0.867013 25.7342 1.11606L41.404 8.61474C42.4258 9.11246 43.1691 10.0149 43.4168 11.135L47.2877 28.0302C47.5356 29.1504 47.2877 30.3016 46.5756 31.204L35.7368 44.7389C35.0245 45.61 33.9716 46.139 32.8568 46.139L15.3911 46.1701H15.3908Z" fill="#326DE6"/>
<path d="M24.0929 1.52131C24.5265 1.52131 24.96 1.61456 25.3626 1.80126L41.0324 9.29993C41.8375 9.7044 42.4568 10.4512 42.6426 11.3225L46.5135 28.2177C46.7303 29.1201 46.5135 30.0535 45.9252 30.769L35.0865 44.3041C34.5291 45.0196 33.6619 45.4241 32.764 45.4241H15.391C14.4929 45.4241 13.6259 45.0196 13.0684 44.3041L2.2298 30.769C1.67236 30.0535 1.45542 29.1201 1.64142 28.2177L5.51236 11.3225C5.72911 10.4201 6.31748 9.67332 7.12261 9.29993L22.7925 1.77036C23.1951 1.61475 23.6595 1.5215 24.093 1.5215L24.0929 1.52131ZM24.0929 0.0588379C23.4426 0.0588379 22.7924 0.214448 22.1729 0.494395L6.5033 8.02434C5.26448 8.61551 4.39748 9.7044 4.08773 11.0423L0.216797 27.9377C-0.0927658 29.2757 0.216797 30.6447 1.08398 31.7338L11.9226 45.2687C12.7589 46.3265 14.0284 46.9176 15.36 46.9176H32.7329C34.0645 46.9176 35.3342 46.3265 36.1703 45.2687L47.0091 31.7336C47.8761 30.6758 48.1859 29.2757 47.8761 27.9375L44.0052 11.0423C43.6956 9.7044 42.8284 8.61551 41.5898 8.02434L25.9819 0.494207C25.3935 0.214448 24.7433 0.0588379 24.0929 0.0588379V0.0588379Z" fill="white"/>
<path d="M39.7931 26.8798C39.7622 26.8798 39.7622 26.8798 39.7931 26.8798H39.7622C39.7312 26.8798 39.7003 26.8798 39.7003 26.8487C39.6384 26.8487 39.5765 26.8177 39.5145 26.8177C39.2977 26.7866 39.1119 26.7555 38.9261 26.7555C38.8331 26.7555 38.7403 26.7555 38.6164 26.7242H38.5854C37.9352 26.662 37.4087 26.5999 36.9131 26.4443C36.6964 26.3508 36.6345 26.2265 36.5724 26.102C36.5724 26.0709 36.5415 26.0709 36.5415 26.0398L36.1389 25.9155C36.3291 24.4518 36.2557 22.9656 35.9222 21.528C35.584 20.0785 34.9972 18.6992 34.188 17.452L34.4977 17.1721V17.1099C34.4977 16.9543 34.5287 16.7987 34.6524 16.6431C35.024 16.3008 35.4887 16.0208 36.0461 15.6785C36.1389 15.6164 36.2317 15.5853 36.3247 15.5229C36.5105 15.4297 36.6654 15.3364 36.8512 15.2119C36.8822 15.1808 36.944 15.1497 37.0061 15.0876C37.037 15.0563 37.068 15.0563 37.068 15.0252C37.5015 14.6518 37.5945 14.0296 37.2847 13.6249C37.1299 13.4071 36.8512 13.2828 36.5724 13.2828C36.3249 13.2828 36.108 13.376 35.8912 13.5316L35.8294 13.5938C35.7675 13.6249 35.7364 13.6873 35.6745 13.7183C35.5196 13.874 35.3957 13.9983 35.2719 14.1539C35.21 14.2161 35.1482 14.3095 35.0552 14.3717C34.6215 14.8385 34.2189 15.2119 33.8164 15.4918C33.7235 15.554 33.6307 15.5853 33.5377 15.5853C33.4759 15.5853 33.4138 15.5853 33.3519 15.554H33.29L32.9182 15.8031C32.5157 15.3675 32.0822 14.9941 31.6487 14.6207C29.782 13.1547 27.5355 12.2583 25.1764 12.0381L25.1454 11.6336L25.0835 11.5715C24.9905 11.478 24.8668 11.3848 24.8357 11.167C24.8047 10.6691 24.8668 10.109 24.9287 9.48673V9.45564C24.9287 9.3622 24.9596 9.23786 24.9905 9.14442C25.0215 8.95792 25.0524 8.77103 25.0835 8.55325V8.27331C25.0835 7.71322 24.6499 7.24658 24.1235 7.24658C23.8757 7.24658 23.628 7.37092 23.4422 7.55761C23.2565 7.74431 23.1635 7.99317 23.1635 8.27331V8.52217C23.1635 8.73995 23.1945 8.92664 23.2564 9.11334C23.2873 9.20678 23.2873 9.30003 23.3182 9.42456V9.45564C23.3801 10.0779 23.4731 10.638 23.4112 11.1359C23.3803 11.3537 23.2564 11.4469 23.1635 11.5404L23.1017 11.6025L23.0705 12.007C22.5131 12.0692 21.9557 12.1313 21.3982 12.2559C19.0138 12.7849 16.908 13.9985 15.2668 15.7407L14.957 15.5229H14.8952C14.8333 15.5229 14.7712 15.554 14.7094 15.554C14.6164 15.554 14.5235 15.5229 14.4305 15.4608C14.028 15.1808 13.6254 14.7762 13.1919 14.3095C13.13 14.2473 13.0682 14.1539 12.9752 14.0917C12.8512 13.9361 12.7273 13.8116 12.5724 13.6562C12.5415 13.6249 12.4796 13.594 12.4177 13.5316C12.3868 13.5006 12.3559 13.5006 12.3559 13.4695C12.164 13.3102 11.9234 13.2223 11.6745 13.2204C11.3957 13.2204 11.117 13.345 10.9622 13.5627C10.6524 13.9672 10.7454 14.5895 11.1789 14.9628C11.2099 14.9628 11.2099 14.9941 11.2408 14.9941C11.3027 15.0252 11.3338 15.0874 11.3957 15.1185C11.5815 15.2428 11.7364 15.3362 11.9222 15.4297C12.0152 15.4608 12.108 15.5229 12.201 15.5853C12.7582 15.9274 13.2229 16.2075 13.5945 16.5498C13.7494 16.7053 13.7494 16.8609 13.7494 17.0165V17.0787L14.0589 17.3588C13.997 17.452 13.9352 17.5144 13.904 17.6077C12.3557 20.0658 11.7673 22.9594 12.1699 25.822L11.7673 25.9464C11.7673 25.9776 11.7364 25.9776 11.7364 26.0085C11.6745 26.133 11.5815 26.2576 11.3957 26.3508C10.9312 26.5064 10.3738 26.5688 9.72355 26.631H9.69242C9.59961 26.631 9.47567 26.631 9.38286 26.6621C9.19705 26.6621 9.01124 26.6931 8.79449 26.7242C8.73261 26.7242 8.67074 26.7555 8.60867 26.7555C8.57774 26.7555 8.5468 26.7555 8.51567 26.7866C7.95824 26.9109 7.61755 27.4399 7.71055 27.9376C7.80355 28.3734 8.20611 28.6535 8.70149 28.6535C8.79449 28.6535 8.85636 28.6535 8.94936 28.6222C8.9803 28.6222 9.01124 28.6222 9.01124 28.5912C9.07311 28.5912 9.13499 28.5601 9.19686 28.5601C9.4138 28.4979 9.56867 28.4357 9.75449 28.3423C9.8473 28.3112 9.94011 28.2489 10.0331 28.218H10.064C10.6524 28 11.1789 27.8133 11.6745 27.7511H11.7364C11.9222 27.7511 12.0461 27.8444 12.1389 27.9067C12.1699 27.9067 12.1699 27.9378 12.2008 27.9378L12.6345 27.8757C13.3777 30.178 14.8022 32.2316 16.6912 33.7252C17.1247 34.0673 17.5582 34.3474 18.0229 34.6276L17.837 35.0318C17.837 35.0631 17.868 35.0631 17.868 35.094C17.9299 35.2185 17.9917 35.3741 17.9299 35.5919C17.7442 36.0588 17.4654 36.5254 17.1247 37.0544V37.0855C17.0629 37.1789 17.001 37.2411 16.9391 37.3343C16.8152 37.4899 16.7222 37.6456 16.5982 37.8323C16.5673 37.8633 16.5364 37.9255 16.5054 37.9879C16.5054 38.0189 16.4745 38.05 16.4745 38.05C16.2268 38.579 16.4126 39.1702 16.877 39.388C17.0008 39.4501 17.1247 39.4814 17.2487 39.4814C17.6203 39.4814 17.9919 39.2324 18.1777 38.8901C18.1777 38.859 18.2087 38.8279 18.2087 38.8279C18.2396 38.7657 18.2705 38.7036 18.3015 38.6723C18.3945 38.4545 18.4254 38.2989 18.4873 38.1122L18.5803 37.8323C18.797 37.21 18.9519 36.7121 19.2305 36.2765C19.3543 36.0898 19.5094 36.0588 19.6331 35.9964C19.664 35.9964 19.664 35.9964 19.695 35.9653L19.9119 35.5608C21.2745 36.0898 22.761 36.3698 24.2473 36.3698C25.1454 36.3698 26.0745 36.2765 26.9417 36.0588C27.4874 35.9362 28.0251 35.7803 28.5519 35.5919L28.7375 35.9342C28.7687 35.9342 28.7687 35.9342 28.7996 35.9653C28.9545 35.9964 29.0782 36.0587 29.2022 36.2454C29.4499 36.681 29.6357 37.21 29.8524 37.8012V37.8323L29.9454 38.1122C30.0073 38.2989 30.0382 38.4856 30.131 38.6723C30.1622 38.7345 30.1931 38.7657 30.2241 38.8279C30.2241 38.859 30.2552 38.8901 30.2552 38.8901C30.4408 39.2635 30.8124 39.4814 31.184 39.4814C31.308 39.4814 31.4319 39.4501 31.5557 39.388C31.7724 39.2636 31.9582 39.0768 32.0203 38.8279C32.0822 38.579 32.0822 38.2989 31.9584 38.05C31.9584 38.0189 31.9273 38.0189 31.9273 37.9879C31.8964 37.9257 31.8654 37.8635 31.8345 37.8323C31.7415 37.6456 31.6177 37.4899 31.4938 37.3343C31.4319 37.2411 31.37 37.1789 31.3082 37.0857V37.0544C30.9673 36.5254 30.6575 36.0588 30.5029 35.5919C30.441 35.3741 30.5029 35.2498 30.5338 35.0942C30.5338 35.0631 30.5647 35.0631 30.5647 35.032L30.4099 34.6586C32.0512 33.6941 33.4447 32.3249 34.4977 30.6448C35.0552 29.7735 35.4887 28.8089 35.7982 27.8444L36.1699 27.9066C36.201 27.9066 36.201 27.8755 36.2317 27.8755C36.3557 27.8133 36.4487 27.72 36.6345 27.72H36.6964C37.1919 27.7822 37.7182 27.9687 38.3068 28.1867H38.3377C38.4305 28.2178 38.5234 28.2799 38.6164 28.311C38.8022 28.4045 38.957 28.4666 39.1738 28.529C39.2357 28.529 39.2975 28.5601 39.3596 28.5601C39.3905 28.5601 39.4215 28.5601 39.4524 28.5912C39.5454 28.6222 39.6073 28.6222 39.7003 28.6222C40.1647 28.6222 40.5673 28.3112 40.6912 27.9067C40.6912 27.5334 40.3505 27.0354 39.7931 26.88V26.8798ZM25.455 25.3552L24.0924 26.0087L22.7299 25.3552L22.3894 23.8929L23.3182 22.7106H24.8357L25.7647 23.8929L25.4552 25.3552H25.455ZM33.5377 22.1194C33.778 23.1483 33.8511 24.2094 33.7545 25.2617L29.0164 23.8929C28.5829 23.7686 28.3352 23.3328 28.428 22.8973C28.4589 22.7727 28.521 22.6482 28.6138 22.555L32.361 19.1634C32.8873 20.0347 33.2899 21.0303 33.5377 22.1192V22.1194ZM30.8745 17.2966L26.8177 20.1903C26.477 20.4081 26.0124 20.3457 25.7338 20.0036C25.641 19.9102 25.61 19.7856 25.5789 19.6613L25.3003 14.5895C27.4093 14.8335 29.374 15.7876 30.8745 17.2966V17.2966ZM21.8938 14.7449C22.2345 14.6827 22.544 14.6205 22.8847 14.5584L22.6061 19.5366C22.5752 19.9721 22.2345 20.3455 21.7699 20.3455C21.6461 20.3455 21.4912 20.3144 21.3982 20.2523L17.2796 17.2966C18.5494 16.0208 20.1287 15.1495 21.8938 14.7451V14.7449ZM15.7931 19.1632L19.4782 22.4613C19.8189 22.7415 19.8499 23.2703 19.5712 23.6126C19.4782 23.7369 19.3545 23.8304 19.1996 23.8616L14.3996 25.2617C14.2138 23.1459 14.6782 20.999 15.7931 19.1632V19.1632ZM14.9569 27.5953L19.881 26.7551C20.2835 26.724 20.6552 27.0042 20.748 27.4086C20.7789 27.5951 20.7789 27.7509 20.717 27.9066L18.828 32.4803C17.0938 31.3601 15.7003 29.6488 14.957 27.5953H14.9569ZM26.2603 33.7871C25.548 33.9428 24.8357 34.036 24.0924 34.036C23.0087 34.036 21.9557 33.8495 20.9649 33.5383L23.4112 29.0889C23.6589 28.8088 24.0615 28.6844 24.4022 28.8711C24.5468 28.9601 24.6729 29.0763 24.7738 29.2132L27.1582 33.5383C26.8796 33.6315 26.5699 33.6939 26.2601 33.7871H26.2603ZM32.2989 29.4623C31.5247 30.7068 30.5027 31.7024 29.3261 32.4803L27.3752 27.7818C27.2822 27.4086 27.437 27.0042 27.8087 26.8173C27.9324 26.7551 28.0873 26.724 28.2422 26.724L33.197 27.5643C33.0112 28.2487 32.7015 28.8711 32.2989 29.4623V29.4623Z" fill="white"/>
</g>
<defs>
<clipPath id="clip0_244_257">
<rect width="48" height="46.9091" fill="white" transform="translate(0 0.027832)"/>
</clipPath>
</defs>
</svg>
