<svg width="48" height="33" viewBox="0 0 48 33" fill="none" xmlns="http://www.w3.org/2000/svg">
<g clip-path="url(#clip0_244_126)">
<path d="M14.2791 21.5018L15.7378 26.1754C16.0656 27.2366 16.2023 27.9774 16.1475 28.3996C16.9453 26.2897 17.5027 23.9904 17.8199 21.5018H19.574C18.8198 25.5533 17.825 28.4974 16.5902 30.3341C15.6281 31.7494 14.5742 32.457 13.4265 32.457C13.1205 32.457 12.7432 32.3658 12.2956 32.1845V31.2079C12.5143 31.2395 12.7709 31.2565 13.066 31.2565C13.6014 31.2565 14.033 31.1099 14.3613 30.8175C14.7544 30.4612 14.9512 30.0607 14.9512 29.6168C14.9512 29.3137 14.7977 28.6917 14.4922 27.7508L12.4597 21.5018H14.279H14.2791ZM3.11466 18.6292L5.78653 26.6789H5.80303L8.49131 18.6292H10.6877C11.1686 22.6212 11.4527 26.2739 11.5399 29.5847H9.68812C9.62297 26.4897 9.4425 23.5794 9.14737 20.8533H9.13125L6.31144 29.5847H4.90125L2.0985 20.8533H2.082C1.87406 23.4714 1.74319 26.3817 1.68862 29.5847H0C0.109125 25.6893 0.382219 22.0378 0.819281 18.6292H3.11475H3.11466Z" fill="#00758F"/>
<path d="M33.0469 18.4671C35.921 18.4671 37.3581 20.2803 37.3581 23.9047C37.3581 25.8743 36.9259 27.362 36.0624 28.3671C35.9068 28.5507 35.7347 28.7094 35.5536 28.8564L37.5875 29.8494L37.5855 29.8493L36.8634 31.0807L34.2147 29.5547C33.7756 29.6831 33.2925 29.7472 32.7661 29.7472C31.3549 29.7472 30.3008 29.3411 29.6038 28.5299C28.8388 27.6325 28.4565 26.2198 28.4565 24.2941C28.4565 22.3356 28.888 20.8536 29.7518 19.8472C30.5385 18.9267 31.6371 18.467 33.0469 18.467V18.4671ZM24.2457 18.4831C25.2729 18.4831 26.2069 18.7545 27.0482 19.2954L26.6209 20.2356C25.901 19.9335 25.1912 19.7818 24.4913 19.7818C23.9233 19.7818 23.4857 19.9167 23.1807 20.1883C22.8739 20.4575 22.6842 20.8039 22.6842 21.2262C22.6842 21.8752 23.1523 22.4379 24.0168 22.9134C24.3 23.0662 24.5822 23.2209 24.8635 23.3773L24.928 23.4131L24.9603 23.431L25.0249 23.4669L25.0572 23.4848L25.1217 23.5207C25.776 23.885 26.3918 24.2327 26.3918 24.2327C27.2562 24.8386 27.687 25.4846 27.687 26.5485C27.687 27.4776 27.3422 28.2404 26.6548 28.8372C25.967 29.4313 25.0429 29.7292 23.8857 29.7292C22.8033 29.7292 21.7543 29.3863 20.7383 28.7063L21.2136 27.7652C22.088 28.198 22.8793 28.4141 23.5898 28.4141C24.2562 28.4141 24.7778 28.2672 25.1551 27.9771C25.5317 27.6848 25.7574 27.2772 25.7574 26.7604C25.7574 26.1099 25.2991 25.5538 24.4585 25.0873C24.1953 24.9438 23.933 24.7989 23.6714 24.6525L23.607 24.6165C23.4887 24.5505 23.3696 24.4837 23.2528 24.4182L23.1896 24.3827C22.6219 24.0639 22.1311 23.7853 22.1311 23.7853C21.2908 23.1783 20.8693 22.5271 20.8693 21.454C20.8693 20.5665 21.1836 19.8491 21.8112 19.3034C22.4402 18.7565 23.2518 18.4831 24.2457 18.4831V18.4831ZM40.7358 18.6297V28.2376H44.2269V29.5852H38.9653V18.6297H40.7358ZM46.1667 28.2417V28.4695H45.7829V29.584H45.4895V28.4695H45.0908V28.2417H46.1668H46.1667ZM46.8755 28.2417L47.244 29.1567L47.5826 28.2417H47.9985V29.584H47.722V28.5625L47.3367 29.584H47.1373L46.7513 28.5625H46.7365V29.584H46.4748V28.2417H46.8756H46.8755ZM32.8662 19.8144C31.1725 19.8144 30.3252 21.1947 30.3252 23.9533C30.3252 25.5335 30.5497 26.6794 30.9979 27.3936C31.413 28.0546 32.0632 28.3844 32.9485 28.3844C34.6422 28.3844 35.4894 26.9934 35.4894 24.2127C35.4894 22.6546 35.2648 21.5186 34.8172 20.804C34.4016 20.1445 33.7517 19.8144 32.8663 19.8144H32.8662Z" fill="#F29111"/>
<path d="M28.4262 0.860723C28.988 -0.502495 30.9526 0.52987 31.7149 1.00606C31.9018 1.1252 32.1161 1.37691 32.3303 1.46994C32.6645 1.4829 32.9985 1.50873 33.3333 1.52252C33.9612 1.66823 34.5494 1.78728 35.0442 2.06555C37.3437 3.40276 38.8406 4.76542 40.2183 7.01622C40.5126 7.49297 40.6597 8.00887 40.9002 8.52477C41.2339 9.29377 41.6089 10.101 41.9963 10.8282C42.1698 11.1729 42.3039 11.5562 42.5448 11.8474C42.6388 11.9805 42.9059 12.0197 43.0655 12.0993C43.5069 12.3249 44.0417 12.4961 44.4568 12.7609C45.232 13.2382 45.9815 13.8069 46.6629 14.3892C46.9169 14.614 47.0899 14.9322 47.3319 15.1699V15.2899C47.1171 15.3549 46.9031 15.4216 46.6889 15.475C46.221 15.5937 45.8065 15.5668 45.3526 15.6856C45.0721 15.766 44.7238 15.872 44.4296 15.8989L44.4568 15.9259C44.6298 16.4142 45.5662 16.8114 45.9945 17.1034C46.5146 17.4741 46.9966 17.9236 47.3845 18.4399C47.5185 18.5716 47.6524 18.6915 47.7858 18.8229C47.8789 18.956 47.9052 19.1282 47.9995 19.2469V19.287C47.8951 19.2507 47.82 19.1812 47.7488 19.1086L47.7063 19.0649C47.6639 19.0214 47.621 18.9786 47.5722 18.9433C47.2771 18.7443 46.984 18.5062 46.6889 18.3211C46.1815 18.0032 45.593 17.8187 45.0721 17.4996C44.7775 17.3144 44.4967 17.1034 44.2159 16.8915C43.9614 16.7057 43.6811 16.3489 43.5212 16.0841C43.4269 15.9379 43.414 15.766 43.3064 15.6601C43.3256 15.4834 43.4896 15.4309 43.655 15.3878L43.6931 15.3779C43.7502 15.3633 43.8061 15.3486 43.8548 15.3293C44.5499 15.0379 45.3785 14.9322 46.4486 14.9586C46.4083 14.6933 45.7397 14.3627 45.5262 14.2039C45.0978 13.899 44.6441 13.5808 44.1896 13.3033C43.9488 13.1579 43.5337 13.0518 43.2669 12.9331C42.9059 12.7874 42.1035 12.6417 41.9034 12.3642C41.5636 11.9267 41.3194 11.4049 41.0824 10.8778L41.0179 10.7339C40.9964 10.686 40.9749 10.6381 40.9533 10.5902C40.6731 9.95539 40.3251 9.29359 40.0443 8.64364C39.8975 8.32658 39.8301 8.04831 39.6693 7.74421C38.6937 5.87814 37.2497 4.31579 35.4989 3.21706C34.9235 2.85954 34.282 2.52869 33.5738 2.30383C33.1725 2.18414 32.6908 2.25032 32.2632 2.15849H31.9818C31.7416 2.09166 31.541 1.84023 31.3536 1.70767C30.9397 1.43013 30.5252 1.24379 30.0302 1.04577C29.8567 0.966348 29.3614 0.781389 29.1886 0.927005C29.0815 0.953573 29.0272 0.993472 29.0009 1.09956C28.8944 1.25786 28.988 1.49632 29.0543 1.64231C29.2551 2.06536 29.5356 2.31679 29.7903 2.6743C30.0168 2.99136 30.2981 3.34888 30.4587 3.69362C30.8052 4.43466 30.9665 5.25568 31.2876 5.99663C31.4067 6.27527 31.595 6.59233 31.7684 6.84366C31.9153 7.04316 32.1824 7.18738 32.2632 7.43992C32.4243 7.70468 32.0221 8.57828 31.929 8.85572C31.5807 9.94131 31.6482 11.4503 32.0493 12.3913L32.0706 12.4409L32.092 12.4912C32.2384 12.8359 32.3952 13.207 32.7845 13.3034C32.8113 13.2771 32.7845 13.2909 32.8377 13.2771C32.9319 12.5487 32.9584 11.8473 33.2127 11.2774C33.3596 10.9211 33.6529 10.6692 33.854 10.3783C33.9881 10.4576 33.9881 10.6965 34.068 10.8546C34.242 11.2647 34.4288 11.7143 34.6433 12.1256C35.0836 12.9727 35.5789 13.7939 36.1402 14.5348C36.3282 14.7995 36.5949 15.0908 36.8355 15.3292C36.9426 15.4215 37.0626 15.4748 37.1432 15.5936H37.1694V15.6336C36.7683 15.4876 36.5141 15.0779 36.1942 14.8387C35.592 14.389 34.8708 13.7138 34.4556 13.0659C34.282 12.6939 34.0943 12.3375 33.9072 11.9673V11.9406C33.8272 12.0463 33.854 12.1513 33.814 12.3113C33.6404 12.9727 33.7741 13.7272 33.1725 13.9652C32.4905 14.2438 31.9818 13.5155 31.7684 13.1846C31.0863 12.0861 30.8994 10.233 31.3804 8.73714C31.4873 8.406 31.5018 8.00887 31.6884 7.74448C31.6481 7.50546 31.4615 7.44011 31.3536 7.29366C31.1665 7.04334 31.0063 6.75174 30.8597 6.47375C30.5783 5.93072 30.3781 5.28188 30.1644 4.69951C30.0705 4.46169 30.0436 4.22294 29.9499 3.99781C29.7902 3.65418 29.4957 3.30944 29.2685 3.00544C28.9609 2.56849 28.0651 1.72164 28.4262 0.860723V0.860723ZM32.8111 3.45413C32.8468 3.4895 32.8899 3.52041 32.9345 3.55087L32.9883 3.58734C33.0601 3.63641 33.1295 3.68806 33.1721 3.75842C33.2396 3.85155 33.2522 3.94347 33.333 4.03678C33.333 4.35495 33.2396 4.56648 33.0511 4.6983C33.0511 4.6983 33.0382 4.71219 33.025 4.72515C32.9181 4.51307 32.8245 4.30209 32.7168 4.0902C32.5843 3.90524 32.3969 3.75851 32.2889 3.54717H32.2629V3.5206C32.4243 3.48126 32.5843 3.45413 32.8111 3.45413Z" fill="#00758F"/>
</g>
<defs>
<clipPath id="clip0_244_126">
<rect width="48" height="32.3077" fill="white" transform="translate(0 0.181885)"/>
</clipPath>
</defs>
</svg>
