<svg width="54" height="17" viewBox="0 0 54 17" fill="none" xmlns="http://www.w3.org/2000/svg">
<path d="M38.3047 5.83679V11.6736H39.1546H40.0044L40.0289 9.16792C40.0533 6.41803 40.0679 6.23731 40.361 5.63165C40.5417 5.26044 40.8934 4.92831 41.2744 4.78178C41.5088 4.68897 41.6505 4.66944 42.1389 4.66455C42.6371 4.66455 42.7592 4.67921 42.9497 4.76712C43.2525 4.90877 43.5065 5.18229 43.6384 5.51443C43.7507 5.78795 43.7507 5.81237 43.7752 8.71856L43.7996 11.6492L44.669 11.6638L45.5335 11.6736V8.87486C45.5335 7.24837 45.514 5.90518 45.4847 5.66584C45.3284 4.4008 44.7325 3.64372 43.6482 3.34578C43.4919 3.30182 43.0962 3.25786 42.7739 3.24321C41.7384 3.19437 41.162 3.38485 40.4294 4.03447L39.9898 4.42522L40.0093 2.21261L40.024 5.01983e-06H39.1643H38.3047V5.83679Z" fill="white"/>
<path d="M18.2546 1.62152C18.2302 1.73874 17.986 3.27243 17.986 3.33104C17.986 3.35546 17.7125 3.37011 17.3754 3.37011H16.7649V4.0295V4.68889H17.3266H17.8883V7.11641C17.8932 9.79303 17.9127 10.0665 18.1716 10.6234C18.5623 11.4488 19.2217 11.7907 20.4281 11.7858C20.9996 11.781 21.4148 11.7223 21.8837 11.5709L22.04 11.5172V10.8725V10.2277L21.615 10.3156C20.7798 10.4866 20.2914 10.4182 19.9641 10.0861C19.632 9.75395 19.632 9.77349 19.6125 7.09198L19.5929 4.68889H20.7652H21.9423V4.0295V3.37011L20.7847 3.36035L19.6222 3.34569L19.6076 2.42744L19.5978 1.51406H18.9384C18.2986 1.51406 18.279 1.51895 18.2546 1.62152Z" fill="white"/>
<path d="M3.99717 3.30182C3.51362 3.40928 3.11311 3.60465 2.75167 3.91236C2.58071 4.05889 2.3658 4.23473 2.27789 4.31288L2.12159 4.44476L2.03855 4.09308C1.99459 3.89771 1.94087 3.65349 1.91156 3.55092L1.86272 3.3702H1.20821H0.548828V7.49747V11.6247H1.3987H2.25346L2.273 9.02139C2.28765 6.71109 2.29742 6.38873 2.37557 6.12986C2.58071 5.44116 2.94704 4.98692 3.47455 4.77689C3.70411 4.68409 3.84576 4.66944 4.35862 4.66455C4.94474 4.66455 4.97893 4.66944 5.23291 4.81108C5.56993 4.99669 5.75065 5.22137 5.88742 5.617C5.98999 5.9296 5.99487 5.99309 6.00952 8.80159L6.02418 11.6736H6.87405H7.72881V8.66971C7.72881 5.32394 7.71904 5.2116 7.41133 4.56687C7.12804 3.97098 6.58588 3.53627 5.89718 3.34578C5.47225 3.22856 4.42211 3.20413 3.99717 3.30182Z" fill="white"/>
<path d="M12.2224 3.25293C11.8073 3.30666 10.9916 3.47761 10.7278 3.56553C10.215 3.74136 9.82423 3.92208 9.84377 3.97581C9.85842 4.00512 9.98053 4.28352 10.1222 4.59612L10.3713 5.16759L10.8451 4.97222C11.6461 4.64497 11.9782 4.5717 12.6376 4.56682C13.1847 4.56682 13.2433 4.57658 13.507 4.70358C13.9906 4.94291 14.225 5.43623 14.225 6.20796V6.58893L13.971 6.61336C13.8294 6.62801 13.341 6.64755 12.8818 6.6622C11.3335 6.70616 10.3127 6.98945 9.68747 7.55115C9.19904 7.99074 8.99878 8.5036 8.99878 9.31928C8.99878 10.1887 9.19415 10.6967 9.70701 11.1753C10.0196 11.4684 10.2882 11.6052 10.7962 11.7273C11.1088 11.8054 12.1296 11.8005 12.4911 11.7273C12.9649 11.6247 13.6877 11.2193 14.1615 10.7797C14.2788 10.6722 14.3716 10.5941 14.3764 10.6039C14.3764 10.6136 14.4497 10.853 14.5327 11.1363L14.6939 11.6491L15.3142 11.6638L15.9345 11.6784V8.67455C15.9345 5.32877 15.9248 5.18224 15.6171 4.56193C15.2068 3.72182 14.3325 3.292 12.9551 3.24804C12.6474 3.23827 12.3152 3.24316 12.2224 3.25293ZM14.1713 8.36683C14.1518 9.03599 14.1469 9.07506 13.9955 9.38278C13.805 9.76376 13.4533 10.1154 13.087 10.2864C12.5741 10.5208 11.6998 10.5404 11.2993 10.3303C11.1137 10.2375 10.9183 10.0177 10.8353 9.80772C10.7278 9.54885 10.7327 8.96761 10.8499 8.71362C11.1479 8.05424 11.7975 7.79537 13.3214 7.7221C13.7512 7.70256 14.1225 7.67814 14.1469 7.67814C14.1664 7.67326 14.1811 7.98097 14.1713 8.36683Z" fill="white"/>
<path d="M26.0061 3.28233C25.2148 3.38002 23.8472 3.81961 23.8472 3.97591C23.8472 4.00521 23.9644 4.28362 24.1012 4.59622L24.3601 5.16769L24.531 5.09442C25.7814 4.54737 26.8266 4.40573 27.4714 4.70367C27.9647 4.92835 28.1943 5.38748 28.1943 6.15921V6.57926L28.0135 6.61345C27.911 6.6281 27.574 6.64276 27.2662 6.64276C25.0927 6.64276 23.6616 7.18003 23.2025 8.1569C23.0364 8.51346 22.968 8.86025 22.968 9.3438C22.9729 10.5844 23.5737 11.4099 24.6922 11.7078C25.1074 11.8202 26.1477 11.8153 26.5824 11.7029C26.9683 11.6052 27.6912 11.1852 28.0624 10.8433C28.3408 10.5893 28.3896 10.56 28.3896 10.6528C28.3896 10.687 28.458 10.9263 28.5362 11.1901L28.6876 11.6736H29.2932H29.9038V8.60626C29.9038 5.2556 29.894 5.1628 29.6156 4.58156C29.4495 4.22501 29.1076 3.86357 28.756 3.66331C28.121 3.30187 27.0367 3.15045 26.0061 3.28233ZM28.1943 8.07387C28.1894 8.95794 28.0184 9.50987 27.6228 9.9055C26.9292 10.5942 25.4737 10.6821 24.9559 10.0618C24.7948 9.87131 24.7264 9.62709 24.7313 9.25588C24.7361 8.90909 24.7948 8.72837 25.0048 8.43531C25.1953 8.16667 25.6153 7.94688 26.1575 7.83454C26.4945 7.76616 28.0673 7.66358 28.1601 7.70754C28.1796 7.71731 28.1943 7.88338 28.1943 8.07387Z" fill="white"/>
<path d="M33.6892 3.25302C32.5219 3.42397 31.6915 3.89775 31.3936 4.55225C31.0175 5.37771 31.2031 6.45715 31.8185 7.00908C32.1897 7.34121 32.644 7.59032 33.6062 7.99572C34.8371 8.50857 35.2913 8.77721 35.4476 9.08981C35.5599 9.29984 35.5404 9.71012 35.4085 9.93968C35.0129 10.6333 33.2936 10.6626 31.6427 9.99341L31.2226 9.82734V10.5746C31.2226 11.2389 31.2324 11.3268 31.3106 11.3561C31.9064 11.6004 32.4193 11.7078 33.235 11.7762C34.7003 11.8934 35.936 11.5857 36.6052 10.9312C37.2157 10.3353 37.4062 9.16796 37.0204 8.3425C36.7371 7.72708 36.234 7.36564 34.8859 6.80882C33.4304 6.20805 33.1324 6.03709 32.9761 5.69519C32.8687 5.45586 32.8589 5.26537 32.9517 5.08953C33.2838 4.45457 34.4268 4.37642 35.9311 4.88927C36.2486 4.99673 36.5222 5.07488 36.5368 5.06023C36.6052 4.98696 37.0692 3.82937 37.0399 3.79518C36.9764 3.7268 36.1314 3.45816 35.6918 3.36047C35.2669 3.27256 34.0165 3.20418 33.6892 3.25302Z" fill="white"/>
<path d="M49.5973 3.27256C49.0746 3.34094 48.3322 3.53143 47.8487 3.73169C47.6142 3.82449 47.414 3.91241 47.4042 3.92706C47.3944 3.93683 47.5068 4.22012 47.6582 4.55714L47.9366 5.17257L48.3322 5.00162C49.5093 4.49365 50.623 4.40573 51.1847 4.76717C51.5656 5.01627 51.7366 5.40702 51.7757 6.11525L51.8001 6.58414L51.5363 6.61345C51.3898 6.6281 50.9014 6.64764 50.4422 6.66229C48.4055 6.72091 47.2577 7.19469 46.779 8.17156C46.3882 8.98724 46.4664 10.1351 46.9695 10.8677C47.4628 11.5808 48.4397 11.913 49.6461 11.7762C49.9099 11.7469 50.2127 11.6932 50.3201 11.6541C50.6376 11.5466 51.2384 11.1803 51.595 10.8824L51.9271 10.5991L52.0785 11.0826C52.1566 11.3464 52.225 11.5857 52.225 11.6199C52.225 11.659 52.4204 11.6736 52.86 11.6736H53.4998L53.4803 8.50858C53.4657 5.65124 53.4559 5.3191 53.3777 5.05535C53.1042 4.13709 52.5279 3.60958 51.5266 3.37025C51.0577 3.25302 50.1199 3.20906 49.5973 3.27256ZM51.7268 8.33762C51.7024 9.15331 51.6096 9.4366 51.2433 9.842C50.9209 10.1888 50.5302 10.3842 49.9929 10.4525C49.2944 10.5453 48.7474 10.3842 48.4836 10.0081C48.2589 9.68082 48.2443 9.02632 48.4543 8.61603C48.7523 8.03968 49.4263 7.79058 50.8818 7.7222C51.3117 7.70266 51.6829 7.67824 51.7024 7.67824C51.7268 7.67335 51.7366 7.9713 51.7268 8.33762Z" fill="white"/>
<path d="M0.5 13.6272V14.0668H15.2019H29.9037V13.6272V13.1876H15.2019H0.5V13.6272Z" fill="#96C1EC"/>
<path d="M17.8884 15.7031V16.1671H35.6919H53.4953V15.7031V15.2391H35.6919H17.8884V15.7031Z" fill="#96C1EC"/>
</svg>
