<svg width="43" height="49" viewBox="0 0 43 49" fill="none" xmlns="http://www.w3.org/2000/svg">
<g clip-path="url(#clip0_244_325)">
<path d="M0.340343 36.9265C0.559064 37.3137 0.875049 37.6042 1.26411 37.8219L19.9816 48.5661C20.7596 49.0258 21.7076 49.0258 22.4611 48.5661L41.1789 37.8219C41.9568 37.3864 42.4186 36.5635 42.4186 35.6682V14.1797C42.4186 13.2843 41.9568 12.4616 41.1789 12.0261L22.4611 1.28167C21.6834 0.821798 20.7352 0.821798 19.9816 1.28167L1.26427 12.0261C0.461799 12.4616 0 13.2843 0 14.1797V35.6922C0 36.128 0.0972645 36.5394 0.340343 36.9265Z" fill="#009639"/>
<path d="M15.2172 33.1274C15.2186 33.4424 15.1572 33.7545 15.0367 34.0457C14.9163 34.337 14.7391 34.6016 14.5153 34.8244C14.2916 35.0471 14.0258 35.2235 13.7332 35.3434C13.4406 35.4634 13.127 35.5244 12.8106 35.5231C12.4942 35.5244 12.1807 35.4633 11.8881 35.3434C11.5956 35.2234 11.3298 35.047 11.106 34.8243C10.8823 34.6016 10.7051 34.337 10.5846 34.0457C10.4642 33.7545 10.4029 33.4423 10.4042 33.1274V16.6965C10.4042 15.4139 11.5467 14.3734 13.1266 14.3734C14.2693 14.3734 15.6063 14.8331 16.4084 15.8253L17.1375 16.6965L27.2015 28.6748V16.7449C27.2001 16.4299 27.2615 16.1177 27.3819 15.8265C27.5024 15.5352 27.6796 15.2706 27.9034 15.0479C28.1271 14.8251 28.3929 14.6487 28.6855 14.5288C28.9781 14.4089 29.2916 14.3478 29.6081 14.3491C29.9245 14.3478 30.238 14.4089 30.5306 14.5288C30.8231 14.6488 31.0889 14.8252 31.3127 15.0479C31.5364 15.2706 31.7136 15.5353 31.834 15.8265C31.9545 16.1178 32.0158 16.4299 32.0145 16.7449V33.1759C32.0145 34.4583 30.872 35.4988 29.2921 35.4988C28.1494 35.4988 26.8124 35.0391 26.0103 34.047L15.2172 21.2216V33.1275V33.1274Z" fill="white"/>
</g>
<defs>
<clipPath id="clip0_244_325">
<rect width="42.4186" height="48" fill="white" transform="translate(0 0.937012)"/>
</clipPath>
</defs>
</svg>
