<svg width="51" height="32" viewBox="0 0 51 32" fill="none" xmlns="http://www.w3.org/2000/svg">
<g clip-path="url(#clip0_244_83)">
<path d="M25.2127 31.9086C25.0401 31.9086 24.8789 31.8615 24.7292 31.7791L23.1981 30.8487C22.9678 30.719 23.083 30.6719 23.1521 30.6484C23.4629 30.5424 23.5205 30.5188 23.8428 30.3304C23.8774 30.3068 23.9235 30.3186 23.958 30.3422L25.1323 31.0606C25.1783 31.0842 25.2358 31.0842 25.2703 31.0606L29.8638 28.3398C29.9098 28.3163 29.9329 28.2691 29.9329 28.2103V22.7805C29.9329 22.7215 29.9098 22.6745 29.8638 22.6508L25.2703 19.9419C25.2243 19.9182 25.1667 19.9182 25.1323 19.9419L20.5388 22.6508C20.4927 22.6744 20.4696 22.7333 20.4696 22.7804V28.2102C20.4696 28.2574 20.4927 28.3162 20.5388 28.3398L21.7936 29.0818C22.4729 29.4352 22.8988 29.0229 22.8988 28.6107V23.2515C22.8988 23.1809 22.9564 23.1102 23.037 23.1102H23.6241C23.6932 23.1102 23.7622 23.1691 23.7622 23.2515V28.6107C23.7622 29.5411 23.2672 30.083 22.4038 30.083C22.139 30.083 21.9318 30.083 21.3446 29.7885L20.1358 29.0818C19.8365 28.9052 19.6523 28.5753 19.6523 28.222V22.7922C19.6523 22.4389 19.8365 22.109 20.1358 21.9324L24.7292 19.2116C25.0171 19.0467 25.4086 19.0467 25.6963 19.2116L30.2897 21.9324C30.5891 22.109 30.7733 22.4389 30.7733 22.7922V28.222C30.7733 28.5753 30.5891 28.9052 30.2897 29.0818L25.6963 31.8026C25.5466 31.8734 25.374 31.9086 25.2128 31.9086H25.2127ZM26.6288 28.1749C24.6142 28.1749 24.1997 27.2327 24.1997 26.4317C24.1997 26.361 24.2573 26.2904 24.3379 26.2904H24.9365C25.0056 26.2904 25.0631 26.3375 25.0631 26.4082C25.1553 27.0324 25.42 27.3386 26.6403 27.3386C27.6073 27.3386 28.0219 27.1148 28.0219 26.5848C28.0219 26.2786 27.9067 26.0549 26.3986 25.9017C25.1437 25.7721 24.3609 25.4895 24.3609 24.4648C24.3609 23.5107 25.1438 22.9453 26.4562 22.9453C27.9297 22.9453 28.655 23.4636 28.7472 24.5942C28.7472 24.6296 28.7356 24.6649 28.7126 24.7003C28.6895 24.7238 28.655 24.7474 28.6205 24.7474H28.0218C27.9642 24.7474 27.9067 24.7003 27.8952 24.6414C27.7571 23.9936 27.4002 23.7815 26.4562 23.7815C25.397 23.7815 25.2703 24.1585 25.2703 24.4411C25.2703 24.7827 25.42 24.8887 26.8475 25.0771C28.2636 25.2657 28.9314 25.5366 28.9314 26.5494C28.9198 27.586 28.091 28.1749 26.6288 28.1749Z" fill="#539E43"/>
<path d="M10.9602 10.6713C10.9602 10.4593 10.8451 10.259 10.6609 10.153L5.77966 7.27911C5.69898 7.23192 5.60694 7.20838 5.5149 7.19656H5.46878C5.37674 7.19656 5.28461 7.23192 5.20402 7.27911L0.322764 10.153C0.138486 10.259 0.0234375 10.4592 0.0234375 10.6713L0.0349922 18.3979C0.0349922 18.5039 0.0925664 18.6099 0.184605 18.657C0.276744 18.7159 0.391793 18.7159 0.472477 18.657L3.3736 16.9609C3.55778 16.855 3.67293 16.6547 3.67293 16.4427V12.8267C3.67293 12.6148 3.78797 12.4145 3.97225 12.3085L5.20402 11.5782C5.29616 11.5193 5.39975 11.4957 5.50335 11.4957C5.60694 11.4957 5.71053 11.5193 5.79122 11.5782L7.02299 12.3085C7.20726 12.4145 7.32231 12.6146 7.32231 12.8267V16.4427C7.32231 16.6547 7.43746 16.855 7.62164 16.9609L10.5228 18.657C10.5676 18.6859 10.6195 18.7012 10.6724 18.7012C10.7254 18.7012 10.7773 18.6859 10.8221 18.657C10.9142 18.6099 10.9718 18.5039 10.9718 18.3979L10.9602 10.6713ZM34.4225 0.0353885C34.3305 -0.0117962 34.2154 -0.0117962 34.1347 0.0353885C34.0426 0.094293 33.9851 0.188459 33.9851 0.294446V7.9505C33.9851 8.02112 33.9506 8.09175 33.8815 8.13893C33.8124 8.17419 33.7433 8.17419 33.6743 8.13893L32.454 7.42046C32.3645 7.36834 32.2633 7.34094 32.1604 7.34094C32.0574 7.34094 31.9562 7.36834 31.8668 7.42046L26.9855 10.3062C26.8013 10.4122 26.6862 10.6124 26.6862 10.8244V16.584C26.6862 16.7959 26.8013 16.9963 26.9855 17.1023L31.8668 19.988C31.9562 20.0401 32.0574 20.0675 32.1604 20.0675C32.2633 20.0675 32.3645 20.0401 32.454 19.988L37.3352 17.1023C37.5194 16.9963 37.6345 16.7961 37.6345 16.584V2.22617C37.6345 2.00237 37.5194 1.80222 37.3352 1.69613L34.4226 0.0353885H34.4225ZM33.9736 14.6877C33.9736 14.7466 33.9506 14.7937 33.9045 14.8172L32.2352 15.8066C32.2119 15.8182 32.1863 15.8243 32.1604 15.8243C32.1344 15.8243 32.1088 15.8182 32.0855 15.8066L30.4163 14.8172C30.3701 14.7937 30.3471 14.7348 30.3471 14.6877V12.7089C30.3471 12.65 30.3701 12.6029 30.4163 12.5794L32.0855 11.5899C32.1088 11.5783 32.1344 11.5723 32.1604 11.5723C32.1863 11.5723 32.2119 11.5783 32.2352 11.5899L33.9045 12.5794C33.9506 12.6028 33.9736 12.6618 33.9736 12.7089V14.6877ZM50.6665 12.6618C50.8508 12.5558 50.9544 12.3556 50.9544 12.1435V10.7419C50.9544 10.53 50.8393 10.3297 50.6665 10.2237L45.8198 7.34983C45.7304 7.29772 45.6292 7.27031 45.5262 7.27031C45.4233 7.27031 45.3221 7.29772 45.2326 7.34983L40.3514 10.2354C40.1671 10.3414 40.0521 10.5417 40.0521 10.7537V16.5134C40.0521 16.7253 40.1672 16.9256 40.3514 17.0316L45.1981 19.8584C45.3824 19.9644 45.6011 19.9644 45.7738 19.8584L48.7094 18.186C48.8015 18.1388 48.8591 18.0328 48.8591 17.9269C48.8591 17.8209 48.8015 17.7149 48.7094 17.6677L43.8051 14.782C43.713 14.7231 43.6554 14.6289 43.6554 14.5229V12.7208C43.6554 12.6149 43.713 12.5089 43.8051 12.4617L45.3362 11.5665C45.3811 11.5376 45.4329 11.5223 45.4859 11.5223C45.5389 11.5223 45.5907 11.5376 45.6356 11.5665L47.1668 12.4617C47.2589 12.5206 47.3164 12.6148 47.3164 12.7208V14.1342C47.3164 14.2402 47.3739 14.3462 47.4661 14.3933C47.5109 14.4222 47.5628 14.4375 47.6157 14.4375C47.6687 14.4375 47.7206 14.4222 47.7654 14.3933L50.6665 12.6618V12.6618Z" fill="#333333"/>
<path d="M45.451 12.3907C45.468 12.3792 45.4881 12.373 45.5085 12.373C45.529 12.373 45.549 12.3792 45.5661 12.3907L46.4986 12.9443C46.5331 12.9679 46.5561 13.0032 46.5561 13.0503V14.1575C46.5561 14.2046 46.5332 14.24 46.4986 14.2635L45.5661 14.8171C45.549 14.8286 45.529 14.8348 45.5085 14.8348C45.4881 14.8348 45.468 14.8286 45.451 14.8171L44.5185 14.2635C44.4839 14.24 44.4609 14.2046 44.4609 14.1575V13.0504C44.4609 13.0032 44.4838 12.9678 44.5185 12.9444L45.451 12.3907V12.3907Z" fill="#539E43"/>
<path d="M23.9822 10.2354L19.1125 7.37336C19.0646 7.34864 19.0145 7.3289 18.9628 7.31445L13.5059 16.8786C13.5511 16.935 13.6057 16.9829 13.6671 17.0199L18.5368 19.8821C18.675 19.9645 18.8362 19.9881 18.9858 19.9409L24.1089 10.3533C24.0743 10.3062 24.0282 10.2708 23.9822 10.2355V10.2354Z" fill="url(#paint0_linear_244_83)"/>
<path fill-rule="evenodd" clip-rule="evenodd" d="M18.3757 6.32422L18.3066 6.35958H18.3987L18.3757 6.32422V6.32422Z" fill="url(#paint1_linear_244_83)"/>
<path fill-rule="evenodd" clip-rule="evenodd" d="M23.9929 17.0071C24.1311 16.9247 24.2347 16.7833 24.2808 16.6302L18.9388 7.30174C18.8007 7.27819 18.651 7.28991 18.5244 7.37236L13.6892 10.2228L18.9043 19.9517C18.9801 19.939 19.0538 19.9152 19.123 19.8811L23.9928 17.0072L23.9929 17.0071Z" fill="url(#paint2_linear_244_83)"/>
<path fill-rule="evenodd" clip-rule="evenodd" d="M24.4408 16.9144L24.4062 16.8555V16.9379L24.4407 16.9144H24.4408Z" fill="url(#paint3_linear_244_83)"/>
<path fill-rule="evenodd" clip-rule="evenodd" d="M23.993 17.0059L19.1348 19.868C19.0662 19.9038 18.9923 19.9277 18.916 19.9387L19.0082 20.1154L24.3959 16.9235V16.8528L24.2578 16.6172C24.2348 16.7821 24.1312 16.9234 23.993 17.0059V17.0059Z" fill="url(#paint4_linear_244_83)"/>
<path fill-rule="evenodd" clip-rule="evenodd" d="M23.993 17.0059L19.1348 19.868C19.0662 19.9038 18.9923 19.9277 18.916 19.9387L19.0082 20.1154L24.3959 16.9235V16.8528L24.2578 16.6172C24.2348 16.7821 24.1312 16.9234 23.993 17.0059V17.0059Z" fill="url(#paint5_linear_244_83)"/>
</g>
<defs>
<linearGradient id="paint0_linear_244_83" x1="18.0945" y1="14.2936" x2="31.5361" y2="7.15568" gradientUnits="userSpaceOnUse">
<stop offset="0.1376" stop-color="#41873F"/>
<stop offset="0.4032" stop-color="#54A044"/>
<stop offset="0.7136" stop-color="#66B848"/>
<stop offset="0.9081" stop-color="#6CC04A"/>
</linearGradient>
<linearGradient id="paint1_linear_244_83" x1="14.2442" y1="6.32897" x2="23.2104" y2="6.32897" gradientUnits="userSpaceOnUse">
<stop offset="0.09192" stop-color="#6CC04A"/>
<stop offset="0.2864" stop-color="#66B848"/>
<stop offset="0.5968" stop-color="#54A044"/>
<stop offset="0.8624" stop-color="#41873F"/>
</linearGradient>
<linearGradient id="paint2_linear_244_83" x1="13.2243" y1="13.621" x2="24.4395" y2="13.621" gradientUnits="userSpaceOnUse">
<stop offset="0.09192" stop-color="#6CC04A"/>
<stop offset="0.2864" stop-color="#66B848"/>
<stop offset="0.5968" stop-color="#54A044"/>
<stop offset="0.8624" stop-color="#41873F"/>
</linearGradient>
<linearGradient id="paint3_linear_244_83" x1="21.0487" y1="16.8853" x2="24.4159" y2="16.8853" gradientUnits="userSpaceOnUse">
<stop offset="0.09192" stop-color="#6CC04A"/>
<stop offset="0.2864" stop-color="#66B848"/>
<stop offset="0.5968" stop-color="#54A044"/>
<stop offset="0.8624" stop-color="#41873F"/>
</linearGradient>
<linearGradient id="paint4_linear_244_83" x1="13.2245" y1="18.3759" x2="24.4396" y2="18.3759" gradientUnits="userSpaceOnUse">
<stop offset="0.09192" stop-color="#6CC04A"/>
<stop offset="0.2864" stop-color="#66B848"/>
<stop offset="0.5968" stop-color="#54A044"/>
<stop offset="0.8624" stop-color="#41873F"/>
</linearGradient>
<linearGradient id="paint5_linear_244_83" x1="26.0735" y1="9.23359" x2="23.1043" y2="24.4405" gradientUnits="userSpaceOnUse">
<stop stop-color="#41873F"/>
<stop offset="0.3288" stop-color="#418B3D"/>
<stop offset="0.6352" stop-color="#419637"/>
<stop offset="0.9319" stop-color="#3FA92D"/>
<stop offset="1" stop-color="#3FAE2A"/>
</linearGradient>
<clipPath id="clip0_244_83">
<rect width="51" height="32" fill="white"/>
</clipPath>
</defs>
</svg>
