<svg width="33" height="21" viewBox="0 0 33 21" fill="none" xmlns="http://www.w3.org/2000/svg">
<g clip-path="url(#clip0_1_982)">
<path d="M16.3682 20.4082C16.2616 20.4082 16.1622 20.3791 16.0698 20.3283L15.1252 19.7542C14.9831 19.6742 15.0541 19.6452 15.0968 19.6307C15.2885 19.5653 15.3241 19.5507 15.5229 19.4345C15.5443 19.4199 15.5727 19.4272 15.594 19.4417L16.3185 19.885C16.3469 19.8995 16.3824 19.8995 16.4037 19.885L19.2378 18.2063C19.2662 18.1918 19.2804 18.1627 19.2804 18.1264V14.7763C19.2804 14.7399 19.2662 14.7109 19.2378 14.6963L16.4037 13.0249C16.3753 13.0103 16.3398 13.0103 16.3185 13.0249L13.4844 14.6963C13.456 14.7108 13.4418 14.7472 13.4418 14.7762V18.1263C13.4418 18.1554 13.456 18.1917 13.4844 18.2063L14.2586 18.6641C14.6777 18.8821 14.9405 18.6278 14.9405 18.3734V15.0669C14.9405 15.0233 14.976 14.9797 15.0257 14.9797H15.388C15.4306 14.9797 15.4732 15.016 15.4732 15.0669V18.3734C15.4732 18.9475 15.1678 19.2818 14.6351 19.2818C14.4717 19.2818 14.3439 19.2818 13.9816 19.1001L13.2358 18.6641C13.0511 18.5551 12.9375 18.3516 12.9375 18.1336V14.7835C12.9375 14.5655 13.0511 14.362 13.2358 14.253L16.0698 12.5743C16.2475 12.4726 16.489 12.4726 16.6665 12.5743L19.5006 14.253C19.6852 14.362 19.7989 14.5655 19.7989 14.7835V18.1336C19.7989 18.3516 19.6852 18.5551 19.5006 18.6641L16.6665 20.3428C16.5742 20.3864 16.4677 20.4082 16.3682 20.4082H16.3682ZM17.2418 18.1046C15.9989 18.1046 15.7431 17.5232 15.7431 17.0291C15.7431 16.9854 15.7787 16.9418 15.8284 16.9418H16.1977C16.2403 16.9418 16.2758 16.9709 16.2758 17.0145C16.3327 17.3997 16.496 17.5886 17.249 17.5886C17.8456 17.5886 18.1014 17.4505 18.1014 17.1235C18.1014 16.9346 18.0303 16.7965 17.0998 16.702C16.3256 16.6221 15.8426 16.4477 15.8426 15.8155C15.8426 15.2268 16.3256 14.878 17.1353 14.878C18.0445 14.878 18.492 15.1978 18.5488 15.8953C18.5488 15.9172 18.5417 15.939 18.5275 15.9608C18.5132 15.9753 18.492 15.9898 18.4707 15.9898H18.1013C18.0658 15.9898 18.0303 15.9608 18.0232 15.9244C17.938 15.5248 17.7177 15.3939 17.1353 15.3939C16.4818 15.3939 16.4037 15.6265 16.4037 15.8009C16.4037 16.0116 16.496 16.077 17.3768 16.1933C18.2505 16.3096 18.6625 16.4767 18.6625 17.1017C18.6553 17.7412 18.144 18.1046 17.2418 18.1046Z" fill="#539E43"/>
<path d="M7.57397 7.30664C7.57397 7.17586 7.50292 7.05224 7.38929 6.98685L4.37765 5.21372C4.32787 5.18461 4.27108 5.17009 4.2143 5.16279H4.18584C4.12906 5.16279 4.07221 5.18461 4.02249 5.21372L1.01085 6.98685C0.897155 7.05224 0.826172 7.1758 0.826172 7.30664L0.833301 12.0738C0.833301 12.1392 0.868823 12.2046 0.925609 12.2337C0.982457 12.27 1.05344 12.27 1.10322 12.2337L2.89316 11.1872C3.00679 11.1218 3.07783 10.9983 3.07783 10.8675V8.63649C3.07783 8.50571 3.14882 8.38215 3.26251 8.31676L4.02249 7.86619C4.07934 7.82984 4.14325 7.81526 4.20717 7.81526C4.27108 7.81526 4.335 7.82984 4.38478 7.86619L5.14476 8.31676C5.25845 8.38215 5.32943 8.50565 5.32943 8.63649V10.8675C5.32943 10.9983 5.40048 11.1218 5.51411 11.1872L7.30405 12.2337C7.3317 12.2515 7.36371 12.2609 7.39639 12.2609C7.42906 12.2609 7.46107 12.2515 7.48873 12.2337C7.54557 12.2046 7.5811 12.1392 7.5811 12.0738L7.57397 7.30664ZM22.0497 0.74449C21.993 0.715378 21.9219 0.715378 21.8721 0.74449C21.8153 0.780833 21.7798 0.838931 21.7798 0.904324V5.62796C21.7798 5.67153 21.7586 5.7151 21.7159 5.74422C21.6733 5.76597 21.6307 5.76597 21.5881 5.74422L20.8352 5.30093C20.78 5.26878 20.7175 5.25187 20.654 5.25187C20.5905 5.25187 20.5281 5.26878 20.4729 5.30093L17.4612 7.08136C17.3476 7.14675 17.2766 7.2703 17.2766 7.40109V10.9546C17.2766 11.0854 17.3476 11.209 17.4612 11.2744L20.4729 13.0549C20.5281 13.087 20.5905 13.1039 20.654 13.1039C20.7175 13.1039 20.78 13.087 20.8352 13.0549L23.8468 11.2744C23.9604 11.209 24.0315 11.0855 24.0315 10.9546V2.09616C24.0315 1.95808 23.9604 1.83459 23.8468 1.76913L22.0498 0.74449H22.0497ZM21.7728 9.78469C21.7728 9.82103 21.7586 9.85008 21.7301 9.8646L20.7002 10.475C20.6858 10.4822 20.67 10.4859 20.654 10.4859C20.638 10.4859 20.6222 10.4822 20.6078 10.475L19.5779 9.8646C19.5495 9.85008 19.5353 9.81374 19.5353 9.78469V8.56381C19.5353 8.52746 19.5495 8.49841 19.5779 8.48389L20.6078 7.87342C20.6222 7.86624 20.638 7.86251 20.654 7.86251C20.67 7.86251 20.6858 7.86624 20.7002 7.87342L21.7301 8.48389C21.7586 8.49835 21.7728 8.53476 21.7728 8.56381V9.78469ZM32.072 8.53476C32.1857 8.46937 32.2496 8.34581 32.2496 8.21496V7.35022C32.2496 7.21943 32.1785 7.09588 32.072 7.03049L29.0816 5.25736C29.0265 5.2252 28.964 5.2083 28.9005 5.2083C28.837 5.2083 28.7746 5.2252 28.7194 5.25736L25.7077 7.03772C25.594 7.10311 25.523 7.22667 25.523 7.35745V10.9111C25.523 11.0419 25.5941 11.1654 25.7077 11.2308L28.698 12.9749C28.8117 13.0403 28.9467 13.0403 29.0533 12.9749L30.8645 11.9431C30.9213 11.914 30.9568 11.8486 30.9568 11.7832C30.9568 11.7178 30.9213 11.6524 30.8645 11.6233L27.8386 9.84285C27.7818 9.80651 27.7463 9.74841 27.7463 9.68302V8.57116C27.7463 8.50577 27.7818 8.44038 27.8386 8.41127L28.7833 7.85896C28.8109 7.84115 28.8429 7.8317 28.8756 7.8317C28.9083 7.8317 28.9403 7.84115 28.968 7.85896L29.9127 8.41127C29.9695 8.44761 30.005 8.50571 30.005 8.57116V9.4432C30.005 9.5086 30.0405 9.57399 30.0974 9.60304C30.125 9.62085 30.157 9.6303 30.1897 9.6303C30.2224 9.6303 30.2544 9.62085 30.282 9.60304L32.072 8.53476Z" fill="white"/>
<path d="M28.855 8.36833C28.8655 8.36121 28.8779 8.35742 28.8905 8.35742C28.9031 8.35742 28.9155 8.36121 28.926 8.36833L29.5014 8.70987C29.5226 8.72446 29.5368 8.74622 29.5368 8.77527V9.45842C29.5368 9.48747 29.5227 9.50929 29.5014 9.52382L28.926 9.86536C28.9155 9.87247 28.9031 9.87627 28.8905 9.87627C28.8779 9.87627 28.8655 9.87247 28.855 9.86536L28.2797 9.52382C28.2583 9.50929 28.2441 9.48747 28.2441 9.45842V8.77533C28.2441 8.74622 28.2583 8.7244 28.2797 8.70994L28.855 8.36833Z" fill="#539E43"/>
<path d="M15.6063 7.03655L12.6017 5.27072C12.5722 5.25547 12.5413 5.24329 12.5094 5.23438L9.14258 11.1353C9.17047 11.1701 9.20415 11.1996 9.24208 11.2225L12.2466 12.9884C12.3318 13.0392 12.4313 13.0538 12.5236 13.0246L15.6844 7.1093C15.6631 7.08025 15.6347 7.05837 15.6063 7.03662V7.03655Z" fill="url(#paint0_linear_1_982)"/>
<path fill-rule="evenodd" clip-rule="evenodd" d="M12.1481 4.625L12.1055 4.64682H12.1623L12.1481 4.625Z" fill="url(#paint1_linear_1_982)"/>
<path fill-rule="evenodd" clip-rule="evenodd" d="M15.613 11.2153C15.6983 11.1645 15.7622 11.0773 15.7906 10.9828L12.4948 5.22732C12.4095 5.21279 12.3172 5.22002 12.2391 5.27089L9.25586 7.02956L12.4734 13.0321C12.5202 13.0243 12.5657 13.0096 12.6084 12.9885L15.613 11.2154L15.613 11.2153Z" fill="url(#paint2_linear_1_982)"/>
<path fill-rule="evenodd" clip-rule="evenodd" d="M15.8901 11.1568L15.8691 11.1211V11.171L15.89 11.1568H15.8901Z" fill="url(#paint3_linear_1_982)"/>
<path fill-rule="evenodd" clip-rule="evenodd" d="M15.6148 11.2164L12.6174 12.9823C12.5751 13.0044 12.5295 13.0191 12.4824 13.0258L12.5393 13.1349L15.8634 11.1656V11.1219L15.7782 10.9766C15.764 11.0783 15.7001 11.1655 15.6148 11.2164Z" fill="url(#paint4_linear_1_982)"/>
<path fill-rule="evenodd" clip-rule="evenodd" d="M15.6148 11.2164L12.6174 12.9823C12.5751 13.0044 12.5295 13.0191 12.4824 13.0258L12.5393 13.1349L15.8634 11.1656V11.1219L15.7782 10.9766C15.764 11.0783 15.7001 11.1655 15.6148 11.2164Z" fill="url(#paint5_linear_1_982)"/>
</g>
<defs>
<linearGradient id="paint0_linear_1_982" x1="11.9737" y1="9.54038" x2="20.2669" y2="5.13641" gradientUnits="userSpaceOnUse">
<stop offset="0.1376" stop-color="#41873F"/>
<stop offset="0.4032" stop-color="#54A044"/>
<stop offset="0.7136" stop-color="#66B848"/>
<stop offset="0.9081" stop-color="#6CC04A"/>
</linearGradient>
<linearGradient id="paint1_linear_1_982" x1="9.59905" y1="4.62793" x2="15.131" y2="4.62793" gradientUnits="userSpaceOnUse">
<stop offset="0.09192" stop-color="#6CC04A"/>
<stop offset="0.2864" stop-color="#66B848"/>
<stop offset="0.5968" stop-color="#54A044"/>
<stop offset="0.8624" stop-color="#41873F"/>
</linearGradient>
<linearGradient id="paint2_linear_1_982" x1="8.96905" y1="9.12617" x2="15.8886" y2="9.12617" gradientUnits="userSpaceOnUse">
<stop offset="0.09192" stop-color="#6CC04A"/>
<stop offset="0.2864" stop-color="#66B848"/>
<stop offset="0.5968" stop-color="#54A044"/>
<stop offset="0.8624" stop-color="#41873F"/>
</linearGradient>
<linearGradient id="paint3_linear_1_982" x1="13.8362" y1="11.1392" x2="15.875" y2="11.1392" gradientUnits="userSpaceOnUse">
<stop offset="0.09192" stop-color="#6CC04A"/>
<stop offset="0.2864" stop-color="#66B848"/>
<stop offset="0.5968" stop-color="#54A044"/>
<stop offset="0.8624" stop-color="#41873F"/>
</linearGradient>
<linearGradient id="paint4_linear_1_982" x1="8.97089" y1="12.0617" x2="15.8904" y2="12.0617" gradientUnits="userSpaceOnUse">
<stop offset="0.09192" stop-color="#6CC04A"/>
<stop offset="0.2864" stop-color="#66B848"/>
<stop offset="0.5968" stop-color="#54A044"/>
<stop offset="0.8624" stop-color="#41873F"/>
</linearGradient>
<linearGradient id="paint5_linear_1_982" x1="16.8984" y1="6.42103" x2="15.0665" y2="15.8034" gradientUnits="userSpaceOnUse">
<stop stop-color="#41873F"/>
<stop offset="0.3288" stop-color="#418B3D"/>
<stop offset="0.6352" stop-color="#419637"/>
<stop offset="0.9319" stop-color="#3FA92D"/>
<stop offset="1" stop-color="#3FAE2A"/>
</linearGradient>
<clipPath id="clip0_1_982">
<rect width="31.466" height="19.7434" fill="white" transform="translate(0.8125 0.722656)"/>
</clipPath>
</defs>
</svg>
