<svg width="48" height="41" viewBox="0 0 48 41" fill="none" xmlns="http://www.w3.org/2000/svg">
<path d="M43.9256 29.6953C46.1683 29.6953 47.683 30.9355 47.7755 32.8476H45.8609C45.7707 31.9575 45.0467 31.3592 43.9219 31.3592C42.8765 31.3592 42.2252 31.8263 42.2252 32.5409C42.2252 33.186 42.6949 33.5096 43.3663 33.735L43.5133 33.7819L43.6656 33.8263L43.8231 33.8685L44.0673 33.9293L44.3196 33.9882L44.7524 34.0868L45.01 34.1474L45.2432 34.2055L45.3984 34.2466L45.5529 34.29C45.5785 34.2974 45.6042 34.3049 45.6296 34.3126L45.7823 34.36L45.9331 34.4105C45.9581 34.4193 45.983 34.4281 46.0077 34.4372L46.1553 34.493C47.1786 34.8974 48 35.5925 48 37.0946C48 38.9917 46.3783 40.145 44.0456 40.145C41.6366 40.145 40.061 38.7436 39.955 36.5983L39.9527 36.5969H41.8777C41.9843 37.738 42.7723 38.4647 44.0449 38.4647C45.1813 38.4647 45.9699 38.0274 45.9699 37.1225C45.9699 36.4312 45.4014 36.1094 44.6234 35.8696L44.4651 35.8227L44.302 35.7774L43.9632 35.6898L43.3443 35.5354L43.1644 35.4887L42.9845 35.4397L42.805 35.388C42.7453 35.3702 42.6858 35.3519 42.6266 35.333L42.4499 35.2746C41.2797 34.8706 40.2691 34.1863 40.2691 32.5395C40.2705 30.8613 41.7705 29.6953 43.9257 29.6953H43.9256ZM12.4686 32.6708V36.8452C12.4686 37.8522 13.1052 38.5526 14.0596 38.5526C15.105 38.5526 15.832 37.7645 15.832 36.6847V32.6708H17.6957V40.0267H15.8322V38.8855C15.408 39.6887 14.5445 40.1408 13.4539 40.1408C11.7266 40.1408 10.6051 38.9441 10.6051 37.2218V32.671H12.4686V32.6708ZM2.16627 29.811L6.75719 37.0206V29.811H8.75696V40.0267H6.60539L1.99962 32.8322V40.0268H0V29.811H2.16627V29.811ZM38.7551 29.811V37.1077C38.7551 39.0782 37.7704 40.0267 36.1039 40.0267H33.7768V38.2915H36.1556C36.3143 38.2917 36.4667 38.2309 36.5802 38.1221C36.6357 38.0688 36.6799 38.0052 36.7101 37.935C36.7402 37.8648 36.7558 37.7893 36.7559 37.7131V29.811H38.755H38.7551ZM29.9372 30.4526V32.6707H32.0586V34.1742H29.9372V37.8257C29.9372 37.9483 29.9876 38.0659 30.0777 38.1528C30.1684 38.2399 30.2903 38.2887 30.4171 38.2886H32.0586V40.0238H30.831C29.1642 40.0238 28.0737 39.0895 28.0737 37.4563V34.1756H26.5741V32.6707H27.5149C27.9537 32.6707 28.2093 32.419 28.2093 32.0024V30.4526H29.9372V30.4526ZM20.8618 32.5545L22.3923 34.6714L23.9067 32.5545H25.9527L23.3916 36.072L26.1493 39.9105H24.1801L22.3923 37.4585L20.6043 39.9105H18.6192L21.3772 36.072L18.8315 32.5545H20.8618Z" fill="black"/>
<path d="M20.38 1.33194C19.3205 -0.443979 16.6734 -0.443979 15.6138 1.33194L4.07191 20.69C3.01291 22.4665 4.33686 24.6867 6.45485 24.6867H15.4653C14.5602 23.915 14.2249 22.5803 14.91 21.4351L23.6515 6.81893L20.3803 1.33194H20.38Z" fill="#80EEC0"/>
<path d="M27.6248 5.49159C28.489 4.03145 30.6497 4.03145 31.5139 5.49159L40.9322 21.4021C41.7964 22.862 40.7161 24.6869 38.9877 24.6869H20.151C18.4226 24.6869 17.3423 22.8617 18.2065 21.4021L27.6248 5.49133V5.49159Z" fill="#00DC82"/>
</svg>
