<svg width="62" height="45" viewBox="0 0 62 45" fill="none" xmlns="http://www.w3.org/2000/svg">
<path d="M26.6111 30.8445C26.776 33.0347 26.7439 35.2354 26.5154 37.4197C26.5058 37.7267 26.4163 38.0258 26.256 38.2869C26.0956 38.5481 25.87 38.7621 25.6018 38.9076C23.8725 40.2025 18.0768 40.5131 17.3547 37.7618C17.0884 37.7513 17.3006 36.8614 17.0467 36.895C16.5398 36.853 16.0497 36.6915 15.616 36.4236C15.1823 36.1557 14.817 35.7888 14.5495 35.3525C14.5599 32.343 14.8887 21.4865 9.55508 24.4099C8.39606 25.0614 7.52685 26.1338 7.12445 27.409C6.76507 28.5214 6.59617 29.6875 6.625 30.8571C6.58338 32.3556 6.95381 33.9946 7.00791 35.7932C7.02872 36.597 7.15566 36.8006 6.56257 37.4847C5.60739 38.5865 3.94049 37.6568 3.03941 36.4459C2.65833 35.836 2.449 35.133 2.43383 34.4123C1.71718 26.5508 2.42229 18.6235 4.51485 11.0161C5.27859 8.43476 5.54496 8.06119 7.97558 7.48195C10.7413 6.86846 13.5855 6.69848 16.4037 6.97827C18.5909 6.26052 23.7809 2.37376 26.0201 5.45882C29.4176 4.69808 32.9318 4.63112 36.3555 5.26189C39.7791 5.89267 43.0428 7.20841 45.9542 9.13152C48.903 9.3566 51.8622 9.41056 54.8172 9.29312C55.2334 9.02449 55.7204 8.73697 56.1449 8.48932C56.4565 8.27651 56.8065 8.12748 57.175 8.0507C57.6537 7.97514 58.278 7.95416 58.4236 8.55438C58.5504 9.17035 58.5931 9.80088 58.5506 10.4285C58.5361 10.8069 58.3965 11.1695 58.154 11.4585C57.9115 11.7476 57.5801 11.9465 57.2125 12.0235C56.3817 11.886 55.5763 11.6228 54.8235 11.2428C52.1181 11.3183 50.4533 11.1672 47.748 11.2428C48.1829 11.7129 48.1642 12.0235 48.4805 12.6447C49.2581 14.7083 49.5177 16.9337 49.2363 19.1229C48.9549 21.3122 48.1413 23.3973 46.8677 25.1927C46.6763 28.3198 46.9094 31.4783 46.9322 34.6158C46.9427 35.6967 47.0176 36.725 46.0083 37.4428C45.1181 37.981 44.1174 38.3062 43.0832 38.3936C42.0489 38.4809 41.0085 38.3279 40.042 37.9464C39.5152 37.6415 39.0448 37.2467 38.6519 36.7796C38.3064 36.8178 37.9581 36.8248 37.6114 36.8006C37.0218 36.6343 36.5122 36.2577 36.1775 35.7407C35.9857 35.3872 35.8222 35.0187 35.6885 34.6389C35.6885 33.1698 35.6344 32.5948 35.6344 31.1278C32.6342 31.6694 29.5556 31.5822 26.5903 30.8718L26.6111 30.8445Z" fill="#373435"/>
<path d="M21.6355 40.2004C20.7759 40.2133 19.9202 40.0828 19.1029 39.8142C18.6491 39.6914 18.2301 39.4635 17.8789 39.1487C17.5278 38.834 17.2543 38.441 17.0801 38.001C16.9284 37.8104 16.8541 37.5689 16.872 37.3252V37.2307C16.3431 37.1508 15.8372 36.9575 15.3885 36.6639C14.9398 36.3703 14.5587 35.9833 14.2707 35.5287L14.2208 35.4469V34.9012C14.2395 32.4206 14.2874 25.8286 12.069 24.4875C11.6956 24.3046 11.28 24.2275 10.8665 24.2644C10.453 24.3014 10.0573 24.4511 9.72163 24.6974C8.62821 25.3118 7.80922 26.3247 7.43251 27.5285C7.08942 28.6046 6.92901 29.7313 6.95803 30.8612C6.9581 31.7039 7.01721 32.5454 7.13492 33.3797C7.22441 34.1499 7.31597 34.9453 7.34302 35.7847C7.34302 35.9086 7.34302 36.0156 7.35759 36.1121C7.40496 36.4024 7.38034 36.6999 7.28593 36.9783C7.19152 37.2566 7.03025 37.507 6.81653 37.7071C6.6476 37.9086 6.43482 38.0679 6.19477 38.1728C5.95472 38.2776 5.6939 38.3251 5.43265 38.3116C4.89937 38.2373 4.38749 38.0509 3.93009 37.7646C3.47269 37.4783 3.07995 37.0984 2.77727 36.6494C2.35058 35.9918 2.11817 35.2253 2.10718 34.4395C1.38104 26.5361 2.09192 18.5654 4.20485 10.9195C4.98523 8.28569 5.3286 7.77151 7.90698 7.1566C10.6848 6.53999 13.5412 6.36509 16.3726 6.63822C16.995 6.3938 17.6029 6.11352 18.1935 5.79875C20.7573 4.50596 24.2492 2.74726 26.1658 5.09779C29.563 4.35894 33.0716 4.30662 36.489 4.94387C39.9063 5.58111 43.1644 6.89528 46.0749 8.81036C48.9525 9.0299 51.8402 9.08175 54.7237 8.96566C55.1294 8.71172 55.5831 8.4368 55.9847 8.20384L56.1013 8.13668C56.4133 7.93006 56.7626 7.78743 57.1293 7.71695C58.0533 7.57214 58.586 7.82818 58.7463 8.47457C58.8797 9.12224 58.9252 9.7852 58.8815 10.4452C58.8606 10.9038 58.6866 11.3418 58.3878 11.6881C58.089 12.0344 57.6829 12.2687 57.2354 12.3529H57.1813L57.1293 12.3382C56.9497 12.2919 56.7693 12.2486 56.5882 12.2081C55.9437 12.0933 55.32 11.881 54.7382 11.5785C53.4209 11.6121 52.3346 11.5932 51.2858 11.5785C50.3847 11.5638 49.4587 11.547 48.3849 11.5638C48.4515 11.6961 48.4993 11.8241 48.5514 11.9542C48.6189 12.1376 48.6967 12.317 48.7844 12.4915C49.5915 14.6001 49.8693 16.8772 49.593 19.1202C49.3167 21.3633 48.4949 23.5026 47.2008 25.348C47.0842 27.3753 47.1446 29.4551 47.2008 31.4657C47.2299 32.4982 47.2611 33.5643 47.2694 34.6137V34.7942C47.3699 35.3331 47.3239 35.8894 47.1363 36.404C46.9487 36.9187 46.6266 37.3726 46.204 37.7176C45.2691 38.2916 44.215 38.639 43.1245 38.7326C42.034 38.8262 40.9368 38.6634 39.9193 38.257C39.4713 38.0333 39.0722 37.7215 38.7456 37.3399C38.6728 37.2643 38.5999 37.1888 38.525 37.1174C38.423 37.1174 38.3169 37.13 38.2233 37.1405C37.9954 37.1767 37.763 37.1725 37.5365 37.1279C36.8672 36.9411 36.288 36.5152 35.9071 35.9296C35.7605 35.6914 35.6411 35.4372 35.5512 35.1719C35.5024 35.0388 35.4497 34.9073 35.3931 34.7774L35.3639 34.7123V34.641C35.3639 33.9127 35.3514 33.3943 35.3369 32.8949C35.3265 32.4751 35.314 32.0554 35.3119 31.5118C32.5495 31.97 29.7265 31.9046 26.9878 31.3187C27.1077 33.3677 27.0575 35.4232 26.838 37.4637C26.8224 37.8138 26.7186 38.1541 26.5366 38.4526C26.3546 38.751 26.1002 38.9979 25.7975 39.1699C24.5328 39.8986 23.091 40.2556 21.6355 40.2004ZM17.5379 37.4343H17.6128L17.6753 37.6736C17.8011 38.0445 18.0181 38.3772 18.306 38.6407C18.5938 38.9042 18.9431 39.0899 19.3214 39.1804C21.3414 39.8017 23.5219 39.6068 25.4021 38.6369C25.6332 38.5181 25.8279 38.3382 25.9654 38.1164C26.1029 37.8945 26.1779 37.6392 26.1825 37.3776C26.3999 35.303 26.4382 33.2133 26.2969 31.132L26.1201 31.0816L26.838 29.6356L26.9233 30.6073C29.7751 31.2432 32.7232 31.306 35.5991 30.792L35.9758 30.7416V31.1236C35.9758 31.8518 35.9882 32.3702 36.0028 32.8697C36.0174 33.3692 36.0278 33.8624 36.0299 34.5633C36.0819 34.6871 36.1277 34.8068 36.1735 34.9243C36.2468 35.1442 36.3438 35.3553 36.4627 35.5539C36.7542 36.0041 37.1979 36.3323 37.7113 36.4773C37.8603 36.5 38.0118 36.5 38.1608 36.4773C38.3293 36.4572 38.4989 36.4481 38.6686 36.45H38.7935L38.885 36.5361C38.9974 36.641 39.1098 36.7459 39.2221 36.8719C39.4893 37.1876 39.8143 37.4483 40.1794 37.64C41.0936 37.9997 42.0772 38.1443 43.0552 38.0628C44.0332 37.9814 44.9798 37.676 45.8231 37.1699C46.6306 36.5948 46.6202 35.8057 46.6077 34.8047V34.6221C46.6077 33.5727 46.5702 32.5234 46.539 31.4887C46.4787 29.4173 46.4162 27.2767 46.539 25.1759V25.0374L46.6431 24.945C47.8697 23.205 48.6518 21.1866 48.92 19.0689C49.1883 16.9511 48.9344 14.7993 48.1809 12.8042C48.0823 12.6086 47.9947 12.4075 47.9187 12.2018C47.835 11.9317 47.6928 11.6837 47.5025 11.4757L47.001 10.9321L47.7356 10.9111C49.0966 10.8734 50.2078 10.8923 51.2858 10.9111C52.3638 10.93 53.4605 10.9489 54.8048 10.9111H54.9026L54.9859 10.9636C55.5284 11.2601 56.1153 11.465 56.7235 11.5701C56.8942 11.61 57.0627 11.6478 57.2271 11.6898C57.5008 11.6039 57.7417 11.4352 57.917 11.2066C58.0924 10.9779 58.1937 10.7004 58.2073 10.4117C58.2469 9.81635 58.2063 9.21837 58.0866 8.63407C58.0574 8.50605 58.0013 8.2668 57.2209 8.38853C56.9355 8.44506 56.664 8.55773 56.4218 8.72012L56.3031 8.78728C55.8869 9.02862 55.4062 9.32034 54.99 9.58268L54.9318 9.62465H54.8423C51.8742 9.7471 48.9015 9.69314 45.9397 9.46305H45.8523L45.7753 9.40849C42.9005 7.5075 39.6768 6.20759 36.2949 5.58575C32.913 4.9639 29.4418 5.03277 26.0868 5.78826L25.8787 5.82603L25.7559 5.65814C24.2014 3.51748 20.8988 5.18174 18.4869 6.39687C17.8483 6.74133 17.1879 7.0428 16.5099 7.29931L16.4433 7.3203H16.3746C13.5914 7.04325 10.7822 7.21039 8.05057 7.81559C5.71775 8.36964 5.55335 8.65506 4.83123 11.1189C2.7389 18.6847 2.03366 26.5721 2.75021 34.3933C2.75468 35.05 2.94061 35.6925 3.28712 36.2486C3.5321 36.617 3.84915 36.931 4.21882 37.1713C4.58849 37.4117 5.00297 37.5733 5.43681 37.6463C5.59935 37.657 5.76208 37.6285 5.91153 37.5631C6.06099 37.4978 6.19287 37.3975 6.29627 37.2706C6.4528 37.1358 6.57054 36.9611 6.63717 36.7646C6.7038 36.5682 6.71687 36.3574 6.67502 36.1541C6.67502 36.0513 6.66253 35.9442 6.66045 35.8099C6.62863 35.0249 6.55918 34.2419 6.45235 33.4636C6.33055 32.5995 6.27005 31.7277 6.2713 30.8549C6.24086 29.6443 6.41756 28.4373 6.79363 27.2872C7.22633 25.9408 8.14822 24.8094 9.3741 24.1203C9.80849 23.8125 10.318 23.6303 10.8476 23.5933C11.3772 23.5563 11.9068 23.666 12.3791 23.9104C14.9242 25.4487 14.8763 32.0743 14.8555 34.9033V35.2538C15.0967 35.6189 15.4159 35.9249 15.7897 36.1493C16.1635 36.3738 16.5824 36.5109 17.0156 36.5508C17.0713 36.5445 17.1276 36.5497 17.1812 36.5659C17.2349 36.5821 17.2847 36.6091 17.3278 36.6452C17.403 36.7304 17.4603 36.8301 17.4961 36.9384C17.5319 37.0466 17.5454 37.1611 17.5359 37.2748C17.5323 37.328 17.533 37.3813 17.5379 37.4343Z" fill="#373435"/>
<path d="M36.3524 30.7709C37.0202 30.706 37.6797 30.5731 38.321 30.3743C38.6431 32.2791 38.7388 34.2159 38.6061 36.1436C38.1202 36.1744 37.6361 36.0586 37.2158 35.8107C36.7955 35.5629 36.4579 35.1943 36.2462 34.7521C36.1388 33.4251 36.1744 32.0902 36.3524 30.7709Z" fill="#6978AB"/>
<path d="M38.5375 36.4794C38.002 36.4978 37.4728 36.359 37.014 36.08C36.5552 35.801 36.1866 35.3937 35.9528 34.9075L35.9216 34.8487V34.7816C35.8129 33.43 35.8492 32.0706 36.0298 30.7269L36.0631 30.4667L36.3212 30.4373C36.9669 30.374 37.6047 30.246 38.2253 30.0553L38.5666 29.9441L38.6499 30.2967C38.9629 32.0152 39.0656 33.766 38.9558 35.5098L38.9391 36.4731H38.6186L38.5375 36.4794ZM36.573 34.6535C36.7356 34.9767 36.9784 35.252 37.2779 35.4524C37.5773 35.6528 37.923 35.7717 38.2815 35.7973V35.4951C38.371 33.9264 38.3013 32.3526 38.0734 30.7983C37.6064 30.9221 37.1315 31.0133 36.6521 31.0711C36.5068 32.2623 36.4796 33.4652 36.5709 34.6619L36.573 34.6535Z" fill="#373435"/>
<path d="M6.136 36.5151C5.66777 33.4216 5.19122 27.9629 7.38461 25.3606C7.55819 25.1247 7.74583 24.8997 7.94648 24.6869C11.4072 21.4003 14.4226 24.2273 15.2405 27.8664C15.4138 30.1672 15.4492 32.4764 15.3466 34.7815C15.551 35.1825 15.8666 35.515 16.2548 35.7385C16.6431 35.9621 17.0874 36.0671 17.5337 36.0408C17.8521 36.7039 17.7668 37.1971 18.1289 37.6358C18.8162 38.4138 19.7176 38.9677 20.7183 39.2271C21.719 39.4865 22.7736 39.4396 23.7477 39.0922C24.3994 38.8135 25.0339 38.4954 25.6476 38.1394C26.1445 35.3244 26.0737 32.4372 25.4395 29.6503C25.4395 29.2641 25.3126 29.0081 25.3126 28.6219C25.5507 28.6563 25.7747 28.7566 25.9598 28.9115C25.5436 30.452 31.2789 31.5118 37.9693 29.6503C38.0443 29.3816 37.9152 29.05 38.0755 28.9535C38.179 28.8882 38.2954 28.8466 38.4166 28.8317C38.5378 28.8169 38.6608 28.8291 38.7768 28.8675C38.808 29.3606 38.8184 29.8412 38.8517 30.3365C39.3705 30.3859 39.8925 30.3929 40.4125 30.3575C40.0711 30.6671 39.6224 30.8285 39.1638 30.8066C39.2804 30.8066 39.0993 31.0312 39.2055 31.0522C39.5135 31.1277 40.0982 31.0102 40.3417 31.1172C39.886 31.3859 39.3761 31.2348 39.0681 31.537C39.143 33.174 39.1847 34.9306 39.2492 36.5738C40.2527 37.3421 41.4913 37.7316 42.75 37.6749C44.0086 37.6181 45.2078 37.1187 46.1394 36.2632C46.3383 32.9751 46.2687 29.676 45.9313 26.3994C45.6878 26.3679 45.4423 26.3239 45.1988 26.2924C49.0008 21.1338 49.7333 15.8556 46.5473 11.0916C46.5161 10.8817 46.3767 10.6719 46.3392 10.462C49.1111 10.355 51.9579 10.6446 54.7382 10.5376C55.4887 10.8241 56.2632 11.0426 57.0523 11.1902C57.8701 10.9006 58.0179 8.61096 57.2125 8.867C56.4072 9.12304 55.9639 9.63721 55.1003 9.95831C51.9142 9.95831 48.3786 9.83029 45.1946 9.83029C42.5953 7.74463 39.5168 6.35309 36.2433 5.78418C32.9699 5.21527 29.6071 5.48733 26.4655 6.57523C27.4331 8.67647 27.979 10.95 28.0719 13.2649C28.1648 15.5797 27.8027 17.8903 27.0065 20.0635C26.8255 20.6637 24.0765 22.4182 26.326 20.5021C28.5985 18.5545 27.1751 5.02431 24.3824 5.00122C21.0961 5.03562 17.9413 6.30823 15.538 8.56898C15.1031 8.09888 15.1343 8.28986 15.3299 7.62668C12.9531 7.42027 10.5588 7.63332 8.25448 8.25628C7.65727 8.27549 7.07967 8.47581 6.59707 8.8311C6.11447 9.1864 5.74927 9.68015 5.54915 10.2479C3.44905 17.8168 2.60524 25.684 3.05193 33.5307C3.16127 34.4716 3.40812 35.391 3.78445 36.259C5.03306 37.64 5.70731 37.2433 6.12143 36.5151H6.136Z" fill="url(#paint0_linear_244_134)"/>
<path d="M11.1179 10.7831C10.4178 10.4952 9.65749 10.3877 8.90581 10.4704C8.83685 10.4628 8.76742 10.4796 8.70936 10.5179C8.6513 10.5562 8.6082 10.6136 8.58741 10.6803C8.55946 10.7287 8.54138 10.7822 8.53423 10.8377C8.52708 10.8932 8.53101 10.9496 8.54579 11.0035C8.6103 11.1861 8.62071 11.1756 8.77887 11.2134C8.98833 11.2449 9.20221 11.2262 9.40317 11.1588C9.64075 11.0326 9.90287 10.9604 10.1711 10.9474C10.4393 10.9343 10.7071 10.9807 10.9556 11.0833C11.1887 11.0728 11.2116 10.9762 11.1367 10.7915L11.1179 10.7831Z" fill="#373435"/>
<path d="M8.9537 11.5575C8.8712 11.5578 8.7889 11.5493 8.70814 11.5323H8.68109C8.57093 11.521 8.46738 11.474 8.38596 11.3983C8.30454 11.3226 8.24965 11.2223 8.22951 11.1125C8.20021 11.0139 8.19082 10.9103 8.2019 10.8079C8.21298 10.7056 8.2443 10.6065 8.29402 10.5165C8.34229 10.4005 8.42457 10.3021 8.52983 10.2346C8.63509 10.1671 8.7583 10.1337 8.88295 10.1387C9.65982 10.0559 10.445 10.1632 11.1721 10.4515H11.3427L11.428 10.6613C11.4758 10.7405 11.5008 10.8315 11.5 10.9242C11.4992 11.0169 11.4728 11.1075 11.4237 11.1859C11.3745 11.2642 11.3047 11.3271 11.222 11.3676C11.1393 11.408 11.0471 11.4244 10.9556 11.4147H10.9057L10.8495 11.398C10.6446 11.3085 10.4224 11.2662 10.1992 11.2742C9.97604 11.2821 9.75742 11.3402 9.55928 11.4441L9.52182 11.4672L9.4802 11.4777C9.30887 11.5272 9.13189 11.554 8.9537 11.5575ZM8.86214 10.8796C9.00226 10.8941 9.14386 10.8799 9.27834 10.8376L9.39072 10.7809C9.24505 10.7809 9.09729 10.7809 8.94746 10.804H8.89335L8.88087 10.8292C8.87181 10.8448 8.86547 10.8618 8.86214 10.8796ZM9.4032 13.4379C9.49831 13.2384 9.64839 13.0707 9.8355 12.955C10.0226 12.8392 10.2388 12.7803 10.4583 12.7852C10.4999 12.5166 10.4583 12.3655 10.117 12.3655C9.6323 12.6132 9.21831 12.9816 8.91417 13.4358C8.73954 13.8306 8.68382 14.2685 8.75393 14.695C8.79199 14.9865 8.94131 15.2515 9.17013 15.4337C9.40706 15.5833 9.6833 15.6571 9.96258 15.6455C10.2419 15.6339 10.5111 15.5374 10.7351 15.3687C11.4801 14.93 12.2251 13.6771 10.9161 13.2049C10.6538 13.1533 10.3839 13.1551 10.1223 13.2103C9.86068 13.2654 9.61265 13.3728 9.3928 13.526C9.37199 13.5365 9.36158 13.4945 9.3928 13.44L9.4032 13.4379Z" fill="#373435"/>
<path d="M9.80695 15.9963C9.49772 16.0024 9.19652 15.8967 8.9579 15.6982C8.66346 15.4596 8.47245 15.115 8.42516 14.737C8.34039 14.2375 8.41317 13.7236 8.63326 13.268C8.96627 12.7639 9.42103 12.3537 9.95471 12.0759L10.0275 12.0318H10.1066C10.2087 12.0219 10.3117 12.0346 10.4084 12.0691C10.5051 12.1035 10.5932 12.1588 10.6664 12.2312C10.7293 12.3172 10.7727 12.4162 10.7936 12.521C10.8144 12.6258 10.8122 12.7339 10.7871 12.8377C11.0697 12.8808 11.3329 13.0088 11.5422 13.2049C11.7516 13.4011 11.8975 13.6564 11.9608 13.9374C11.9488 14.2932 11.845 14.6397 11.6596 14.9426C11.4742 15.2455 11.2136 15.4944 10.9037 15.6647C10.5731 15.87 10.195 15.9843 9.80695 15.9963ZM9.13478 13.7591C9.05778 14.0548 9.04079 14.3632 9.08484 14.6657C9.11402 14.8723 9.22235 15.0592 9.38659 15.1862C9.78822 15.5241 10.4396 15.1631 10.5665 15.0875C10.7667 14.9796 10.938 14.8243 11.0656 14.635C11.1932 14.4456 11.2733 14.2279 11.299 14.0004C11.2803 13.7905 11.1138 13.6394 10.8058 13.5282C10.3729 13.4623 9.9314 13.5659 9.5718 13.8178L9.54475 13.8325L9.32208 13.9458L9.13895 13.7591H9.13478Z" fill="#373435"/>
<path d="M9.9817 14.8944C9.98603 14.9709 10.0007 15.0465 10.0254 15.119C10.0361 15.1528 10.0507 15.1852 10.0691 15.2155C10.0084 15.2562 9.9387 15.2813 9.86616 15.2886C9.79362 15.2959 9.72041 15.2852 9.65289 15.2575C9.19299 15.0476 9.22629 14.397 9.46144 14.0445C9.58464 13.8626 9.74841 13.7124 9.9396 13.606C10.1308 13.4996 10.3441 13.4399 10.5623 13.4316C10.8079 13.5597 10.8828 13.6793 10.7538 13.7108C10.6809 13.7247 10.6106 13.7502 10.5457 13.7863C10.4962 13.8087 10.4521 13.8414 10.4162 13.8823C10.3803 13.9231 10.3535 13.9713 10.3375 14.0235C10.4437 14.0549 10.4978 14.0235 10.5935 14.0654V14.3991C10.4912 14.3473 10.3744 14.3325 10.2626 14.3572C10.0545 14.4222 9.97337 14.7223 9.97337 14.9049L9.9817 14.8944Z" fill="#FEFEFE"/>
<path d="M10.8619 23.4527C11.4515 23.3253 12.0101 23.0812 12.5054 22.7345C13.0007 22.3878 13.4229 21.9455 13.7475 21.4331C14.0721 20.9207 14.2926 20.3484 14.3964 19.7495C14.5001 19.1505 14.485 18.5367 14.3518 17.9437C13.9792 17.9359 13.6142 17.8365 13.2884 17.6541C13.2676 17.5156 13.2572 17.375 13.2343 17.2343C14.0958 17.6541 15.3153 17.78 15.1572 16.4515C15.2737 16.42 15.4547 16.4096 15.5734 16.376C15.5317 17.3078 15.3653 17.3938 14.7971 17.7905C14.9605 18.8064 14.8753 19.8472 14.5489 20.8223C14.2225 21.7975 13.6647 22.6774 12.9242 23.3856C12.8801 23.6771 12.9058 23.975 12.9991 24.2544C12.7267 23.9674 12.3924 23.7475 12.0222 23.6117C11.6519 23.476 11.2556 23.428 10.864 23.4716L10.8619 23.4527Z" fill="#373435"/>
<path d="M13.5861 25.4087L12.7537 24.481C12.512 24.2301 12.2161 24.0389 11.889 23.9224C11.5619 23.8059 11.2126 23.7672 10.8683 23.8095H10.5311V23.2218L10.7663 23.1274C11.8377 22.9058 12.7814 22.2718 13.3968 21.36C14.0123 20.4481 14.2511 19.3303 14.0626 18.2438C13.7252 18.2184 13.3985 18.1127 13.1095 17.9352L12.9805 17.8534L12.9576 17.7044L12.9285 17.484L12.9035 17.2868L12.8078 16.6572L13.3759 16.9342C13.5667 17.0578 13.7825 17.137 14.0074 17.166C14.2324 17.1951 14.461 17.1732 14.6765 17.1021C14.8097 17.0076 14.8596 16.802 14.8243 16.4914L14.7931 16.2059L15.0677 16.1304C15.1493 16.1099 15.232 16.0945 15.3154 16.0842C15.3714 16.0776 15.427 16.0678 15.4819 16.0548L15.923 15.9331L15.9022 16.3927C15.8585 17.3497 15.6504 17.5911 15.151 17.9499C15.281 18.9701 15.1749 20.0068 14.8409 20.9787C14.5069 21.9505 13.9542 22.8311 13.226 23.5513C13.2265 23.7301 13.251 23.908 13.2989 24.0802L13.5861 25.4087ZM12.1294 23.2932C12.2806 23.342 12.427 23.4052 12.5664 23.4821C12.5726 23.4106 12.5873 23.3402 12.6101 23.2722L12.633 23.205L12.6808 23.1526C12.8584 22.9609 13.0228 22.7685 13.174 22.5754C12.8543 22.8544 12.5038 23.0952 12.1294 23.2932Z" fill="#373435"/>
<path d="M43.8128 37.6272C43.7608 36.836 43.6651 36.1413 43.6422 35.348C43.5902 33.5306 42.2209 33.1339 42.1459 34.9514C42.1043 35.9042 42.1459 36.8024 42.1459 37.7007C42.7014 37.7773 43.2661 37.7524 43.8128 37.6272Z" fill="#8093D0"/>
<path d="M42.943 37.8518C42.7349 37.8518 42.5393 37.8392 42.3416 37.8266L42.0294 37.8098V36.813C42.0294 36.2127 42.0107 35.5915 42.0294 34.9514C42.069 34.0007 42.4456 33.6628 42.7807 33.6628C43.2239 33.6628 43.7109 34.2568 43.7442 35.3418C43.7567 35.8266 43.7983 36.2694 43.8399 36.7374C43.867 37.0228 43.892 37.3125 43.9128 37.6147V37.7049L43.8274 37.7301C43.5398 37.8125 43.242 37.8535 42.943 37.8518ZM42.2584 37.6H42.3582C42.8046 37.6529 43.2565 37.6324 43.6963 37.5391C43.6776 37.2705 43.6526 37.0123 43.6297 36.7584C43.586 36.2862 43.5465 35.8413 43.5319 35.3481C43.5049 34.4436 43.1157 33.879 42.789 33.879C42.5643 33.879 42.2917 34.1602 42.2584 34.9535C42.2292 35.5831 42.2396 36.2127 42.2584 36.8025C42.2542 37.0711 42.2584 37.3334 42.2584 37.6Z" fill="#373435"/>
<path d="M42.1709 37.7196C42.0198 36.8067 41.9633 35.8804 42.0023 34.9557C42.1189 33.2767 40.5456 31.5075 40.4395 34.6241C40.4009 35.5349 40.4364 36.4474 40.5456 37.3523C41.0771 37.5171 41.6205 37.6399 42.1709 37.7196Z" fill="#8093D0"/>
<path d="M42.2978 37.854L42.1542 37.8309C41.5975 37.7522 41.0478 37.6294 40.5102 37.4636L40.4436 37.4405V37.3713C40.3335 36.4594 40.298 35.5398 40.3375 34.622C40.3708 33.6167 40.5456 33.0207 40.8848 32.8486C40.9623 32.8096 41.049 32.7935 41.1352 32.802C41.2213 32.8106 41.3033 32.8435 41.3718 32.8969C41.644 33.1616 41.8531 33.4852 41.9833 33.8433C42.1134 34.2014 42.1612 34.5847 42.123 34.9641C42.0761 35.7746 42.1144 36.5878 42.2375 37.3902L42.2978 37.854ZM40.6455 37.2727C41.1032 37.4098 41.5698 37.515 42.0419 37.5875L42.0211 37.4133C41.8924 36.5988 41.8485 35.7731 41.8899 34.9494C41.9252 34.6092 41.8851 34.2653 41.7724 33.9426C41.6598 33.62 41.4774 33.3266 41.2386 33.0837C41.2029 33.053 41.1593 33.0332 41.1129 33.0265C41.0665 33.0198 41.0192 33.0265 40.9764 33.0459C40.8619 33.1047 40.5914 33.3796 40.5477 34.6283C40.5104 35.511 40.5431 36.3952 40.6455 37.2727Z" fill="#373435"/>
<path d="M40.5478 37.4952L40.3251 33.9274C40.1649 31.2642 39.1035 31.5748 39.0182 33.7679C38.9766 34.8047 39.0598 35.3713 38.9641 36.4102C39.4636 36.7523 39.9838 37.426 40.5478 37.4805V37.4952Z" fill="#8093D0"/>
<path d="M40.5373 37.6C40.092 37.4903 39.6897 37.2483 39.3824 36.9054C39.2307 36.7644 39.0709 36.6327 38.9037 36.5108L38.8496 36.473V36.408C38.8931 35.9056 38.9077 35.401 38.8933 34.8969V33.772C38.937 32.6534 39.2304 31.9273 39.6404 31.9231C40.0566 31.9231 40.3438 32.6723 40.4187 33.9294L40.6414 37.4972H40.529L40.5373 37.6ZM39.0806 36.3639C39.2304 36.473 39.3803 36.6074 39.528 36.7375C39.7826 37.0025 40.0887 37.2119 40.427 37.3524L40.2189 33.9441C40.1398 32.6241 39.8423 32.1477 39.6612 32.1477C39.4739 32.1477 39.1763 32.6702 39.1347 33.7825C39.116 34.2023 39.1222 34.5611 39.1347 34.8969C39.1429 35.3852 39.1248 35.8735 39.0806 36.3597V36.3639Z" fill="#373435"/>
<path d="M22.395 39.3378C22.4232 38.5025 22.3808 37.6663 22.2681 36.8382C21.8227 34.9074 21.2609 34.6703 20.6033 36.0974V39.3042C21.198 39.3863 21.8006 39.3933 22.3971 39.3252L22.395 39.3378Z" fill="#8093D0"/>
<path d="M21.7228 39.4887C21.3774 39.4887 21.0319 39.4572 20.6927 39.4258L20.4846 39.4069V36.049C20.803 35.3585 21.1089 35.0374 21.4169 35.071C21.7957 35.1109 22.0953 35.6628 22.3596 36.8108L22.3804 36.9934C22.483 37.7709 22.5199 38.5559 22.4907 39.3397H22.3825L22.3971 39.4362C22.174 39.4715 21.9486 39.489 21.7228 39.4887ZM20.7115 39.2033C21.234 39.2709 21.7623 39.28 22.2868 39.2306C22.3075 38.4921 22.2699 37.7531 22.1744 37.0207L22.1557 36.8507C21.8518 35.5348 21.5563 35.3102 21.4086 35.2955C21.2941 35.2955 21.059 35.3774 20.7115 36.1245V39.2033Z" fill="#373435"/>
<path d="M19.1382 38.8088C19.1486 37.579 19.159 36.7647 19.159 35.5349C19.6044 33.7258 20.0601 33.9084 20.5054 36.0805C20.5159 37.2474 20.5263 38.0071 20.5263 39.1719C20.0391 39.1527 19.5617 39.0289 19.1257 38.8088H19.1382Z" fill="#8093D0"/>
<path d="M20.6303 39.2979L20.443 39.2769C19.9621 39.2534 19.4918 39.1268 19.0633 38.9054L18.6991 38.6956H19.0196V38.066C19.0196 37.2055 19.0341 36.494 19.0341 35.5245V35.4972C19.2589 34.5863 19.4795 34.1792 19.7521 34.1792C19.9602 34.1792 20.2536 34.3996 20.5845 36.047V36.7732C20.5845 37.5812 20.5991 38.2423 20.5991 39.1636L20.6303 39.2979ZM19.2422 38.748C19.6088 38.922 20.0052 39.0232 20.4097 39.046C20.4097 38.194 20.4097 37.5539 20.3951 36.7837V36.0806C20.0684 34.5003 19.8187 34.4143 19.7708 34.4143C19.723 34.4143 19.544 34.4394 19.2693 35.5475C19.2693 36.5108 19.2693 37.2265 19.2547 38.0786L19.2422 38.748Z" fill="#373435"/>
<path d="M17.4734 36.389C17.5379 35.3606 17.7502 34.3218 17.8126 33.2934C17.3964 31.2577 16.9428 30.8946 16.4662 32.2231C16.4454 33.5411 16.435 34.8695 16.4142 36.1875C16.729 36.39 17.1081 36.465 17.4755 36.3974L17.4734 36.389Z" fill="#8093D0"/>
<path d="M17.2091 36.5507C16.9549 36.5375 16.7072 36.4657 16.4849 36.3409L16.3101 36.2611V36.1877C16.3212 35.5287 16.3302 34.8683 16.3371 34.2065C16.344 33.5447 16.3531 32.8836 16.3642 32.2232V32.1876C16.5723 31.5852 16.7929 31.3145 17.0426 31.3313C17.2923 31.3481 17.5816 31.5852 17.9249 33.2747V33.3041C17.8937 33.8224 17.823 34.3534 17.7543 34.8592C17.6856 35.365 17.6169 35.8875 17.5857 36.3954V36.492L17.4983 36.5109C17.4035 36.5342 17.3066 36.5475 17.2091 36.5507ZM16.5348 36.131L16.5764 36.1499C16.8173 36.295 17.099 36.3555 17.3776 36.322C17.4109 35.8288 17.4775 35.3272 17.5441 34.8424C17.6107 34.3576 17.6794 33.8224 17.7127 33.3167C17.3859 31.7154 17.1112 31.5727 17.0343 31.5664C16.9926 31.5664 16.8262 31.602 16.5868 32.2589C16.5757 32.9109 16.5667 33.565 16.5598 34.2212C16.5528 34.8774 16.5445 35.5084 16.5348 36.1142V36.131Z" fill="#373435"/>
<path d="M37.2868 36.0638C37.3722 34.9704 37.2556 34.0596 37.2868 32.9892C37.3181 31.6923 38.5896 32.0679 38.6437 33.2579C38.6978 34.4478 38.7602 35.0585 38.8247 36.2464C38.3094 36.3344 37.7799 36.271 37.2993 36.0638H37.2868Z" fill="#8093D0"/>
<path d="M38.2066 36.3784C37.8812 36.3899 37.5582 36.3177 37.2681 36.1685H37.1765V36.0489C37.2137 35.4648 37.2179 34.879 37.189 34.2944C37.1765 33.8747 37.1619 33.4403 37.1765 32.9807C37.1931 32.3049 37.524 32.0614 37.8279 32.0593C38.2441 32.0593 38.7164 32.5105 38.7477 33.2472C38.7789 33.8537 38.8101 34.2965 38.8392 34.7603C38.8684 35.2241 38.8975 35.6481 38.9287 36.2294V36.3427L38.6062 36.3553C38.4736 36.3714 38.3401 36.3792 38.2066 36.3784ZM37.4012 35.9923C37.7821 36.1511 38.1984 36.2033 38.6062 36.1434H38.706C38.6809 35.6899 38.6531 35.2366 38.6228 34.7834C38.5937 34.328 38.5645 33.8747 38.5312 33.2661C38.4979 32.6575 38.1504 32.2902 37.832 32.2902C37.5719 32.2902 37.4158 32.5567 37.3992 32.9953C37.3825 33.434 37.3992 33.8789 37.4117 34.2965C37.4373 34.8616 37.4338 35.4276 37.4012 35.9923Z" fill="#373435"/>
<path d="M37.2201 36.1037C37.1889 35.302 37.1993 34.3387 37.1681 33.537C37.243 32.4352 36.4897 30.8087 36.1942 32.6178C36.1004 33.2877 36.0441 33.9625 36.0256 34.6388C36.3686 35.1704 36.7692 35.6617 37.2201 36.1037Z" fill="#B9C5EA"/>
<path d="M37.3388 36.3304L37.1536 36.1961C36.7874 35.8704 36.4674 35.4954 36.2026 35.0817C36.1161 34.9583 36.0273 34.8365 35.9362 34.7165L35.9092 34.683V34.641C35.9237 34.4311 35.9341 34.2213 35.9424 34.0534C35.9581 33.5696 36.004 33.0874 36.0798 32.6095C36.1173 32.3744 36.2338 31.6609 36.6063 31.707C37.0225 31.7574 37.3201 32.8781 37.2743 33.5539C37.2909 33.9442 37.2951 34.3933 37.3014 34.8278C37.3076 35.2622 37.3118 35.7092 37.3284 36.108L37.3388 36.3304ZM36.136 34.6053C36.2088 34.6998 36.2921 34.8152 36.3836 34.9453C36.5992 35.2665 36.8393 35.5703 37.1016 35.854C37.1016 35.5224 37.087 35.1678 37.0828 34.8236C37.0828 34.3913 37.0724 33.9421 37.0558 33.5434C37.1078 32.7627 36.7645 31.9421 36.5834 31.9211C36.5439 31.9085 36.4003 32.0344 36.3004 32.6367C36.2258 33.1063 36.1806 33.5802 36.1651 34.0555L36.136 34.6032V34.6053ZM27.7599 21.3542C28.3009 18.7519 28.8316 16.1495 29.3727 13.5366C29.458 12.9259 29.6162 12.3802 30.2529 12.3257H31.0271C31.4932 12.3257 31.7596 12.6048 31.8012 13.1652L31.6431 14.3215C31.6639 14.7937 31.9511 15.0603 32.5233 15.1043C33.2975 15.1358 34.0841 15.1799 34.8582 15.2114C36.0257 15.2869 36.8102 15.7906 36.7312 17.2576L35.9986 21.1339C35.9853 21.4333 35.8846 21.7222 35.7091 21.9641C35.5336 22.2061 35.2912 22.3903 35.0122 22.4938C34.6626 22.4728 34.2693 22.5148 33.9197 22.4938C33.3141 22.5253 32.9645 22.3007 33.1872 21.4969C33.4099 20.4791 33.6866 19.2052 33.9197 18.1873C34.005 16.9764 33.5597 16.9134 33.0873 16.8274C32.6836 16.7728 32.2923 16.8274 31.8886 16.7728C31.2935 16.8588 31.0708 17.436 30.9022 18.0803C30.6483 19.1611 30.382 20.244 30.1281 21.3353C30.0115 21.9251 29.8846 22.3091 29.4497 22.4917H28.1553C27.6669 22.384 27.5282 21.9985 27.7391 21.3353L27.7599 21.3542Z" fill="#373435"/>
<path d="M34.1403 22.7203H33.9134C33.7572 22.7469 33.5968 22.7346 33.4463 22.6845C33.2958 22.6344 33.1597 22.548 33.0498 22.4328C32.9577 22.2863 32.9022 22.1194 32.888 21.9466C32.8739 21.7737 32.9016 21.5999 32.9687 21.4401L33.0956 20.8567C33.2891 19.9711 33.5118 18.9826 33.6949 18.1578C33.7595 17.1819 33.4993 17.1336 33.0706 17.0539C32.6836 17.0014 32.3111 17.0539 31.8949 17.0035C31.4787 17.0791 31.2893 17.4967 31.1186 18.141L30.7732 19.587L30.3445 21.3919C30.203 21.9963 30.0885 22.4706 29.535 22.7035L29.4934 22.7203H28.1074C27.9897 22.7009 27.8775 22.6562 27.7784 22.5892C27.6793 22.5222 27.5956 22.4345 27.533 22.3321C27.4603 22.1669 27.4227 21.9881 27.4227 21.8074C27.4227 21.6267 27.4603 21.4479 27.533 21.2827L27.6017 21.0729L28.4341 17.0035L29.1521 13.5176C29.2103 13.0979 29.3331 12.2059 30.2321 12.1304H31.025C31.3663 12.1304 31.951 12.2647 32.0197 13.1797V13.2028L31.8595 14.3613C31.8741 14.5984 31.9719 14.8692 32.5337 14.9111L33.7012 14.9636L34.8603 15.0161C35.1566 14.9881 35.4552 15.0296 35.7329 15.1372C36.0107 15.2449 36.26 15.4158 36.4614 15.6366C36.6629 15.8574 36.811 16.1222 36.8942 16.4103C36.9775 16.6984 36.9936 17.0019 36.9413 17.2973V17.3267L36.2088 21.2051C36.1883 21.543 36.0705 21.8676 35.8697 22.1389C35.669 22.4103 35.3941 22.6168 35.0788 22.7329L35.0372 22.7476H34.4649C34.3588 22.7161 34.2485 22.7203 34.1403 22.7203ZM33.9155 22.267H34.9748C35.2056 22.1704 35.4038 22.0087 35.5459 21.8014C35.688 21.5941 35.7679 21.3499 35.776 21.098L36.5064 17.2281C36.5709 16.0486 36.0735 15.5113 34.8416 15.4337L33.6845 15.3812L32.5129 15.3267C31.5973 15.2574 31.435 14.674 31.4204 14.3319V14.3046L31.5785 13.1524C31.5307 12.6152 31.2581 12.5459 31.0271 12.5459H30.2529C29.87 12.5795 29.6911 12.846 29.5912 13.5638L28.8691 17.0644C28.5722 18.5097 28.2739 19.9536 27.9742 21.3961L27.891 21.8011L27.866 21.7759C27.8503 21.884 27.8669 21.9944 27.9139 22.0928C27.9436 22.1379 27.9822 22.1762 28.0274 22.2055C28.0725 22.2347 28.1231 22.2542 28.1761 22.2628H29.3976C29.6952 22.1201 29.7972 21.8431 29.9054 21.2848L30.3362 19.4695L30.6816 18.0193C30.8086 17.5408 31.0396 16.6593 31.8532 16.5502H31.9136C32.2923 16.6006 32.6877 16.5502 33.1123 16.6048H33.1414C33.7366 16.7139 34.2214 16.9091 34.132 18.1977V18.2333C33.9426 19.0602 33.7158 20.055 33.5305 20.9448L33.3994 21.5409C33.3162 21.841 33.3162 22.0467 33.3994 22.1474C33.4827 22.2481 33.7262 22.2754 33.9051 22.267H33.9155Z" fill="#FEFEFE"/>
<path d="M17.7314 24.3657C18.2621 21.5912 18.8031 18.8168 19.3359 16.0528C19.3289 15.9272 19.3484 15.8016 19.3929 15.6841C19.4374 15.5666 19.506 15.4599 19.5942 15.371C19.6823 15.2821 19.7881 15.2129 19.9046 15.168C20.0211 15.1231 20.1457 15.1035 20.2702 15.1105H25.1565C25.622 15.0967 26.0826 15.2111 26.4885 15.4414C26.8944 15.6718 27.2303 16.0094 27.4602 16.418C27.7873 17.0153 27.9246 17.6996 27.8535 18.3782C27.7489 19.5433 27.237 20.6331 26.4092 21.4527C25.7314 22.03 24.901 22.3947 24.0202 22.5021C23.1878 22.5231 22.3554 22.5336 21.523 22.5566C21.0444 22.5147 20.5678 22.6427 20.4513 23.0288C20.3035 23.5535 20.1974 24.0782 20.0476 24.5924C19.9956 24.7082 19.9194 24.8113 19.8242 24.8946C19.729 24.9779 19.6171 25.0395 19.4961 25.0751C19.0175 25.0856 18.5305 25.0856 18.0519 25.0961C17.5399 25.1044 17.6461 24.798 17.7314 24.3657ZM21.1401 19.6101C21.2775 18.8818 21.4481 18.0571 21.575 17.4149C21.6429 17.2225 21.7704 17.0573 21.9388 16.9439C22.1071 16.8304 22.3072 16.7748 22.5094 16.7853C23.0132 16.7492 23.519 16.8148 23.9973 16.9783C24.2068 17.0636 24.3958 17.1928 24.552 17.3573C24.7082 17.5218 24.8279 17.7179 24.9033 17.9326C24.9786 18.1473 25.0079 18.3757 24.9891 18.6027C24.9703 18.8296 24.904 19.05 24.7944 19.2491C24.6093 19.5997 24.3574 19.9099 24.0531 20.162C23.7489 20.4141 23.3982 20.6031 23.0213 20.7182C22.6753 20.8094 22.3172 20.8455 21.96 20.8252C21.0465 20.7287 20.9715 20.4831 21.1276 19.6038L21.1401 19.6101Z" fill="#373435"/>
<path d="M18.0269 25.3187C17.9383 25.3277 17.8488 25.3164 17.7652 25.2855C17.6816 25.2546 17.606 25.2049 17.5441 25.1403C17.386 24.9494 17.4401 24.6912 17.4963 24.4184L17.515 24.3239C17.8077 22.7961 18.1026 21.2683 18.3994 19.7404L19.1132 16.0425C19.1043 15.8978 19.1252 15.7528 19.1746 15.6166C19.2241 15.4804 19.3009 15.356 19.4004 15.2513C19.5135 15.1317 19.6504 15.0375 19.8021 14.9749C19.9538 14.9124 20.1169 14.8828 20.2807 14.8883H25.1565C25.6627 14.8727 26.1634 14.9977 26.6038 15.2498C27.0442 15.5019 27.4074 15.8712 27.6537 16.3175C27.9989 16.9512 28.1441 17.676 28.0699 18.3952C27.9615 19.6131 27.4275 20.7526 26.5633 21.6103L26.5383 21.6334C25.8292 22.2352 24.9613 22.6153 24.0411 22.7268C23.6124 22.7394 23.1941 22.7457 22.7779 22.7541L21.5293 22.7814H21.5043C21.1693 22.752 20.7468 22.815 20.6719 23.0962C20.597 23.3774 20.5367 23.6083 20.4638 23.8664C20.391 24.1246 20.3348 24.3911 20.2557 24.6576C20.197 24.8074 20.1055 24.9418 19.988 25.0508C19.8705 25.1598 19.7301 25.2406 19.5773 25.2872L19.5378 25.304H19.4961L18.7782 25.3145L18.0519 25.325L18.0269 25.3187ZM17.8875 24.857C17.939 24.8709 17.9925 24.8759 18.0457 24.8717L18.7782 24.8612H19.4483C19.673 24.7605 19.8021 24.6513 19.8374 24.538C19.9103 24.2799 19.9727 24.0238 20.0455 23.7657C20.1184 23.5076 20.1746 23.241 20.2536 22.9766C20.3889 22.5275 20.8779 22.2861 21.5459 22.347L22.7821 22.3197L24.0307 22.2924C24.8592 22.1861 25.6397 21.8407 26.2782 21.2976C27.0624 20.5173 27.5481 19.4826 27.6496 18.3763C27.7173 17.7376 27.5879 17.0933 27.2792 16.5315C27.0633 16.1611 26.7529 15.8559 26.3803 15.6477C26.0077 15.4395 25.5865 15.336 25.1607 15.3479H20.2703C20.1684 15.3437 20.0669 15.3616 19.9725 15.4004C19.8781 15.4391 19.793 15.4978 19.723 15.5724C19.6627 15.6346 19.6166 15.7092 19.5879 15.7911C19.5591 15.873 19.5484 15.9602 19.5565 16.0467V16.1097L18.8365 19.8391L17.952 24.4226L17.9312 24.5212C17.8995 24.6345 17.8855 24.752 17.8896 24.8696L17.8875 24.857ZM22.1578 21.0542H21.9372C21.7615 21.0585 21.5868 21.0275 21.4232 20.963C21.2595 20.8985 21.1103 20.8018 20.9841 20.6785C20.7989 20.4288 20.8155 20.0972 20.9112 19.5704L20.9862 19.1507L21.0007 19.1654C21.0736 18.7897 21.1526 18.4036 21.2255 18.0405L21.3774 17.3206C21.4637 17.0875 21.6218 16.8883 21.8285 16.7523C22.0352 16.6163 22.2797 16.5507 22.5261 16.5651C23.0516 16.5296 23.5788 16.601 24.0765 16.775C24.2962 16.8545 24.4971 16.9793 24.6662 17.1416C24.8353 17.3039 24.969 17.4999 25.0587 17.7173C25.1577 17.979 25.2032 18.2581 25.1924 18.538C25.1817 18.8179 25.115 19.0927 24.9963 19.3459L24.9817 19.3731C24.7831 19.7466 24.5135 20.077 24.1882 20.3453C23.8629 20.6136 23.4883 20.8145 23.0859 20.9367C22.781 21.0099 22.4691 21.0493 22.1557 21.0542H22.1578ZM21.2983 19.9797C21.2657 20.1206 21.2811 20.2684 21.342 20.3994C21.4148 20.4959 21.6188 20.5589 21.983 20.5988C22.3164 20.6155 22.6504 20.5808 22.9735 20.4959C23.3194 20.3891 23.6409 20.2146 23.9198 19.9823C24.1987 19.7501 24.4294 19.4646 24.5988 19.1423C24.6901 18.9464 24.7417 18.7342 24.7507 18.518C24.7596 18.3018 24.7257 18.0859 24.6508 17.8831C24.5834 17.7226 24.4836 17.578 24.3579 17.4584C24.2322 17.3389 24.0832 17.2469 23.9204 17.1884C23.4694 17.0351 22.9924 16.9744 22.5178 17.01C22.3604 16.997 22.2032 17.0374 22.0712 17.1249C21.9392 17.2123 21.84 17.3418 21.7894 17.4927L21.6625 18.1223C21.5626 18.6176 21.4544 19.157 21.3607 19.6523L21.2983 19.9797Z" fill="#FEFEFE"/>
<path d="M36.2962 24.3657C36.8268 21.5912 37.3679 18.8168 37.9006 16.0528C37.8937 15.9272 37.9131 15.8016 37.9576 15.6841C38.0021 15.5666 38.0707 15.4599 38.1589 15.371C38.2471 15.2821 38.3529 15.2129 38.4694 15.168C38.5859 15.1231 38.7105 15.1035 38.835 15.1105H43.7212C44.1868 15.0967 44.6473 15.2111 45.0532 15.4414C45.4591 15.6718 45.7951 16.0094 46.0249 16.418C46.352 17.0153 46.4893 17.6996 46.4182 18.3782C46.3137 19.5433 45.8018 20.6331 44.974 21.4527C44.2962 22.03 43.4658 22.3947 42.585 22.5021C41.7526 22.5231 40.9202 22.5336 40.0878 22.5566C39.6091 22.5147 39.1326 22.6427 39.016 23.0288C38.8683 23.5535 38.7622 24.0782 38.6123 24.5924C38.5604 24.7082 38.4842 24.8113 38.389 24.8946C38.2938 24.9779 38.1819 25.0395 38.0609 25.0751C37.5822 25.0856 37.0953 25.0856 36.6166 25.0961C36.1047 25.1044 36.2025 24.798 36.2962 24.3657ZM39.7049 19.6101C39.8422 18.8818 40.0129 18.0571 40.1398 17.4149C40.2076 17.2225 40.3352 17.0573 40.5035 16.9439C40.6719 16.8304 40.872 16.7748 41.0742 16.7853C41.5779 16.7492 42.0838 16.8148 42.5621 16.9783C42.7715 17.0636 42.9606 17.1928 43.1168 17.3573C43.2729 17.5218 43.3927 17.7179 43.468 17.9326C43.5434 18.1473 43.5726 18.3757 43.5539 18.6027C43.5351 18.8296 43.4687 19.05 43.3591 19.2491C43.1741 19.5997 42.9222 19.9099 42.6179 20.162C42.3136 20.4141 41.963 20.6031 41.5861 20.7182C41.24 20.8094 40.8819 20.8455 40.5248 20.8252C39.6112 20.7287 39.5363 20.4831 39.6924 19.6038L39.7049 19.6101Z" fill="#373435"/>
<path d="M36.5918 25.3187C36.5032 25.3276 36.4137 25.3161 36.3301 25.2853C36.2465 25.2544 36.1709 25.2048 36.109 25.1403C35.9508 24.9494 36.0049 24.6912 36.0611 24.4184L36.0798 24.3239C36.3712 22.8003 36.6646 21.2781 36.9601 19.7572L37.6781 16.0425C37.6691 15.8978 37.69 15.7528 37.7394 15.6166C37.7889 15.4804 37.8658 15.356 37.9652 15.2513C38.0783 15.1317 38.2152 15.0375 38.3669 14.9749C38.5186 14.9124 38.6817 14.8828 38.8455 14.8883H43.7213C44.2275 14.8727 44.7282 14.9977 45.1686 15.2498C45.609 15.5019 45.9723 15.8712 46.2186 16.3175C46.5635 16.9512 46.7087 17.676 46.6348 18.3952C46.5261 19.6131 45.9922 20.7525 45.1281 21.6103L45.1031 21.6334C44.394 22.2352 43.5261 22.6153 42.6059 22.7268C42.1772 22.7394 41.7589 22.7457 41.3427 22.7541L40.0941 22.7814H40.0691C39.732 22.752 39.3117 22.815 39.2367 23.0962C39.1618 23.3774 39.1015 23.6083 39.0286 23.8643C38.9558 24.1204 38.8996 24.3911 38.8205 24.6555C38.7618 24.8053 38.6703 24.9397 38.5528 25.0487C38.4353 25.1577 38.2949 25.2385 38.1421 25.2851L38.1026 25.3019H38.061L37.343 25.3124L36.6167 25.3229L36.5918 25.3187ZM36.4523 24.857C36.5039 24.8705 36.5573 24.8754 36.6105 24.8717L37.343 24.8612H38.0131C38.2379 24.7605 38.3669 24.6513 38.4022 24.538C38.4751 24.2799 38.5396 24.0217 38.6104 23.7657C38.6811 23.5097 38.7394 23.2431 38.8185 22.9787C38.9537 22.5296 39.4428 22.2882 40.1108 22.3491L41.3469 22.3218L42.5955 22.2945C43.4241 22.1882 44.2045 21.8428 44.843 21.2997C45.6273 20.5194 46.113 19.4847 46.2144 18.3784C46.2823 17.7397 46.1529 17.0954 45.844 16.5336C45.6282 16.1632 45.3178 15.858 44.9451 15.6498C44.5725 15.4416 44.1513 15.3381 43.7255 15.35H38.8351C38.7332 15.3455 38.6316 15.3633 38.5372 15.4021C38.4427 15.4408 38.3577 15.4996 38.2878 15.5745C38.2275 15.6366 38.1814 15.7113 38.1527 15.7932C38.1239 15.8751 38.1132 15.9623 38.1213 16.0488V16.1118L37.3992 19.8579L36.5189 24.4247L36.4981 24.5233C36.4664 24.6366 36.4524 24.7541 36.4565 24.8717L36.4523 24.857ZM40.7226 21.0542H40.502C40.3264 21.0585 40.1516 21.0275 39.988 20.963C39.8243 20.8985 39.6751 20.8018 39.5489 20.6785C39.3637 20.4288 39.3803 20.0972 39.4761 19.5704L39.551 19.1507L39.5655 19.1654C39.6384 18.7876 39.7175 18.3994 39.7903 18.0342L39.9422 17.3185C40.0277 17.0848 40.1856 16.885 40.3925 16.7489C40.5994 16.6128 40.8444 16.5476 41.0909 16.563C41.6164 16.5281 42.1435 16.5995 42.6413 16.7729C42.861 16.8524 43.0619 16.9772 43.231 17.1395C43.4001 17.3018 43.5338 17.4978 43.6235 17.7152C43.7225 17.9769 43.768 18.256 43.7573 18.5359C43.7465 18.8158 43.6798 19.0906 43.5611 19.3438L43.5465 19.371C43.348 19.7445 43.0783 20.0749 42.753 20.3432C42.4277 20.6115 42.0531 20.8124 41.6507 20.9346C41.3466 21.0084 41.0354 21.0485 40.7226 21.0542ZM39.861 19.9818C39.8285 20.1227 39.8439 20.2705 39.9047 20.4015C39.9776 20.498 40.1815 20.561 40.5457 20.6009C40.8791 20.6175 41.2132 20.5828 41.5363 20.498C41.8821 20.3912 42.2037 20.2167 42.4826 19.9844C42.7614 19.7521 42.9922 19.4667 43.1615 19.1444C43.2528 18.9485 43.3045 18.7363 43.3134 18.5201C43.3223 18.3039 43.2884 18.088 43.2136 17.8852C43.1461 17.7247 43.0464 17.5801 42.9206 17.4605C42.7949 17.341 42.6459 17.249 42.4831 17.1905C42.0321 17.037 41.5552 16.9763 41.0805 17.0121C40.9232 16.9994 40.7661 17.04 40.6342 17.1274C40.5023 17.2148 40.403 17.3441 40.3522 17.4948L40.2252 18.1244C40.1253 18.6218 40.0171 19.1633 39.9235 19.6586L39.861 19.9818Z" fill="#FEFEFE"/>
<path d="M4.8312 36.9831C4.58235 36.7421 4.37178 36.464 4.20689 36.1583C3.95006 35.6867 3.82559 35.1534 3.84688 34.6158C3.30581 25.3123 3.78236 17.1757 6.72284 10.5271C7.08286 9.71282 7.13905 9.46727 7.89029 9.09161C10.1854 8.24297 12.6473 7.95527 15.074 8.25213C15.1489 8.04227 15.2966 7.8324 15.2321 7.62253C13.0361 7.44524 10.826 7.62235 8.68524 8.1472C7.22853 8.38225 5.80928 8.64039 5.45966 10.9741C2.52127 18.8211 2.73353 26.2525 3.03944 33.5539C3.03724 34.0806 3.11586 34.6044 3.27251 35.1069C3.84479 36.9474 4.39835 36.8845 4.83328 36.981L4.8312 36.9831ZM16.1166 35.8184C16.1166 33.8813 15.9584 31.9442 15.9584 29.9987C15.8806 28.8887 15.6415 27.7962 15.2488 26.7562C14.8231 25.9997 14.3359 25.2802 13.7921 24.6051C15.4455 27.774 15.9602 31.4224 15.2488 34.9306C15.5443 35.2286 15.8086 35.5287 16.1166 35.8184Z" fill="#EBEFFF"/>
<path d="M16.2747 36.2022L16.1269 36.1455C15.5717 35.9049 15.0955 35.5105 14.7535 35.008L14.6099 34.8254H14.7451C14.7763 34.1308 14.7639 33.4949 14.7451 32.8778C14.7326 32.2273 14.7181 31.5557 14.7555 30.8169V30.6931L14.8783 30.712C15.2178 30.7452 15.5385 30.8844 15.7959 31.1101C16.0533 31.3358 16.2344 31.6368 16.3142 31.9712V32.0048L16.2872 34.009L16.2601 36.0448L16.2747 36.2022ZM14.9616 34.9136C15.2476 35.3153 15.6223 35.6443 16.0562 35.8748C16.0562 35.2116 16.0728 34.6156 16.0811 34.0048C16.0811 33.3752 16.0978 32.7309 16.1082 32.0174C16.0436 31.7481 15.9018 31.504 15.7004 31.3155C15.4991 31.1271 15.2472 31.0025 14.9761 30.9575C14.947 31.6375 14.9595 32.265 14.9761 32.8736C14.9761 33.5179 14.9969 34.1832 14.9616 34.9136Z" fill="#373435"/>
<path d="M19.0383 38.5593C18.6043 38.3865 18.2387 38.0746 17.9978 37.6715C17.9229 34.2129 17.8583 30.7459 17.7897 27.2852L18.312 27.8098C18.4289 28.539 18.4826 29.277 18.4722 30.0155L18.6325 30.4353C18.6295 33.1485 18.765 35.8601 19.0383 38.5593Z" fill="#EBEFFF"/>
<path d="M19.211 39.3272L19.0654 39.2789C18.4601 39.0641 17.9591 38.6241 17.6648 38.0491L17.6503 38.0197V37.9777C17.6503 36.8255 17.6711 35.6335 17.6711 34.4666V34.4372L17.6856 34.412C17.9999 33.8349 18.2704 33.4634 18.5659 33.5222C18.7969 33.5684 19.057 33.8391 19.2318 35.4845C19.2318 36.708 19.211 37.9546 19.211 39.174V39.3272ZM17.8729 37.963C18.1186 38.429 18.512 38.7985 18.9904 39.0124C18.9904 37.8434 19.0009 36.6534 19.0113 35.4992C18.8489 33.9692 18.6159 33.7594 18.5243 33.7405C18.4327 33.7216 18.2538 33.8391 17.9 34.4939C17.8896 35.6482 17.8896 36.8255 17.8729 37.9651V37.963Z" fill="#373435"/>
<path d="M15.3924 26.8064C15.3988 26.6284 15.3735 26.4507 15.3175 26.2817C15.4028 26.3027 15.4881 26.3132 15.5714 26.3363L16.9178 27.4402C17.1053 27.3601 17.2545 27.2096 17.334 27.0205C17.4192 27.0191 17.5035 27.0373 17.5806 27.0737C17.6578 27.1101 17.7257 27.1636 17.7794 27.2303C17.8002 28.1097 17.7377 28.9765 17.7585 29.8537C17.8983 29.9739 17.9888 30.1422 18.0124 30.3259C18.5699 30.3484 19.1257 30.4023 19.6772 30.4875C19.7085 30.626 19.7522 30.7121 19.7834 30.8527C19.161 30.7823 18.5328 30.7823 17.9105 30.8527V31.2493C18.3985 31.2241 18.8879 31.26 19.3672 31.3564L19.4192 31.646C18.901 31.5833 18.3769 31.5904 17.8605 31.667C17.9354 33.8265 17.9354 35.9881 17.8605 38.1477C17.6899 37.7406 17.3631 37.3439 17.1821 36.9368C17.5052 34.1669 17.5478 31.371 17.309 28.5924C16.8153 27.856 16.1593 27.2447 15.3924 26.8064Z" fill="#373435"/>
<path d="M17.5649 38.2801C17.4727 38.0801 17.3649 37.8878 17.2424 37.7051C17.1097 37.504 16.9915 37.2936 16.8886 37.0755L16.8491 36.9894L16.8616 36.895C17.177 34.178 17.2202 31.4358 16.9906 28.7101C16.5206 28.0517 15.916 27.5028 15.2176 27.1004L15.0303 26.9787L15.0719 26.7562C15.0727 26.6756 15.06 26.5955 15.0344 26.5191C15.0202 26.4642 15.0077 26.4089 14.997 26.3533L14.9012 25.8391L15.4049 25.965L15.5131 25.9881C15.5609 25.9881 15.6109 26.007 15.6587 26.0196L15.7295 26.0385L16.9448 27.0333C16.9804 27 17.0081 26.9591 17.026 26.9136L17.1071 26.7038H17.3381C17.4773 26.7027 17.6148 26.7346 17.7395 26.797C17.8642 26.8593 17.9726 26.9503 18.0561 27.0626L18.1123 27.1445V27.2452C18.1227 27.6922 18.1123 28.1414 18.1019 28.5737C18.1019 28.9578 18.0831 29.3544 18.0894 29.7448C18.1612 29.8277 18.2215 29.9202 18.2683 30.0197C18.6138 30.0344 18.9551 30.0805 19.288 30.1225L19.7167 30.175L19.9498 30.2023L20.0018 30.4331C20.0138 30.4842 20.0284 30.5347 20.0455 30.5842C20.0663 30.6493 20.0892 30.7165 20.108 30.7941L20.2099 31.239L19.7583 31.2033H19.6772L19.8291 32.0428L19.39 31.9967C18.9969 31.9511 18.6003 31.9448 18.2059 31.9778C18.2707 34.0437 18.2707 36.1113 18.2059 38.1773L17.5649 38.2801ZM17.5358 36.8866L17.5754 36.9621V36.5025C17.5656 36.6312 17.5525 36.7593 17.5358 36.8866ZM17.0884 27.7363C17.22 27.878 17.3417 28.0288 17.4526 28.1875V27.4614C17.3483 27.5741 17.225 27.6672 17.0884 27.7363Z" fill="#373435"/>
<path d="M16.6847 7.72322C17.6448 7.59604 18.5697 7.27559 19.4046 6.78091C21.0599 5.84613 22.9061 5.30759 24.8007 5.2069C24.0168 4.84989 23.1351 4.77579 22.3034 4.99703C20.2612 5.49692 18.3465 6.4259 16.6847 7.72322ZM27.0752 6.56055C31.6322 5.23757 36.4937 5.45875 40.914 7.19015C36.5685 5.26432 31.6919 4.93244 27.1293 6.25204C27.1272 6.46611 27.0752 6.35907 27.0752 6.56055Z" fill="#EBEFFF"/>
<defs>
<linearGradient id="paint0_linear_244_134" x1="15.2656" y1="2.0514" x2="28.7408" y2="46.5482" gradientUnits="userSpaceOnUse">
<stop stop-color="#8A9FE0"/>
<stop offset="0.588" stop-color="#7182B8"/>
<stop offset="1" stop-color="#576490"/>
</linearGradient>
</defs>
</svg>
