<svg width="46" height="48" viewBox="0 0 46 48" fill="none" xmlns="http://www.w3.org/2000/svg">
<g clip-path="url(#clip0_244_103)">
<path d="M45.1576 28.7428C44.8858 27.8975 44.1738 27.3088 43.2529 27.1675C42.8187 27.101 42.3215 27.1293 41.733 27.2539C40.7074 27.4712 39.9464 27.5539 39.3911 27.5699C41.4872 23.9363 43.1917 19.7926 44.1729 15.8921C45.7595 9.58498 44.9117 6.71171 43.9209 5.41208C41.2988 1.97208 37.4733 0.124077 32.8581 0.0675311C30.3961 0.0366221 28.2348 0.535713 27.1074 0.894622C26.0576 0.70444 24.9289 0.598258 23.7445 0.578622C21.5245 0.542258 19.5629 1.03917 17.8868 2.06044C16.9589 1.73826 15.4696 1.28408 13.7498 0.994258C9.70485 0.31244 6.44474 0.843713 4.06014 2.57335C1.17262 4.66753 -0.165953 8.30608 0.0816095 13.3879C0.160234 15.0013 1.03928 19.9104 2.42336 24.5661C3.21882 27.2421 4.06705 29.4643 4.94449 31.1715C6.18886 33.5924 7.52035 35.0181 9.01511 35.5301C9.85289 35.8166 11.3751 36.0173 12.9761 34.6483C13.179 34.9006 13.4498 35.1513 13.8091 35.3843C14.2655 35.6797 14.8234 35.9212 15.3807 36.0643C17.389 36.5797 19.2702 36.4508 20.8751 35.7283C20.885 36.0213 20.8926 36.3013 20.899 36.5432C20.9096 36.9353 20.9202 37.3199 20.9342 37.6795C21.0293 40.1112 21.1905 42.0019 21.6679 43.3248C21.6941 43.3975 21.7293 43.5084 21.7665 43.6261C22.0047 44.3748 22.403 45.6283 23.4162 46.6099C24.4654 47.6268 25.7346 47.9386 26.897 47.9386C27.4799 47.9386 28.0362 47.8601 28.524 47.7528C30.263 47.3701 32.238 46.7872 33.6667 44.6984C35.0175 42.7239 35.6741 39.7499 35.7929 35.0639C35.8083 34.9313 35.8225 34.8048 35.8361 34.6843L35.8645 34.4366L36.1827 34.4653L36.2647 34.471C38.0359 34.5539 40.2016 34.1683 41.5317 33.5339C42.5827 33.0332 45.9506 31.2075 45.1576 28.7428" fill="black"/>
<path d="M42.1291 29.2222C36.8627 30.3377 36.5006 28.507 36.5006 28.507C42.061 20.0355 44.3855 9.28224 42.3797 6.65042C36.9071 -0.52867 27.4341 2.8666 27.2759 2.9546L27.2251 2.96406C26.1846 2.74224 25.0202 2.61024 23.7114 2.58824C21.3286 2.54824 19.5209 3.22969 18.1492 4.29769C18.1492 4.29769 1.25017 -2.85031 2.03624 13.2875C2.20341 16.7206 6.82882 39.2644 12.3457 32.4551C14.3621 29.9651 16.3106 27.8599 16.3106 27.8599C17.2782 28.5199 18.4366 28.8566 19.6511 28.7357L19.7455 28.6535C19.7161 28.9626 19.7295 29.265 19.7832 29.623C18.3619 31.2533 18.7796 31.5395 15.9385 32.1401C13.0636 32.7484 14.7524 33.8313 15.8551 34.1146C17.1919 34.4577 20.2845 34.9439 22.3741 31.9404L22.2909 32.2831C22.8476 32.7411 23.2386 35.2619 23.1731 37.5471C23.1076 39.8322 23.0638 41.4011 23.5025 42.6266C23.9414 43.8521 24.3787 46.6093 28.1137 45.7877C31.2344 45.101 32.8518 43.3215 33.0768 40.3531C33.2364 38.243 33.5978 38.555 33.6205 36.6682L33.9104 35.7751C34.2445 32.9146 33.9635 31.9917 35.8861 32.421L36.3536 32.4631C37.7685 32.5291 39.6208 32.2293 40.7079 31.7106C43.0486 30.5953 44.4369 28.733 42.1288 29.2222H42.1291" fill="#336791"/>
<path d="M19.1375 14.8229C18.6629 14.7551 18.2331 14.8178 18.0157 14.9869C17.8935 15.082 17.8556 15.1922 17.8453 15.268C17.8181 15.4689 17.9551 15.6911 18.0394 15.8056C18.2778 16.13 18.6259 16.3529 18.9705 16.402C19.0205 16.4093 19.0702 16.4125 19.1196 16.4125C19.6943 16.4125 20.2168 15.9531 20.2629 15.614C20.3204 15.1893 19.7199 14.9062 19.1375 14.8231M34.8597 14.8364C34.8143 14.5034 34.2374 14.4085 33.6899 14.4867C33.143 14.5649 32.6128 14.8184 32.6571 15.152C32.6925 15.4114 33.1489 15.8544 33.689 15.8544C33.7347 15.8544 33.7807 15.8513 33.8271 15.8445C34.1876 15.7933 34.4522 15.5582 34.5779 15.4227C34.7692 15.2162 34.88 14.986 34.8597 14.8364" fill="white"/>
<path d="M43.8821 29.0958C43.6813 28.4724 43.0349 28.2718 41.9611 28.4995C38.7727 29.1751 37.6309 28.7071 37.256 28.4236C39.7343 24.5473 41.773 19.8615 42.8729 15.4896C43.3939 13.4187 43.6816 11.4955 43.7052 9.92782C43.7312 8.20728 43.4457 6.94291 42.8571 6.17055C40.4839 3.05691 37.0006 1.38673 32.7843 1.34091C29.8856 1.30746 27.4365 2.06909 26.9618 2.28328C25.962 2.028 24.872 1.87128 23.6854 1.85128C21.5094 1.81509 19.6284 2.35 18.0711 3.44037C17.3947 3.18182 15.6465 2.56564 13.5086 2.212C9.81249 1.60109 6.87538 2.064 4.77943 3.58855C2.27848 5.40782 1.12389 8.65982 1.34755 13.254C1.42281 14.7996 2.2806 19.5545 3.63423 24.1082C5.41604 30.1016 7.35298 33.4945 9.39085 34.1925C9.62938 34.2742 9.90439 34.3313 10.2077 34.3313C10.9511 34.3313 11.8626 33.9873 12.8109 32.8167C13.9675 31.3921 15.164 30.0021 16.3987 28.6484C17.1999 29.0898 18.08 29.3364 18.9801 29.3611C18.9819 29.3853 18.9842 29.4095 18.9863 29.4335C18.8313 29.6232 18.6796 29.8156 18.5312 30.0107C17.9075 30.8236 17.7777 30.9929 15.7701 31.4173C15.199 31.5384 13.6823 31.8593 13.66 32.9509C13.6359 34.1436 15.4529 34.6445 15.66 34.6976C16.3814 34.8831 17.0764 34.9745 17.7393 34.9745C19.3513 34.9745 20.7699 34.4305 21.9036 33.378C21.8687 37.63 22.0413 41.8198 22.5386 43.0964C22.9459 44.1415 23.9407 46.6955 27.0832 46.6953C27.5444 46.6953 28.0519 46.6402 28.6102 46.5173C31.89 45.7955 33.3143 44.3071 33.8652 41.0258C34.16 39.2722 34.666 35.0847 34.904 32.8385C35.4062 32.9995 36.0527 33.0731 36.7516 33.0729C38.2094 33.0729 39.8915 32.7549 40.9464 32.2522C42.1314 31.6871 44.2699 30.3005 43.8821 29.0958V29.0958ZM36.0716 13.9176C36.0608 14.5807 35.9719 15.1827 35.8777 15.8111C35.7763 16.4869 35.6714 17.1856 35.645 18.0338C35.619 18.8593 35.7194 19.7175 35.8165 20.5475C36.0127 22.2238 36.214 23.9496 35.4347 25.6525C35.3052 25.417 35.1899 25.1736 35.0894 24.9236C34.9925 24.6825 34.7821 24.2953 34.4908 23.7593C33.3577 21.6727 30.7041 16.7865 32.0625 14.7927C32.4671 14.1993 33.494 13.5891 36.0716 13.9176V13.9176ZM32.9472 2.68364C36.7251 2.76928 39.7135 4.22037 41.8293 6.99637C43.4521 9.12564 41.6652 18.8142 36.492 27.1725C36.44 27.1046 36.3877 27.0369 36.3351 26.9695L36.2696 26.8855C37.6064 24.6187 37.345 22.376 37.1124 20.3876C37.0167 19.5716 36.9264 18.8009 36.9494 18.0769C36.9732 17.3096 37.072 16.6515 37.1676 16.0151C37.285 15.2309 37.4045 14.4195 37.3716 13.4629C37.3962 13.3625 37.4061 13.244 37.3932 13.1033C37.3091 12.186 36.2891 9.44073 34.2101 6.956C33.0729 5.59691 31.4145 4.076 29.1502 3.05019C30.1241 2.84291 31.456 2.64964 32.9472 2.68364V2.68364ZM11.8073 31.96C10.7625 33.2498 10.0411 33.0025 9.80381 32.9215C8.25787 32.392 6.46402 29.0371 4.88249 23.7171C3.51399 19.1138 2.71428 14.4849 2.65088 13.1869C2.45113 9.08182 3.42031 6.22091 5.53168 4.68346C8.9678 2.18164 14.6171 3.67909 16.8871 4.43855C16.8546 4.47164 16.8206 4.50255 16.7883 4.53619C13.0632 8.39873 13.1516 14.998 13.1608 15.4015C13.1604 15.5571 13.1732 15.7775 13.1905 16.0805C13.2546 17.1905 13.374 19.2564 13.0552 21.5958C12.7592 23.7698 13.4119 25.8976 14.8457 27.4338C14.9929 27.5912 15.1475 27.7409 15.3092 27.8825C14.6709 28.5844 13.2839 30.1364 11.8073 31.96V31.96ZM15.788 26.5067C14.6323 25.2685 14.1075 23.5464 14.3478 21.7813C14.6842 19.31 14.5601 17.1576 14.4933 16.0013C14.4839 15.8395 14.4756 15.6976 14.4708 15.5858C15.015 15.0904 17.5369 13.7031 19.3353 14.1262C20.1559 14.3191 20.656 14.8929 20.8639 15.8798C21.9399 20.9895 21.0063 23.1191 20.2562 24.8305C20.1016 25.1831 19.9555 25.5164 19.8308 25.8611L19.7341 26.1276C19.4894 26.8015 19.2617 27.428 19.1205 28.0229C17.8919 28.0193 16.6968 27.4804 15.788 26.5065V26.5067ZM15.9766 33.3976C15.6178 33.3056 15.2952 33.1458 15.1059 33.0133C15.264 32.9369 15.5454 32.8329 16.0334 32.7296C18.3952 32.2305 18.76 31.8782 19.5565 30.8398C19.7391 30.6016 19.9461 30.3318 20.2328 30.0031L20.2331 30.0027C20.6601 29.5118 20.8554 29.5951 21.2096 29.746C21.4966 29.8678 21.7762 30.2373 21.8896 30.6438C21.9432 30.8358 22.0034 31.2002 21.8063 31.4838C20.1425 33.8758 17.7178 33.8451 15.9766 33.3976V33.3976ZM28.3368 45.2071C25.4475 45.8427 24.4245 44.3291 23.7504 42.5987C23.3153 41.4816 23.1014 36.4442 23.2531 30.8811C23.2551 30.8071 23.2448 30.7356 23.225 30.6684C23.2072 30.5355 23.1802 30.4042 23.1442 30.2753C22.9186 29.4658 22.3688 28.7887 21.7091 28.508C21.447 28.3965 20.9661 28.192 20.3881 28.3438C20.5113 27.8224 20.7251 27.2335 20.9569 26.5958L21.0541 26.3276C21.1635 26.0253 21.3009 25.712 21.4462 25.3804C22.2312 23.5898 23.3062 21.1373 22.1394 15.5967C21.7024 13.5215 20.2429 12.508 18.0304 12.7435C16.704 12.8844 15.4905 13.4338 14.8852 13.7489C14.7551 13.8165 14.6361 13.882 14.5249 13.9456C14.6938 11.8547 15.332 7.94709 17.7194 5.47473C19.2227 3.91837 21.2246 3.14964 23.6638 3.19109C28.4698 3.27182 31.5518 5.80418 33.2911 7.91455C34.7899 9.73291 35.6015 11.5647 35.9254 12.5527C33.4896 12.2984 31.833 12.792 30.9932 14.0247C29.1663 16.7062 31.9927 21.9105 33.3511 24.4118C33.6003 24.8702 33.8152 25.2664 33.8829 25.4347C34.3252 26.5355 34.8979 27.2704 35.316 27.8067C35.4442 27.9711 35.5686 28.1305 35.6631 28.2698C34.9254 28.4882 33.6003 28.9927 33.721 31.5147C33.6236 32.7802 32.9311 38.7049 32.5792 40.7982C32.1147 43.5636 31.1236 44.5936 28.3368 45.2073V45.2071ZM40.3969 31.0369C39.6425 31.3964 38.3801 31.666 37.1809 31.724C35.8563 31.7876 35.182 31.5716 35.0233 31.4387C34.9489 29.8671 35.5186 29.7029 36.1216 29.5291C36.2163 29.5018 36.3088 29.4751 36.398 29.4431C36.4534 29.4895 36.5142 29.5355 36.5808 29.5805C37.6454 30.302 39.5442 30.3798 42.2251 29.8116L42.2545 29.8056C41.8929 30.1527 41.2742 30.6185 40.3969 31.0369Z" fill="white"/>
</g>
<defs>
<clipPath id="clip0_244_103">
<rect width="45.3333" height="48" fill="white"/>
</clipPath>
</defs>
</svg>
