<svg width="46" height="46" viewBox="0 0 46 46" fill="none" xmlns="http://www.w3.org/2000/svg">
<g clip-path="url(#clip0_244_180)">
<path d="M22.8052 0.502197C11.1557 0.502197 11.883 5.46367 11.883 5.46367L11.896 10.6039H23.0129V12.1471H7.48052C7.48052 12.1471 0.026001 11.3168 0.026001 22.8607C0.026001 34.4048 6.53249 33.9954 6.53249 33.9954H10.4155V28.6385C10.4155 28.6385 10.2062 22.2485 16.8182 22.2485H27.8441C27.8441 22.2485 34.0389 22.3468 34.0389 16.3687V6.4842C34.0389 6.4842 34.9797 0.502197 22.8052 0.502197ZM16.6753 3.9589C16.938 3.95867 17.1982 4.00932 17.4409 4.10794C17.6837 4.20656 17.9042 4.35123 18.09 4.53366C18.2758 4.71609 18.4231 4.93271 18.5235 5.17111C18.6239 5.40951 18.6755 5.66502 18.6752 5.92302C18.6755 6.18102 18.6239 6.43653 18.5235 6.67493C18.4231 6.91333 18.2758 7.12995 18.09 7.31238C17.9042 7.49481 17.6837 7.63948 17.4409 7.7381C17.1982 7.83673 16.938 7.88737 16.6753 7.88714C16.4126 7.88737 16.1524 7.83673 15.9097 7.7381C15.6669 7.63948 15.4464 7.49481 15.2606 7.31238C15.0749 7.12995 14.9276 6.91333 14.8271 6.67493C14.7267 6.43653 14.6751 6.18102 14.6754 5.92302C14.6751 5.66502 14.7267 5.40951 14.8271 5.17111C14.9276 4.93271 15.0749 4.71609 15.2606 4.53366C15.4464 4.35123 15.6669 4.20656 15.9097 4.10794C16.1524 4.00932 16.4126 3.95867 16.6753 3.9589Z" fill="url(#paint0_linear_244_180)"/>
<path d="M23.136 45.3354C34.7855 45.3354 34.0581 40.3739 34.0581 40.3739L34.0452 35.2338H22.9281V33.6906H38.4605C38.4605 33.6906 45.915 34.5209 45.915 22.9767C45.915 11.4327 39.4085 11.8421 39.4085 11.8421H35.5254V17.1989C35.5254 17.1989 35.7348 23.5889 29.1228 23.5889H18.0968C18.0968 23.5889 11.9021 23.4906 11.9021 29.4689V39.3535C11.9021 39.3535 10.9614 45.3354 23.1358 45.3354H23.136ZM29.2658 41.879C29.0031 41.8792 28.743 41.8286 28.5002 41.73C28.2575 41.6313 28.0369 41.4867 27.8512 41.3042C27.6654 41.1218 27.5181 40.9052 27.4177 40.6668C27.3173 40.4284 27.2657 40.1729 27.2659 39.9149C27.2657 39.6569 27.3172 39.4013 27.4176 39.1629C27.518 38.9245 27.6653 38.7079 27.8511 38.5254C28.0369 38.343 28.2574 38.1983 28.5002 38.0996C28.7429 38.001 29.0031 37.9504 29.2658 37.9506C29.5285 37.9504 29.7887 38.001 30.0315 38.0996C30.2742 38.1983 30.4948 38.3429 30.6805 38.5254C30.8663 38.7078 31.0136 38.9244 31.114 39.1628C31.2144 39.4012 31.266 39.6567 31.2658 39.9147C31.266 40.1727 31.2144 40.4282 31.114 40.6666C31.0136 40.905 30.8663 41.1216 30.6805 41.3041C30.4948 41.4865 30.2742 41.6312 30.0315 41.7298C29.7887 41.8284 29.5285 41.8792 29.2658 41.879Z" fill="url(#paint1_linear_244_180)"/>
</g>
<defs>
<linearGradient id="paint0_linear_244_180" x1="441.017" y1="403.749" x2="2674.46" y2="2655.22" gradientUnits="userSpaceOnUse">
<stop stop-color="#387EB8"/>
<stop offset="1" stop-color="#366994"/>
</linearGradient>
<linearGradient id="paint1_linear_244_180" x1="662.806" y1="701.135" x2="3063.27" y2="3011.73" gradientUnits="userSpaceOnUse">
<stop stop-color="#FFE052"/>
<stop offset="1" stop-color="#FFC331"/>
</linearGradient>
<clipPath id="clip0_244_180">
<rect width="46" height="45" fill="white" transform="translate(0 0.489502)"/>
</clipPath>
</defs>
</svg>
