<svg width="29" height="33" viewBox="0 0 29 33" fill="none" xmlns="http://www.w3.org/2000/svg">
<g clip-path="url(#clip0_785_2902)">
<path d="M14.4807 0V4.79596L6.90928 12.1648C2.94674 16.0762 2.94717 22.3685 6.9106 26.3509L7.03189 26.4709C11.081 30.4861 17.7277 30.4861 21.8532 26.4709C25.9374 22.5694 25.9783 16.1901 21.9757 12.167L21.8532 12.0456L24.3743 9.59193C29.875 14.9456 29.875 23.5338 24.3743 28.9246C18.9882 34.2783 10.126 34.2783 4.62531 28.9246C-0.820467 23.6245 -0.874826 15.1178 4.46191 9.75352L4.62531 9.59193L14.4807 0ZM19.4466 5.42797C20.4592 5.42797 21.2802 6.22699 21.2802 7.21252C21.2802 8.19816 20.4592 8.99708 19.4466 8.99708C18.4339 8.99708 17.613 8.19816 17.613 7.21252C17.613 6.22699 18.4339 5.42797 19.4466 5.42797Z" fill="#EE4C2C"/>
</g>
<defs>
<clipPath id="clip0_785_2902">
<rect width="28" height="33" fill="white" transform="translate(0.5)"/>
</clipPath>
</defs>
</svg>
