<svg width="48" height="43" viewBox="0 0 48 43" fill="none" xmlns="http://www.w3.org/2000/svg">
<g clip-path="url(#clip0_244_204)">
<path d="M39.4656 13.7441C38.9547 13.572 38.4396 13.4124 37.9206 13.2657C38.0077 12.9157 38.088 12.57 38.1593 12.2303C39.3289 6.65222 38.5642 2.15841 35.9526 0.67883C33.4485 -0.739591 29.3533 0.739435 25.2174 4.27572C24.8098 4.62486 24.4113 4.98407 24.0221 5.35299C23.7616 5.10767 23.4965 4.86711 23.2269 4.63143C18.8923 0.85033 14.5476 -0.743276 11.9387 0.74054C9.43687 2.16338 8.69606 6.38788 9.74906 11.6744C9.85382 12.1979 9.97211 12.7188 10.1038 13.2365C9.48881 13.4081 8.89537 13.5909 8.32744 13.7854C3.24544 15.5262 0 18.2542 0 21.0838C0 24.0063 3.48413 26.9377 8.77725 28.7151C9.20637 28.8586 9.63907 28.9916 10.0749 29.1139C9.93338 29.6715 9.80771 30.2328 9.69806 30.7973C8.69419 35.992 9.47812 40.1166 11.9732 41.5305C14.5502 42.9905 18.8754 41.4899 23.0869 37.873C23.4284 37.5789 23.7624 37.2765 24.0885 36.9661C24.5099 37.3656 24.9426 37.7534 25.386 38.1292C29.4656 41.578 33.4946 42.9706 35.9873 41.5529C38.5618 40.0886 39.3986 35.6576 38.3123 30.2667C38.2267 29.8444 38.1307 29.4241 38.0244 29.0064C38.3282 28.9179 38.6263 28.8269 38.9169 28.7323C44.4197 26.9412 48 24.0454 48 21.0838C48 18.2439 44.6498 15.4975 39.4656 13.7441ZM38.2721 26.8201C38.0096 26.9054 37.7404 26.9878 37.4659 27.0679C36.8584 25.1785 36.0386 23.1695 35.0353 21.0936C35.9927 19.0673 36.7809 17.0839 37.3714 15.2068C37.8624 15.3464 38.3389 15.4936 38.7982 15.6489C43.2401 17.1513 45.9495 19.3723 45.9495 21.0838C45.9495 22.9068 43.0234 25.2733 38.2721 26.8201ZM36.3008 30.658C36.7811 33.0417 36.8496 35.1969 36.5314 36.8819C36.2456 38.3959 35.6707 39.4052 34.9597 39.8096C33.4472 40.6698 30.2122 39.5517 26.7234 36.6021C26.311 36.2527 25.9085 35.8921 25.5165 35.5208C26.8691 34.0675 28.2208 32.3781 29.5401 30.5018C31.8606 30.2995 34.0528 29.9687 36.0409 29.5172C36.1366 29.8954 36.2233 30.2758 36.3008 30.658ZM16.3643 39.6609C14.8864 40.1736 13.7092 40.1883 12.9977 39.7853C11.4836 38.9274 10.8542 35.6155 11.7127 31.173C11.8148 30.6481 11.9317 30.126 12.0632 29.6074C14.0293 30.0348 16.2056 30.3421 18.5316 30.5274C19.8598 32.3634 21.2505 34.051 22.6521 35.5287C22.3542 35.8119 22.0493 36.0878 21.7376 36.3562C19.8752 37.9555 18.009 39.0902 16.3643 39.6609ZM9.44062 26.8089C7.10006 26.0229 5.16713 25.0014 3.84225 23.8868C2.65163 22.8852 2.05069 21.8907 2.05069 21.0838C2.05069 19.3666 4.65637 17.1764 9.00244 15.6878C9.52988 15.5072 10.0819 15.3368 10.6547 15.1769C11.2554 17.0964 12.0433 19.1034 12.9941 21.1328C12.0309 23.1923 11.2318 25.2313 10.6252 27.1735C10.2274 27.0615 9.8324 26.9399 9.44062 26.8089ZM11.7615 11.2873C10.8594 6.75814 11.4585 3.34159 12.9662 2.48409C14.5719 1.57078 18.1228 2.87296 21.8655 6.13791C22.1096 6.35129 22.3497 6.56901 22.5857 6.79093C21.1911 8.26222 19.8131 9.93725 18.4967 11.7624C16.2392 11.968 14.0782 12.2981 12.0915 12.7404C11.9691 12.2589 11.8591 11.7743 11.7615 11.2873ZM32.4666 16.3104C31.9973 15.514 31.5106 14.7277 31.0069 13.9519C32.5384 14.1422 34.0057 14.3948 35.3837 14.7035C34.9701 16.0062 34.4544 17.3681 33.8475 18.7644C33.4039 17.9375 32.9435 17.1193 32.4666 16.3104ZM24.0231 8.23072C24.9688 9.23743 25.9161 10.3613 26.8478 11.5808C24.9578 11.4931 23.0646 11.4927 21.1746 11.5797C22.1072 10.3714 23.0625 9.24904 24.0231 8.23072ZM15.5254 16.3242C15.0544 17.1266 14.6026 17.9397 14.1703 18.7628C13.5733 17.3714 13.0624 16.0033 12.6452 14.6821C14.0147 14.3811 15.4751 14.135 16.9969 13.9483C16.4875 14.7287 15.9969 15.5211 15.5254 16.3242ZM17.0406 28.3627C15.4684 28.1903 13.986 27.9569 12.6169 27.664C13.0406 26.3193 13.5628 24.922 14.1727 23.5009C14.6068 24.3246 15.0605 25.1382 15.5334 25.9409C16.0198 26.7662 16.5234 27.5745 17.0406 28.3627ZM24.0797 34.0788C23.1077 33.0487 22.1383 31.909 21.1916 30.6832C22.1108 30.7186 23.0477 30.7366 24 30.7366C24.9784 30.7366 25.9455 30.7151 26.8974 30.6735C25.9628 31.9213 25.0191 33.0627 24.0797 34.0788ZM33.8668 23.4283C34.5084 24.8651 35.0492 26.255 35.4786 27.5767C34.0869 27.8888 32.5843 28.14 31.0011 28.3266C31.5084 27.5365 31.9997 26.7365 32.4746 25.9271C32.9575 25.1044 33.4217 24.2713 33.8668 23.4283ZM30.6984 24.9206C29.9713 26.1615 29.2034 27.3788 28.3958 28.5707C26.9328 28.6725 25.4666 28.7231 24 28.7223C22.5062 28.7223 21.0532 28.6766 19.6541 28.5875C18.8254 27.3983 18.0428 26.1789 17.3079 24.9316C16.5765 23.691 15.8935 22.4235 15.2601 21.1319C15.8919 19.84 16.573 18.5719 17.3019 17.3304L17.3018 17.3305C18.0304 16.0886 18.8067 14.8744 19.6292 13.6904C21.0566 13.5842 22.5204 13.529 23.9998 13.529C25.4859 13.529 26.9518 13.5848 28.3789 13.6916C29.193 14.8739 29.9644 16.084 30.6917 17.3197C31.423 18.5585 32.1131 19.8204 32.7609 21.1034C32.1198 22.3994 31.4318 23.6726 30.6984 24.9206ZM34.9284 2.42404C36.5357 3.33478 37.1608 7.00738 36.1509 11.8236C36.0864 12.1308 36.0141 12.4438 35.9353 12.7612C33.9437 12.3095 31.7813 11.9737 29.5172 11.765C28.1983 9.91975 26.8316 8.24214 25.4597 6.78983C25.8192 6.44932 26.1874 6.11764 26.5637 5.79509C30.1074 2.76538 33.4194 1.56912 34.9284 2.42404ZM24 16.8728C26.3672 16.8728 28.2863 18.7582 28.2863 21.0838C28.2863 23.4095 26.3672 25.2949 24 25.2949C21.6328 25.2949 19.7137 23.4095 19.7137 21.0838C19.7137 18.7582 21.6328 16.8728 24 16.8728Z" fill="#00D8FF"/>
</g>
<defs>
<clipPath id="clip0_244_204">
<rect width="48" height="42" fill="white" transform="translate(0 0.14502)"/>
</clipPath>
</defs>
</svg>
