<svg width="48" height="43" viewBox="0 0 48 43" fill="none" xmlns="http://www.w3.org/2000/svg">
<g clip-path="url(#clip0_244_112)">
<path d="M46.1194 32.3919C43.5578 33.7573 30.288 39.3366 27.4629 40.8427C24.6379 42.3489 23.0685 42.3344 20.8367 41.2434C18.6051 40.1524 4.48369 34.3194 1.93987 33.076C0.668625 32.4548 0 31.9302 0 31.4348V26.4734C0 26.4734 18.3844 22.3808 21.3523 21.292C24.3201 20.2031 25.3498 20.1638 27.8754 21.1098C30.4014 22.0562 45.5038 24.8425 48 25.7774L47.9989 30.6686C47.9993 31.1591 47.4233 31.6971 46.1194 32.3919" fill="#912626"/>
<path d="M46.1184 27.4604C43.557 28.8252 30.2876 34.4047 27.4625 35.9106C24.6376 37.4171 23.0683 37.4023 20.8366 36.3113C18.6048 35.2211 4.48402 29.3872 1.9404 28.1445C-0.60323 26.9011 -0.65648 26.0454 1.84215 25.0449C4.34077 24.0441 18.3841 18.4099 21.3525 17.3211C24.3202 16.2326 25.3498 16.1929 27.8754 17.1393C30.4012 18.0853 43.5915 23.4541 46.0873 24.3888C48.584 25.3247 48.6798 26.0953 46.1184 27.4604" fill="#C6302B"/>
<path d="M46.1194 24.3647C43.5578 25.7302 30.288 31.3094 27.4629 32.816C24.6379 34.3217 23.0685 34.3072 20.8367 33.2162C18.6049 32.1258 4.48369 26.2922 1.93987 25.0488C0.668625 24.4276 0 23.9038 0 23.4081V18.4462C0 18.4462 18.3844 14.3538 21.3523 13.2649C24.3201 12.1761 25.3498 12.1366 27.8754 13.0828C30.4016 14.029 45.504 16.8147 48 17.7498L47.9989 22.6416C47.9993 23.1318 47.4233 23.6699 46.1194 24.3647Z" fill="#912626"/>
<path d="M46.1184 19.433C43.557 20.7981 30.2876 26.3773 27.4625 27.8837C24.6376 29.3896 23.0683 29.3749 20.8366 28.2839C18.6048 27.1937 4.48402 21.3599 1.9404 20.1171C-0.60323 18.8741 -0.65648 18.0182 1.84215 17.0173C4.34077 16.017 18.3843 10.3825 21.3525 9.29382C24.3202 8.20515 25.3498 8.16565 27.8754 9.11187C30.4012 10.0579 43.5915 15.4263 46.0873 16.3614C48.584 17.2971 48.6798 18.0678 46.1184 19.433" fill="#C6302B"/>
<path d="M46.1194 16.0379C43.5578 17.4031 30.288 22.9826 27.4629 24.4892C24.6379 25.9951 23.0685 25.9803 20.8367 24.8894C18.6049 23.799 4.48369 17.9652 1.93987 16.7224C0.668625 16.1006 0 15.5766 0 15.0815V10.1194C0 10.1194 18.3844 6.02719 21.3523 4.93852C24.3201 3.84946 25.3498 3.81035 27.8754 4.75637C30.4016 5.70258 45.504 8.48831 48 9.4234L47.9989 14.315C47.9993 14.8048 47.4233 15.3429 46.1194 16.0379Z" fill="#912626"/>
<path d="M46.1183 11.1085C43.5569 12.4737 30.2875 18.0532 27.4624 19.5591C24.6376 21.065 23.0682 21.0502 20.8365 19.9598C18.6049 18.8688 4.48393 13.0355 1.94049 11.7925C-0.603323 10.5496 -0.656386 9.69353 1.84205 8.69287C4.34068 7.69239 18.3842 2.05863 21.3524 0.969568C24.3201 -0.119298 25.3497 -0.158412 27.8753 0.787803C30.4011 1.73402 43.5914 7.10242 46.0872 8.03751C48.5839 8.97242 48.6797 9.74339 46.1183 11.1085" fill="#C6302B"/>
<path d="M29.8661 6.28073L25.7393 6.71885L24.8154 8.99206L23.3233 6.4554L18.558 6.01748L22.1138 4.7062L21.0469 2.69336L24.3759 4.02477L27.5143 2.97406L26.6661 5.05535L29.8661 6.28073M24.5691 17.309L16.8671 14.0424L27.9034 12.31L24.5691 17.309M13.8909 7.54427C17.1488 7.54427 19.7897 8.59114 19.7897 9.88229C19.7897 11.1738 17.1488 12.2205 13.8909 12.2205C10.6331 12.2205 7.99219 11.1736 7.99219 9.88229C7.99219 8.59114 10.6331 7.54427 13.8909 7.54427" fill="white"/>
<path d="M34.7422 6.90254L41.2739 9.54197L34.7478 12.1789L34.7422 6.90234" fill="#621B1C"/>
<path d="M27.5156 9.82535L34.7419 6.90234L34.7475 12.1787L34.0389 12.4621L27.5156 9.82535Z" fill="#9A2928"/>
</g>
<defs>
<clipPath id="clip0_244_112">
<rect width="48" height="42.1818" fill="white"/>
</clipPath>
</defs>
</svg>
