<svg width="43" height="44" viewBox="0 0 43 44" fill="none" xmlns="http://www.w3.org/2000/svg">
<g clip-path="url(#clip0_244_210)">
<path d="M32.9219 0.14502H10.0781C4.51213 0.14502 0 4.65715 0 10.2231V33.0669C0 38.6329 4.51213 43.145 10.0781 43.145H32.9219C38.4879 43.145 43 38.6329 43 33.0669V10.2231C43 4.65715 38.4879 0.14502 32.9219 0.14502Z" fill="#007ACC"/>
<path d="M9.5097 21.7883L9.49609 23.5492H15.0928V39.4523H19.0518V23.5492H24.6486V21.8223C24.6486 20.8668 24.6282 20.0683 24.6009 20.0478C24.5804 20.0205 21.1745 20.0068 17.0451 20.0137L9.53036 20.0342L9.5097 21.7883ZM34.6976 19.9841C35.7896 20.2572 36.6224 20.7418 37.3868 21.5334C37.7827 21.9567 38.3696 22.728 38.4175 22.9123C38.4311 22.9669 36.5609 24.2228 35.4279 24.9257C35.387 24.9531 35.223 24.7756 35.0388 24.5026C34.486 23.6972 33.9058 23.349 33.0184 23.2877C31.7148 23.1989 30.8753 23.8815 30.8822 25.0213C30.8822 25.3557 30.9299 25.5536 31.0665 25.8267C31.353 26.4205 31.8855 26.7754 33.5578 27.4989C36.636 28.8231 37.9532 29.6967 38.7724 30.9389C39.687 32.3244 39.8917 34.5359 39.2706 36.1808C38.5881 37.969 36.8953 39.1839 34.5132 39.5867C33.7761 39.7164 32.0288 39.6959 31.2371 39.5526C29.5102 39.2454 27.8722 38.3923 26.862 37.273C26.4661 36.8361 25.6948 35.6962 25.7427 35.6143C25.763 35.5871 25.9406 35.4779 26.1384 35.3618C26.3296 35.2526 27.0532 34.8362 27.7357 34.4403L28.9711 33.7236L29.2304 34.1059C29.5922 34.6587 30.3838 35.4164 30.8617 35.6689C32.2335 36.3925 34.1175 36.29 35.0457 35.4574C35.4416 35.0956 35.6053 34.7202 35.6053 34.1674C35.6053 33.669 35.5438 33.4507 35.2845 33.0752C34.9501 32.5975 34.2676 32.1948 32.3291 31.3552C30.1109 30.3997 29.1553 29.8059 28.2817 28.8639C27.7766 28.318 27.2988 27.4443 27.1009 26.7139C26.9371 26.1066 26.8961 24.5844 27.0258 23.9702C27.483 21.8271 29.1007 20.3323 31.435 19.8885C32.1927 19.7452 33.9535 19.7998 34.6976 19.9841Z" fill="white"/>
</g>
<defs>
<clipPath id="clip0_244_210">
<rect width="43" height="43" fill="white" transform="translate(0 0.14502)"/>
</clipPath>
</defs>
</svg>
