<svg width="16" height="16" viewBox="0 0 16 16" fill="none" xmlns="http://www.w3.org/2000/svg">
<path fill-rule="evenodd" clip-rule="evenodd" d="M9.14265 1.17473C9.14265 0.863172 9.02227 0.564376 8.80798 0.344072C8.59369 0.123767 8.30305 0 8 0C7.69695 0 7.40631 0.123767 7.19202 0.344072C6.97774 0.564376 6.85735 0.863172 6.85735 1.17473L6.85735 11.9874L1.95309 6.94309C1.73853 6.7225 1.44753 6.59858 1.14409 6.59858C0.840662 6.59858 0.549657 6.7225 0.335098 6.94309C0.120538 7.16367 0 7.46284 0 7.7748C0 8.08675 0.120538 8.38592 0.335098 8.6065L7.191 15.6549C7.29715 15.7643 7.42324 15.8511 7.56206 15.9103C7.70088 15.9695 7.8497 16 8 16C8.1503 16 8.29912 15.9695 8.43794 15.9103C8.57676 15.8511 8.70286 15.7643 8.809 15.6549L15.6649 8.6065C15.8795 8.38592 16 8.08675 16 7.7748C16 7.46284 15.8795 7.16367 15.6649 6.94309C15.4503 6.7225 15.1593 6.59858 14.8559 6.59858C14.5525 6.59858 14.2615 6.7225 14.0469 6.94309L9.14265 11.9874L9.14265 1.17473Z" fill="#0072FA"/>
</svg>
