<svg width="22" height="25" viewBox="0 0 22 25" fill="none" xmlns="http://www.w3.org/2000/svg">
<path d="M10.4727 0.911175L8.95204 0L8.66239 1.74873C8.20138 4.51002 6.31506 7.07579 4.23444 8.87883C0.16131 12.4101 -0.730556 16.2479 0.530607 19.4159C1.73746 22.4475 4.80046 24.5233 7.90932 24.8697L8.6286 24.9493C6.8497 23.8619 5.70801 21.3215 6.10628 19.4231C6.49971 17.5573 7.84173 15.8098 10.4196 14.1974L11.7194 13.3864L12.2045 14.8407C12.4905 15.7 12.9853 16.3903 13.4886 17.0915C13.73 17.4294 13.975 17.7709 14.1994 18.1342C14.9755 19.3954 15.1806 20.7977 14.6798 22.1892C14.2236 23.454 13.4705 24.4485 12.435 25L13.6057 24.8697C16.5238 24.545 18.666 23.5469 20.0575 21.8779C21.437 20.2233 21.9209 18.0932 21.9209 15.8255C21.9209 13.7135 21.0532 11.5363 20.0298 9.72484C18.8301 7.60319 17.2649 5.84118 15.556 4.13348C15.2603 4.72484 15.2832 4.96379 14.6749 5.91359C13.8854 3.81583 12.4027 2.05084 10.4727 0.911175Z" fill="#3843FF"/>
</svg>
