<svg width="86" height="28" viewBox="0 0 86 28" fill="none" xmlns="http://www.w3.org/2000/svg">
<path d="M47.2891 5.97334C47.2891 2.67435 49.9039 0 53.1296 0H79.269C82.4953 0 85.1098 2.67435 85.1098 5.97334V22.0266C85.1098 25.3256 82.4953 28 79.269 28H53.1296C49.9039 28 47.2891 25.3256 47.2891 22.0266V5.97334Z" fill="#3843FF"/>
<path d="M19.8554 10.7422V11.9102C19.8554 15.7644 18.1619 18.9179 12.0884 18.9179H11.2709C9.16851 18.9179 7.15375 18.9179 5.25584 18.6259V23.8818H0V4.31836C3.3287 3.93877 7.15381 3.73438 10.6869 3.73438H11.5045C18.0451 3.73438 19.8554 6.88788 19.8554 10.7422ZM10.4533 14.2461C14.5996 14.2461 14.5996 13.0197 14.5996 11.3261C14.5996 9.60339 14.5996 8.40623 10.6577 8.40623C9.43133 8.40623 7.183 8.49384 5.25584 8.66906V13.9833C7.0662 14.2169 8.64292 14.2461 10.4533 14.2461Z" fill="white"/>
<path d="M44.1416 23.8818H39.0609L35.1482 17.75C33.0751 17.75 31.1188 17.75 29.25 17.4579V23.8818H23.9941V4.31836C27.3228 3.93877 31.148 3.73438 34.6811 3.73438H35.4986C42.0392 3.73438 43.8496 6.62512 43.8496 10.1582V11.3261C43.8496 13.7789 43.032 15.9104 40.5209 16.9908L44.1416 22.7138V23.8818ZM34.7394 8.40623C33.3963 8.40623 31.1771 8.49384 29.25 8.66906V12.8153C31.0603 13.0489 32.8415 13.0781 33.8343 13.0781C38.5061 13.0781 38.5937 12.2605 38.5937 10.421C38.5937 9.36981 38.5645 8.40623 34.7394 8.40623Z" fill="white"/>
<path fill-rule="evenodd" clip-rule="evenodd" d="M49.7773 23.9189H54.5076L56.1719 20.123H66.012L67.7057 23.9189H72.4358V22.7509L63.7347 4.35547H58.4786L54.128 13.5532L49.7773 22.7509V23.9189ZM58.1283 15.7431H64.085L61.1066 9.05654L58.1283 15.7431ZM81.3418 4.35547H76.0859V23.9189H81.3418V4.35547Z" fill="white"/>
</svg>
