<svg width="39" height="44" viewBox="0 0 39 44" fill="none" xmlns="http://www.w3.org/2000/svg">
<path d="M19.2894 41.7696L19.9534 42.3205L20.5957 41.7444L31.3902 32.0616C43.549 21.1549 35.8339 1 19.5001 1C2.82696 1 -4.70156 21.8633 8.12975 32.51L19.2894 41.7696Z" fill="#010004" stroke="#3843FF" stroke-width="2"/>
<circle cx="19.7272" cy="19.1608" r="9.36" fill="#010004"/>
<path d="M21.5071 16.8325C21.5071 15.8204 22.3093 15 23.2988 15H31.3178C32.3076 15 33.1097 15.8204 33.1097 16.8325V21.7573C33.1097 22.7693 32.3076 23.5898 31.3178 23.5898H23.2988C22.3093 23.5898 21.5071 22.7693 21.5071 21.7573V16.8325Z" fill="#3843FF"/>
<path d="M13.0912 18.2953V18.6537C13.0912 19.8361 12.5717 20.8035 10.7085 20.8035H10.4577C9.8127 20.8035 9.19461 20.8035 8.61238 20.7139V22.3263H7V16.3247C8.02117 16.2082 9.19463 16.1455 10.2785 16.1455H10.5293C12.5358 16.1455 13.0912 17.1129 13.0912 18.2953ZM10.2068 19.3703C11.4788 19.3703 11.4788 18.994 11.4788 18.4745C11.4788 17.946 11.4788 17.5787 10.2695 17.5787C9.89333 17.5787 9.20359 17.6056 8.61238 17.6594V19.2896C9.16776 19.3613 9.65146 19.3703 10.2068 19.3703Z" fill="white"/>
<path d="M20.5416 22.3263H18.983L17.7827 20.4452C17.1467 20.4452 16.5465 20.4452 15.9732 20.3556V22.3263H14.3608V16.3247C15.382 16.2082 16.5555 16.1455 17.6394 16.1455H17.8902C19.8967 16.1455 20.452 17.0323 20.452 18.1162V18.4745C20.452 19.2269 20.2012 19.8808 19.4309 20.2123L20.5416 21.968V22.3263ZM17.6573 17.5787C17.2452 17.5787 16.5644 17.6056 15.9732 17.6594V18.9313C16.5286 19.003 17.075 19.012 17.3796 19.012C18.8128 19.012 18.8397 18.7611 18.8397 18.1968C18.8397 17.8743 18.8307 17.5787 17.6573 17.5787Z" fill="white"/>
<path fill-rule="evenodd" clip-rule="evenodd" d="M22.2705 22.3376H23.7216L24.2322 21.1731H27.2509L27.7705 22.3376H29.2216V21.9793L26.5523 16.3359H24.9399L23.6052 19.1576L22.2705 21.9793V22.3376ZM24.8324 19.8294H26.6598L25.7461 17.7781L24.8324 19.8294ZM31.9538 16.3359H30.3414V22.3376H31.9538V16.3359Z" fill="white"/>
</svg>
