<svg width="25" height="25" viewBox="0 0 25 25" fill="none" xmlns="http://www.w3.org/2000/svg">
<g filter="url(#filter0_f_921_928)">
<circle cx="14.5005" cy="14.5" r="5.5" fill="#3843FF"/>
</g>
<g filter="url(#filter1_b_921_928)">
<path fill-rule="evenodd" clip-rule="evenodd" d="M1.38706 3.52362L1.78981 0.20203L5.14369 0.26014C9.68962 0.338898 13.8158 2.89812 15.9043 6.90547C18.1895 7.05458 20.417 8.07747 22.0402 9.9364C23.1778 11.2392 23.8668 12.779 24.1202 14.368C21.2811 13.5059 18.0743 14.078 15.6721 16.1649C13.2698 18.2518 12.2615 21.3417 12.7276 24.2649C11.1845 23.7964 9.75008 22.9043 8.61249 21.6014C6.96675 19.7166 6.25986 17.3359 6.45257 15.0278C2.79597 12.4091 0.843799 8.00303 1.38706 3.52362Z" fill="#3843FF"/>
</g>
<defs>
<filter id="filter0_f_921_928" x="4.00049" y="4" width="21" height="21" filterUnits="userSpaceOnUse" color-interpolation-filters="sRGB">
<feFlood flood-opacity="0" result="BackgroundImageFix"/>
<feBlend mode="normal" in="SourceGraphic" in2="BackgroundImageFix" result="shape"/>
<feGaussianBlur stdDeviation="2.5" result="effect1_foregroundBlur_921_928"/>
</filter>
<filter id="filter1_b_921_928" x="-18.7026" y="-19.798" width="62.8228" height="64.0629" filterUnits="userSpaceOnUse" color-interpolation-filters="sRGB">
<feFlood flood-opacity="0" result="BackgroundImageFix"/>
<feGaussianBlur in="BackgroundImageFix" stdDeviation="10"/>
<feComposite in2="SourceAlpha" operator="in" result="effect1_backgroundBlur_921_928"/>
<feBlend mode="normal" in="SourceGraphic" in2="effect1_backgroundBlur_921_928" result="shape"/>
</filter>
</defs>
</svg>
