<svg width="179" height="17" viewBox="0 0 179 17" fill="none" xmlns="http://www.w3.org/2000/svg">
<path d="M0.135359 15.9517C0.22472 16.1582 0.355688 16.3458 0.520763 16.5037C0.787663 16.8583 1.46652 16.9823 1.77258 17L6.05477 17L177.227 17C177.698 17 178.148 16.8209 178.481 16.5021C178.813 16.1834 179 15.751 179 15.3002C179 14.8494 178.813 14.417 178.481 14.0983C178.148 13.7795 177.698 13.6004 177.227 13.6004L6.05477 13.6004L17.2114 2.90538C17.5442 2.58621 17.7312 2.15331 17.7312 1.70193C17.7312 1.25055 17.5442 0.817657 17.2114 0.498483C16.8786 0.179309 16.4271 1.1893e-06 15.9564 1.20987e-06C15.4857 1.23045e-06 15.0343 0.179309 14.7014 0.498483L0.520763 14.0968C0.355688 14.2547 0.22472 14.4422 0.135359 14.6487C0.0459979 14.8552 -8.40733e-08 15.0766 -7.43003e-08 15.3002C-6.45272e-08 15.5238 0.045998 15.7452 0.135359 15.9517Z" fill="#0E0C15"/>
</svg>
