<svg width="42" height="42" viewBox="0 0 42 42" fill="none" xmlns="http://www.w3.org/2000/svg">
<path d="M22.6692 1.39214C22.3148 1.70714 19.5586 7.17698 19.5586 7.17698L17.5078 15.449L25.4878 14.7173C25.4878 14.7173 32.1258 2.37323 32.2603 2.08776C32.4998 1.56933 32.6278 1.35604 31.7123 1.35604C30.7969 1.35276 23.0006 1.09683 22.6692 1.39214Z" fill="#176CC7"/>
<path d="M26.8019 14.2045C26.4048 13.9913 14.7105 13.8075 14.4348 14.2045C14.1855 14.5655 14.3266 16.4588 14.4217 16.6852C14.5923 17.0789 18.3691 18.795 18.3691 18.795L18.2969 19.5759C18.2969 19.5759 18.6053 19.6547 20.8005 19.6547C22.9956 19.6547 23.4287 19.5431 23.4287 19.5431L23.4353 18.8377C23.4353 18.8377 26.8347 17.1839 27.0053 16.9542C27.1497 16.7639 27.1989 14.4178 26.8019 14.2045ZM23.3205 17.197C23.3205 17.197 23.4287 16.7147 23.2023 16.6031C22.9759 16.4883 19.0909 16.5408 18.7825 16.5572C18.4741 16.5736 18.4741 17.1249 18.4741 17.1249L15.9803 15.6384V15.3956L25.2662 15.4613L25.2827 15.7369L23.3205 17.197Z" fill="#CECDD2"/>
<path d="M19.4446 16.791C19.1362 16.791 18.959 17.1126 18.959 17.6671C18.959 18.1855 19.1362 18.622 19.5266 18.5891C19.8482 18.5629 19.9598 18.0707 19.9302 17.6343C19.9007 17.1159 19.8351 16.791 19.4446 16.791Z" fill="#FDFFFF"/>
<path d="M9.50586 30.1516C9.50586 38.0134 16.741 41.3505 21.4693 41.2094C26.9785 41.0453 32.7929 36.865 32.4155 29.3641C32.0579 22.2569 26.0302 19.097 20.8524 19.1331C14.8346 19.1791 9.50586 23.2839 9.50586 30.1516Z" fill="#CECDD2"/>
<path d="M21.174 39.7455C21.092 39.7455 21.0067 39.7455 20.9247 39.7422C18.4637 39.6602 16.0323 38.6233 14.2539 36.9006C12.3507 35.0566 11.3073 32.5628 11.3204 29.882C11.35 23.3359 17.0725 20.3008 20.9542 20.3008H20.987C26.2468 20.3238 30.565 24.4122 30.6864 29.9542C30.7389 32.4217 29.7282 35.0106 27.7464 36.9597C25.8957 38.7742 23.4414 39.7455 21.174 39.7455ZM20.9476 21.3902C17.4662 21.3902 12.3179 24.2383 12.3048 29.882C12.295 34.1017 15.5631 38.4395 21.0067 38.6233C23.0804 38.6889 25.2165 37.8948 26.9425 36.1984C28.734 34.4364 29.7414 32.1658 29.7053 29.9673C29.62 25.1997 25.7218 21.4066 20.9903 21.3836C20.9837 21.3836 20.9575 21.3902 20.9476 21.3902Z" fill="#9B9B9D"/>
<path d="M19.0602 20.17C18.8338 19.8582 16.5139 19.9468 14.0169 22.096C11.5363 24.2321 11.1655 26.5946 11.6117 26.7193C12.1203 26.8604 12.7405 24.5767 14.8831 22.6571C16.8519 20.9017 19.5097 20.7901 19.0602 20.17ZM28.835 28.7832C28.0442 28.8948 28.8646 31.2639 27.0303 33.9151C25.4389 36.2153 23.6342 37.0487 23.8442 37.554C24.1264 38.23 27.0172 36.5467 28.356 33.8035C29.5667 31.3229 29.4224 28.7012 28.835 28.7832Z" fill="#FEFFFA"/>
<path d="M8.37117 1.22088C8.16445 1.4112 16.069 15.4878 16.069 15.4878C16.069 15.4878 17.3946 15.6584 20.3543 15.6846C23.314 15.7109 24.7807 15.514 24.7807 15.514C24.7807 15.514 18.6349 1.36198 18.2674 1.22088C18.087 1.1487 15.6523 1.12245 13.2734 1.0962C10.8912 1.06666 8.56805 1.03713 8.37117 1.22088Z" fill="#2E9DF4"/>
<path d="M18.6541 28.3327C18.9954 28.336 19.3005 27.8733 19.5827 27.5911C20.1832 26.9874 20.8132 26.5083 21.5318 27.158C23.2971 28.7625 19.7533 30.39 18.408 32.6147C17.404 34.275 17.2005 35.5514 17.4794 35.8927C17.7583 36.2339 24.5472 36.2175 24.6391 36.0469C24.731 35.8763 24.8261 33.6024 24.6686 33.4941C24.5111 33.3858 21.1741 33.4481 21.1741 33.4481C21.1741 33.4481 21.453 32.7985 22.5982 31.8075C23.8549 30.7214 24.8622 29.2285 24.5932 27.4631C24.0354 23.8144 20.3604 23.6799 18.769 24.9497C17.2169 26.1867 17.5516 28.3195 18.6541 28.3327Z" fill="#9B9B9D"/>
</svg>
