<svg width="42" height="42" viewBox="0 0 42 42" fill="none" xmlns="http://www.w3.org/2000/svg">
<path d="M22.6692 1.39214C22.3148 1.70714 19.5586 7.17698 19.5586 7.17698L17.5078 15.449L25.4878 14.7173C25.4878 14.7173 32.1258 2.37323 32.2603 2.08776C32.4998 1.56933 32.6278 1.35604 31.7123 1.35604C30.7969 1.35276 23.0006 1.09683 22.6692 1.39214Z" fill="#176CC7"/>
<path d="M26.8019 14.2045C26.4048 13.9913 14.7105 13.8075 14.4348 14.2045C14.1855 14.5655 14.3266 16.4588 14.4217 16.6852C14.5923 17.0789 18.3691 18.795 18.3691 18.795L18.2969 19.5759C18.2969 19.5759 18.6053 19.6547 20.8005 19.6547C22.9956 19.6547 23.4287 19.5431 23.4287 19.5431L23.4353 18.8377C23.4353 18.8377 26.8347 17.1839 27.0053 16.9542C27.1497 16.7639 27.1989 14.4178 26.8019 14.2045ZM23.3205 17.197C23.3205 17.197 23.4287 16.7147 23.2023 16.6031C22.9759 16.4883 19.0909 16.5408 18.7825 16.5572C18.4741 16.5736 18.4741 17.1249 18.4741 17.1249L16.0262 15.8649L15.9803 15.3956L25.2662 15.4613L25.2334 15.9042L23.3205 17.197Z" fill="#F79429"/>
<path d="M19.4446 17.0273C19.1362 17.0273 18.959 17.3489 18.959 17.9034C18.959 18.4219 19.1362 18.8583 19.5266 18.8255C19.8482 18.7992 19.9598 18.307 19.9302 17.8706C19.9007 17.3489 19.8351 17.0273 19.4446 17.0273Z" fill="#FDFFFF"/>
<path d="M9.61719 30.2172C9.61719 38.079 16.7408 41.3505 21.4691 41.2094C26.9783 41.0453 32.9042 36.865 32.4153 29.364C31.9559 22.3258 26.03 19.097 20.8522 19.1331C14.8344 19.179 9.61719 23.3495 9.61719 30.2172Z" fill="#F79429"/>
<path d="M21.2189 40.0209C21.1369 40.0209 21.0516 40.0209 20.9696 40.0176C18.5086 39.9355 16.0772 38.8987 14.2988 37.176C12.3957 35.332 11.3522 32.8382 11.3654 30.1574C11.3949 23.6113 17.1174 20.5762 20.9991 20.5762H21.0319C26.2918 20.5991 30.6099 24.6876 30.7313 30.2296C30.7838 32.6971 29.9963 35.1515 28.0144 37.1005C26.1638 38.9118 23.4863 40.0209 21.2189 40.0209ZM20.9925 21.6655C17.5111 21.6655 12.3629 24.5137 12.3497 30.1574C12.3399 34.3771 15.608 38.7149 21.0516 38.8987C23.1254 38.9643 25.4649 38.1965 27.1875 36.5034C28.9791 34.7413 29.783 32.4445 29.7469 30.246C29.6682 25.4784 25.77 21.6852 21.0385 21.6655C21.0286 21.659 21.0024 21.6655 20.9925 21.6655Z" fill="#D25116"/>
<path d="M19.0602 20.17C18.8338 19.8582 16.5139 19.9468 14.0169 22.096C11.5363 24.2321 11.1655 26.5946 11.6117 26.7193C12.1203 26.8604 12.7405 24.5767 14.8831 22.6571C16.8519 20.9017 19.5097 20.7901 19.0602 20.17ZM29.0319 28.757C28.2411 28.8685 29.0614 31.2376 27.2272 33.8889C25.6358 36.189 23.8311 37.0225 24.0411 37.5278C24.3233 38.2037 27.2141 36.5204 28.5528 33.7773C29.7636 31.2934 29.6192 28.6717 29.0319 28.757Z" fill="#FEFFFA"/>
<path d="M8.37117 1.22088C8.16445 1.4112 16.069 15.4878 16.069 15.4878C16.069 15.4878 17.3946 15.6584 20.3543 15.6846C23.314 15.7109 24.7807 15.514 24.7807 15.514C24.7807 15.514 18.6349 1.36198 18.2674 1.22088C18.087 1.1487 15.6523 1.12245 13.2734 1.0962C10.8912 1.06666 8.56805 1.03713 8.37117 1.22088Z" fill="#2E9DF4"/>
<path d="M24.5924 27.4674C24.2118 24.1697 20.3727 23.8941 18.7813 25.1606C17.2326 26.3944 17.3802 28.1138 18.4663 28.3139C19.3227 28.4714 19.5459 27.7922 19.7952 27.4805C20.3596 26.7816 21.2587 26.7159 21.846 27.277C22.5121 27.9169 22.102 29.446 21.1012 29.5083C20.3563 29.5542 19.979 29.5149 19.8838 29.6428C19.7493 29.8233 19.769 31.2441 19.9068 31.4016C20.0643 31.582 20.6943 31.4705 21.2357 31.4902C21.9806 31.5197 22.7713 32.6222 22.2496 33.4491C21.7082 34.3055 20.2677 33.9216 19.7493 33.4031C19.0635 32.7174 18.3777 33.1111 18.1481 33.3802C17.7871 33.8067 17.4032 34.778 18.7354 35.723C20.0643 36.668 24.097 36.8484 24.9107 33.9216C25.6195 31.3655 23.9657 30.3155 23.9657 30.3155C23.9657 30.3155 24.809 29.3475 24.5924 27.4674Z" fill="#D25116"/>
</svg>
