<svg width="42" height="42" viewBox="0 0 42 42" fill="none" xmlns="http://www.w3.org/2000/svg">
<path d="M22.6692 1.39214C22.3148 1.70714 19.5586 7.17698 19.5586 7.17698L17.5078 15.449L25.4878 14.7173C25.4878 14.7173 32.1258 2.37323 32.2603 2.08776C32.4998 1.56933 32.6278 1.35604 31.7123 1.35604C30.7969 1.35276 23.0006 1.09683 22.6692 1.39214Z" fill="#176CC7"/>
<path d="M26.8009 14.2045C26.4038 13.9913 14.7095 13.8075 14.4338 14.2045C14.1845 14.5655 14.2205 16.2159 14.3419 16.4292C14.4634 16.6425 18.3943 18.4702 18.3943 18.4702L18.391 19.1363C18.391 19.1363 18.6076 19.658 20.7994 19.658C22.9913 19.658 23.2177 19.215 23.2177 19.215L23.2374 18.5424C23.2374 18.5424 26.6794 16.823 26.8599 16.672C27.0437 16.5178 27.1979 14.4178 26.8009 14.2045ZM23.198 16.9378C23.198 16.9378 23.1882 16.4784 22.9618 16.3636C22.7354 16.2488 19.0899 16.2684 18.7815 16.2849C18.473 16.3013 18.473 16.8525 18.473 16.8525L15.9793 15.6384V15.3956L25.2652 15.4613L25.2816 15.7369L23.198 16.9378Z" fill="#FCC417"/>
<path d="M19.4446 16.791C19.1362 16.791 18.959 17.1126 18.959 17.6671C18.959 18.1855 19.1362 18.622 19.5266 18.5891C19.8482 18.5629 19.9598 18.0707 19.9302 17.6343C19.9007 17.1159 19.8351 16.791 19.4446 16.791Z" fill="#FDFFFF"/>
<path d="M9.50977 29.7672C9.50977 37.6291 16.617 41.1302 21.342 40.9629C26.5526 40.7758 32.7935 36.7136 32.4162 29.2127C32.0585 22.1055 26.0801 18.7357 20.9023 18.7718C14.8845 18.8144 9.50977 22.8996 9.50977 29.7672Z" fill="#FCC417"/>
<path d="M21.174 39.5951C21.092 39.5951 21.0067 39.5951 20.9247 39.5918C18.4637 39.5098 16.0323 38.4729 14.2539 36.7502C12.3507 34.9062 11.3073 32.4124 11.3204 29.7316C11.35 23.1855 17.0725 20.1504 20.9542 20.1504H20.987C26.2468 20.1734 30.565 24.2618 30.6864 29.8038C30.7389 32.2713 29.7282 34.8602 27.7464 36.8093C25.8957 38.6238 23.4414 39.5951 21.174 39.5951ZM20.9476 21.2398C17.4662 21.2398 12.3179 24.0879 12.3048 29.7316C12.295 33.9513 15.5631 38.2891 21.0067 38.4729C23.0804 38.5385 25.2165 37.7445 26.9425 36.048C28.734 34.286 29.7414 32.0154 29.7053 29.817C29.6265 25.0493 25.7284 21.2562 20.9968 21.2365C20.9837 21.2365 20.9575 21.2398 20.9476 21.2398Z" fill="#FA912C"/>
<path d="M18.9715 19.8879C18.7451 19.5762 16.1792 19.6352 13.7543 22.0043C11.4148 24.2913 11.1622 26.4471 11.6117 26.5718C12.1203 26.7129 12.7404 24.4291 14.8831 22.5096C16.8518 20.7509 19.4243 20.5081 18.9715 19.8879ZM28.8973 28.3765C28.1065 28.4881 28.9268 30.8571 27.0926 33.5084C25.5012 35.8085 23.6965 36.642 23.9065 37.1473C24.1887 37.8232 27.0795 36.1399 28.4183 33.3968C29.6323 30.9129 29.4879 28.2912 28.8973 28.3765Z" fill="#FEFFFA"/>
<path d="M18.3264 25.2721C18.1558 25.5248 18.31 27.7396 18.4117 27.838C18.6086 28.0349 20.1048 27.3295 20.1048 27.3295L20.049 33.2521C20.049 33.2521 18.9498 33.239 18.835 33.2816C18.6086 33.367 18.6381 35.6507 18.8054 35.7623C18.9728 35.8738 23.4583 35.9329 23.6289 35.7065C23.7995 35.4801 23.7568 33.4818 23.6781 33.3899C23.537 33.2193 22.464 33.2882 22.464 33.2882C22.464 33.2882 22.5559 24.5666 22.5264 24.2877C22.4968 24.0088 22.1884 23.8349 21.8209 23.9202C21.4534 24.0056 18.4347 25.108 18.3264 25.2721Z" fill="#FA912C"/>
<path d="M8.37117 1.22088C8.16445 1.4112 16.069 15.4878 16.069 15.4878C16.069 15.4878 17.3946 15.6584 20.3543 15.6846C23.314 15.7109 24.7807 15.514 24.7807 15.514C24.7807 15.514 18.6349 1.36198 18.2674 1.22088C18.087 1.1487 15.6523 1.12245 13.2734 1.0962C10.8912 1.06666 8.56805 1.03713 8.37117 1.22088Z" fill="#2E9DF4"/>
</svg>
