<svg width="24" height="24" viewBox="0 0 24 24" fill="none" xmlns="http://www.w3.org/2000/svg">
<path opacity="0.5" d="M22 12C22 17.523 17.523 22 12 22C6.477 22 2 17.523 2 12C2 6.477 6.477 2 12 2C17.523 2 22 6.477 22 12Z" fill="#A9A9A9"/>
<path d="M8.96983 8.96997C9.11045 8.82952 9.30108 8.75063 9.49983 8.75063C9.69858 8.75063 9.8892 8.82952 10.0298 8.96997L11.9998 10.94L13.9698 8.96997C14.0385 8.89628 14.1213 8.83718 14.2133 8.79619C14.3053 8.7552 14.4046 8.73316 14.5053 8.73138C14.606 8.7296 14.706 8.74813 14.7994 8.78585C14.8928 8.82357 14.9776 8.87971 15.0489 8.95093C15.1201 9.02215 15.1762 9.10698 15.214 9.20037C15.2517 9.29376 15.2702 9.39379 15.2684 9.49449C15.2666 9.5952 15.2446 9.69451 15.2036 9.78651C15.1626 9.87851 15.1035 9.96131 15.0298 10.03L13.0598 12L15.0298 13.97C15.1623 14.1121 15.2344 14.3002 15.231 14.4945C15.2276 14.6888 15.1489 14.8742 15.0114 15.0116C14.874 15.149 14.6887 15.2277 14.4944 15.2311C14.3 15.2346 14.112 15.1625 13.9698 15.03L11.9998 13.06L10.0298 15.03C9.88765 15.1625 9.69961 15.2346 9.50531 15.2311C9.31101 15.2277 9.12562 15.149 8.98821 15.0116C8.85079 14.8742 8.77208 14.6888 8.76865 14.4945C8.76522 14.3002 8.83735 14.1121 8.96983 13.97L10.9398 12L8.96983 10.03C8.82938 9.88935 8.75049 9.69872 8.75049 9.49997C8.75049 9.30122 8.82938 9.1106 8.96983 8.96997Z" fill="#606672"/>
</svg>
