<svg width="20" height="16" viewBox="0 0 20 16" fill="none" xmlns="http://www.w3.org/2000/svg">
<path d="M1.4235 3.60894C1.07091 3.42184 0.848093 3.037 0.969931 2.65689C1.11991 2.18899 1.38896 1.76381 1.75553 1.42567C2.28464 0.937583 2.97811 0.666594 3.69796 0.666626H16.3021C17.0284 0.666595 17.7276 0.942434 18.2582 1.43834C18.629 1.78484 18.8981 2.22072 19.0433 2.6991C19.1582 3.07764 18.9346 3.45664 18.5845 3.64094L10.4687 7.91412C10.176 8.06819 9.82617 8.06763 9.53405 7.91262L1.4235 3.60894ZM2.30208 6.37246C1.63605 6.01906 0.833374 6.50183 0.833374 7.25581V12.4687C0.833374 13.2284 1.13518 13.9571 1.67239 14.4943C2.2096 15.0315 2.93822 15.3333 3.69796 15.3333H16.3021C17.0619 15.3333 17.7905 15.0315 18.3277 14.4943C18.8649 13.9571 19.1667 13.2284 19.1667 12.4687V7.28604C19.1667 6.53346 18.3667 6.05058 17.7008 6.4012L10.2668 10.3154C10.1842 10.3588 10.0923 10.3814 9.99901 10.3813C9.90571 10.3811 9.81387 10.3582 9.73146 10.3145L2.30208 6.37246Z" fill="white"/>
</svg>
