<svg width="24" height="24" viewBox="0 0 24 24" fill="none" xmlns="http://www.w3.org/2000/svg">
<path d="M8.1 18.7L7.8 18L8 17.6C6.1 17.1 5 16.3 5 16V13.8C6.3 14.4 7.8 14.8 9.6 15C10.3 14.2 11.2 13.5 12.1 13H11C8.6 13 6.3 12.4 5 11.5V8.6C6.5 9.4 8.6 10 11 10C13.4 10 15.5 9.5 17 8.6V11.4C16.7 11.6 16.4 11.8 16 12C17 12 18 12.2 19 12.6V6C19 3.8 15.4 2 11 2C6.6 2 3 3.8 3 6V16C3 17.8 5.4 19.3 8.7 19.8C8.5 19.5 8.3 19.1 8.1 18.7ZM11 4C14.9 4 17 5.5 17 6C17 6.5 14.9 8 11 8C7.1 8 5 6.5 5 6C5 5.5 7.1 4 11 4ZM16 17C16.6 17 17 17.4 17 18C17 18.6 16.6 19 16 19C15.4 19 15 18.6 15 18C15 17.4 15.4 17 16 17ZM16 14C13.3 14 10.9 15.7 10 18C10.9 20.3 13.3 22 16 22C18.7 22 21.1 20.3 22 18C21.1 15.7 18.7 14 16 14ZM16 20.5C14.6 20.5 13.5 19.4 13.5 18C13.5 16.6 14.6 15.5 16 15.5C17.4 15.5 18.5 16.6 18.5 18C18.5 19.4 17.4 20.5 16 20.5Z" fill="black"/>
</svg>
