<svg width="24" height="16" viewBox="0 0 24 16" fill="none" xmlns="http://www.w3.org/2000/svg">
<g id="code">
<path d="M6.4411 13.5163C6.39784 13.5163 6.34916 13.5055 6.29508 13.4839C6.241 13.4514 6.18692 13.419 6.13284 13.3865L0.470509 9.52511C0.319081 9.41695 0.200101 9.31419 0.113571 9.21685C0.037857 9.10868 0 8.97348 0 8.81123V8.37317C0 8.21093 0.037857 8.08113 0.113571 7.98379C0.200101 7.87563 0.319081 7.76746 0.470509 7.6593L6.13284 3.79788C6.18692 3.77625 6.241 3.75462 6.29508 3.73299C6.34916 3.70054 6.39784 3.68431 6.4411 3.68431C6.52763 3.68431 6.60335 3.71676 6.66824 3.78166C6.73314 3.83574 6.76559 3.91145 6.76559 4.0088V5.50145C6.76559 5.65288 6.72233 5.77727 6.6358 5.87461C6.54926 5.96114 6.45192 6.03686 6.34376 6.10175L2.59591 8.60032L6.34376 11.0989C6.45192 11.1638 6.54926 11.2395 6.6358 11.326C6.72233 11.4126 6.76559 11.5369 6.76559 11.6992V13.1756C6.76559 13.2838 6.73314 13.3703 6.66824 13.4352C6.60335 13.4893 6.52763 13.5163 6.4411 13.5163Z" fill="black"/>
<path d="M8.4978 15.0576C8.40046 15.0576 8.31933 15.0198 8.25444 14.9441C8.18954 14.8792 8.15709 14.8035 8.15709 14.7169C8.15709 14.6628 8.16791 14.6088 8.18954 14.5547L13.7058 1.31554C13.7383 1.22901 13.7924 1.14789 13.8681 1.07218C13.9546 0.985648 14.079 0.942383 14.2413 0.942383H15.4905C15.5879 0.942383 15.669 0.98024 15.7339 1.05595C15.7988 1.12085 15.8312 1.19656 15.8312 1.2831C15.8312 1.32636 15.8204 1.38044 15.7988 1.44534L10.2663 14.6845C10.2338 14.7602 10.1743 14.8413 10.0878 14.9278C10.0121 15.0144 9.8877 15.0576 9.71464 15.0576H8.4978Z" fill="black"/>
<path d="M17.5589 13.5163C17.4724 13.5163 17.3967 13.4893 17.3318 13.4352C17.2669 13.3703 17.2344 13.2838 17.2344 13.1756V11.6992C17.2344 11.5369 17.2777 11.4126 17.3642 11.326C17.4507 11.2395 17.5481 11.1638 17.6562 11.0989L21.4041 8.60032L17.6562 6.10175C17.5481 6.03686 17.4507 5.96114 17.3642 5.87461C17.2777 5.77727 17.2344 5.65288 17.2344 5.50145V4.0088C17.2344 3.91145 17.2669 3.83574 17.3318 3.78166C17.3967 3.71676 17.4724 3.68431 17.5589 3.68431C17.613 3.68431 17.6671 3.70054 17.7211 3.73299C17.7752 3.75462 17.8239 3.77625 17.8672 3.79788L23.5295 7.6593C23.6917 7.76746 23.8107 7.87563 23.8864 7.98379C23.9621 8.08113 24 8.21093 24 8.37317V8.81123C24 8.97348 23.9621 9.10868 23.8864 9.21685C23.8107 9.31419 23.6917 9.41695 23.5295 9.52511L17.8672 13.3865C17.8239 13.419 17.7752 13.4514 17.7211 13.4839C17.6671 13.5055 17.613 13.5163 17.5589 13.5163Z" fill="black"/>
</g>
</svg>
