<svg width="24" height="12" viewBox="0 0 24 12" fill="none" xmlns="http://www.w3.org/2000/svg">
<g id="prod">
<path d="M0.274913 11.1546C0.198548 11.1546 0.133638 11.1279 0.0801828 11.0744C0.0267276 11.021 0 10.9561 0 10.8797V3.2967C0 3.22034 0.0267276 3.15543 0.0801828 3.10197C0.133638 3.04852 0.198548 3.02179 0.274913 3.02179H1.17983C1.26383 3.02179 1.32874 3.04852 1.37456 3.10197C1.42802 3.15543 1.45475 3.22034 1.45475 3.2967V3.75489C1.63802 3.51052 1.87857 3.30816 2.17639 3.14779C2.47421 2.98743 2.84458 2.90724 3.2875 2.90724C3.69223 2.90724 4.04351 2.97215 4.34133 3.10197C4.63915 3.23179 4.88734 3.41889 5.08588 3.66325C5.28443 3.89998 5.43716 4.18253 5.54407 4.5109C5.65098 4.83927 5.71207 5.202 5.72735 5.5991C5.73498 5.72892 5.7388 5.86255 5.7388 6.00001C5.7388 6.13747 5.73498 6.27492 5.72735 6.41238C5.71971 6.7942 5.66244 7.1493 5.55553 7.47767C5.44862 7.7984 5.29207 8.08095 5.08588 8.32531C4.88734 8.56204 4.63915 8.74914 4.34133 8.88659C4.04351 9.02405 3.69223 9.09278 3.2875 9.09278C2.87513 9.09278 2.52385 9.02023 2.23367 8.87514C1.94348 8.72241 1.70675 8.52386 1.52347 8.27949V10.8797C1.52347 10.9561 1.49675 11.021 1.44329 11.0744C1.39747 11.1279 1.33256 11.1546 1.24856 11.1546H0.274913ZM2.86367 7.86713C3.19204 7.86713 3.44786 7.7984 3.63114 7.66094C3.81441 7.51585 3.94423 7.32875 4.0206 7.09966C4.1046 6.87057 4.15424 6.61856 4.16951 6.34365C4.18478 6.11456 4.18478 5.88546 4.16951 5.65637C4.15424 5.38146 4.1046 5.12945 4.0206 4.90036C3.94423 4.67127 3.81441 4.48799 3.63114 4.35053C3.44786 4.20544 3.19204 4.1329 2.86367 4.1329C2.55058 4.1329 2.29476 4.20544 2.09621 4.35053C1.9053 4.49563 1.76402 4.68272 1.67239 4.91181C1.58838 5.13327 1.53875 5.36237 1.52347 5.5991C1.51584 5.73655 1.51202 5.88164 1.51202 6.03437C1.51202 6.1871 1.51584 6.33601 1.52347 6.48111C1.53111 6.7102 1.58457 6.93166 1.68384 7.14548C1.78311 7.35166 1.92821 7.52348 2.11912 7.66094C2.31003 7.7984 2.55821 7.86713 2.86367 7.86713Z" fill="black"/>
<path d="M7.29959 8.97823C7.22323 8.97823 7.15832 8.9515 7.10486 8.89805C7.05141 8.84459 7.02468 8.77968 7.02468 8.70332V3.30816C7.02468 3.22416 7.05141 3.15543 7.10486 3.10197C7.15832 3.04852 7.22323 3.02179 7.29959 3.02179H8.22742C8.30379 3.02179 8.3687 3.04852 8.42215 3.10197C8.48324 3.15543 8.51379 3.22416 8.51379 3.30816V3.7778C8.68943 3.53343 8.9147 3.34634 9.18962 3.21652C9.47217 3.0867 9.79672 3.02179 10.1633 3.02179H10.6329C10.7169 3.02179 10.7818 3.04852 10.8276 3.10197C10.8811 3.15543 10.9078 3.22034 10.9078 3.2967V4.12144C10.9078 4.1978 10.8811 4.26271 10.8276 4.31617C10.7818 4.36963 10.7169 4.39635 10.6329 4.39635H9.73944C9.37289 4.39635 9.08652 4.49945 8.88034 4.70563C8.68179 4.91181 8.58252 5.19436 8.58252 5.55328V8.70332C8.58252 8.77968 8.55579 8.84459 8.50234 8.89805C8.44888 8.9515 8.38015 8.97823 8.29615 8.97823H7.29959Z" fill="black"/>
<path d="M14.3575 9.09278C13.7466 9.09278 13.2311 8.98587 12.8111 8.77205C12.3987 8.55823 12.0818 8.25658 11.8603 7.86713C11.6465 7.47767 11.5243 7.0233 11.4938 6.50402C11.4862 6.36656 11.4823 6.19856 11.4823 6.00001C11.4823 5.80146 11.4862 5.63346 11.4938 5.496C11.5243 4.96909 11.6503 4.51472 11.8718 4.1329C12.1009 3.74344 12.4216 3.44179 12.834 3.22797C13.254 3.01415 13.7618 2.90724 14.3575 2.90724C14.9531 2.90724 15.4571 3.01415 15.8695 3.22797C16.2895 3.44179 16.6102 3.74344 16.8317 4.1329C17.0608 4.51472 17.1906 4.96909 17.2211 5.496C17.2288 5.63346 17.2326 5.80146 17.2326 6.00001C17.2326 6.19856 17.2288 6.36656 17.2211 6.50402C17.1906 7.0233 17.0646 7.47767 16.8431 7.86713C16.6293 8.25658 16.3124 8.55823 15.8924 8.77205C15.48 8.98587 14.9684 9.09278 14.3575 9.09278ZM14.3575 7.95876C14.7622 7.95876 15.0753 7.83276 15.2968 7.58076C15.5182 7.32112 15.6404 6.94311 15.6633 6.44674C15.6709 6.3322 15.6748 6.18328 15.6748 6.00001C15.6748 5.81673 15.6709 5.66782 15.6633 5.55328C15.6404 5.06454 15.5182 4.69036 15.2968 4.43072C15.0753 4.17108 14.7622 4.04126 14.3575 4.04126C13.9527 4.04126 13.6396 4.17108 13.4182 4.43072C13.1967 4.69036 13.0745 5.06454 13.0516 5.55328C13.044 5.66782 13.0402 5.81673 13.0402 6.00001C13.0402 6.18328 13.044 6.3322 13.0516 6.44674C13.0745 6.94311 13.1967 7.32112 13.4182 7.58076C13.6396 7.83276 13.9527 7.95876 14.3575 7.95876Z" fill="black"/>
<path d="M20.7125 9.09278C20.3154 9.09278 19.9641 9.02787 19.6587 8.89805C19.3608 8.76059 19.1127 8.56968 18.9141 8.32531C18.7156 8.08095 18.5628 7.79458 18.4559 7.46621C18.349 7.13021 18.2879 6.76366 18.2727 6.36656C18.265 6.2291 18.2612 6.10692 18.2612 6.00001C18.2612 5.88546 18.265 5.75946 18.2727 5.622C18.2879 5.24018 18.3452 4.88509 18.4445 4.55672C18.5514 4.22835 18.7041 3.94198 18.9027 3.69762C19.1088 3.44561 19.3608 3.25088 19.6587 3.11343C19.9641 2.97597 20.3154 2.90724 20.7125 2.90724C21.1249 2.90724 21.4723 2.97979 21.7549 3.12488C22.0451 3.26234 22.2856 3.4418 22.4765 3.66325V1.12031C22.4765 1.04395 22.4994 0.979036 22.5453 0.925581C22.5987 0.872126 22.6674 0.845398 22.7514 0.845398H23.7251C23.8014 0.845398 23.8664 0.872126 23.9198 0.925581C23.9733 0.979036 24 1.04395 24 1.12031V8.70332C24 8.77968 23.9733 8.84459 23.9198 8.89805C23.8664 8.9515 23.8014 8.97823 23.7251 8.97823H22.8202C22.7362 8.97823 22.6674 8.9515 22.614 8.89805C22.5682 8.84459 22.5453 8.77968 22.5453 8.70332V8.27949C22.3543 8.51622 22.11 8.71095 21.8122 8.86368C21.522 9.01641 21.1554 9.09278 20.7125 9.09278ZM21.1363 7.86713C21.4571 7.86713 21.7129 7.79458 21.9038 7.64949C22.0947 7.50439 22.236 7.32112 22.3276 7.09966C22.4193 6.87057 22.4689 6.63765 22.4765 6.40092C22.4842 6.26347 22.488 6.11838 22.488 5.96565C22.488 5.80528 22.4842 5.65637 22.4765 5.51891C22.4689 5.28982 22.4154 5.07218 22.3162 4.866C22.2169 4.65217 22.0718 4.47654 21.8809 4.33908C21.69 4.20162 21.4418 4.1329 21.1363 4.1329C20.8156 4.1329 20.5598 4.20544 20.3689 4.35053C20.1856 4.48799 20.0519 4.67127 19.9679 4.90036C19.8839 5.12945 19.8343 5.38146 19.819 5.65637C19.8114 5.88546 19.8114 6.11456 19.819 6.34365C19.8343 6.61856 19.8839 6.87057 19.9679 7.09966C20.0519 7.32875 20.1856 7.51585 20.3689 7.66094C20.5598 7.7984 20.8156 7.86713 21.1363 7.86713Z" fill="black"/>
</g>
</svg>
