<svg width="28" height="28" viewBox="0 0 28 28" fill="none" xmlns="http://www.w3.org/2000/svg">
<g clip-path="url(#clip0_57_71)">
<path d="M20.6733 24.8887H6.67329C6.46701 24.8887 6.26918 24.9706 6.12331 25.1165C5.97745 25.2623 5.89551 25.4602 5.89551 25.6664C5.89551 25.8727 5.97745 26.0706 6.12331 26.2164C6.26918 26.3623 6.46701 26.4442 6.67329 26.4442H20.6733C20.8796 26.4442 21.0774 26.3623 21.2233 26.2164C21.3691 26.0706 21.4511 25.8727 21.4511 25.6664C21.4511 25.4602 21.3691 25.2623 21.2233 25.1165C21.0774 24.9706 20.8796 24.8887 20.6733 24.8887Z" fill="white"/>
<path d="M11.449 7.67678C11.488 7.91905 11.4756 8.16681 11.4126 8.40398C11.3496 8.64115 11.2375 8.86243 11.0834 9.05344C12.0365 10.6826 13.3478 12.0736 14.9179 13.1212C15.1823 13.3001 15.4545 13.4557 15.6956 13.6112C15.9427 13.3381 16.2686 13.1487 16.6282 13.0692C16.9878 12.9898 17.3632 13.0243 17.7023 13.1679C18.9147 11.5621 19.7422 9.69947 20.1212 7.72344C17.3179 6.73336 14.2627 6.71692 11.449 7.67678Z" fill="url(#paint0_linear_57_71)"/>
<path d="M13.8056 1.55567C10.9177 1.55567 8.14809 2.70288 6.10603 4.74495C4.06397 6.78701 2.91675 9.55664 2.91675 12.4446C2.91675 12.7946 2.91675 13.1368 2.97119 13.479C3.17162 15.5792 3.97784 17.5759 5.29186 19.2265C6.60588 20.8771 8.37109 22.1104 10.3729 22.7765C12.3748 23.4426 14.527 23.5128 16.568 22.9786C18.609 22.4444 20.4508 21.3288 21.8696 19.7674C23.2884 18.206 24.2231 16.266 24.56 14.1834C24.8969 12.1007 24.6215 9.96499 23.7673 8.03591C22.9131 6.10682 21.5169 4.46741 19.7485 3.31699C17.98 2.16656 15.9154 1.55466 13.8056 1.55567ZM21.8556 16.4034C20.7218 16.3995 19.593 16.2532 18.4956 15.9679C18.2349 16.3222 17.8523 16.5676 17.4215 16.6566C16.9907 16.7456 16.5421 16.6721 16.1623 16.4501C14.5633 17.7368 12.7066 18.6652 10.7179 19.1723C10.6575 19.4924 10.5124 19.7905 10.2976 20.0354C10.0828 20.2802 9.80625 20.463 9.49675 20.5646L9.27119 20.6112C8.26497 20.0549 7.3709 19.3165 6.63453 18.4334H7.14786C7.22224 18.0631 7.4105 17.7252 7.68631 17.4671C7.96212 17.209 8.3117 17.0435 8.68617 16.9938C9.06064 16.9441 9.44128 17.0127 9.77487 17.1899C10.1085 17.3671 10.3783 17.6442 10.5467 17.9823C12.3099 17.5169 13.9572 16.6906 15.3845 15.5557C15.26 15.2695 15.2117 14.956 15.2445 14.6457C14.9179 14.459 14.5912 14.2646 14.2723 14.0546C12.5779 12.9311 11.1562 11.4429 10.1112 9.699C9.79889 9.78473 9.46921 9.78446 9.15705 9.6982C8.84488 9.61195 8.56184 9.44292 8.33786 9.209C6.89113 10.2688 5.58444 11.5075 4.44897 12.8957V12.4523C4.45274 12.0018 4.48913 11.5521 4.55786 11.1068C5.49081 9.96186 6.59226 8.96531 7.82453 8.15122C7.78078 7.80786 7.83848 7.4592 7.9905 7.14823C8.14253 6.83726 8.38224 6.57759 8.68008 6.40122C8.58675 6.06678 8.49341 5.73233 8.42341 5.39011C8.42341 5.28122 8.42341 5.16455 8.33786 4.89233C8.67737 4.64299 9.03337 4.41692 9.40341 4.21567C9.48119 4.67455 9.5123 4.91566 9.56675 5.15678C9.62119 5.39789 9.7223 5.81789 9.81564 6.14455H10.0101C10.3434 6.22165 10.6481 6.39153 10.889 6.63455C13.9337 5.56081 17.2509 5.54164 20.3079 6.58011V5.80233C21.1761 6.65784 21.8684 7.67514 22.3456 8.79678C21.9671 8.57381 21.5834 8.37159 21.1945 8.19011C20.753 10.2732 19.8523 12.2315 18.5579 13.9223C18.7251 14.2021 18.8138 14.5219 18.8145 14.8479C20.0932 15.1126 21.398 15.23 22.7034 15.1979C22.573 15.6051 22.4145 16.0027 22.229 16.3879L21.8556 16.4034Z" fill="url(#paint1_linear_57_71)"/>
<path fill-rule="evenodd" clip-rule="evenodd" d="M18.4956 15.968C19.593 16.2533 20.7218 16.3997 21.8556 16.4036L22.229 16.388C22.4145 16.0028 22.573 15.6052 22.7034 15.198C21.398 15.2301 20.0932 15.1127 18.8145 14.848C18.8138 14.5221 18.7251 14.2023 18.5579 13.9225C19.8523 12.2317 20.753 10.2734 21.1945 8.19027C21.5834 8.37175 21.9671 8.57397 22.3456 8.79693C21.8684 7.67529 21.1761 6.65799 20.3079 5.80249V6.58026C17.2509 5.54179 13.9337 5.56097 10.889 6.63471C10.6481 6.39168 10.3434 6.2218 10.0101 6.14471H9.81564C9.72231 5.81804 9.6212 5.39804 9.56675 5.15693C9.53036 4.99578 9.5044 4.83462 9.46795 4.60845L9.46793 4.60832L9.46792 4.60825C9.44985 4.49608 9.4292 4.36791 9.40342 4.21582C9.03337 4.41707 8.67737 4.64314 8.33786 4.89249C8.42342 5.16471 8.42342 5.28138 8.42342 5.39026C8.49342 5.73249 8.58675 6.06693 8.68009 6.40138C8.38225 6.57774 8.14254 6.83742 7.99051 7.14838C7.83848 7.45935 7.78078 7.80801 7.82453 8.15138C6.59226 8.96547 5.49081 9.96202 4.55786 11.1069C4.48914 11.5522 4.45274 12.0019 4.44897 12.4525V12.8958C5.58444 11.5077 6.89113 10.2689 8.33786 9.20915C8.56184 9.44307 8.84489 9.6121 9.15705 9.69836C9.46922 9.78461 9.79889 9.78489 10.1112 9.69915C11.1562 11.4431 12.5779 12.9312 14.2723 14.0547C14.5912 14.2647 14.9179 14.4592 15.2445 14.6458C15.2117 14.9562 15.26 15.2697 15.3845 15.5558C13.9572 16.6908 12.3099 17.5171 10.5468 17.9825C10.3783 17.6444 10.1085 17.3673 9.77487 17.1901C9.44128 17.0128 9.06064 16.9443 8.68617 16.994C8.3117 17.0437 7.96213 17.2092 7.68632 17.4673C7.4105 17.7254 7.22225 18.0632 7.14786 18.4336H6.63453C7.3709 19.3166 8.26497 20.0551 9.2712 20.6114L9.49675 20.5647C9.80625 20.4632 10.0828 20.2804 10.2976 20.0355C10.5124 19.7906 10.6575 19.4926 10.7179 19.1725C12.7066 18.6653 14.5633 17.737 16.1623 16.4503C16.5421 16.6722 16.9907 16.7458 17.4215 16.6568C17.8523 16.5677 18.2349 16.3224 18.4956 15.968ZM11.4127 8.40404C11.4757 8.16687 11.488 7.91911 11.4491 7.67683C14.2628 6.71698 17.318 6.73342 20.1213 7.7235C19.7423 9.69953 18.9148 11.5622 17.7024 13.1679C17.3633 13.0243 16.9879 12.9899 16.6283 13.0693C16.2687 13.1487 15.9428 13.3382 15.6957 13.6113C15.5982 13.5484 15.4956 13.4855 15.3906 13.421C15.2357 13.3261 15.0755 13.2278 14.9179 13.1213C13.3478 12.0737 12.0366 10.6827 11.0835 9.0535C11.2375 8.86249 11.3497 8.64121 11.4127 8.40404Z" fill="white"/>
</g>
<defs>
<linearGradient id="paint0_linear_57_71" x1="27.6949" y1="26.0557" x2="6.51818" y2="1.23776" gradientUnits="userSpaceOnUse">
<stop stop-color="white"/>
<stop offset="1" stop-color="white" stop-opacity="0"/>
</linearGradient>
<linearGradient id="paint1_linear_57_71" x1="27.6949" y1="26.0557" x2="6.51818" y2="1.23776" gradientUnits="userSpaceOnUse">
<stop stop-color="white"/>
<stop offset="1" stop-color="white" stop-opacity="0"/>
</linearGradient>
<clipPath id="clip0_57_71">
<rect width="28" height="28" fill="white"/>
</clipPath>
</defs>
</svg>
