<svg width="28" height="29" viewBox="0 0 28 29" fill="none" xmlns="http://www.w3.org/2000/svg">
<path d="M10.6294 5.97746C10.8033 5.97746 10.9701 5.90838 11.093 5.78542C11.216 5.66245 11.2851 5.49568 11.2851 5.32179C11.2851 5.1479 11.216 4.98112 11.093 4.85816C10.9701 4.7352 10.8033 4.66612 10.6294 4.66612H10.6178C10.5348 4.66607 10.4527 4.68314 10.3766 4.71626C10.3005 4.74938 10.2321 4.79785 10.1756 4.85862C10.0565 4.98341 9.99003 5.14929 9.99003 5.32179C9.99003 5.49429 10.0565 5.66017 10.1756 5.78496C10.2864 5.90396 10.4439 5.97862 10.6189 5.97862H10.6318L10.6294 5.97746ZM17.7309 5.97746H17.7426C17.9176 5.97746 18.0751 5.90279 18.1848 5.78496C18.3039 5.66017 18.3703 5.49429 18.3703 5.32179C18.3703 5.14929 18.3039 4.98341 18.1848 4.85862C18.1282 4.79755 18.0596 4.74882 17.9833 4.71549C17.907 4.68217 17.8247 4.66496 17.7414 4.66496H17.7286H17.7298C17.5559 4.66496 17.3891 4.73404 17.2661 4.857C17.1432 4.97996 17.0741 5.14673 17.0741 5.32062C17.0741 5.49452 17.1432 5.66129 17.2661 5.78425C17.3891 5.90721 17.5559 5.97629 17.7298 5.97629L17.7309 5.97746ZM4.06809 9.07379C5.01425 9.07846 5.78075 9.84379 5.78425 10.79V18.0583C5.78425 18.525 5.59408 18.9485 5.28725 19.2541C5.13387 19.4141 4.94965 19.5414 4.74573 19.6282C4.5418 19.715 4.32239 19.7596 4.10075 19.7593H4.06459H4.06692H4.05759C3.60026 19.7593 3.16167 19.5776 2.8383 19.2542C2.51492 18.9309 2.33325 18.4923 2.33325 18.035V10.7655C2.33325 10.2988 2.52692 9.87762 2.83842 9.57662C3.14175 9.26629 3.56525 9.07379 4.03425 9.07379H4.06809ZM21.9041 9.39346V20.6343C21.9041 21.1348 21.6976 21.5886 21.3651 21.913C21.2005 22.0836 21.0031 22.2193 20.7848 22.312C20.5665 22.4046 20.3317 22.4522 20.0946 22.452H20.0678H20.0689H18.8066V26.2716C18.8066 26.7314 18.6239 27.1724 18.2988 27.4975C17.9737 27.8226 17.5327 28.0053 17.0729 28.0053C16.6131 28.0053 16.1722 27.8226 15.847 27.4975C15.5219 27.1724 15.3393 26.7314 15.3393 26.2716V22.452H13.0176V26.281C13.0176 27.233 12.2453 28.0053 11.2933 28.0053H11.2594C10.7928 28.0053 10.3716 27.8116 10.0706 27.5001C9.9106 27.3445 9.78346 27.1584 9.69669 26.9528C9.60992 26.7472 9.56528 26.5263 9.56542 26.3031V26.2705L9.54908 22.452H8.29375C7.27875 22.452 6.45509 21.6283 6.45509 20.6133V20.6005V20.6016V9.39462L21.9041 9.39346ZM18.0004 2.58012C19.1605 3.16776 20.1466 4.04857 20.8611 5.13512L20.8786 5.16312C21.5541 6.17346 21.9554 7.41712 21.9554 8.75296V8.79029V8.78796H6.38975V8.75179C6.38975 7.41479 6.79225 6.17229 7.48175 5.13746L7.46659 5.16079C8.17619 4.07147 9.15943 3.1876 10.3179 2.59762L10.3599 2.57779L9.16525 0.37279C9.145 0.346493 9.13092 0.315985 9.12404 0.283518C9.11716 0.25105 9.11765 0.217451 9.12549 0.185201C9.13333 0.152951 9.14831 0.122873 9.16933 0.0971858C9.19034 0.071499 9.21686 0.0508593 9.24692 0.0367901C9.275 0.0189184 9.30775 0.00726303 9.34072 0.00260685C9.37368 -0.00204934 9.40725 0.000401412 9.43919 0.00979451C9.47113 0.0191876 9.50068 0.0353056 9.52588 0.057066C9.55107 0.0788264 9.57131 0.105725 9.58525 0.135957L9.58642 0.137123L10.7998 2.35846C11.7961 1.91162 12.9581 1.65146 14.1819 1.65146C15.4058 1.65146 16.5678 1.91162 17.6178 2.37946L17.5641 2.35846L18.7774 0.137123C18.7912 0.106626 18.8114 0.0794558 18.8367 0.0574572C18.8619 0.0354587 18.8916 0.0191469 18.9237 0.00962936C18.9557 0.000111844 18.9895 -0.00238856 19.0227 0.00229791C19.0558 0.00698438 19.0876 0.018748 19.1158 0.0367901C19.1462 0.0505968 19.1719 0.0711055 19.1933 0.0967824C19.2147 0.122459 19.23 0.15264 19.2381 0.185066C19.2462 0.217493 19.2468 0.251327 19.24 0.284037C19.2331 0.316747 19.219 0.347486 19.1986 0.373957L18.0004 2.58012ZM26.0271 10.7935V18.0385C26.0271 18.9905 25.2548 19.7628 24.3028 19.7628H24.2689C23.8023 19.7628 23.3811 19.5691 23.0801 19.2576C22.9201 19.102 22.793 18.9159 22.7062 18.7103C22.6194 18.5047 22.5748 18.2838 22.5749 18.0606V18.028V10.7596C22.5749 10.2941 22.7686 9.87296 23.0801 9.57429C23.2348 9.41668 23.4195 9.29154 23.6232 9.2062C23.827 9.12086 24.0457 9.07703 24.2666 9.07729H24.2946H24.3261C24.7928 9.07729 25.2163 9.26746 25.5219 9.57429C25.8334 9.87412 26.0271 10.2941 26.0271 10.7608V10.7923V10.7935Z" fill="url(#paint0_linear_57_93)"/>
<defs>
<linearGradient id="paint0_linear_57_93" x1="20.4177" y1="26.8373" x2="2.29621" y2="-0.158854" gradientUnits="userSpaceOnUse">
<stop stop-color="white"/>
<stop offset="1" stop-color="white" stop-opacity="0"/>
</linearGradient>
</defs>
</svg>
