<svg width="28" height="28" viewBox="0 0 28 28" fill="none" xmlns="http://www.w3.org/2000/svg">
<path d="M12.1916 18.0832C12.6777 18.5693 13.2902 18.7979 14.0291 18.7692C14.768 18.7404 15.3027 18.4728 15.6333 17.9665L20.5624 10.5873C20.7374 10.3151 20.7133 10.067 20.4901 9.843C20.2669 9.619 20.0188 9.59489 19.7458 9.77067L12.3666 14.6998C11.861 15.0498 11.5841 15.5799 11.5359 16.29C11.4877 17.0001 11.7063 17.5978 12.1916 18.0832ZM5.94992 23.3332C5.52214 23.3332 5.12859 23.2406 4.76925 23.0555C4.40992 22.8704 4.12292 22.5935 3.90825 22.2248C3.4027 21.3109 3.01381 20.3628 2.74159 19.3805C2.46936 18.3982 2.33325 17.3824 2.33325 16.3332C2.33325 14.7193 2.6397 13.2026 3.25259 11.7832C3.86547 10.3637 4.69653 9.129 5.74575 8.079C6.79575 7.029 8.03048 6.19795 9.44992 5.58584C10.8694 4.97373 12.386 4.66728 13.9999 4.6665C15.5944 4.6665 17.0916 4.96789 18.4916 5.57067C19.8916 6.17345 21.1166 6.99517 22.1666 8.03584C23.2166 9.07573 24.0527 10.291 24.6749 11.6817C25.2971 13.0723 25.618 14.5645 25.6374 16.1582C25.6569 17.2276 25.5351 18.2729 25.2723 19.2942C25.0094 20.3154 24.6061 21.2923 24.0624 22.2248C23.8485 22.5943 23.5615 22.8716 23.2014 23.0567C22.8413 23.2418 22.4478 23.3339 22.0208 23.3332H5.94992Z" fill="url(#paint0_linear_57_102)"/>
<path d="M14.029 18.7692C13.2901 18.798 12.6776 18.5693 12.1915 18.0832C11.7062 17.5979 11.4876 17.0002 11.5358 16.29C11.5841 15.5799 11.8609 15.0499 12.3665 14.6999L19.7457 9.77072C20.0187 9.59494 20.2668 9.61905 20.49 9.84305C20.7132 10.0671 20.7373 10.3152 20.5623 10.5874L15.6332 17.9665C15.3026 18.4729 14.7679 18.7404 14.029 18.7692Z" fill="white"/>
<defs>
<linearGradient id="paint0_linear_57_102" x1="28.844" y1="25.6665" x2="11.7178" y2="0.612936" gradientUnits="userSpaceOnUse">
<stop stop-color="white"/>
<stop offset="1" stop-color="white" stop-opacity="0"/>
</linearGradient>
</defs>
</svg>
