<svg width="28" height="28" viewBox="0 0 28 28" fill="none" xmlns="http://www.w3.org/2000/svg">
<path d="M4.66659 23.3332C4.02492 23.3332 3.47542 23.1045 3.01809 22.6472C2.56075 22.1898 2.33248 21.6407 2.33325 20.9998V6.99984C2.33325 6.35817 2.56192 5.80867 3.01925 5.35134C3.47659 4.89401 4.0257 4.66573 4.66659 4.66651H23.3333C23.9749 4.66651 24.5244 4.89517 24.9818 5.35251C25.4391 5.80984 25.6674 6.35895 25.6666 6.99984V20.9998C25.6666 21.6415 25.4379 22.191 24.9806 22.6483C24.5233 23.1057 23.9741 23.334 23.3333 23.3332H4.66659ZM6.99992 19.8332H20.9999C21.3305 19.8332 21.6078 19.7212 21.8318 19.4972C22.0558 19.2732 22.1674 18.9963 22.1666 18.6665C22.1666 18.336 22.0546 18.0587 21.8306 17.8347C21.6066 17.6107 21.3297 17.4991 20.9999 17.4998H6.99992C6.66937 17.4998 6.39209 17.6118 6.16809 17.8358C5.94409 18.0598 5.83248 18.3367 5.83325 18.6665C5.83325 18.9971 5.94525 19.2743 6.16925 19.4983C6.39325 19.7223 6.67014 19.834 6.99992 19.8332ZM6.99992 15.1665H20.9999C21.3305 15.1665 21.6078 15.0545 21.8318 14.8305C22.0558 14.6065 22.1674 14.3296 22.1666 13.9998C22.1666 13.6693 22.0546 13.392 21.8306 13.168C21.6066 12.944 21.3297 12.8324 20.9999 12.8332H6.99992C6.66937 12.8332 6.39209 12.9452 6.16809 13.1692C5.94409 13.3932 5.83248 13.6701 5.83325 13.9998C5.83325 14.3304 5.94525 14.6077 6.16925 14.8317C6.39325 15.0557 6.67014 15.1673 6.99992 15.1665ZM6.99992 10.4998H16.3333C16.6638 10.4998 16.9411 10.3878 17.1651 10.1638C17.3891 9.93984 17.5007 9.66295 17.4999 9.33317C17.4999 9.00262 17.3879 8.72534 17.1639 8.50134C16.9399 8.27734 16.663 8.16573 16.3333 8.16651H6.99992C6.66937 8.16651 6.39209 8.27851 6.16809 8.50251C5.94409 8.72651 5.83248 9.0034 5.83325 9.33317C5.83325 9.66373 5.94525 9.94101 6.16925 10.165C6.39325 10.389 6.67014 10.5006 6.99992 10.4998Z" fill="url(#paint0_linear_57_112)"/>
<path d="M6.99992 19.8332H20.9999C21.3305 19.8332 21.6078 19.7212 21.8318 19.4972C22.0558 19.2732 22.1674 18.9963 22.1666 18.6665C22.1666 18.336 22.0546 18.0587 21.8306 17.8347C21.6066 17.6107 21.3297 17.4991 20.9999 17.4998H6.99992C6.66937 17.4998 6.39209 17.6118 6.16809 17.8358C5.94409 18.0598 5.83248 18.3367 5.83326 18.6665C5.83326 18.9971 5.94526 19.2743 6.16926 19.4983C6.39326 19.7223 6.67015 19.834 6.99992 19.8332ZM6.99992 15.1665H20.9999C21.3305 15.1665 21.6078 15.0545 21.8318 14.8305C22.0558 14.6065 22.1674 14.3296 22.1666 13.9998C22.1666 13.6693 22.0546 13.392 21.8306 13.168C21.6066 12.944 21.3297 12.8324 20.9999 12.8332H6.99992C6.66937 12.8332 6.39209 12.9452 6.16809 13.1692C5.94409 13.3932 5.83248 13.6701 5.83326 13.9998C5.83326 14.3304 5.94526 14.6077 6.16926 14.8317C6.39326 15.0557 6.67015 15.1673 6.99992 15.1665ZM6.99992 10.4998H16.3333C16.6638 10.4998 16.9411 10.3878 17.1651 10.1638C17.3891 9.93984 17.5007 9.66295 17.4999 9.33318C17.4999 9.00262 17.3879 8.72534 17.1639 8.50134C16.9399 8.27734 16.663 8.16573 16.3333 8.16651H6.99992C6.66937 8.16651 6.39209 8.27851 6.16809 8.50251C5.94409 8.72651 5.83248 9.0034 5.83326 9.33318C5.83326 9.66373 5.94526 9.94101 6.16926 10.165C6.39326 10.389 6.67015 10.5006 6.99992 10.4998Z" fill="white"/>
<defs>
<linearGradient id="paint0_linear_57_112" x1="28.8749" y1="25.6665" x2="11.7559" y2="0.594358" gradientUnits="userSpaceOnUse">
<stop stop-color="white"/>
<stop offset="1" stop-color="white" stop-opacity="0"/>
</linearGradient>
</defs>
</svg>
