<svg width="28" height="28" viewBox="0 0 28 28" fill="none" xmlns="http://www.w3.org/2000/svg">
<path d="M10.325 13.9998L12.0167 12.3082C12.25 12.0748 12.362 11.8026 12.3527 11.4915C12.3433 11.1804 12.2313 10.9082 12.0167 10.6748C11.7833 10.4415 11.5061 10.3198 11.1848 10.3097C10.8636 10.2996 10.5867 10.4116 10.3542 10.6457L7.81667 13.1832C7.58333 13.4165 7.46667 13.6887 7.46667 13.9998C7.46667 14.3109 7.58333 14.5832 7.81667 14.8165L10.3542 17.354C10.5875 17.5873 10.8648 17.6993 11.186 17.69C11.5072 17.6807 11.7841 17.5589 12.0167 17.3248C12.2306 17.0915 12.3426 16.8193 12.3527 16.5082C12.3628 16.1971 12.2508 15.9248 12.0167 15.6915L10.325 13.9998ZM17.675 13.9998L15.9833 15.6915C15.75 15.9248 15.638 16.1971 15.6473 16.5082C15.6567 16.8193 15.7687 17.0915 15.9833 17.3248C16.2167 17.5582 16.4939 17.6795 16.8152 17.6888C17.1364 17.6982 17.4133 17.5866 17.6458 17.354L20.1833 14.8165C20.4167 14.5832 20.5333 14.3109 20.5333 13.9998C20.5333 13.6887 20.4167 13.4165 20.1833 13.1832L17.6458 10.6457C17.4125 10.4123 17.1352 10.3003 16.814 10.3097C16.4928 10.319 16.2159 10.4407 15.9833 10.6748C15.7694 10.9082 15.6578 11.1804 15.6485 11.4915C15.6392 11.8026 15.7508 12.0748 15.9833 12.3082L17.675 13.9998ZM5.83334 24.4998C5.19167 24.4998 4.64217 24.2712 4.18484 23.8138C3.7275 23.3565 3.49922 22.8074 3.5 22.1665V5.83317C3.5 5.1915 3.72867 4.642 4.186 4.18467C4.64334 3.72734 5.19245 3.49906 5.83334 3.49984H10.7333C10.9861 2.79984 11.4092 2.23595 12.0027 1.80817C12.5961 1.38039 13.2619 1.1665 14 1.1665C14.7389 1.1665 15.4051 1.38039 15.9985 1.80817C16.5919 2.23595 17.0147 2.79984 17.2667 3.49984H22.1667C22.8083 3.49984 23.3578 3.7285 23.8152 4.18584C24.2725 4.64317 24.5008 5.19228 24.5 5.83317V22.1665C24.5 22.8082 24.2713 23.3577 23.814 23.815C23.3567 24.2723 22.8076 24.5006 22.1667 24.4998H5.83334ZM14 4.95817C14.2528 4.95817 14.4616 4.87534 14.6265 4.70967C14.7914 4.544 14.8742 4.33517 14.875 4.08317C14.875 3.83039 14.7922 3.62156 14.6265 3.45667C14.4608 3.29178 14.252 3.20895 14 3.20817C13.7472 3.20817 13.5384 3.291 13.3735 3.45667C13.2086 3.62234 13.1258 3.83117 13.125 4.08317C13.125 4.33595 13.2078 4.54478 13.3735 4.70967C13.5392 4.87456 13.748 4.95739 14 4.95817Z" fill="url(#paint0_linear_57_104)"/>
<path d="M12.0166 12.3082L10.3249 13.9999L12.0166 15.6915C12.2507 15.9249 12.3627 16.1971 12.3526 16.5082C12.3424 16.8193 12.2304 17.0915 12.0166 17.3249C11.784 17.559 11.5071 17.6807 11.1859 17.69C10.8647 17.6994 10.5874 17.5874 10.3541 17.354L7.81655 14.8165C7.58322 14.5832 7.46655 14.311 7.46655 13.9999C7.46655 13.6888 7.58322 13.4165 7.81655 13.1832L10.3541 10.6457C10.5866 10.4116 10.8635 10.2996 11.1847 10.3097C11.5059 10.3198 11.7832 10.4415 12.0166 10.6749C12.2312 10.9082 12.3432 11.1804 12.3526 11.4915C12.3619 11.8027 12.2499 12.0749 12.0166 12.3082Z" fill="white"/>
<path d="M15.9832 15.6915L17.6749 13.9999L15.9832 12.3082C15.7507 12.0749 15.6391 11.8027 15.6484 11.4915C15.6577 11.1804 15.7693 10.9082 15.9832 10.6749C16.2158 10.4408 16.4927 10.319 16.8139 10.3097C17.1351 10.3004 17.4124 10.4124 17.6457 10.6457L20.1832 13.1832C20.4166 13.4165 20.5332 13.6888 20.5332 13.9999C20.5332 14.311 20.4166 14.5832 20.1832 14.8165L17.6457 17.354C17.4132 17.5866 17.1363 17.6982 16.8151 17.6889C16.4938 17.6795 16.2166 17.5582 15.9832 17.3249C15.7686 17.0915 15.6566 16.8193 15.6472 16.5082C15.6379 16.1971 15.7499 15.9249 15.9832 15.6915Z" fill="white"/>
<defs>
<linearGradient id="paint0_linear_57_104" x1="27.3875" y1="27.4165" x2="4.44429" y2="3.22295" gradientUnits="userSpaceOnUse">
<stop stop-color="white"/>
<stop offset="1" stop-color="white" stop-opacity="0"/>
</linearGradient>
</defs>
</svg>
