<svg width="28" height="28" viewBox="0 0 28 28" fill="none" xmlns="http://www.w3.org/2000/svg">
<path d="M2.80005 9.1001C2.80005 8.17184 3.1688 7.2816 3.82518 6.62522C4.48155 5.96885 5.37179 5.6001 6.30005 5.6001H21.7C22.6283 5.6001 23.5185 5.96885 24.1749 6.62522C24.8313 7.2816 25.2 8.17184 25.2 9.1001V18.9001C25.2 19.8284 24.8313 20.7186 24.1749 21.375C23.5185 22.0313 22.6283 22.4001 21.7 22.4001H14.1694L11.9854 20.2161C12.2897 19.5813 12.4847 18.8998 12.5622 18.2001H17.5C17.6857 18.2001 17.8637 18.1263 17.995 17.9951C18.1263 17.8638 18.2 17.6857 18.2 17.5001C18.2 17.3144 18.1263 17.1364 17.995 17.0051C17.8637 16.8738 17.6857 16.8001 17.5 16.8001H12.5622C12.4819 16.0693 12.2733 15.3585 11.9462 14.7001H20.3C20.4857 14.7001 20.6637 14.6263 20.795 14.4951C20.9263 14.3638 21 14.1857 21 14.0001C21 13.8144 20.9263 13.6364 20.795 13.5051C20.6637 13.3738 20.4857 13.3001 20.3 13.3001H10.9956C10.4054 12.6387 9.68181 12.1096 8.87254 11.7477C8.06326 11.3858 7.18657 11.1991 6.30005 11.2001C5.05386 11.1983 3.83538 11.5677 2.80005 12.2613V9.1001ZM7.70005 9.8001C7.5144 9.8001 7.33635 9.87385 7.20507 10.0051C7.0738 10.1364 7.00005 10.3144 7.00005 10.5001C7.00005 10.6857 7.0738 10.8638 7.20507 10.9951C7.33635 11.1263 7.5144 11.2001 7.70005 11.2001H16.1C16.2857 11.2001 16.4637 11.1263 16.595 10.9951C16.7263 10.8638 16.8 10.6857 16.8 10.5001C16.8 10.3144 16.7263 10.1364 16.595 10.0051C16.4637 9.87385 16.2857 9.8001 16.1 9.8001H7.70005Z" fill="url(#paint0_linear_57_106)"/>
<path d="M6.29997 22.4001C7.40037 22.4001 8.41677 22.0361 9.23437 21.4243L12.8044 24.9943C12.8694 25.0594 12.9465 25.111 13.0315 25.1463C13.1164 25.1815 13.2075 25.1997 13.2995 25.1998C13.3914 25.1999 13.4825 25.1818 13.5675 25.1467C13.6525 25.1115 13.7298 25.06 13.7949 24.995C13.8599 24.93 13.9116 24.8528 13.9469 24.7679C13.9821 24.6829 14.0003 24.5919 14.0004 24.4999C14.0004 24.4079 13.9824 24.3168 13.9472 24.2318C13.9121 24.1468 13.8606 24.0696 13.7956 24.0045L10.2256 20.4345C10.8864 19.5508 11.2296 18.4699 11.1996 17.3668C11.1695 16.2638 10.7681 15.2032 10.0602 14.3567C9.35233 13.5102 8.37945 12.9274 7.29911 12.7028C6.21877 12.4781 5.09421 12.6246 4.10752 13.1187C3.12084 13.6127 2.3298 14.4253 1.86248 15.4249C1.39517 16.4246 1.27894 17.5527 1.53261 18.6266C1.78629 19.7005 2.39502 20.6573 3.26023 21.3422C4.12545 22.027 5.1965 22.3998 6.29997 22.4001ZM6.29997 21.0001C5.37171 21.0001 4.48147 20.6314 3.82509 19.975C3.16871 19.3186 2.79997 18.4284 2.79997 17.5001C2.79997 16.5718 3.16871 15.6816 3.82509 15.0252C4.48147 14.3689 5.37171 14.0001 6.29997 14.0001C7.22822 14.0001 8.11846 14.3689 8.77484 15.0252C9.43122 15.6816 9.79996 16.5718 9.79996 17.5001C9.79996 18.4284 9.43122 19.3186 8.77484 19.975C8.11846 20.6314 7.22822 21.0001 6.29997 21.0001Z" fill="white"/>
<defs>
<linearGradient id="paint0_linear_57_106" x1="28.2801" y1="24.5001" x2="13.2575" y2="1.03154" gradientUnits="userSpaceOnUse">
<stop stop-color="white"/>
<stop offset="1" stop-color="white" stop-opacity="0"/>
</linearGradient>
</defs>
</svg>
