<svg width="28" height="28" viewBox="0 0 28 28" fill="none" xmlns="http://www.w3.org/2000/svg">
<g clip-path="url(#clip0_57_108)">
<path d="M13.9999 2.3335C15.0453 2.3335 16.0579 2.47116 17.0216 2.729L14.5413 5.20816C14.3531 5.39708 14.1871 5.60689 14.0466 5.8335H13.9999C12.3847 5.8335 10.8058 6.31246 9.46276 7.20983C8.11976 8.10719 7.07302 9.38265 6.4549 10.8749C5.83679 12.3672 5.67506 14.0092 5.99017 15.5934C6.30528 17.1776 7.08308 18.6327 8.22521 19.7749C9.36734 20.917 10.8225 21.6948 12.4067 22.0099C13.9909 22.325 15.6329 22.1633 17.1252 21.5452C18.6174 20.9271 19.8929 19.8803 20.7903 18.5373C21.6876 17.1943 22.1666 15.6154 22.1666 14.0002V13.9535C22.3906 13.8135 22.6006 13.649 22.7908 13.4577L25.2711 10.9785C25.5289 11.9422 25.6666 12.9548 25.6666 14.0002C25.6666 20.4437 20.4434 25.6668 13.9999 25.6668C7.55642 25.6668 2.33325 20.4437 2.33325 14.0002C2.33325 7.55666 7.55642 2.3335 13.9999 2.3335ZM13.5169 8.18666C13.5169 9.1795 13.4679 10.1863 13.5216 11.178L12.8916 11.808C12.6749 12.0247 12.503 12.282 12.3857 12.5651C12.2684 12.8483 12.208 13.1518 12.208 13.4582C12.208 13.7647 12.2684 14.0682 12.3857 14.3514C12.503 14.6345 12.6749 14.8918 12.8916 15.1085C13.1083 15.3252 13.3656 15.4971 13.6487 15.6144C13.9319 15.7317 14.2354 15.7921 14.5418 15.7921C14.8483 15.7921 15.1518 15.7317 15.4349 15.6144C15.7181 15.4971 15.9754 15.3252 16.1921 15.1085L16.8221 14.4785C17.8138 14.5322 18.8194 14.4832 19.8134 14.4832C19.7213 15.5919 19.314 16.6511 18.6395 17.536C17.9651 18.4208 17.0518 19.0944 16.0071 19.4772C14.9625 19.8599 13.8302 19.936 12.7437 19.6964C11.6573 19.4567 10.662 18.9114 9.87534 18.1247C9.08865 17.338 8.54333 16.3428 8.30371 15.2563C8.06409 14.1699 8.14015 13.0376 8.52293 11.993C8.90571 10.9483 9.57924 10.0349 10.4641 9.36053C11.3489 8.68613 12.4082 8.27882 13.5169 8.18666ZM21.5879 2.48166C21.8009 2.56996 21.9829 2.71936 22.111 2.91101C22.2391 3.10266 22.3076 3.32797 22.3078 3.5585V5.6935H24.4416C24.6723 5.69355 24.8978 5.762 25.0896 5.89019C25.2814 6.01839 25.4309 6.20058 25.5192 6.41373C25.6075 6.62688 25.6306 6.86142 25.5856 7.0877C25.5406 7.31398 25.4295 7.52184 25.2664 7.685L21.1399 11.8068C20.9212 12.0256 20.6245 12.1486 20.3151 12.1487H17.4999L15.3661 14.2825C15.1472 14.5013 14.8503 14.6241 14.5408 14.624C14.2314 14.6239 13.9346 14.5008 13.7158 14.2819C13.4971 14.063 13.3742 13.7661 13.3743 13.4567C13.3745 13.1472 13.4975 12.8504 13.7164 12.6317L15.8503 10.5002V7.68383C15.8501 7.53044 15.8803 7.37853 15.9389 7.23679C15.9976 7.09506 16.0836 6.96628 16.1921 6.85783L20.3163 2.73366C20.4794 2.57041 20.6873 2.45921 20.9137 2.41415C21.14 2.36908 21.3747 2.39217 21.5879 2.4805V2.48166Z" fill="url(#paint0_linear_57_108)"/>
<path d="M21.5878 2.48157C21.8008 2.56986 21.9828 2.71926 22.1109 2.91091C22.239 3.10257 22.3075 3.32788 22.3077 3.5584V5.6934H24.4415C24.6722 5.69345 24.8977 5.7619 25.0895 5.8901C25.2814 6.0183 25.4308 6.20049 25.5191 6.41364C25.6074 6.62679 25.6305 6.86133 25.5855 7.08761C25.5405 7.31389 25.4294 7.52174 25.2663 7.6849L21.1398 11.8067C20.9211 12.0255 20.6244 12.1485 20.315 12.1486H17.4998L15.366 14.2824C15.1471 14.5012 14.8502 14.624 14.5408 14.6239C14.2313 14.6238 13.9345 14.5007 13.7158 14.2818C13.497 14.0629 13.3742 13.7661 13.3743 13.4566C13.3744 13.1471 13.4974 12.8503 13.7163 12.6316L15.8502 10.5001V7.68374C15.8501 7.53034 15.8802 7.37843 15.9388 7.2367C15.9975 7.09496 16.0835 6.96619 16.192 6.85774L20.3162 2.73357C20.4793 2.57032 20.6872 2.45912 20.9136 2.41406C21.14 2.36899 21.3746 2.39208 21.5878 2.4804V2.48157Z" fill="white"/>
</g>
<defs>
<linearGradient id="paint0_linear_57_108" x1="28.8749" y1="28.5835" x2="6.18474" y2="1.99824" gradientUnits="userSpaceOnUse">
<stop stop-color="white"/>
<stop offset="1" stop-color="white" stop-opacity="0"/>
</linearGradient>
<clipPath id="clip0_57_108">
<rect width="28" height="28" fill="white"/>
</clipPath>
</defs>
</svg>
