<svg width="28" height="28" viewBox="0 0 28 28" fill="none" xmlns="http://www.w3.org/2000/svg">
<path d="M9.33325 19.8335C6.03392 19.8335 4.38309 19.8335 3.35875 18.808C2.69375 18.1442 2.46042 17.2178 2.37875 15.7502H25.6223C25.5406 17.2178 25.3061 18.1442 24.6423 18.808C23.6144 19.8335 21.9648 19.8335 18.6666 19.8335H14.8749V24.5002H18.6666C18.8987 24.5002 19.1212 24.5923 19.2853 24.7564C19.4494 24.9205 19.5416 25.1431 19.5416 25.3752C19.5416 25.6072 19.4494 25.8298 19.2853 25.9939C19.1212 26.158 18.8987 26.2502 18.6666 26.2502H9.33325C9.10119 26.2502 8.87863 26.158 8.71453 25.9939C8.55044 25.8298 8.45825 25.6072 8.45825 25.3752C8.45825 25.1431 8.55044 24.9205 8.71453 24.7564C8.87863 24.5923 9.10119 24.5002 9.33325 24.5002H13.1249V19.8335H9.33325ZM11.6666 2.3335H16.3333C20.7328 2.3335 22.9331 2.3335 24.2993 3.70083C25.6666 5.067 25.6666 7.26733 25.6666 11.6668V12.8335C25.6666 13.4775 25.6666 14.0585 25.6596 14.5835H2.34142C2.33325 14.0585 2.33325 13.4775 2.33325 12.8335V11.6668C2.33325 7.26733 2.33325 5.067 3.70059 3.70083C5.06675 2.3335 7.26709 2.3335 11.6666 2.3335Z" fill="url(#paint0_linear_57_80)"/>
<defs>
<linearGradient id="paint0_linear_57_80" x1="23.9166" y1="24.5002" x2="2.53031" y2="-0.579404" gradientUnits="userSpaceOnUse">
<stop stop-color="white"/>
<stop offset="1" stop-color="white" stop-opacity="0"/>
</linearGradient>
</defs>
</svg>
