<svg width="103" height="80" viewBox="0 0 103 80" fill="none" xmlns="http://www.w3.org/2000/svg">
<g clip-path="url(#clip0_222_367)">
<path fill-rule="evenodd" clip-rule="evenodd" d="M19.0316 27.6484C18.4166 28.3719 17.0156 28.3153 17.0156 29.6491C18.7469 30.316 20.5351 28.5301 19.0316 27.6484Z" fill="#FFDD00"/>
<path fill-rule="evenodd" clip-rule="evenodd" d="M97.8501 29.6485C96.2783 30.6545 95.7544 31.5927 93.3056 30.6545C93.3056 30.1459 93.7156 30.0555 93.8067 29.6485C92.1894 29.219 92.2463 30.4398 91.2782 30.6545C89.8203 28.4165 86.9501 27.6026 84.7063 26.1445C84.3532 24.4716 85.7541 25.342 86.2211 25.6471C86.2439 24.9576 85.9819 24.5507 85.72 24.1438C85.8794 21.7814 82.8497 23.5221 84.7063 20.6398C86.4375 20.3459 87.0526 18.9669 89.2508 19.1364C89.7861 17.2601 87.9979 17.7122 88.2371 16.1297C86.6995 16.1523 84.9113 16.4236 85.2074 14.6264C85.2074 14.4568 85.2074 14.2873 85.2074 14.129C85.868 13.1117 87.884 13.4395 88.2371 12.1283C87.3487 11.6762 86.6767 11.0093 86.2211 10.1276C85.7313 8.77124 84.8088 7.85567 83.6926 7.12095C83.8065 6.17147 83.1231 6.01322 83.1914 5.12025C81.4602 4.90549 80.3553 5.32371 79.148 5.6176C77.7015 4.71333 76.6081 3.45866 76.1183 1.60491C75.7766 1.60491 75.4463 1.60491 75.1046 1.60491C75.1046 1.10756 75.1046 0.598912 75.1046 0.101564C73.2253 -0.24884 72.9406 0.960619 71.0612 0.598912C69.0452 1.27711 66.6761 1.59361 65.503 3.10826C63.4073 2.85958 62.7239 4.02383 61.4596 4.6116C58.7374 6.09234 55.6963 7.24528 52.8717 8.62429C51.5732 8.66951 52.3363 10.7719 50.3431 10.1276C49.2611 10.7267 47.5868 10.738 47.3134 12.1283C47.1995 12.5126 47.302 13.123 46.8123 13.1343C44.1129 11.3145 43.5548 15.9037 40.2403 15.135C40.4339 17.8365 37.4612 18.3452 35.6958 17.6444C35.2174 19.3399 32.7002 19.0121 32.1535 20.6511C30.4451 20.4589 30.0009 21.5214 29.1238 22.1544C26.2308 22.29 25.2513 24.3247 24.0667 26.1671C23.2695 26.1219 23.6681 24.8898 22.5519 25.1611C22.7455 27.1731 22.8708 26.3932 23.5656 28.1678C23.2467 31.6944 18.4516 30.7789 18.0073 34.1812C17.4948 34.1812 17.4037 33.7743 16.9937 33.6838C16.3558 33.8873 15.9572 34.3281 15.98 35.1872C13.44 35.3454 12.7452 37.3348 10.9229 38.1939C10.752 38.1939 10.5812 38.1939 10.4217 38.1939C10.5812 39.3468 8.96381 38.7477 8.90686 39.6972C6.89086 40.5337 6.10496 42.5909 3.84977 43.2013C3.84977 43.5404 3.84977 43.8682 3.84977 44.2073C3.21194 44.4107 2.8133 44.8515 2.83608 45.7106C1.78821 46.1966 -0.990909 47.553 0.307533 48.7173C1.17316 52.0292 4.11174 53.2951 5.36462 56.234C7.35785 56.3697 6.91364 54.0864 8.90686 54.2333C9.33968 56.6522 10.9798 55.2506 12.4491 54.7307C12.4605 55.3976 13.3375 55.1941 13.4628 55.7367C14.3284 58.4269 11.5265 57.4887 11.948 59.7494C12.2896 59.7494 12.62 59.7494 12.9616 59.7494C12.9844 60.3937 13.6109 60.4389 13.4628 61.2527C13.292 61.2527 13.1211 61.2527 12.9616 61.2527C11.5265 64.3272 13.8614 64.5646 15.9913 63.2534C15.456 67.9669 18.7932 68.8373 21.5496 70.2728C22.8822 70.4197 21.9482 68.3286 23.5656 68.7694C24.1351 68.8712 24.3515 69.3233 24.5793 69.7754C24.6021 70.4649 24.3401 70.8719 24.0781 71.2788C20.4106 73.0195 29.5225 74.3759 29.1352 72.7821C28.7935 72.7821 28.4632 72.7821 28.1215 72.7821C27.9279 70.6797 29.9553 72.2396 30.1375 72.7821C31.3221 72.6239 32.0396 71.9909 33.6684 72.2848C33.6684 71.6179 33.6684 70.951 33.6684 70.2841C35.2174 70.6458 35.1491 69.4137 36.6981 69.7867C36.8575 70.951 36.6183 71.7083 36.1969 72.2961C37.7346 72.3187 37.4042 70.4876 39.2266 70.7927C39.0786 72.1152 39.9214 72.443 41.2426 72.2961C41.2426 72.7934 41.2426 73.3021 41.2426 73.7994C41.5501 74.4889 43.1903 73.8786 43.2586 74.8054C43.5434 77.0887 40.8781 76.4557 40.7301 78.3095C42.3247 78.5468 41.8691 76.7722 43.7598 77.3035C43.9648 78.5129 42.8372 78.3886 43.2586 79.8128C45.8669 78.0721 47.0173 76.9305 48.8169 73.7994C48.9877 73.7994 49.1586 73.7994 49.318 73.7994C49.6597 73.7994 49.99 73.7994 50.3317 73.7994C50.3317 73.969 50.3317 74.1385 50.3317 74.2968C51.5732 75.9358 58.4982 68.3399 56.9037 68.7807C56.9037 68.4416 56.9037 68.1138 56.9037 67.7747C60.3889 68.0573 61.6532 66.1358 63.4756 64.7681C64.4665 63.5812 65.5144 62.4396 66.5053 61.2527C69.3186 60.371 71.3688 58.7208 73.5784 57.24C74.0795 57.24 74.182 56.8331 74.5921 56.7427C77.599 55.8723 80.1503 54.5724 82.6789 53.2273C79.5808 52.2892 78.6355 49.2259 76.1069 47.7113C76.1069 47.3722 76.1069 47.0444 76.1069 46.7053C77.9065 46.8183 79.1366 46.3662 79.6492 45.2019C78.8974 44.4446 76.7675 45.055 77.1206 43.2013C77.2915 43.2013 77.4623 43.2013 77.6218 43.2013C77.7357 42.8056 78.0432 42.6135 78.6355 42.7039C78.8405 41.4944 77.7129 41.6188 78.1343 40.1946C83.1345 37.7983 88.5902 35.8654 93.2942 33.1752C95.2533 32.4405 97.8843 32.3839 98.8524 30.6658C98.2488 30.598 97.6679 30.4963 97.8501 29.6485Z" fill="#FFDD00"/>
<path fill-rule="evenodd" clip-rule="evenodd" d="M101.893 28.6419C100.31 28.4046 99.638 29.0828 99.8772 30.6426C100.766 30.1792 102.394 30.4731 102.907 29.6366C102.292 29.5914 101.711 29.501 101.893 28.6419Z" fill="#FFDD00"/>
<path fill-rule="evenodd" clip-rule="evenodd" d="M49.0783 51.9834C47.6432 51.893 45.9803 51.633 44.6705 51.26C44.4199 51.1922 43.4062 50.8192 43.1556 50.7061C38.5883 48.615 35.4219 44.0372 35.4219 38.7246C35.4219 31.4452 41.3902 25.511 48.7366 25.511C56.0148 25.511 61.9489 31.3435 62.0514 38.5437H66.8579C66.7554 28.7098 58.6686 20.7409 48.7366 20.7409C38.7478 20.7409 30.6154 28.8115 30.6154 38.7246C30.6154 45.5631 34.488 51.5087 40.1601 54.5493C41.1852 55.0918 42.6545 55.6457 43.1556 55.7926C44.773 56.2674 46.7548 56.5839 48.5202 56.7195C49.1239 56.7647 51.2196 56.7873 51.8233 56.7873H84.9563V52.0286H51.8689C51.436 52.0286 49.5112 52.0173 49.0783 51.9834ZM51.8689 44.5232C51.5158 44.5232 49.6934 44.5119 49.3517 44.4893C48.7822 44.4441 47.9507 44.3537 47.4154 44.2293C46.8118 44.0711 46.2537 43.8563 45.9917 43.7207C44.2035 42.7599 42.9848 40.8835 42.9848 38.7246C42.9848 35.5822 45.5475 33.039 48.7139 33.039C51.8119 33.039 54.3404 35.4918 54.443 38.5437H59.0672C58.9761 32.9486 54.3746 28.4498 48.7253 28.4498C43.0076 28.4498 38.3605 33.0503 38.3605 38.7246C38.3605 42.726 40.6726 46.1848 44.044 47.8803C44.5566 48.1855 45.5361 48.4907 45.8095 48.5698C46.7548 48.8185 48.0419 48.988 49.067 49.0671C49.4542 49.1011 51.3221 49.1124 51.7208 49.1124V49.1237H84.9336V44.5345H51.8689V44.5232ZM27.6313 56.7647H22.7906V25.511H15.7175V20.707H27.6313V56.7647ZM10.3984 27.9186V32.5416H15.7175V56.776H20.3759V27.9186H10.3984Z" fill="#D71920"/>
<path fill-rule="evenodd" clip-rule="evenodd" d="M76.3806 21.0469C74.6379 21.0469 73.1914 22.4259 73.1914 24.1553C73.1914 25.8847 74.6379 27.3202 76.3806 27.3202C78.1802 27.3202 79.5697 25.8847 79.5697 24.1553C79.5697 22.4259 78.1802 21.0469 76.3806 21.0469ZM76.3806 26.8116C74.934 26.8116 73.6926 25.6926 73.6926 24.1553C73.6926 22.6972 74.934 21.5442 76.3806 21.5442C77.8157 21.5442 79.0572 22.6972 79.0572 24.1553C79.0572 25.6926 77.8271 26.8116 76.3806 26.8116Z" fill="#D71920"/>
<path fill-rule="evenodd" clip-rule="evenodd" d="M77.5989 25.0131C77.5989 24.6627 77.5534 24.3349 77.1433 24.2105C77.6445 24.0297 77.7014 23.7019 77.7014 23.5097C77.7014 22.7072 76.9611 22.6055 76.665 22.6055H75.2754V25.7139H75.8563V24.4366H76.3119C76.9725 24.4366 77.018 24.7418 77.018 25.0131C77.018 25.5443 77.018 25.6461 77.1433 25.7139H77.7242C77.5989 25.5896 77.6445 25.4878 77.5989 25.0131ZM76.5397 23.9845H75.8563V23.0011H76.4372C76.8472 23.0011 77.1205 23.1254 77.1205 23.5097C77.1205 23.7019 77.018 23.9845 76.5397 23.9845Z" fill="#D71920"/>
</g>
<defs>
<clipPath id="clip0_222_367">
<rect width="102.907" height="79.7904" fill="white"/>
</clipPath>
</defs>
</svg>
