<svg width="144" height="24" viewBox="0 0 144 24" fill="none" xmlns="http://www.w3.org/2000/svg">
<path d="M83.7348 10.3729C82.5414 10.3729 81.547 11.3898 81.547 12.6102C81.547 13.8305 82.5414 14.8475 83.7348 14.8475C84.9282 14.8475 85.9227 13.8305 85.9227 12.6102C85.9227 11.5932 84.9282 10.3729 83.7348 10.3729ZM5.96685 12.6102C5.96685 12.6102 7.16022 8.74576 7.35912 8.13559C7.75691 6.50848 8.55249 4.0678 8.55249 4.0678H8.75138C8.75138 4.0678 9.34807 6.50848 9.74586 8.13559C9.94475 8.74576 10.9392 12.6102 10.9392 12.6102H5.96685ZM12.7293 19.5254H16.7072L10.5414 0.406765C9.94475 0.203376 9.14917 0 8.1547 0C7.16022 0 6.96133 0.203376 6.16575 0.406765L0 19.5254H3.9779C3.9779 19.5254 4.57459 17.8983 5.17127 15.8644H11.9337C12.3315 17.8983 12.7293 19.5254 12.7293 19.5254ZM144 19.5254C144 19.5254 142.011 15.2542 141.613 14.4407C141.017 13.4237 140.619 12.6102 139.425 12.4068C140.221 12.2034 140.818 11.7966 141.414 10.3729C142.011 8.94915 142.21 8.74576 142.608 8.33898C143.006 7.9322 143.403 8.13559 143.403 8.13559L143.602 5.69491C143.006 5.69491 142.608 5.69491 142.011 5.69491C141.017 5.69491 140.619 6.10168 140.022 6.50846C139.624 6.91524 139.425 7.52542 139.028 8.13559C138.63 8.74576 138.431 9.35593 138.033 10.1695C137.635 10.9831 137.436 11.1864 136.641 11.1864H136.044V6.1017H132.464V19.5254H136.044V14.0339H136.442C137.436 14.0339 137.635 14.2373 138.232 15.4576C138.829 16.678 140.022 19.7288 140.022 19.7288H144V19.5254ZM129.68 19.5254V5.8983H126.099V10.983H122.122V5.8983H118.541V19.5254H122.122V14.0339H126.099V19.5254H129.68ZM32.6188 5.8983V18.9153C34.21 19.7288 36.1989 19.9322 37.7901 19.9322C41.5691 19.9322 43.558 17.8983 43.558 14.6441C43.558 11.7966 41.768 9.96609 38.3867 9.96609C37.5912 9.96609 36.9945 10.1695 36.1989 10.3729V5.8983H32.6188ZM39.779 14.8475C39.779 16.2712 39.3812 17.0847 37.5912 17.0847C36.9945 17.0847 36.7956 17.0847 36 16.8814V13.0169C36.9945 12.8136 36.9945 12.8136 37.5912 12.8136C39.3812 12.8136 39.779 13.6271 39.779 14.8475ZM116.751 18.3051C115.757 16.8814 115.558 16.0678 115.558 14.2373V10.5763C115.558 8.54236 115.359 7.9322 114.762 7.11864C113.967 6.1017 112.773 5.69491 110.586 5.69491C108.994 5.69491 107.602 5.8983 106.011 6.30508L106.608 8.94914C107.602 8.74575 108.597 8.74576 109.392 8.74576C111.779 8.74576 111.978 9.15254 111.978 10.7797V11.3898C111.381 11.1864 110.785 11.1864 110.188 11.1864C106.608 11.1864 104.818 13.0169 104.818 15.8644C104.818 18.5085 106.807 20.1356 109.193 20.1356C110.188 20.1356 110.983 19.9322 111.779 19.7288C112.177 19.5254 112.376 19.322 112.972 19.1186C113.37 19.7288 113.967 20.1356 114.365 20.339L116.751 18.3051ZM112.177 16.678C111.381 16.8813 110.983 17.0847 110.188 17.0847C108.994 17.0847 108.199 16.678 108.199 15.2542C108.199 13.8305 109.193 13.4237 110.785 13.4237C111.182 13.4237 111.58 13.4237 111.779 13.6271V14.6441C111.978 15.4576 112.177 16.2712 112.177 16.678ZM77.5691 18.3051C76.5746 16.8814 76.3757 16.0678 76.3757 14.2373V10.5763C76.3757 8.54236 76.1768 7.9322 75.5801 7.11864C74.7845 6.1017 73.5912 5.69491 71.4033 5.69491C69.8122 5.69491 68.4199 5.8983 66.8287 6.30508L67.4254 8.94914C68.4199 8.74575 69.4144 8.74576 70.2099 8.74576C72.5967 8.74576 72.7956 9.15254 72.7956 10.7797V11.3898C72.1989 11.1864 71.6022 11.1864 71.0055 11.1864C67.4254 11.1864 65.6354 13.0169 65.6354 15.8644C65.6354 18.5085 67.6243 20.1356 70.0111 20.1356C71.0055 20.1356 71.8011 19.9322 72.5967 19.7288C72.9945 19.5254 73.1934 19.322 73.7901 19.1186C74.1879 19.7288 74.7845 20.1356 75.1823 20.339L77.5691 18.3051ZM73.1934 16.678C72.3978 16.8813 72 17.0847 71.2044 17.0847C70.0111 17.0847 69.2155 16.678 69.2155 15.2542C69.2155 13.8305 70.21 13.4237 71.8011 13.4237C72.1989 13.4237 72.5967 13.4237 72.7956 13.6271V14.6441C72.9945 15.4576 72.9945 16.2712 73.1934 16.678ZM29.8343 19.5254V6.30508C27.8453 5.69491 26.453 5.49151 24.4641 5.49151C22.4751 5.49151 21.0829 5.69491 19.0939 6.30508V13.0169C19.0939 14.8474 19.0939 15.4576 18.895 16.0678C18.6961 16.678 18.4972 17.2881 17.7017 17.6949L18.6961 19.7288C21.4807 18.9152 22.674 17.6949 22.674 13.6271V8.74576C23.6685 8.54237 23.8674 8.54236 24.4641 8.54236C25.2597 8.54236 25.4586 8.54237 26.2541 8.74576V19.5254H29.8343ZM56.2873 24V19.1186C56.6851 19.322 57.6796 19.7288 59.0718 19.7288C62.0553 19.7288 64.2431 17.2881 64.2431 12.6102C64.2431 7.7288 62.0553 5.49151 58.4751 5.49151C57.4807 5.49151 56.884 5.49152 56.2873 5.8983V0H52.7072V5.8983C51.9116 5.49152 51.3149 5.49151 50.5193 5.49151C46.9392 5.49151 44.7514 7.7288 44.7514 12.6102C44.7514 17.2881 46.7403 19.7288 49.9227 19.7288C51.5138 19.7288 52.3094 19.322 52.7072 19.1186V24H56.2873ZM48.5304 12.8136C48.5304 10.1695 49.326 8.54236 50.9171 8.54236C51.5138 8.54236 52.1105 8.54236 52.9061 8.94914V16.4746C52.1105 16.678 51.7127 16.678 51.116 16.678C49.1271 16.8813 48.5304 15.2542 48.5304 12.8136ZM60.8619 12.6102C60.8619 15.0508 59.8674 16.678 58.2762 16.678C57.6796 16.678 57.2818 16.678 56.4862 16.4746V8.94914C57.2818 8.54236 57.8785 8.54236 58.4751 8.54236C59.8674 8.54236 60.8619 9.96609 60.8619 12.6102ZM103.624 13.6271C103.624 10.1695 101.635 7.93219 97.6575 7.93219C96.663 7.93219 95.8674 7.9322 94.8729 8.33898V3.45761C95.4696 3.45761 96.663 3.25423 98.0552 3.25423C99.2486 3.25423 100.84 3.25422 102.033 3.45761V0.610166C100.442 0.203386 98.2542 0 96.663 0C95.0718 0 92.2873 0.406769 91.0939 0.813549V18.7119C93.0829 19.5254 94.8729 19.7288 96.8619 19.7288C101.238 19.9322 103.624 17.4915 103.624 13.6271ZM99.8453 14.0339C99.8453 15.8644 98.8508 17.0847 97.0608 17.0847C96.2652 17.0847 95.6685 17.0847 94.8729 16.8814V11.3898C95.2707 11.3898 96.0663 11.1864 97.0608 11.1864C98.8508 10.9831 99.8453 12 99.8453 14.0339Z" fill="#EF002F"/>
</svg>
