<svg width="153" height="30" viewBox="0 0 153 30" fill="none" xmlns="http://www.w3.org/2000/svg">
<path d="M23.827 19.2746C24.2888 19.2746 24.5199 19.8657 24.5199 21.0478C24.469 21.8883 24.199 22.7012 23.7372 23.4056C23.1745 24.3464 22.4667 25.1923 21.6397 25.9108C20.7791 26.6698 19.8132 27.2993 18.7723 27.7806C17.8117 28.2475 16.7606 28.4977 15.6932 28.5132C14.3333 28.5132 13.4224 27.3182 12.9606 24.928C12.2954 26.0167 11.3917 26.9393 10.3177 27.6262C9.00807 28.3938 7.50331 28.7626 5.98782 28.6865C5.18169 28.7214 4.37694 28.5879 3.62506 28.2948C2.87298 28.0015 2.19004 27.5555 1.61937 26.9838C1.08446 26.4481 0.665006 25.8071 0.387023 25.1021C0.10904 24.3971 -0.0217047 23.6428 0.00293429 22.8852C0.00293429 18.5163 1.45266 15.0728 4.35211 12.5541C5.35137 11.6387 6.52213 10.9311 7.79679 10.4727C8.88727 10.1343 10.0228 9.96583 11.1646 9.9712C12.1652 9.93901 13.1581 10.16 14.0511 10.6136C14.4104 9.86886 14.8207 9.49609 15.2827 9.49609C15.7667 9.51219 16.243 9.62427 16.6833 9.82575C17.1238 10.0278 17.5198 10.3149 17.8485 10.6716C18.5223 11.2095 18.9559 11.9926 19.0546 12.85C18.5926 13.8967 18.0655 14.9137 17.4765 15.8951C17.2395 17.5417 17.1365 19.2044 17.1685 20.868C17.1685 23.0092 17.438 24.0802 17.9768 24.0802C18.6439 24.0802 20.2605 22.7437 22.8264 20.0712C23.2881 19.54 23.6218 19.2746 23.827 19.2746ZM5.66075 21.6127C5.66075 23.5916 6.39197 24.5811 7.85441 24.5811C9.41958 24.5555 10.7153 23.7203 11.7418 22.0757C12.1364 21.4287 12.4345 20.7271 12.627 19.9937C12.5847 17.5046 12.8432 15.0196 13.3968 12.5925C11.319 13.0036 9.42157 14.0551 7.97006 15.5992C7.20426 16.3972 6.60557 17.3402 6.20897 18.3727C5.81236 19.4053 5.62598 20.5073 5.66075 21.6127Z" fill="#7A8CA7"/>
<path d="M40.7996 16.7049C40.7996 15.8483 40.3122 15.4203 39.3372 15.4203C38.6699 15.4203 37.9258 16.0625 37.1048 17.3473C36.2879 18.6339 35.6898 20.0472 35.3343 21.5301V21.607C35.3405 22.5209 35.4766 23.4295 35.7385 24.3056C35.9489 24.9291 36.0846 25.5769 36.1424 26.2326C36.1424 27.0892 35.052 27.946 32.871 28.8026C32.5899 28.9198 32.29 28.9852 31.9858 28.9953C31.684 29.0035 31.3881 28.9085 31.1469 28.7265C30.9057 28.5445 30.7334 28.2864 30.6579 27.9931C30.3833 27.1142 30.2597 26.1956 30.2925 25.2754C30.2925 24.1317 30.3245 23.0607 30.3885 22.0632C30.4526 21.065 30.5168 20.1275 30.581 19.2492C30.6452 18.3926 30.7094 17.6344 30.7735 16.9745C30.8375 16.3154 30.8697 15.7821 30.8697 15.3752C30.8697 14.5184 30.4721 14.0904 29.6765 14.0904C28.8811 14.0904 27.9573 15.0219 26.9054 16.8849C25.8535 18.7477 25.3273 20.2259 25.3273 21.3177C25.318 22.3408 25.4539 23.3594 25.7315 24.3441C25.9421 24.9683 26.0778 25.6152 26.1357 26.2711C26.1357 27.1277 25.0452 27.9843 22.8642 28.8409C22.5831 28.9584 22.2832 29.0238 21.979 29.0339C21.6772 29.0412 21.3821 28.9455 21.1411 28.7634C20.9003 28.5822 20.7276 28.3241 20.6511 28.0316C20.3636 27.03 20.24 25.9886 20.2855 24.948C20.2239 22.3065 20.3656 19.6651 20.7089 17.0452C21.1043 14.6276 21.9955 12.3172 23.326 10.2608C23.4657 9.9695 23.6765 9.71754 23.9388 9.52937C24.2011 9.3408 24.5065 9.22078 24.827 9.18164C25.6824 9.18164 26.4649 9.87591 27.1749 11.263C27.3606 11.5818 27.5154 11.9174 27.6366 12.2653C28.1292 11.5649 28.7798 10.9906 29.5354 10.589C30.2909 10.1867 31.1304 9.9689 31.9858 9.95281C33.0741 9.94724 34.127 10.3375 34.9494 11.0514C35.3592 11.3823 35.688 11.8021 35.9104 12.28C36.1327 12.7579 36.243 13.2803 36.2323 13.8074V14.2312C36.891 13.3262 37.7535 12.5888 38.7498 12.0799C39.7463 11.571 40.8485 11.3042 41.967 11.302C42.5384 11.2611 43.1123 11.3358 43.6543 11.5212C44.1964 11.7065 44.6959 11.999 45.1231 12.3811C45.4744 12.7277 45.7512 13.1422 45.9366 13.5998C46.122 14.0568 46.2118 14.5474 46.2009 15.0407C46.209 15.9965 46.1316 16.9517 45.9698 17.8939C45.8158 18.7505 45.6428 19.5465 45.4502 20.2833C45.2577 21.0199 45.0846 21.6817 44.9306 22.2689C44.7993 22.7076 44.7218 23.1605 44.6997 23.6181C44.6997 23.939 44.8024 24.1001 45.0075 24.1001C45.5515 24.0246 46.0539 23.7665 46.4316 23.3675C46.9963 22.8787 47.5606 22.3456 48.1251 21.7674L49.6839 20.1678C50.1759 19.6665 50.5074 19.4163 50.678 19.4163C51.0373 19.4163 51.2171 19.8443 51.2171 20.7011C51.2171 22.5 50.3126 24.2478 48.5036 25.9435C46.9878 27.522 44.9159 28.4441 42.7304 28.5135C40.8831 28.5135 39.9593 26.8305 39.9593 23.4639C39.9971 22.2844 40.1387 21.1103 40.3827 19.9556C40.6112 18.886 40.7507 17.7981 40.7996 16.7049Z" fill="#7A8CA7"/>
<path d="M61.9682 25.1213C61.104 26.234 59.9986 27.1358 58.7349 27.7567C57.4711 28.378 56.0826 28.7029 54.6746 28.7063C51.8398 28.7063 49.7162 27.9804 48.3051 26.5279C47.6086 25.8148 47.0648 24.9661 46.7075 24.0354C46.35 23.1039 46.1865 22.1092 46.2266 21.1123C46.1452 18.2053 47.1782 15.3778 49.1132 13.2102C50.0644 12.1231 51.2452 11.2617 52.5698 10.6888C53.8949 10.1152 55.3305 9.84417 56.7721 9.89484C57.951 9.85172 59.1265 10.0349 60.2365 10.4347C61.7504 11.0513 62.5072 11.6297 62.5072 12.1688C62.5072 12.5976 61.4483 12.812 59.332 12.812C58.3432 12.7937 57.3619 12.9791 56.448 13.3572C55.5346 13.7353 54.7084 14.2975 54.0201 15.0092C53.3131 15.7331 52.7591 16.5931 52.3925 17.5367C52.0251 18.4809 51.8527 19.4893 51.8843 20.5015C51.8513 21.5652 52.2153 22.6032 52.904 23.4119C53.27 23.8131 53.7217 24.1258 54.2244 24.3279C54.7273 24.5308 55.2691 24.617 55.8104 24.5814C56.8949 24.6212 57.9685 24.3541 58.9087 23.8103C58.0271 23.2327 57.3114 22.4347 56.8321 21.495C56.3529 20.5548 56.1265 19.5068 56.1756 18.4527C56.1581 17.1969 56.6354 15.985 57.5035 15.0792C57.9409 14.5832 58.4808 14.1888 59.0854 13.9227C59.6898 13.6565 60.3458 13.5249 61.0062 13.5378C62.4297 13.5378 63.4503 13.9295 64.0656 14.7133C64.7106 15.6009 65.0361 16.6813 64.9896 17.7779C64.964 19.1414 64.6627 20.4854 64.1046 21.7289H64.3353C65.4162 21.7201 66.4542 21.3031 67.2409 20.5595C67.5489 20.2515 67.8124 19.9813 68.0301 19.75C68.1082 19.6523 68.2054 19.5714 68.3159 19.5116C68.4257 19.4522 68.547 19.415 68.6717 19.4029C69.031 19.4029 69.2102 19.8317 69.2102 20.6883C69.2595 21.3428 69.1597 21.9999 68.9205 22.6105C68.6805 23.2211 68.3057 23.7699 67.8253 24.2154C66.9834 24.9486 65.9056 25.3524 64.7909 25.3524C63.8445 25.3665 62.8995 25.289 61.9682 25.1213ZM61.6216 20.6243C62.0335 19.7832 62.2525 18.8618 62.2632 17.9256C62.2632 17.069 61.9809 16.6409 61.4168 16.6409C61.1855 16.6409 60.9935 16.8081 60.8391 17.1417C60.6935 17.4423 60.6146 17.7712 60.6086 18.1056C60.5945 18.5767 60.6774 19.045 60.8518 19.4832C61.0259 19.9207 61.288 20.3175 61.6216 20.6499V20.6243Z" fill="#7A8CA7"/>
<path d="M149.149 28.6975C151.275 28.6975 152.999 26.9714 152.999 24.8429C152.999 22.7136 151.275 20.9883 149.149 20.9883C147.024 20.9883 145.301 22.7136 145.301 24.8429C145.301 26.9714 147.024 28.6975 149.149 28.6975Z" fill="#0079F6"/>
<path d="M109.451 19.9787C109.878 19.9787 110.092 20.5698 110.092 21.7519C110.029 22.5864 109.751 23.3903 109.284 24.084C108.722 25.0257 108.013 25.8707 107.186 26.5898C106.326 27.3495 105.36 27.9792 104.319 28.4596C103.396 28.9146 102.385 29.1646 101.355 29.1916C100.574 29.2353 99.7983 29.0474 99.1231 28.6524C98.5731 28.2863 98.1302 27.7808 97.8397 27.1871C97.4125 26.3305 97.0532 24.667 96.7627 22.1954C96.6029 20.4639 96.3204 18.7465 95.9154 17.0554C95.2758 16.9401 94.6745 16.6685 94.1643 16.2655C93.927 16.097 93.7329 15.8733 93.6002 15.6138C93.4674 15.3543 93.3993 15.0664 93.4013 14.7747C93.3804 14.505 93.4458 14.2348 93.5875 14.0043C93.7289 13.7738 93.94 13.5938 94.1899 13.4899C94.7554 13.2244 95.3742 13.0931 95.9989 13.1044C96.6433 13.095 97.2775 13.2689 97.827 13.6059C98.5325 13.0398 99.1265 12.3469 99.5787 11.5623C100.062 10.5411 100.283 9.4149 100.22 8.28588C100.246 7.66852 100.135 7.05254 99.896 6.48227C99.6562 5.91279 99.2936 5.40332 98.8346 4.99002C97.949 4.16382 96.6063 3.74993 94.8061 3.74993C93.4263 3.70403 92.0473 3.8469 90.7067 4.17376C89.8682 4.41439 89.0507 4.72377 88.2627 5.09931C87.5827 5.43353 86.98 5.74151 86.4537 6.02466C86.0028 6.28695 85.4934 6.43239 84.9722 6.44868C84.5106 6.44868 84.2793 6.30105 84.2793 6.00518C84.392 5.4673 84.6439 4.96856 85.0107 4.55943C85.618 3.7843 86.3452 3.1117 87.1662 2.56766C89.5286 0.899559 92.3581 0.0246828 95.2488 0.0691918C97.8315 -0.0192302 100.393 0.571905 102.676 1.78458C103.753 2.36419 104.645 3.23489 105.251 4.29854C105.856 5.36219 106.152 6.57466 106.102 7.79807C106.198 9.78289 105.584 11.7375 104.37 13.31C103.227 14.749 101.709 15.8429 99.9825 16.4712C100.379 17.3526 100.695 18.2686 100.925 19.2083C101.169 20.1841 101.407 21.084 101.638 21.9063C101.823 22.6146 102.088 23.3001 102.426 23.9491C102.513 24.1709 102.66 24.3644 102.851 24.5072C103.041 24.6501 103.267 24.7371 103.504 24.7586C104.086 24.6873 104.629 24.423 105.043 24.0071C105.647 23.5064 106.243 22.9598 106.834 22.3686C107.423 21.7775 107.95 21.2317 108.412 20.7307C108.899 20.2294 109.245 19.9787 109.451 19.9787ZM92.7084 6.10155C93.0422 6.10155 93.2085 6.53015 93.2085 7.38675C93.2113 8.21117 93.1601 9.03539 93.0549 9.85364C92.8419 11.2577 92.5461 12.6474 92.1693 14.017C91.246 17.5118 90.7836 19.5546 90.7836 20.1458V25.8121C90.8388 26.3917 90.7174 26.9741 90.4357 27.4836C90.1541 27.9925 89.7253 28.4044 89.2057 28.6653L87.8011 29.3075C87.3226 29.5191 86.8036 29.6244 86.2804 29.6155C85.2029 29.6155 84.6642 28.376 84.6642 25.8958C84.7904 22.7003 85.3734 19.5391 86.3965 16.5095C87.2268 13.4879 88.4427 10.5856 90.0138 7.87476C90.3286 7.4259 90.7039 7.02353 91.1299 6.67978C91.5694 6.30304 92.1302 6.09817 92.7084 6.10155Z" fill="#0079F6"/>
<path d="M142.589 19.9804C143.016 19.9804 143.23 20.5716 143.23 21.7536C143.163 22.5896 142.881 23.3929 142.409 24.0858C141.847 25.0274 141.139 25.8725 140.311 26.5918C139.451 27.3507 138.485 27.9801 137.444 28.4608C136.402 28.9474 135.265 29.1974 134.115 29.1934C133.604 29.221 133.093 29.1334 132.619 28.9359C132.146 28.7398 131.724 28.4385 131.382 28.0564C130.745 27.3526 130.395 26.436 130.401 25.4864C130.42 24.4113 130.575 23.3424 130.863 22.3064C131.188 21.141 131.53 19.9164 131.889 18.631C132.864 15.2044 133.364 12.8023 133.39 11.4226C133.413 10.9554 133.335 10.4885 133.159 10.0543C133.078 9.89315 132.95 9.76122 132.791 9.67479C132.634 9.58855 132.453 9.55278 132.274 9.57245C131.504 9.57245 130.683 10.0348 129.811 10.9602C128.838 12.0284 128.009 13.2208 127.347 14.5068C125.674 17.4563 124.712 20.7562 124.538 24.1438L124.692 25.2228C124.744 25.6062 124.771 25.9925 124.769 26.3794C124.75 26.8223 124.631 27.2557 124.421 27.6465C124.211 28.0368 123.915 28.3746 123.556 28.6347C122.806 29.2938 121.841 29.6564 120.843 29.6558C120.568 29.6558 120.298 29.5729 120.069 29.4185C119.841 29.2641 119.664 29.0444 119.56 28.789C119.258 28.117 119.114 27.3858 119.137 26.649C119.188 25.4735 119.382 24.3089 119.714 23.1799C120.099 21.7153 120.526 20.1605 120.997 18.5158C122.228 14.1726 122.857 10.9346 122.883 8.8013C122.923 7.92642 122.785 7.05233 122.478 6.23129C122.35 5.93205 122.13 5.68149 121.849 5.51498C121.57 5.34906 121.244 5.27555 120.92 5.30674C119.534 5.30674 118.161 6.29608 116.802 8.27494C115.442 10.2538 114.223 13.3245 113.145 17.4879C112.863 18.5671 112.649 19.5053 112.504 20.3019L112.465 21.0339C112.829 22.5544 113.073 24.1013 113.197 25.6595C113.197 27.1506 112.671 28.1528 111.619 28.6663L110.213 29.3093C109.761 29.5155 109.268 29.6208 108.77 29.6174C107.488 29.6174 106.846 28.3906 106.846 25.9359C106.846 23.4819 107.509 18.6911 108.834 11.564C109.322 8.99404 109.566 7.55504 109.566 7.24705C109.566 5.16506 109.04 4.12447 107.988 4.12447C107.637 4.12169 107.294 4.22958 107.007 4.43245C106.711 4.63811 106.416 4.85231 106.121 5.07546C105.826 5.2978 105.52 5.53386 105.204 5.78184C104.89 5.98948 104.521 6.09658 104.145 6.09042C103.748 6.09042 103.549 5.74348 103.549 5.04982C103.55 4.35099 103.732 3.66468 104.076 3.05685C104.42 2.44883 104.914 1.94075 105.512 1.5801C106.845 0.619581 108.456 0.123616 110.098 0.166734C112.407 0.166734 113.767 1.23774 114.178 3.37894C114.28 4.02134 114.358 4.70268 114.409 5.42198C116.308 1.86722 118.707 0.0898438 121.606 0.0898438C124.783 0.0898438 126.586 1.60573 127.014 4.63811C127.172 5.56743 127.237 6.51047 127.207 7.45272V7.7607C128.874 5.44822 130.85 4.29158 133.134 4.29158C136.366 4.29158 137.983 6.24481 137.983 10.1507C137.943 12.1594 137.679 14.1571 137.194 16.1062C136.668 18.3811 136.283 20.0128 136.039 21.0022C135.831 21.7505 135.708 22.5194 135.673 23.2958C135.673 24.2718 136.014 24.7604 136.694 24.7604C137.373 24.7604 138.996 23.4239 141.562 20.7514C142.041 20.2371 142.384 19.9804 142.589 19.9804Z" fill="#0079F6"/>
<path d="M87.7686 14.8605C88.4104 14.8605 88.744 15.5029 88.744 16.7167C88.7108 18.0915 88.4191 19.4471 87.8838 20.7128C87.2679 22.2192 86.3998 23.6097 85.3186 24.8249C84.0932 26.2149 82.6179 27.3612 80.9693 28.2045C79.0349 29.1777 76.8915 29.6584 74.728 29.6051C72.402 29.6327 70.1522 28.7739 68.4348 27.2022C66.6345 25.5961 65.734 23.2808 65.734 20.2572C65.7024 17.4635 66.1358 14.6838 67.0174 12.0337C67.7757 9.74073 68.9073 7.58999 70.3658 5.66637C71.6464 3.97125 73.2539 2.55112 75.0933 1.49026C76.6219 0.560735 78.3663 0.0464961 80.1544 0C82.93 0 84.3178 1.23811 84.3178 3.71373C84.375 4.90136 84.1042 6.08145 83.5353 7.12483C83.0135 7.98163 82.4832 8.40963 81.9439 8.40963C81.5866 8.40963 81.2329 8.33333 80.9067 8.18649C80.5804 8.03886 80.2893 7.82387 80.052 7.55562C79.8283 7.29552 79.5539 7.0831 79.2465 6.9307C78.9391 6.77849 78.6043 6.68948 78.2625 6.66862C77.6209 6.66862 75.8503 6.59787 74.3559 9.00732C73.7689 9.80551 73.3342 10.7052 73.0727 11.661C72.1964 13.9121 71.761 16.3116 71.79 18.728C72.0231 20.4688 72.9278 22.0487 74.3108 23.1284C75.1318 23.6993 76.1245 23.9675 77.12 23.8867C78.8886 23.6905 80.5178 22.832 81.681 21.484C82.5539 20.5457 83.3237 19.6593 84.1507 18.7024C84.9782 17.7452 85.7097 16.865 86.3384 16.0555C86.9667 15.2459 87.4417 14.8605 87.7686 14.8605Z" fill="#0079F6"/>
</svg>
