<svg width="96" height="57" viewBox="0 0 96 57" fill="none" xmlns="http://www.w3.org/2000/svg">
<path d="M27.1472 20.6534C27.1472 21.8221 27.2747 22.7695 27.497 23.4643C27.7794 24.246 28.1193 25.006 28.5141 25.738C28.6731 25.9906 28.7364 26.2432 28.7364 26.4645C28.7364 26.78 28.5459 27.0959 28.1327 27.4119L26.1302 28.7381C25.8441 28.9278 25.5579 29.0224 25.3033 29.0224C24.9857 29.0224 24.6677 28.8644 24.3497 28.5802C23.9214 28.1229 23.5383 27.6259 23.2056 27.0959C22.8876 26.5595 22.5696 25.9589 22.2201 25.2328C19.7406 28.138 16.6251 29.5909 12.8743 29.5909C10.2043 29.5909 8.0743 28.8328 6.51655 27.3172C4.95918 25.801 4.16455 23.7799 4.16455 21.2536C4.16455 18.5694 5.11818 16.3904 7.0573 14.7482C8.99605 13.106 11.5712 12.2849 14.8453 12.2849C15.9261 12.2849 17.0387 12.3795 18.2147 12.5375C19.3911 12.6954 20.5989 12.948 21.8706 13.2323V10.9269C21.8706 8.5266 21.3617 6.85311 20.3762 5.87405C19.3592 4.89499 17.6424 4.42111 15.1948 4.42111C14.0822 4.42111 12.9381 4.54778 11.7617 4.83203C10.5857 5.11591 9.44118 5.4635 8.32855 5.90572C7.82005 6.12664 7.43868 6.25294 7.21593 6.31627C6.99355 6.3796 6.83455 6.4109 6.70743 6.4109C6.2623 6.4109 6.03993 6.09497 6.03993 5.43184V3.88427C6.03993 3.37909 6.10368 3.00021 6.2623 2.77929C6.4213 2.55799 6.70743 2.33707 7.15255 2.11615C8.26518 1.54764 9.60018 1.07376 11.1576 0.694876C12.7157 0.284327 14.3687 0.0950716 16.1169 0.0950716C19.8999 0.0950716 22.6656 0.947464 24.4457 2.65299C26.1939 4.35815 27.0842 6.94774 27.0842 10.4218V20.6534H27.1479H27.1472ZM14.2412 25.4537C15.2904 25.4537 16.3712 25.2645 17.5153 24.8852C18.6598 24.5063 19.6772 23.8115 20.5352 22.8642C21.0441 22.2643 21.4254 21.6012 21.6159 20.8431C21.8068 20.0853 21.9339 19.1692 21.9339 18.0955V16.7692C20.9699 16.5361 19.9935 16.3569 19.0093 16.2324C18.0183 16.1074 17.0203 16.044 16.0213 16.0428C13.8913 16.0428 12.3339 16.4533 11.2851 17.3061C10.2358 18.1589 9.7273 19.3588 9.7273 20.9377C9.7273 22.4219 10.1087 23.5273 10.9033 24.2854C11.6664 25.0749 12.7791 25.4537 14.2412 25.4537ZM39.7671 28.8644C39.1948 28.8644 38.8134 28.7698 38.5592 28.5485C38.3049 28.3592 38.0822 27.917 37.8917 27.3172L30.4217 2.90558C30.2304 2.27374 30.1352 1.86319 30.1352 1.64227C30.1352 1.13709 30.3894 0.852464 30.8983 0.852464H34.0134C34.6172 0.852464 35.0308 0.947464 35.2532 1.16839C35.5074 1.35801 35.6983 1.80023 35.8888 2.40003L41.2292 23.3064L46.1882 2.40003C46.3472 1.76856 46.5381 1.35801 46.7919 1.16839C47.0466 0.97913 47.4917 0.852836 48.0639 0.852836H50.6068C51.2106 0.852836 51.6242 0.947464 51.8781 1.16839C52.1327 1.35801 52.3551 1.80023 52.4822 2.40003L57.5049 23.559L63.0039 2.40003C63.1944 1.76856 63.4172 1.35801 63.6396 1.16839C63.8938 0.97913 64.3071 0.852836 64.8793 0.852836H67.8354C68.3443 0.852836 68.6304 1.10542 68.6304 1.64227C68.6304 1.80023 68.5986 1.95819 68.5667 2.14744C68.5348 2.33707 68.4714 2.58966 68.3443 2.93725L60.6831 27.3485C60.4926 27.9804 60.2702 28.3909 60.0156 28.5802C59.7613 28.7698 59.3481 28.8961 58.8081 28.8961H56.0743C55.4702 28.8961 55.0569 28.8015 54.8023 28.5802C54.5481 28.3592 54.3257 27.9487 54.1986 27.3172L49.2711 6.94774L44.3758 27.2852C44.2172 27.917 44.0263 28.3276 43.772 28.5485C43.5178 28.7698 43.0727 28.8644 42.5008 28.8644H39.7667H39.7671ZM80.6147 29.7172C78.9617 29.7172 77.3087 29.5276 75.7194 29.1487C74.1298 28.7698 72.8904 28.3589 72.0639 27.8857C71.5551 27.6011 71.2052 27.2856 71.0784 27.0013C70.9546 26.7226 70.8897 26.4215 70.8876 26.1169V24.5063C70.8876 23.8432 71.1418 23.5273 71.6188 23.5273C71.8135 23.528 72.0067 23.5601 72.1911 23.6223C72.3816 23.6856 72.6677 23.8115 72.9857 23.9378C74.1084 24.4285 75.2805 24.799 76.4822 25.0432C77.7273 25.2942 78.9946 25.4212 80.2652 25.4221C82.2677 25.4221 83.8254 25.0749 84.9062 24.3801C85.9869 23.6852 86.5592 22.6749 86.5592 21.3799C86.5592 20.4959 86.2731 19.7694 85.7008 19.1692C85.1286 18.5694 84.0478 18.0326 82.4904 17.527L77.8809 16.1061C75.5604 15.3796 73.8441 14.306 72.7948 12.8847C71.7459 11.4951 71.2056 9.94788 71.2056 8.30568C71.2056 6.97941 71.4917 5.81072 72.0639 4.79999C72.6358 3.78964 73.3989 2.90558 74.3526 2.21078C75.3062 1.48431 76.3869 0.947464 77.6586 0.568581C78.9298 0.189699 80.2648 0.0317383 81.6636 0.0317383C82.3629 0.0317383 83.0942 0.0634049 83.7936 0.158032C84.5248 0.25266 85.1923 0.378954 85.8598 0.505248C86.4954 0.663209 87.0996 0.82117 87.6718 1.0108C88.2441 1.20005 88.6888 1.38968 89.0068 1.57893C89.4519 1.8319 89.7696 2.08448 89.9604 2.36874C90.1513 2.62133 90.2466 2.96854 90.2466 3.41076V4.89499C90.2466 5.55813 89.9923 5.90572 89.5153 5.90572C89.2611 5.90572 88.8478 5.77905 88.3078 5.52646C86.4954 4.70537 84.4611 4.29482 82.2043 4.29482C80.3923 4.29482 78.9617 4.57907 77.9762 5.17925C76.9911 5.77905 76.4822 6.69515 76.4822 7.98976C76.4822 8.87419 76.8002 9.63195 77.4358 10.2321C78.0718 10.8319 79.2478 11.4321 80.9327 11.969L85.4466 13.3902C87.7352 14.1167 89.3882 15.1271 90.3737 16.4217C91.3592 17.7166 91.8362 19.2009 91.8362 20.8431C91.8362 22.201 91.5497 23.4327 91.0093 24.5063C90.4374 25.58 89.6743 26.5274 88.6888 27.2856C87.7033 28.075 86.5273 28.6435 85.1604 29.0541C83.7298 29.4963 82.2358 29.7172 80.6147 29.7172Z" fill="#252F3E"/>
<path d="M86.6223 45.065C76.1643 52.7392 60.9693 56.813 47.9047 56.813C29.5945 56.813 13.0968 50.0863 0.635917 38.9068C-0.349583 38.0227 0.540292 36.8228 1.71629 37.5172C15.1945 45.2863 31.8198 49.9916 49.0173 49.9916C60.6198 49.9916 73.3668 47.5917 85.0968 42.6651C86.845 41.8753 88.339 43.8021 86.6223 45.065ZM90.9775 40.1385C89.6425 38.4333 82.1403 39.3174 78.739 39.7279C77.7217 39.8546 77.5627 38.9701 78.4848 38.307C84.4608 34.1382 94.2835 35.3385 95.4277 36.7278C96.5722 38.149 95.1097 47.9072 89.515 52.5812C88.657 53.3077 87.8305 52.9288 88.2119 51.9814C89.4832 48.8546 92.3125 41.8123 90.9775 40.1385Z" fill="#FF9900"/>
</svg>
