<svg width="146" height="27" viewBox="0 0 146 27" fill="none" xmlns="http://www.w3.org/2000/svg">
<g clip-path="url(#clip0_222_318)">
<path d="M98.8066 18.9409H111.931V16.0326H103.281C104.474 11.2601 111.782 10.2162 111.782 4.92165C111.782 2.08797 109.843 0 105.742 0C103.206 0 100.969 0.745704 99.4778 1.49141L100.373 4.17594C101.715 3.50481 103.281 2.90825 105.22 2.90825C106.711 2.90825 108.128 3.57938 108.128 5.2945C108.128 9.17216 99.5523 9.47045 98.8066 18.9409ZM112.304 14.3175H120.73V18.9409H124.086V14.3175H126.92V11.4838H124.086V0H121.625L112.304 12.0804V14.3175ZM116.107 11.633L120.879 5.21993C120.879 5.74192 120.73 7.38247 120.73 8.87388V11.5584H118.493C117.822 11.5584 116.554 11.633 116.107 11.633Z" fill="#005893"/>
<path d="M3.50481 16.1069V10.2158H4.92165C6.18935 10.2158 7.23333 10.3649 7.97904 10.8124C8.72474 11.2598 9.17217 12.0055 9.17217 13.1986C9.17217 15.212 7.97904 16.1069 5.14536 16.1069H3.50481ZM0.0745704 18.9405H5.07079C10.6636 18.9405 12.677 16.4797 12.677 13.0495C12.677 10.7378 11.7076 9.17181 9.99244 8.27697C8.65017 7.53126 6.93505 7.30755 4.84708 7.30755H3.50481V2.83333H11.0364L11.9313 0.0742188H0V18.9405H0.0745704ZM14.9887 18.9405H18.2698L22.5203 12.8258C23.3406 11.7072 23.9371 10.5887 24.31 9.99209H24.3845C24.31 10.8124 24.2354 11.8563 24.2354 12.9003V18.866H27.5911V5.44329H24.31L20.0595 11.5581C19.3137 12.6766 18.6426 13.7952 18.2698 14.3917H18.1952C18.2698 13.5715 18.3443 12.5275 18.3443 11.4835V5.51786H14.9887V18.9405ZM33.333 18.9405H36.7632V8.27697H40.79L41.6849 5.44329H29.2316V8.27697H33.333V18.9405ZM42.878 25.7265H46.2337V18.9405C46.9048 19.1643 47.5759 19.2388 48.3217 19.2388C52.5722 19.2388 55.3313 16.3306 55.3313 12.1546C55.3313 7.82955 52.7959 5.07044 47.9488 5.07044C46.0845 5.07044 44.2948 5.44329 42.8034 5.89071V25.7265H42.878ZM46.2337 16.0323V8.12783C46.7557 7.97869 47.2031 7.90412 47.7997 7.90412C50.2605 7.90412 51.8265 9.24638 51.8265 12.1546C51.8265 14.7646 50.5588 16.4051 48.0234 16.4051C47.3522 16.4051 46.8302 16.256 46.2337 16.0323ZM57.3447 18.9405H60.6258L64.8763 12.8258C65.6966 11.7072 66.2931 10.5887 66.666 9.99209H66.7406C66.666 10.8124 66.5914 11.8563 66.5914 12.9003V18.866H69.9471V5.44329H66.666L62.4155 11.5581C61.6698 12.6766 60.9986 13.7952 60.6258 14.3917H60.5512C60.6258 13.5715 60.7003 12.5275 60.7003 11.4835V5.51786H57.3447V18.9405ZM72.6316 18.9405H76.0619V13.3478H78.0753C78.4481 13.3478 78.821 13.7206 79.2684 14.6155L80.9835 18.9405H84.6375L82.1766 13.7952C81.7292 12.9003 81.2818 12.3783 80.6107 12.1546V12.0801C81.7292 11.4089 81.8783 9.4701 82.5495 8.50068C82.7732 8.2024 83.0715 8.05326 83.5189 8.05326C83.7426 8.05326 84.0409 8.05326 84.2646 8.2024V5.29415C83.8918 5.14501 83.2206 5.07044 82.8478 5.07044C81.6546 5.07044 80.9089 5.51786 80.3869 6.26357C79.2684 7.90412 79.2684 10.7378 77.6278 10.7378H76.0619V5.44329H72.6316V18.9405ZM92.2436 19.2388C94.1079 19.2388 95.823 18.6423 96.867 17.8966L95.8976 15.5849C94.9282 16.1069 94.0333 16.4797 92.7656 16.4797C90.454 16.4797 88.9625 14.9883 88.9625 12.2292C88.9625 9.76838 90.454 7.82954 92.9893 7.82954C94.3316 7.82954 95.301 8.2024 96.2705 8.87353V5.96528C95.5247 5.51786 94.3316 5.07044 92.6165 5.07044C88.5897 5.07044 85.4577 8.05326 85.4577 12.3038C85.4577 16.1814 87.844 19.2388 92.2436 19.2388Z" fill="#0BBBEF"/>
<path d="M138.029 14.3185C141.683 14.3185 144.666 11.3356 144.666 7.68169C144.666 4.02774 141.683 1.04492 138.029 1.04492C134.375 1.04492 131.393 4.02774 131.393 7.68169C131.467 11.3356 134.375 14.3185 138.029 14.3185Z" stroke="#005893" stroke-width="1.7688"/>
<path d="M142.205 7.6813H138.551V4.02734H137.582V8.65071H142.205V7.6813Z" fill="#005893"/>
</g>
<defs>
<clipPath id="clip0_222_318">
<rect width="145.412" height="26.0997" fill="white"/>
</clipPath>
</defs>
</svg>
