<svg width="100" height="83" viewBox="0 0 100 83" fill="none" xmlns="http://www.w3.org/2000/svg">
<path d="M65.7743 38.681C69.0453 34.5549 71.0098 29.2789 71.0098 23.5196C71.0098 17.7655 69.0453 12.4841 65.7743 8.36328L51.1465 23.5248L65.7743 38.681Z" fill="#1F282C"/>
<path d="M62.0533 41.5407L47.4872 27.1797L32.9261 41.5407L28.1465 46.2497C33.3442 50.6532 40.1008 53.3157 47.4872 53.3157C54.8733 53.3157 61.63 50.6532 66.8277 46.2497L62.0533 41.5407ZM47.451 34.1031L53.4591 40.0644H41.4429L47.451 34.1031Z" fill="#3CB0CB"/>
<path d="M47.6363 0C34.5617 0 23.9668 10.5949 23.9668 23.6695C23.9668 29.3688 25.9836 34.5998 29.3361 38.6812L62.648 5.37463C58.5613 2.01681 53.3356 0 47.6363 0Z" fill="#1F282C"/>
<path d="M8.0848 66.0939C11.9162 66.0939 13.8886 68.2411 13.8886 68.2411L12.5165 70.3678C12.5165 70.3678 10.7225 68.7076 8.21861 68.7076C4.8982 68.7076 2.94646 71.1876 2.94646 74.11C2.94646 77.1012 4.96343 79.7355 8.23921 79.7355C10.9627 79.7355 12.8012 77.7425 12.8012 77.7425L14.307 79.8007C14.307 79.8007 12.1358 82.3458 8.12599 82.3458C3.32042 82.3458 0 78.7785 0 74.1512C0 69.5926 3.45413 66.0939 8.0848 66.0939Z" fill="#1F282C"/>
<path d="M22.3015 74.9978H22.6789V74.8434C22.6789 73.3582 21.7493 72.8505 20.5077 72.8505C18.8921 72.8505 17.4068 73.9344 17.4068 73.9344L16.3435 71.9176C16.3435 71.9176 18.0928 70.5215 20.7718 70.5215C23.7388 70.5215 25.4676 72.1612 25.4676 75.0184V82.0845H22.8744V81.1549C22.8744 80.7124 22.919 80.3556 22.919 80.3556H22.8744C22.8984 80.3556 22.0101 82.3485 19.4409 82.3485C17.4239 82.3485 15.6094 81.0863 15.6094 78.8258C15.6128 75.2413 20.463 74.9978 22.3015 74.9978ZM20.1543 80.1567C21.6396 80.1567 22.7029 78.5617 22.7029 77.1897V76.9221H22.2158C20.7752 76.9221 18.4495 77.121 18.4495 78.6955C18.4495 79.4502 19.0018 80.1567 20.1543 80.1567Z" fill="#1F282C"/>
<path d="M28.1758 66.3613H30.9644V78.1438C30.9644 79.3855 31.3863 79.6943 32.117 79.6943C32.3365 79.6943 32.5388 79.6737 32.5388 79.6737V82.1331C32.5388 82.1331 32.117 82.1982 31.6539 82.1982C30.1035 82.1982 28.1758 81.8003 28.1758 78.5657V66.3613Z" fill="#1F282C"/>
<path d="M34.4668 66.3613H37.2589V78.1438C37.2589 79.3855 37.6808 79.6943 38.4113 79.6943C38.6343 79.6943 38.8333 79.6737 38.8333 79.6737V82.1331C38.8333 82.1331 38.4113 82.1982 37.9483 82.1982C36.3979 82.1982 34.4701 81.8003 34.4701 78.5657V66.3613H34.4668Z" fill="#1F282C"/>
<path d="M41.3323 73.2045H39.8711V70.968H41.3975V67.7129H44.1451V70.968H46.7142V73.2045H44.1451V77.5882C44.1451 79.4473 45.6063 79.7149 46.3815 79.7149C46.6902 79.7149 46.8926 79.6703 46.8926 79.6703V82.1297C46.8926 82.1297 46.5598 82.1949 46.0282 82.1949C44.4572 82.1949 41.3323 81.7283 41.3323 77.9415V73.2045Z" fill="#1F282C"/>
<path d="M54.5567 70.5215C58.0108 70.5215 60.7789 72.9809 60.7789 76.435C60.7789 79.9132 58.0108 82.3485 54.5773 82.3485C51.1231 82.3485 48.3516 79.9132 48.3516 76.435C48.355 72.9809 51.1231 70.5215 54.5567 70.5215ZM54.5773 79.9577C56.3918 79.9577 57.9216 78.5412 57.9216 76.435C57.9216 74.3529 56.3918 72.9123 54.5773 72.9123C52.7387 72.9123 51.2123 74.3529 51.2123 76.435C51.2123 78.5412 52.7422 79.9577 54.5773 79.9577Z" fill="#1F282C"/>
<path d="M62.9507 70.7891H65.7631V77.4779C65.7631 78.8499 66.1164 79.7829 67.5131 79.7829C69.5507 79.7829 70.6787 77.9889 70.6787 75.972V70.7891H73.492V82.0845H70.7885V80.8017C70.7885 80.3591 70.8334 80.0024 70.8334 80.0024H70.7885C70.2365 81.1755 68.7959 82.3486 66.8681 82.3486C64.4531 82.3486 62.9473 81.131 62.9473 78.0541V70.7891H62.9507Z" fill="#1F282C"/>
<path d="M81.8469 70.5215C84.794 70.5215 86.1865 72.2057 86.1865 72.2057L84.9445 74.1334C84.9445 74.1334 83.7716 72.9157 81.9974 72.9157C79.916 72.9157 78.5642 74.4902 78.5642 76.4144C78.5642 78.3182 79.9369 79.9577 82.0873 79.9577C83.9911 79.9577 85.4108 78.5171 85.4108 78.5171L86.4949 80.51C86.4949 80.51 84.8797 82.3485 81.8438 82.3485C78.1011 82.3485 75.707 79.7142 75.707 76.435C75.7102 73.2245 78.1053 70.5215 81.8469 70.5215Z" fill="#1F282C"/>
<path d="M88.6035 66.3613H91.4157V71.8084C91.4157 72.3606 91.3718 72.762 91.3718 72.762H91.4157C91.9677 71.678 93.3435 70.5254 95.3163 70.5254C97.817 70.5254 99.2367 71.8324 99.2367 74.8235V82.0884H96.4443V75.3997C96.4443 74.0277 96.091 73.0946 94.6503 73.0946C93.1658 73.0946 92.0158 74.0689 91.5945 75.4409C91.4607 75.8833 91.4157 76.3704 91.4157 76.9021V82.085H88.6035V66.3613Z" fill="#1F282C"/>
</svg>
