<svg width="110" height="31" viewBox="0 0 110 31" fill="none" xmlns="http://www.w3.org/2000/svg">
<path fill-rule="evenodd" clip-rule="evenodd" d="M16.8224 23.1525H12.0485C4.60217 23.1525 10.012 7.38989 16.2811 7.38989H23.8235C25.0324 7.38989 27.1646 7.61155 28.215 4.63059L29.838 0H19.4953C13.8944 0 9.53454 1.96617 6.38414 5.26501C0.942172 10.9104 -0.903222 19.7273 0.40133 23.9452C1.64247 27.8465 5.01573 30.4152 10.2983 30.4786L14.4035 30.5105H19.4636L20.7048 26.7998C21.6275 24.1673 19.5588 23.1525 16.8224 23.1525V23.1525ZM74.9311 16.6192L76.4906 11.5763H59.8472C57.0787 11.5763 55.8375 12.3375 55.3601 13.9233L53.8005 18.9662H70.4444C73.213 18.9662 74.4541 18.2049 74.9311 16.6192V16.6192ZM51.3187 25.4995L49.7591 30.542H66.4026C69.1394 30.542 70.4123 29.7812 70.8897 28.1954L72.4493 23.1525H55.8054C53.069 23.1525 51.8278 23.9137 51.3187 25.4995ZM78.8139 5.07436L80.373 0.0319223H63.7296C60.961 0.0319223 59.7199 0.79267 59.2425 2.37847L57.6829 7.42136H74.3268C77.0637 7.42136 78.3043 6.66016 78.8139 5.07436ZM53.6732 6.0896C52.9734 1.39561 50.4594 0.0319223 44.3493 0.0319223H33.2112L26.7193 18.9662H30.8246C33.2747 18.9662 34.5158 18.9976 35.8208 15.5091L38.5255 7.38989H42.6625C46.1952 7.38989 45.3993 11.7984 43.6173 16.0796C42.026 19.8541 39.2575 23.184 35.9159 23.184H29.0104C26.2419 23.184 24.969 23.9452 24.4599 25.531L22.7413 30.5739H27.801L32.7655 30.542C37.1571 30.5105 40.7532 30.1935 44.954 26.419C49.409 22.3913 54.5647 12.052 53.6732 6.0896V6.0896ZM109.619 0H99.9762L90.9064 9.60964C89.8564 10.7197 88.7743 11.8298 87.7243 13.1301H87.6287L92.1475 0H84.2872L73.6904 30.542H81.5503L84.9236 20.9323L88.4241 17.9828L91.1931 26.673C92.052 29.3689 92.9434 30.542 94.8527 30.542H100.867L94.6937 13.479L109.619 0Z" fill="#00B33C"/>
</svg>
