<svg width="61" height="68" viewBox="0 0 61 68" fill="none" xmlns="http://www.w3.org/2000/svg">
<path d="M8.60891 65.7912C6.978 65.7912 5.59293 65.5796 4.45369 65.1562C3.32644 64.7329 2.46902 64.1215 1.88141 63.3219C1.2938 62.5105 1 61.5228 1 60.3587C1 59.1945 1.2938 58.2127 1.88141 57.4131C2.46902 56.6017 3.32644 55.9844 4.45369 55.5611C5.59293 55.1377 6.978 54.9261 8.60891 54.9261C8.6329 54.9261 8.69885 54.9261 8.80678 54.9261C8.9267 54.9261 9.04062 54.9261 9.14855 54.9261C9.26847 54.9261 9.33443 54.9261 9.34642 54.9261C10.9653 54.9261 12.3324 55.1377 13.4477 55.5611C14.5749 55.9844 15.4264 56.6017 16.002 57.4131C16.5776 58.2244 16.8654 59.2063 16.8654 60.3587C16.8654 61.4993 16.5776 62.4811 16.002 63.3042C15.4383 64.1156 14.6049 64.7329 13.5016 65.1562C12.4104 65.5796 11.0733 65.7912 9.49032 65.7912C9.45435 65.7912 9.3704 65.7912 9.23849 65.7912C9.10658 65.7912 8.97467 65.7912 8.84276 65.7912C8.72284 65.7912 8.64489 65.7912 8.60891 65.7912ZM8.87873 63.5864C8.91471 63.5864 8.96268 63.5864 9.02264 63.5864C9.0826 63.5864 9.12457 63.5864 9.14855 63.5864C10.2518 63.5864 11.1632 63.4689 11.8827 63.2337C12.6142 62.9867 13.1599 62.6281 13.5196 62.1577C13.8794 61.6756 14.0593 61.0701 14.0593 60.341C14.0593 59.612 13.8734 59.0123 13.5016 58.5419C13.1299 58.0716 12.5843 57.7247 11.8647 57.5013C11.1572 57.2661 10.2638 57.1485 9.18453 57.1485C9.16054 57.1485 9.11258 57.1485 9.04062 57.1485C8.98066 57.1485 8.9267 57.1485 8.87873 57.1485C7.73949 57.1485 6.79812 57.2602 6.05462 57.4836C5.31112 57.707 4.75349 58.0598 4.38174 58.5419C4.00999 59.0123 3.82411 59.6178 3.82411 60.3587C3.82411 61.0995 4.02198 61.7109 4.41771 62.193C4.81345 62.6634 5.38307 63.0161 6.12657 63.2513C6.88207 63.4747 7.79945 63.5864 8.87873 63.5864ZM7.60159 67.1141V53.6914H10.2818V67.1141H7.60159Z" fill="#010004"/>
<path d="M19.0454 66.5673V54.2206H21.9415V62.2636L27.9495 54.2206H30.6837V66.5673H27.8056V58.5419L21.7976 66.5673H19.0454Z" fill="#010004"/>
<path d="M32.3977 66.5673L38.01 54.2206H40.888L46.5183 66.5673H43.4603L38.8554 55.6669H40.0066L35.3837 66.5673H32.3977ZM35.2038 63.9216L35.9773 61.7521H42.453L43.2445 63.9216H35.2038Z" fill="#010004"/>
<path d="M53.9664 66.779C52.9951 66.779 52.0897 66.6261 51.2502 66.3204C50.4228 66.0029 49.7033 65.556 49.0917 64.9799C48.4801 64.4037 48.0004 63.7275 47.6526 62.9515C47.3169 62.1754 47.149 61.3229 47.149 60.3939C47.149 59.465 47.3169 58.6125 47.6526 57.8364C48.0004 57.0603 48.4801 56.3842 49.0917 55.808C49.7153 55.2318 50.4408 54.7909 51.2682 54.4851C52.0957 54.1676 53.0011 54.0089 53.9844 54.0089C55.0757 54.0089 56.059 54.197 56.9344 54.5733C57.8218 54.9378 58.5653 55.4787 59.1649 56.196L57.2942 57.8893C56.8625 57.4072 56.3828 57.0485 55.8552 56.8134C55.3275 56.5664 54.7519 56.443 54.1283 56.443C53.5407 56.443 53.0011 56.537 52.5094 56.7252C52.0177 56.9133 51.592 57.1838 51.2323 57.5365C50.8725 57.8893 50.5907 58.3067 50.3868 58.7888C50.1949 59.271 50.099 59.806 50.099 60.3939C50.099 60.9819 50.1949 61.5169 50.3868 61.999C50.5907 62.4811 50.8725 62.8986 51.2323 63.2513C51.592 63.6041 52.0177 63.8745 52.5094 64.0627C53.0011 64.2508 53.5407 64.3449 54.1283 64.3449C54.7519 64.3449 55.3275 64.2273 55.8552 63.9921C56.3828 63.7452 56.8625 63.3748 57.2942 62.8809L59.1649 64.5742C58.5653 65.2915 57.8218 65.8383 56.9344 66.2145C56.059 66.5908 55.0697 66.779 53.9664 66.779Z" fill="#010004"/>
<path d="M27.4806 0.151901C24.5213 0.516119 20.7881 1.95022 18.2841 3.63473C16.7817 4.65909 14.05 7.3452 12.9346 8.91589C11.2273 11.3061 10.0209 14.1743 9.40625 17.2474L9.15585 18.5221L7.97214 18.8863C3.89745 20.1611 0.619492 24.213 0.0959294 28.5836C-0.609743 34.4339 2.62269 39.5785 8.31359 41.6272V41.6272C9.26231 41.9735 10.2644 42.1508 11.2744 42.1508H29.8935H48.2535C49.4374 42.1508 50.6147 41.9743 51.7466 41.6272V41.6272C55.7302 40.3752 58.8033 37.1883 59.8504 33.273C60.2146 31.9299 60.2602 28.6747 59.9187 27.2406C59.0764 23.5984 55.7985 20.0018 52.2929 18.8863C51.1547 18.5449 51.0637 18.4538 50.9271 17.7026C50.6994 16.1775 49.6523 13.0361 48.9011 11.5337C44.9858 3.74855 36.1763 -0.917988 27.4806 0.151901ZM34.1275 6.8444C37.0868 8.32404 38.9762 11.0557 39.181 14.1743C39.3176 16.223 39.0217 17.475 37.5648 21.2082C36.4494 24.0765 31.191 34.7753 30.3943 35.8452C29.9845 36.3688 29.9618 36.346 26.9115 30.2682C23.8611 24.2586 21.7897 19.4099 21.2433 17.0197C20.3328 13.1044 22.2222 8.91589 25.7505 7.02651C27.5716 6.04767 28.5277 5.8428 30.6675 5.95662C32.1699 6.02491 32.7389 6.16149 34.1275 6.8444Z" fill="#8E6ED6"/>
<path d="M29.0511 9.28016C26.3423 9.78096 24.4984 11.7842 24.2708 14.4703C24.0431 16.9743 25.1358 19.0002 27.3666 20.275C28.4137 20.8441 28.869 20.9579 30.121 20.9579C31.373 20.9579 31.8283 20.8441 32.8754 20.275C35.129 19.0002 36.1989 16.9743 35.9713 14.4247C35.7892 12.285 34.5599 10.5777 32.625 9.75819C31.3275 9.1891 30.2576 9.05252 29.0511 9.28016Z" fill="#8E6ED6"/>
</svg>
