<svg width="133" height="50" viewBox="0 0 133 50" fill="none" xmlns="http://www.w3.org/2000/svg">
<path d="M49.9287 29.9386L52.8372 37.5754H47.2016L49.9299 29.9386H49.9287ZM48.8374 27.3809L42.4746 44.1038H44.8375L46.4732 39.5607H53.5619L55.1977 44.1038H57.5606L51.1978 27.3809H48.8349H48.8374ZM83.1845 44.1184H85.3769V27.393H83.1845V44.116V44.1184ZM60.8345 34.2893C61.5616 33.198 63.0269 32.2893 64.4702 32.2893C67.3787 32.2893 68.833 34.2893 68.833 37.1978V44.2865H66.6406V37.5608C66.6406 35.1979 65.3678 34.288 63.7321 34.288C61.9136 34.288 60.6421 36.1065 60.6421 37.7422V44.105H58.4497V32.4866H60.6421L60.8248 34.3051L60.8345 34.2893ZM70.6515 40.6642C70.6515 38.1064 73.0143 36.6643 75.7426 36.6643C77.3784 36.6643 78.4709 37.0297 78.8326 37.3915V37.0261C78.8326 35.2076 77.3784 34.2978 75.9241 34.2978C74.6513 34.2978 73.5612 34.8434 73.1958 35.9335L71.1959 35.0249C71.5613 33.9336 73.0143 32.2966 75.9217 32.2966C78.6499 32.2966 81.0128 33.9324 81.0128 37.2051V44.1135H79.0129V42.4778H78.8302C78.2846 43.3864 77.0118 44.4777 75.0131 44.4777C72.6502 44.4777 70.6502 43.0234 70.6502 40.6605M78.8302 39.2063C78.8302 39.2063 77.9216 38.4791 76.1019 38.4791C73.9096 38.4791 73.0119 39.7519 73.0119 40.6715C73.0119 41.9443 74.2847 42.49 75.3748 42.49C77.0105 42.49 78.829 41.0357 78.829 39.2172" fill="#757575"/>
<path fill-rule="evenodd" clip-rule="evenodd" d="M88.4677 49.2097L91.0255 43.2111L86.4824 32.6671H88.6748L92.129 40.6656L95.5832 32.6671H97.7756L90.6869 49.2097H88.4945H88.4677ZM120.464 36.4818C119.919 35.0275 118.646 34.1189 117.374 34.1189C115.556 34.1189 113.92 35.7546 113.92 38.1187C113.92 40.4829 115.556 42.1186 117.374 42.1186C118.647 42.1186 119.932 41.21 120.464 39.9262L122.283 41.0175C121.374 43.0175 119.554 44.2903 117.374 44.2903C114.284 44.2903 111.739 41.562 111.739 38.109C111.739 34.4733 114.296 31.9277 117.374 31.9277C119.567 31.9277 121.374 33.2005 122.283 35.2005L120.464 36.4733V36.4818Z" fill="#757575"/>
<path d="M128.281 44.4817C131.189 44.4817 132.643 42.8459 132.643 40.846C132.643 36.4832 126.281 38.1177 126.281 35.5745C126.281 34.6659 127.008 34.1203 128.281 34.1203C129.553 34.1203 130.838 34.6659 131.371 35.5745L132.643 34.3017C131.916 33.3931 129.915 32.1094 128.1 32.1094C125.372 32.1094 123.919 33.7451 123.919 35.7451C123.919 39.9264 130.463 38.4733 130.463 40.6535C130.463 41.7448 129.736 42.472 128.271 42.472C126.806 42.472 126.079 41.5634 125.362 40.6535L123.747 41.9385C124.839 43.0298 126.476 44.4963 128.29 44.4963L128.281 44.4817ZM107.557 44.1187H109.749V32.4845H107.557V44.1187V44.1187Z" fill="#757575"/>
<path fill-rule="evenodd" clip-rule="evenodd" d="M108.465 26.8594C109.374 26.8594 109.919 27.5865 109.919 28.3136C109.919 29.2223 109.192 29.7679 108.465 29.7679C107.738 29.7679 107.011 29.0408 107.011 28.3136C107.011 27.5865 107.738 26.8594 108.465 26.8594ZM105.375 42.3119L105.741 43.9477H103.548C101.548 43.9477 100.64 42.4934 100.64 40.312V34.6545H98.4473V32.4621H100.64V29.0298H102.832V32.484H105.39V34.6764H102.832V40.675C102.832 42.3107 104.105 42.3107 105.39 42.3107L105.375 42.3119Z" fill="#757575"/>
<path d="M53.5279 8.90468V11.633H59.8906C59.7079 13.0872 59.1635 14.1907 58.4364 14.9057C57.5278 15.8143 56.0735 16.9056 53.5279 16.9056C49.7107 16.9056 46.6195 13.8156 46.6195 9.81695C46.6195 5.99979 49.7095 2.72828 53.5279 2.72828C55.7203 2.72828 57.1636 3.6369 58.2537 4.54674L60.0721 2.72828C58.4364 1.27401 56.4364 0 53.5279 0C48.2565 0 43.7109 4.36282 43.7109 9.62207C43.7109 14.8813 48.254 19.2441 53.5279 19.2441C56.4364 19.2441 58.6191 18.3355 60.2536 16.5159C62.072 14.6974 62.6165 12.3345 62.6165 10.3346C62.6165 9.78894 62.6165 9.0618 62.4338 8.69884H53.5267L53.5279 8.90468ZM69.7052 6.71231C66.251 6.71231 63.5239 9.27008 63.5239 12.8936C63.5239 16.5171 66.2522 19.0748 69.7052 19.0748C70.5189 19.0822 71.326 18.9273 72.0792 18.6192C72.8325 18.3112 73.5168 17.8561 74.0923 17.2807C74.6677 16.7053 75.1228 16.0209 75.4308 15.2677C75.7388 14.5144 75.8937 13.7074 75.8864 12.8936C75.8864 9.2579 73.1581 6.71231 69.7052 6.71231ZM69.7052 16.6998C67.8867 16.6998 66.251 15.064 66.251 12.8826C66.251 10.7012 67.8867 9.07764 69.7052 9.07764C71.5236 9.07764 73.1606 10.5392 73.1606 12.8899C73.1606 15.2406 71.5248 16.7071 69.7064 16.7071L69.7052 16.6998ZM99.5092 7.98389C98.7821 7.25675 97.6908 6.52961 96.055 6.52961C92.965 6.52961 90.2379 9.2579 90.2379 12.7109C90.2379 16.1639 92.9662 18.8921 96.055 18.8921C97.5093 18.8921 98.7833 18.165 99.3277 17.4379H99.5104V18.3465C99.5104 20.7094 98.2376 21.9822 96.2377 21.9822C94.602 21.9822 93.5094 20.7094 93.1477 19.7898L90.7848 20.6984C91.5119 22.3342 93.3426 24.3341 96.2389 24.3341C99.5117 24.3341 102.238 22.5157 102.238 17.7899V6.51987H99.6797V7.97414L99.5092 7.98389ZM96.4192 16.7095C94.6007 16.7095 93.1465 15.0738 93.1465 12.8924C93.1465 10.711 94.6007 9.0752 96.4192 9.0752C98.2376 9.0752 99.6919 10.711 99.6919 12.8924C99.6919 15.0738 98.2376 16.7095 96.4192 16.7095V16.7095ZM83.1468 6.72205C79.6926 6.72205 76.9656 9.27982 76.9656 12.9033C76.9656 16.5268 79.6938 19.0846 83.1468 19.0846C83.9606 19.0919 84.7677 18.937 85.5209 18.629C86.2742 18.3209 86.9585 17.8659 87.5339 17.2904C88.1094 16.715 88.5644 16.0307 88.8725 15.2774C89.1805 14.5242 89.3354 13.7171 89.3281 12.9033C89.5108 9.26764 86.5998 6.72205 83.1468 6.72205ZM83.1468 16.7095C81.3284 16.7095 79.6926 15.0738 79.6926 12.8924C79.6926 10.711 81.3284 9.0752 83.1468 9.0752C84.9653 9.0752 86.601 10.5295 86.601 12.8924C86.601 15.2553 84.9653 16.7095 83.1468 16.7095V16.7095ZM104.259 0.179045H106.988V19.0846H104.259V0.179045ZM114.439 16.7217C112.985 16.7217 112.076 15.9946 111.349 14.9033L119.712 11.449L119.347 10.7219C118.801 9.26764 117.154 6.72205 114.075 6.72205C110.802 6.72205 108.258 9.27982 108.258 12.9033C108.251 13.7171 108.406 14.5242 108.714 15.2774C109.022 16.0307 109.477 16.715 110.052 17.2904C110.628 17.8659 111.312 18.3209 112.065 18.629C112.818 18.937 113.625 19.0919 114.439 19.0846C117.348 19.0846 118.982 17.2661 119.711 16.3563L117.518 14.902C116.791 15.9933 115.883 16.7205 114.428 16.7205L114.439 16.7217ZM114.257 9.08494C115.348 9.08494 116.257 9.6306 116.619 10.5392L110.984 12.9021C110.984 10.1738 112.802 9.08494 114.257 9.08494V9.08494Z" fill="#757575"/>
<path d="M26.6094 6.12103V38.0533C26.6094 41.6263 29.0769 43.6173 31.6895 43.6173C34.1087 43.6173 36.7697 41.9239 36.7697 38.0533V6.36294C36.7697 3.08746 34.3506 1.04089 31.6895 1.04089C29.0285 1.04089 26.6094 3.29792 26.6094 6.12103Z" fill="#F9AB00"/>
<path d="M13.3047 22.33V38.0542C13.3047 41.6273 15.7722 43.6182 18.3848 43.6182C20.804 43.6182 23.465 41.9248 23.465 38.0542V22.5719C23.465 19.2964 21.0459 17.2499 18.3848 17.2499C15.7238 17.2499 13.3047 19.5069 13.3047 22.33Z" fill="#E37400"/>
<path d="M5.08016 43.6191C7.88585 43.6191 10.1603 41.3447 10.1603 38.539C10.1603 35.7333 7.88585 33.4589 5.08016 33.4589C2.27446 33.4589 0 35.7333 0 38.539C0 41.3447 2.27446 43.6191 5.08016 43.6191Z" fill="#E37400"/>
</svg>
