<svg width="139" height="31" viewBox="0 0 139 31" fill="none" xmlns="http://www.w3.org/2000/svg">
<path d="M58.0293 22.5597H46.0456L61.3447 2.31525C61.6781 1.87072 61.5855 1.22245 61.141 0.889055C60.9743 0.759401 60.752 0.685312 60.5298 0.685312H38.396C36.4512 0.685312 34.8583 2.2782 34.8583 4.22301C34.8583 6.16781 36.4512 7.7607 38.396 7.7607H48.3423L32.9876 28.0237C32.6357 28.4683 32.7283 29.098 33.1728 29.4499C33.3581 29.5981 33.5803 29.6722 33.8026 29.6537H58.0108C59.9556 29.5611 61.4559 27.8941 61.3633 25.9307C61.2707 24.1156 59.8259 22.6709 58.0108 22.5783V22.5597H58.0293ZM135.377 0.685312C133.432 0.685312 131.839 2.2782 131.839 4.22301V16.0956L112.725 0.926098C112.299 0.574181 111.65 0.629747 111.298 1.07427C111.15 1.25949 111.076 1.48176 111.076 1.72254V26.116C111.076 28.0608 112.669 29.6537 114.614 29.6537C116.559 29.6537 118.152 28.0793 118.152 26.116V14.2434L137.266 29.4314C137.711 29.7833 138.359 29.7092 138.711 29.2647C138.859 29.0795 138.933 28.8572 138.933 28.635V4.22301C138.915 2.25968 137.34 0.685312 135.377 0.685312ZM84.7935 23.2265C76.6994 23.2265 70.6613 18.9665 70.6613 15.151C70.6613 11.3354 76.718 7.07539 84.7935 7.07539C92.8876 7.07539 98.9258 11.3354 98.9258 15.151C98.9258 18.9665 92.9062 23.2265 84.7935 23.2265ZM84.7935 0C73.0877 0 63.5859 6.77904 63.5859 15.151C63.5859 23.5229 73.0877 30.3019 84.7935 30.3019C96.4994 30.3019 106.001 23.5229 106.001 15.151C106.001 6.77904 96.4994 0 84.7935 0ZM15.1695 23.2451C10.7057 23.2451 7.07539 19.6333 7.07539 15.1695C7.07539 10.7057 10.6872 7.07539 15.151 7.07539C19.6148 7.07539 23.2451 10.6872 23.2451 15.151V15.1695C23.2451 19.6148 19.6333 23.2265 15.1695 23.2451ZM15.1695 0C6.79756 0 0.018522 6.77904 0 15.151C0 23.5229 6.77904 30.3019 15.151 30.3205C23.5229 30.3205 30.3019 23.5414 30.3205 15.1695V15.151C30.3019 6.77904 23.5229 0 15.1695 0Z" fill="#005BFF"/>
</svg>
