<svg width="141" height="26" viewBox="0 0 141 26" fill="none" xmlns="http://www.w3.org/2000/svg">
<g clip-path="url(#clip0_222_453)">
<path d="M28.8726 21.7776C30.4284 21.7776 31.71 21.1887 32.5221 20.332C32.619 20.234 32.7445 20.1712 32.8796 20.1531C33.0146 20.1351 33.1517 20.1628 33.2699 20.2321L36.101 21.8967C36.1538 21.9269 36.1994 21.9685 36.2348 22.0187C36.2702 22.0688 36.2945 22.1262 36.3059 22.1869C36.3174 22.2477 36.3158 22.3102 36.3012 22.3702C36.2866 22.4303 36.2594 22.4863 36.2215 22.5345C34.5598 24.7475 32.0091 26.0061 28.8061 26.0061C22.8739 26.0061 19.1309 21.8499 19.1309 16.465C19.1309 11.08 22.9092 6.92383 28.4572 6.92383C33.6833 6.92383 37.3889 11.1523 37.3889 16.465C37.3878 16.9846 37.3482 17.5034 37.2705 18.0169C37.2559 18.1187 37.2058 18.2116 37.1294 18.2784C37.053 18.3453 36.9555 18.3815 36.855 18.3804H24.1845C24.151 18.3801 24.1179 18.3881 24.088 18.4037C24.0582 18.4193 24.0325 18.442 24.0131 18.47C23.9937 18.498 23.9812 18.5304 23.9767 18.5644C23.9722 18.5984 23.9758 18.633 23.9872 18.6653C24.6913 20.8465 26.5732 21.7776 28.8726 21.7776ZM32.5616 14.7621C32.5936 14.7631 32.6254 14.7564 32.6546 14.7427C32.6837 14.729 32.7093 14.7086 32.7294 14.683C32.7495 14.6575 32.7636 14.6276 32.7705 14.5956C32.7774 14.5635 32.777 14.5303 32.7693 14.4985C32.1462 12.0898 30.2955 11.1119 28.453 11.1119C26.1121 11.1119 24.4878 12.3471 23.8937 14.4964C23.8856 14.5283 23.8849 14.5618 23.8917 14.5941C23.8985 14.6264 23.9125 14.6566 23.9326 14.6824C23.9528 14.7082 23.9785 14.7288 24.0078 14.7427C24.0371 14.7565 24.0692 14.7631 24.1014 14.7621H32.5616Z" fill="#0068FF"/>
<path d="M45.094 11.905V19.7709C45.094 21.6119 46.3175 21.748 48.648 21.6374C48.7043 21.6345 48.7605 21.6434 48.8134 21.6635C48.8662 21.6835 48.9145 21.7144 48.9553 21.7542C48.9961 21.7939 49.0286 21.8418 49.0507 21.8948C49.0729 21.9478 49.0843 22.0049 49.0842 22.0626V25.4641C49.0847 25.5698 49.0467 25.672 48.9776 25.7506C48.9084 25.8293 48.8131 25.8787 48.7103 25.8893C42.6077 26.4951 40.5389 24.5606 40.5389 19.7772V11.905H37.8822C37.772 11.905 37.6664 11.8602 37.5885 11.7804C37.5106 11.7007 37.4668 11.5925 37.4668 11.4798V7.8657C37.4668 7.75294 37.5106 7.64479 37.5885 7.56505C37.6664 7.48532 37.772 7.44052 37.8822 7.44052H40.5389V4.25164C40.5389 4.11482 40.582 3.98165 40.6616 3.87178C40.7413 3.76191 40.8534 3.68118 40.9813 3.6415L44.5581 2.5339C44.6201 2.51467 44.6857 2.51055 44.7495 2.52186C44.8133 2.53318 44.8737 2.55962 44.9258 2.59908C44.9779 2.63853 45.0202 2.68991 45.0494 2.74909C45.0786 2.80828 45.0939 2.87364 45.094 2.93995V7.44052H48.6688C48.779 7.44052 48.8846 7.48532 48.9625 7.56505C49.0404 7.64479 49.0842 7.75294 49.0842 7.8657V11.4798C49.0842 11.5925 49.0404 11.7007 48.9625 11.7804C48.8846 11.8602 48.779 11.905 48.6688 11.905H45.094Z" fill="#0068FF"/>
<path d="M68.0517 7.86561V25.0856C68.0517 25.1983 68.0079 25.3065 67.93 25.3862C67.8521 25.4659 67.7464 25.5107 67.6363 25.5107H63.912C63.8018 25.5107 63.6961 25.4659 63.6182 25.3862C63.5403 25.3065 63.4965 25.1983 63.4965 25.0856V23.3848C62.2253 25.0112 60.3185 26.0231 57.7408 26.0231C53.0444 26.0231 49.1602 21.8669 49.1602 16.482C49.1602 11.097 53.0444 6.92383 57.745 6.92383C60.3227 6.92383 62.2295 7.93577 63.5007 9.56209V7.86561C63.5007 7.75284 63.5445 7.6447 63.6224 7.56496C63.7003 7.48522 63.8059 7.44043 63.9161 7.44043H67.6404C67.7499 7.44155 67.8545 7.48684 67.9315 7.56645C68.0085 7.64607 68.0517 7.75358 68.0517 7.86561V7.86561ZM63.4965 16.4756C63.4965 13.4398 61.4194 11.3734 58.5883 11.3734C55.7987 11.3734 53.7153 13.4334 53.7153 16.4756C53.7153 19.5178 55.7924 21.5778 58.5883 21.5778C61.4132 21.5608 63.4965 19.5008 63.4965 16.465V16.4756Z" fill="#0068FF"/>
<path d="M69.6358 2.933C69.6255 2.54348 69.6916 2.1558 69.8302 1.79286C69.9687 1.42991 70.1769 1.09905 70.4424 0.819828C70.708 0.540602 71.0255 0.318664 71.3763 0.16712C71.727 0.0155769 72.1039 -0.0625 72.4846 -0.0625C72.8653 -0.0625 73.2422 0.0155769 73.5929 0.16712C73.9437 0.318664 74.2612 0.540602 74.5267 0.819828C74.7923 1.09905 75.0005 1.42991 75.139 1.79286C75.2776 2.1558 75.3437 2.54348 75.3334 2.933C75.3133 3.69266 75.0044 4.41432 74.4723 4.94438C73.9403 5.47443 73.2271 5.77102 72.4846 5.77102C71.7421 5.77102 71.0289 5.47443 70.4968 4.94438C69.9648 4.41432 69.6558 3.69266 69.6358 2.933V2.933ZM70.6224 7.43995H74.3488C74.459 7.43995 74.5647 7.48474 74.6426 7.56448C74.7205 7.64422 74.7642 7.75237 74.7642 7.86513V25.0851C74.7642 25.1978 74.7205 25.306 74.6426 25.3857C74.5647 25.4655 74.459 25.5103 74.3488 25.5103H70.6224C70.5123 25.5103 70.4066 25.4655 70.3287 25.3857C70.2508 25.306 70.207 25.1978 70.207 25.0851V7.86513C70.207 7.75237 70.2508 7.64422 70.3287 7.56448C70.4066 7.48474 70.5123 7.43995 70.6224 7.43995Z" fill="#0068FF"/>
<path d="M77.2963 4.31264e-08H81.0185C81.1266 -4.97333e-05 81.2304 0.0429911 81.3079 0.11999C81.3855 0.19699 81.4307 0.301888 81.4339 0.412428V25.0859C81.4307 25.1964 81.3855 25.3013 81.3079 25.3783C81.2304 25.4553 81.1266 25.4983 81.0185 25.4983H77.2963C77.1882 25.4983 77.0844 25.4553 77.0069 25.3783C76.9293 25.3013 76.8841 25.1964 76.8809 25.0859V0.412428C76.8841 0.301888 76.9293 0.19699 77.0069 0.11999C77.0844 0.0429911 77.1882 -4.97333e-05 77.2963 4.31264e-08Z" fill="#0068FF"/>
<path d="M83.5527 16.465C83.5527 11.08 87.4993 6.92383 92.8749 6.92383C96.1755 6.92383 99.0606 8.62456 100.575 11.2076C100.604 11.2559 100.623 11.3098 100.632 11.3659C100.64 11.4221 100.638 11.4794 100.624 11.5345C100.61 11.5896 100.586 11.6413 100.553 11.6867C100.519 11.732 100.477 11.7701 100.429 11.7986L97.401 13.6056C97.2649 13.6878 97.1033 13.7139 96.9491 13.6788C96.7948 13.6437 96.6594 13.5499 96.5701 13.4164C95.7829 12.2344 94.4182 11.5031 92.8313 11.5031C90.1123 11.5031 88.0996 13.5631 88.0996 16.4543C88.0996 19.3094 90.1123 21.3695 92.8313 21.3695C94.4494 21.3695 95.8203 20.6679 96.6054 19.488C96.6941 19.3569 96.8275 19.2646 96.9794 19.2292C97.1312 19.1938 97.2905 19.2179 97.4259 19.2967L100.481 21.0846C100.53 21.113 100.573 21.1514 100.607 21.1972C100.641 21.2431 100.666 21.2955 100.679 21.3514C100.693 21.4073 100.695 21.4654 100.686 21.5222C100.677 21.579 100.657 21.6334 100.627 21.682C99.7997 23.0189 98.6523 24.1171 97.2938 24.8725C95.9352 25.6278 94.4105 26.0151 92.8645 25.9976C87.5076 26.0061 83.5527 21.8499 83.5527 16.465Z" fill="black"/>
<path d="M112.68 7.50803V11.8109C112.68 11.8688 112.669 11.926 112.647 11.9792C112.624 12.0324 112.592 12.0803 112.551 12.1201C112.51 12.1599 112.461 12.1907 112.408 12.2107C112.355 12.2306 112.298 12.2393 112.242 12.2361C109.957 12.1255 107.313 13.299 107.313 16.8621V25.0851C107.313 25.1979 107.269 25.3061 107.191 25.3858C107.113 25.4655 107.008 25.5103 106.898 25.5103H103.173C103.063 25.5103 102.957 25.4655 102.879 25.3858C102.802 25.3061 102.758 25.1979 102.758 25.0851V7.86519C102.758 7.75242 102.802 7.64427 102.879 7.56454C102.957 7.4848 103.063 7.44 103.173 7.44H106.898C107.008 7.44 107.113 7.4848 107.191 7.56454C107.269 7.64427 107.313 7.75242 107.313 7.86519V10.5375C108.171 8.24147 110.169 7.20828 112.242 7.08072C112.299 7.07753 112.355 7.08623 112.409 7.1063C112.462 7.12637 112.51 7.15737 112.551 7.1974C112.592 7.23744 112.625 7.28565 112.647 7.33907C112.669 7.39249 112.681 7.44999 112.68 7.50803V7.50803Z" fill="black"/>
<path d="M141 14.3681V25.0849C141 25.1977 140.956 25.3058 140.878 25.3855C140.8 25.4653 140.695 25.5101 140.584 25.5101H136.86C136.75 25.5101 136.644 25.4653 136.566 25.3855C136.488 25.3058 136.445 25.1977 136.445 25.0849V14.6934C136.445 12.5675 135.385 11.26 133.478 11.26C131.466 11.26 130.195 12.6334 130.195 15.3439V25.0849C130.195 25.1977 130.151 25.3058 130.073 25.3855C129.995 25.4653 129.889 25.5101 129.779 25.5101H126.055C125.945 25.5101 125.839 25.4653 125.761 25.3855C125.683 25.3058 125.639 25.1977 125.639 25.0849V14.6934C125.639 12.5675 124.58 11.26 122.673 11.26C120.731 11.26 119.35 12.6334 119.35 15.3439V25.0849C119.35 25.1977 119.306 25.3058 119.228 25.3855C119.15 25.4653 119.045 25.5101 118.934 25.5101H115.214C115.104 25.5101 114.998 25.4653 114.921 25.3855C114.843 25.3058 114.799 25.1977 114.799 25.0849V7.86494C114.799 7.75217 114.843 7.64402 114.921 7.56429C114.998 7.48455 115.104 7.43975 115.214 7.43975H118.939C119.049 7.43975 119.154 7.48455 119.232 7.56429C119.31 7.64402 119.354 7.75217 119.354 7.86494V9.35308C120.343 7.83517 122.002 6.93166 124.262 6.93166C126.452 6.93166 128.076 7.87132 129.065 9.53378C130.159 7.90746 131.925 6.93166 134.326 6.93166C138.351 6.92316 141 9.85055 141 14.3681Z" fill="black"/>
<path d="M18.2975 6.88867H3.2341C2.37579 6.89036 1.5532 7.24052 0.946866 7.86229C0.340534 8.48405 -1.58711e-06 9.32664 0 10.2051H0V25.6202C0 25.7329 0.0437681 25.8411 0.121676 25.9208C0.199583 26.0005 0.305249 26.0453 0.415427 26.0453H4.17088C4.28106 26.0453 4.38673 26.0005 4.46464 25.9208C4.54254 25.8411 4.58631 25.7329 4.58631 25.6202V17.2206C4.58584 16.3409 4.31877 15.483 3.82193 14.7652L2.29939 12.5628L14.7871 25.3417C14.8258 25.3818 14.8718 25.4137 14.9227 25.4355C14.9735 25.4573 15.028 25.4685 15.0831 25.4685C15.1382 25.4685 15.1927 25.4573 15.2436 25.4355C15.2944 25.4137 15.3404 25.3818 15.3791 25.3417L18.0295 22.6269C18.0688 22.5873 18.0999 22.5401 18.1212 22.4881C18.1425 22.4361 18.1535 22.3803 18.1535 22.3239C18.1535 22.2675 18.1425 22.2117 18.1212 22.1597C18.0999 22.1077 18.0688 22.0605 18.0295 22.021L5.55426 9.25482L7.68539 10.8004C8.38676 11.3089 9.22497 11.5822 10.0845 11.5827H18.2975C18.4076 11.5827 18.5133 11.5379 18.5912 11.4582C18.6691 11.3784 18.7129 11.2703 18.7129 11.1575V7.31386C18.7129 7.20109 18.6691 7.09294 18.5912 7.01321C18.5133 6.93347 18.4076 6.88867 18.2975 6.88867Z" fill="#0068FF"/>
<path d="M18.2892 0H0.415427C0.185993 0 0 0.190361 0 0.425184V4.29436C0 4.52918 0.185993 4.71954 0.415427 4.71954H18.2892C18.5186 4.71954 18.7046 4.52918 18.7046 4.29436V0.425184C18.7046 0.190361 18.5186 0 18.2892 0Z" fill="#0068FF"/>
</g>
<defs>
<clipPath id="clip0_222_453">
<rect width="141" height="26" fill="white"/>
</clipPath>
</defs>
</svg>
