<svg width="139" height="32" viewBox="0 0 139 32" fill="none" xmlns="http://www.w3.org/2000/svg">
<g clip-path="url(#clip0_222_390)">
<mask id="mask0_222_390" style="mask-type:alpha" maskUnits="userSpaceOnUse" x="0" y="0" width="139" height="32">
<path fill-rule="evenodd" clip-rule="evenodd" d="M0 0H138.701V31.3196H0V0Z" fill="white"/>
</mask>
<g mask="url(#mask0_222_390)">
<path fill-rule="evenodd" clip-rule="evenodd" d="M9.34358 15.0547C12.6332 15.0547 14.739 14.4926 16.2747 13.2379C17.6343 12.1131 18.292 10.5993 18.292 8.73914C18.292 6.44613 17.2838 4.88905 15.7048 3.85076C13.9934 2.7259 11.8883 2.42354 8.33527 2.42354H2.67711L2.67644 15.0547H9.34358ZM0.000675358 0L8.51019 0.000665992C12.1949 0.000665992 15.0463 0.43356 17.2838 1.86145C19.4328 3.24538 20.9679 5.49443 20.9679 8.60927C20.9685 11.4644 19.6522 13.8 17.6343 15.2272C16.187 16.2661 14.4763 16.7849 12.5022 17.088L23.1168 31.319L19.8711 31.3196L9.5185 17.3038H2.67645L2.67577 31.319H0L0.000675358 0Z" fill="#1B2A30"/>
<path fill-rule="evenodd" clip-rule="evenodd" d="M53.9399 9.78711H55.8659L55.8654 31.3193H53.9395L53.9399 9.78711Z" fill="#1B2A30"/>
<path fill-rule="evenodd" clip-rule="evenodd" d="M64.1013 26.8787C66.44 28.3028 69.4396 29.0574 72.3066 29.0574C75.9684 29.0574 78.3071 27.8424 78.3077 25.3708C78.3071 22.2711 74.6895 21.9357 71.2931 21.4327C67.6755 20.8883 63.5723 19.8828 63.5723 15.6937C63.5729 11.7975 67.0575 9.78711 71.999 9.78711C74.8218 9.78711 77.6903 10.4572 79.8081 11.5466L79.8075 14.1439C77.5137 12.7617 74.6018 12.0497 71.9113 12.0497C68.5137 12.0497 66.1758 13.1803 66.1751 15.5267C66.1758 18.4168 69.7052 18.7102 72.969 19.2134C76.8956 19.7995 80.9099 20.8044 80.9099 25.1611C80.9099 29.2251 77.4246 31.3193 72.1748 31.3193C69.3071 31.3193 66.3068 30.6904 64.1013 29.518V26.8787Z" fill="#1B2A30"/>
<path fill-rule="evenodd" clip-rule="evenodd" d="M88.9436 23.7829L88.9442 12.3332H84.7617L84.7623 10.1438H88.9442V4.3347L91.4617 3.91406V10.1445H98.2465V12.3332H91.4617V23.3623C91.4617 26.4772 91.9303 29.0451 95.2592 29.0457C96.3682 29.0451 97.4351 28.7508 98.2465 28.2874L98.2459 30.6453C97.4351 31.0238 96.1981 31.3187 94.9176 31.3187C93.3815 31.3187 91.6319 30.8975 90.4369 29.5499C89.3698 28.3296 88.9436 26.4772 88.9436 23.7829Z" fill="#1B2A30"/>
<path fill-rule="evenodd" clip-rule="evenodd" d="M115.522 26.6781V22.0376C113.948 21.578 112.126 21.2852 110.468 21.2852C107.568 21.2852 104.585 22.2044 104.586 25.2568C104.585 27.9327 106.864 29.103 109.349 29.1036C111.669 29.1036 113.906 28.1001 115.522 26.6781ZM104.212 29.8974C102.887 28.8944 102.1 27.3895 102.1 25.466C102.1 23.2916 103.094 21.7448 104.668 20.6993C106.201 19.6965 108.272 19.3205 110.261 19.3199C112.126 19.3199 113.823 19.6127 115.522 20.0729V17.69C115.522 15.6829 115.149 14.3871 114.031 13.3835C113.078 12.5474 111.67 12.0871 109.847 12.0871C107.445 12.0871 105.249 12.8814 103.591 14.0942V11.6275C105.249 10.5815 107.527 9.78775 110.096 9.78711C112.54 9.78775 114.528 10.4147 115.896 11.5857C117.262 12.7566 117.967 14.5957 117.967 17.1048V26.01C117.966 27.766 118.38 29.0624 120.038 29.0618C120.535 29.0618 120.991 28.937 121.364 28.7278L121.363 30.8603C120.908 31.0689 120.286 31.1945 119.582 31.1945C117.842 31.1945 116.475 30.3583 115.895 28.769H115.812C114.279 30.1073 111.794 31.3193 109.018 31.3193C107.278 31.3193 105.538 30.9015 104.212 29.8974Z" fill="#1B2A30"/>
<path fill-rule="evenodd" clip-rule="evenodd" d="M129.397 23.7837L129.397 12.3332H125.215L125.215 10.1445H129.397V4.33534L131.915 3.91406V10.1445H138.7V12.3332H131.915V23.3623C131.915 26.4778 132.383 29.0457 135.712 29.0457C136.821 29.0457 137.888 28.7508 138.7 28.2881L138.699 30.6453C137.888 31.0245 136.651 31.3187 135.371 31.3187C133.835 31.3187 132.085 30.8981 130.89 29.5506C129.823 28.3302 129.397 26.4778 129.397 23.7837Z" fill="#1B2A30"/>
<path fill-rule="evenodd" clip-rule="evenodd" d="M40.8122 17.4913C41.4026 18.3535 41.7481 19.4074 41.7481 20.5535C41.7481 23.4861 39.5127 25.832 36.6017 25.832C33.6914 25.832 31.4553 23.4855 31.4553 20.5535C31.4553 17.6215 33.6914 15.2751 36.6023 15.2751C37.9007 15.2751 39.0626 15.7447 39.9536 16.5225L43.7369 11.9735C41.8021 10.5959 39.3483 9.78775 36.6023 9.78711C29.979 9.78711 25.0436 14.4792 25.043 20.5535C25.043 26.6278 29.979 31.3193 36.6017 31.3193C43.2244 31.32 48.1598 26.6284 48.1598 20.5542C48.1598 18.0304 47.3063 15.7479 45.8359 13.9388L40.8122 17.4913Z" fill="#26A4F0"/>
<path fill-rule="evenodd" clip-rule="evenodd" d="M54.7831 5.87242L59.7187 2.09155C59.1278 1.30353 58.4354 0.600628 57.6562 0L53.9395 4.84071C54.2592 5.14274 54.5413 5.49007 54.7831 5.87242Z" fill="#26A4F0"/>
</g>
</g>
<defs>
<clipPath id="clip0_222_390">
<rect width="138.701" height="31.3196" fill="white"/>
</clipPath>
</defs>
</svg>
