<svg width="125" height="66" viewBox="0 0 125 66" fill="none" xmlns="http://www.w3.org/2000/svg">
<path d="M38.8912 53.2078L42.3345 50.666H30.8105V65.9401H42.3345V63.3983H34.0988V59.4858H41.1242V56.944H34.0988V53.2078H38.8912Z" fill="#21A038"/>
<path d="M23.0567 56.6172H19.0558V53.2077H25.4411L28.8823 50.6582H15.7695V65.9323H22.6335C26.4818 65.9323 28.6903 64.1847 28.6903 61.1368C28.6903 58.2211 26.6899 56.6172 23.0567 56.6172ZM22.4855 63.3897H19.0558V59.1574H22.4855C24.5669 59.1574 25.5428 59.8667 25.5428 61.2736C25.5428 62.6805 24.5044 63.3897 22.4855 63.3897Z" fill="#21A038"/>
<path d="M50.8061 50.6641H44.5332V65.9381H47.821V61.6112H50.8061C54.8083 61.6112 57.284 59.5011 57.284 56.1295C57.284 52.758 54.8083 50.6641 50.8061 50.6641ZM50.7367 59.0675H47.821V53.2078H50.7367C52.8418 53.2078 54.0036 54.249 54.0036 56.1388C54.0036 58.0287 52.8418 59.0675 50.7367 59.0675Z" fill="#21A038"/>
<path d="M10.8355 62.3332C9.98613 62.794 9.03453 63.0326 8.06877 63.027C5.17812 63.027 3.08113 60.9592 3.08113 58.1119C3.08113 55.2645 5.17812 53.1922 8.06877 53.1922C9.11119 53.1745 10.132 53.4912 10.982 54.0962L13.2819 52.399L13.1264 52.2883C11.7848 51.1064 9.99217 50.4805 7.94029 50.4805C5.71473 50.4805 3.6967 51.2307 2.25585 52.5957C1.5273 53.2984 0.951169 54.1441 0.563179 55.08C0.175264 56.0159 -0.0161583 57.0217 0.00106747 58.035C-0.0143686 59.0586 0.17616 60.0747 0.561242 61.0229C0.946324 61.9711 1.51805 62.8317 2.24236 63.5535C3.68992 64.9727 5.70347 65.7545 7.91322 65.7545C10.2221 65.7545 12.2402 64.9478 13.6067 63.4789L11.548 61.9423L10.8355 62.3332Z" fill="#21A038"/>
<path d="M70.321 56.6172H66.3218V53.2077H74.916V50.6582H63.0332V65.9323H69.8885C73.7363 65.9323 75.9451 64.1847 75.9451 61.1368C75.954 58.2211 73.954 56.6172 70.321 56.6172ZM69.7498 63.3897H66.3218V59.1574H69.7498C71.831 59.1574 72.8064 59.8667 72.8064 61.2736C72.8064 62.6805 71.7773 63.3897 69.7498 63.3897Z" fill="#21A038"/>
<path d="M113.325 65.9089H109.992V50.6348H113.325V57.05H115.14L120.039 50.6348H123.817L118.006 57.9008L124.753 65.9089H120.331L115.371 59.9017H113.325V65.9089Z" fill="#21A038"/>
<path d="M88.0558 63.0073H81.0044L79.809 65.9733H76.2617L82.8754 50.6992H86.4219L92.9282 65.9733H89.2511L88.0558 63.0073ZM86.9514 60.2397L84.551 54.3076L82.1371 60.2397H86.9514Z" fill="#21A038"/>
<path d="M97.4155 50.6992V57.0774H104.313V50.6992H107.75V65.9733H104.313V59.9548H97.4155V65.9733H93.9785V50.6992H97.4155Z" fill="#21A038"/>
<path d="M78.1853 7.45703C79.1178 8.66735 79.9072 9.98225 80.5375 11.3753L62.6565 24.6082L55.1836 19.9053V14.2475L62.6565 18.9504L78.1853 7.45703Z" fill="#21A038"/>
<path d="M47.7801 19.6223C47.7801 19.3684 47.7862 19.1162 47.7985 18.8654L43.2766 18.6426C43.2612 18.9676 43.252 19.2958 43.252 19.6269C43.25 22.2146 43.7562 24.777 44.7413 27.1674C45.7265 29.5578 47.1713 31.7291 48.9929 33.5567L52.2004 30.3327C50.7982 28.9284 49.6859 27.2592 48.9273 25.4211C48.1687 23.5831 47.7788 21.6124 47.7801 19.6223Z" fill="url(#paint0_linear_222_332)"/>
<path d="M62.4506 4.5258C62.6916 4.5258 62.9311 4.53504 63.1691 4.54735L63.3852 0.0231043C63.0757 0.00771052 62.7641 1.4539e-05 62.4506 1.4539e-05C59.9924 -0.00312543 57.5581 0.502366 55.287 1.48746C53.016 2.47256 50.9531 3.91787 49.2168 5.74038L52.2794 8.94845C53.6129 7.54558 55.198 6.43264 56.9436 5.67364C58.6891 4.91465 60.5606 4.52455 62.4506 4.5258Z" fill="url(#paint1_linear_222_332)"/>
<path d="M62.831 34.9953C62.5899 34.9953 62.3502 34.9953 62.1107 34.9753L61.8945 39.498C62.2052 39.5144 62.5174 39.5227 62.831 39.5227C65.2891 39.5253 67.7233 39.0195 69.9941 38.0341C72.2648 37.0487 74.3272 35.6032 76.0629 33.7807L73.0049 30.5742C71.6706 31.9763 70.085 33.0887 68.3391 33.8474C66.5932 34.6061 64.7213 34.9962 62.831 34.9953Z" fill="url(#paint2_linear_222_332)"/>
<path d="M70.8792 7.45704L74.5719 4.53036C71.1967 1.5916 66.9836 -0.0081577 62.6406 3.12833e-05V4.71639C65.5815 4.71247 68.4541 5.66811 70.8792 7.45704Z" fill="url(#paint3_linear_222_332)"/>
<path d="M82.0281 19.8895C82.0306 18.7217 81.9254 17.5559 81.7137 16.4062L77.4051 19.4895C77.4051 19.6224 77.4051 19.7552 77.4051 19.8895C77.4062 21.978 76.9553 24.0434 76.0818 25.9519C75.2082 27.8604 73.9313 29.5693 72.334 30.9679L75.4417 34.3032C77.5183 32.4828 79.1777 30.259 80.3124 27.776C81.4471 25.2929 82.0316 22.606 82.0281 19.8895Z" fill="#21A038"/>
<path d="M62.6391 34.8992C60.5859 34.9 58.5555 34.4489 56.6793 33.5754C54.8031 32.7019 53.1229 31.4252 51.7476 29.8281L48.4707 32.9343C50.2599 35.0112 52.4457 36.6709 54.8866 37.8059C57.3274 38.9408 59.9686 39.5256 62.6391 39.5223V34.8992Z" fill="url(#paint4_linear_222_332)"/>
<path d="M52.9461 8.49911L49.8405 5.2207C47.7636 7.00976 46.1038 9.19558 44.9688 11.6364C43.8338 14.0772 43.2489 16.7186 43.252 19.3891H47.8759C47.8749 17.3362 48.3258 15.3059 49.1992 13.4299C50.0726 11.5539 51.3492 9.87405 52.9461 8.49911Z" fill="url(#paint5_linear_222_332)"/>
<defs>
<linearGradient id="paint0_linear_222_332" x1="49.9087" y1="32.9887" x2="44.9123" y2="18.6258" gradientUnits="userSpaceOnUse">
<stop offset="0.14" stop-color="#F1E813"/>
<stop offset="0.3" stop-color="#E6E418"/>
<stop offset="0.58" stop-color="#C9DA26"/>
<stop offset="0.89" stop-color="#A2CC39"/>
</linearGradient>
<linearGradient id="paint1_linear_222_332" x1="50.4513" y1="6.54086" x2="62.7563" y2="2.06415" gradientUnits="userSpaceOnUse">
<stop offset="0.06" stop-color="#0FA7DF"/>
<stop offset="0.54" stop-color="#0098F8"/>
<stop offset="0.92" stop-color="#0290EA"/>
</linearGradient>
<linearGradient id="paint2_linear_222_332" x1="61.6094" y1="36.7902" x2="75.4323" y2="33.8078" gradientUnits="userSpaceOnUse">
<stop offset="0.12" stop-color="#A2CC39"/>
<stop offset="0.28" stop-color="#86C239"/>
<stop offset="0.87" stop-color="#219F38"/>
</linearGradient>
<linearGradient id="paint3_linear_222_332" x1="61.728" y1="1.57963" x2="73.807" y2="5.04625" gradientUnits="userSpaceOnUse">
<stop offset="0.06" stop-color="#0290EA"/>
<stop offset="0.79" stop-color="#0C89CA"/>
</linearGradient>
<linearGradient id="paint4_linear_222_332" x1="49.578" y1="32.3715" x2="62.7937" y2="37.0859" gradientUnits="userSpaceOnUse">
<stop offset="0.13" stop-color="#F1E813"/>
<stop offset="0.3" stop-color="#EAE616"/>
<stop offset="0.53" stop-color="#D8DF1F"/>
<stop offset="0.8" stop-color="#BAD52D"/>
<stop offset="0.98" stop-color="#A2CC39"/>
</linearGradient>
<linearGradient id="paint5_linear_222_332" x1="44.9745" y1="19.9232" x2="50.0414" y2="6.11644" gradientUnits="userSpaceOnUse">
<stop offset="0.07" stop-color="#A2CC39"/>
<stop offset="0.26" stop-color="#81C45E"/>
<stop offset="0.92" stop-color="#0FA7DF"/>
</linearGradient>
</defs>
</svg>
