<svg width="102" height="73" viewBox="0 0 102 73" fill="none" xmlns="http://www.w3.org/2000/svg">
<path d="M79.0608 24.0086L79.82 21.6203L77.3082 21.6977C77.0961 21.6977 75.5536 21.6547 74.0571 20.5883C74.1686 20.5991 74.2802 20.6142 74.394 20.6142C75.9342 20.6142 77.4243 19.7026 78.0215 18.3998L79.1023 16.0458C77.748 16.063 76.5097 15.8953 76.5097 15.8953C76.4987 15.8932 75.5229 15.7707 74.394 14.6378C73.5845 13.8251 72.5825 13.3951 71.4972 13.3951C71.0224 13.3951 70.598 13.479 70.2326 13.593C70.2894 13.4016 70.3441 13.2081 70.3748 13.0082C70.7205 10.8048 69.2766 9.12359 69.2766 9.12581L67.3884 6.82761L66.2178 9.52779C66.2135 9.53642 65.918 10.1684 65.3886 10.478C65.229 9.68474 64.8373 8.79256 63.9993 7.93907C62.4196 6.33101 60.4964 6.09249 59.4901 6.09249C59.024 6.09249 58.6914 6.14189 58.6105 6.15483L56.3306 6.5955C56.462 6.0946 56.742 5.22396 57.2539 4.43922L58.5121 2.51306L55.346 2.86774L54.3374 0.763191L52.3858 1.75208L50.5809 0L48.7803 1.75208L46.822 0.763191L45.8156 2.86774L42.6519 2.51306L43.9122 4.43922C44.4241 5.22396 44.7042 6.09249 44.8333 6.59329L42.6586 6.17196L42.5841 6.15903C42.4747 6.14189 42.1444 6.09249 41.676 6.09249C40.6697 6.09249 38.7465 6.33322 37.1712 7.93907C36.331 8.79036 35.9394 9.68474 35.7775 10.478C35.2524 10.1727 34.9593 9.54923 34.9593 9.54923L33.7865 6.83413L31.8677 9.14725C31.6337 9.44611 30.4763 11.0261 30.7912 13.0125C30.8242 13.2103 30.8767 13.4038 30.9335 13.5951C30.5704 13.4812 30.1458 13.3974 29.6711 13.3974C28.5859 13.3974 27.5838 13.8273 26.7721 14.6399C25.6475 15.7686 24.6762 15.8953 24.6849 15.8953C24.6849 15.8953 23.6586 16.076 22.0703 16.048L23.1447 18.402C23.7419 19.707 25.2341 20.6162 26.7721 20.6162C26.8881 20.6162 26.9996 20.6012 27.1134 20.5904C25.6212 21.6567 24.0788 21.6997 23.8929 21.7019L21.333 21.6203L22.1075 24.0065C22.497 25.2361 23.7987 27.2741 26.2929 27.4934C26.0216 28.6112 25.42 29.8623 24.0985 30.402L22.1929 31.1738L23.2321 32.9517C23.8184 33.9105 25.1947 35.0327 27.155 35.0327C27.5794 35.0304 27.9885 34.9897 28.3825 34.908C28.483 35.3465 28.61 35.785 28.7587 36.2193C29.3429 37.9261 28.8396 39.1172 28.8331 39.1301L27.8923 41.067L29.9927 41.6109C30.0189 41.6196 30.6534 41.7893 31.4476 41.7893C31.8087 41.7893 32.1522 41.7528 32.476 41.6776C32.7211 41.6216 32.9551 41.5463 33.1805 41.4562C33.4518 41.9355 33.7822 42.3719 34.1673 42.7631C35.5128 44.1197 37.4184 44.8076 39.8339 44.8076H39.8427L41.5668 44.7862L38.0048 46.2394L40.709 47.5228C41.6914 47.9936 42.8577 48.5503 44.0433 48.976L43.7065 49.8832L44.6385 50.3002C44.7217 50.3369 46.5136 51.1258 49.4936 51.2935C49.4936 51.2935 50.2133 51.3257 50.6093 51.3257C51.0054 51.3257 51.7164 51.2913 51.7164 51.2913C54.6766 51.1194 56.4554 50.3389 56.5386 50.3002L57.4727 49.881L57.1314 48.9717C58.3523 48.5331 59.5601 47.9548 60.5008 47.5034L63.1547 46.2373L59.6038 44.7818L61.3345 44.8033C63.752 44.8033 65.6599 44.1153 67.0032 42.7567C67.3862 42.3676 67.7165 41.9313 67.9901 41.4519C68.2154 41.5422 68.4516 41.6173 68.6967 41.6732C69.0183 41.7485 69.3618 41.785 69.7228 41.785C70.5039 41.785 71.1449 41.6152 71.1625 41.6109L73.2716 41.0627L72.3526 39.1623C72.3308 39.1129 71.8276 37.9241 72.4118 36.2149C72.5606 35.7786 72.6852 35.34 72.7859 34.9036C73.1819 34.9854 73.5955 35.0283 74.0221 35.0283C76.5184 35.0283 77.7153 33.302 77.9472 32.9279L78.9755 31.1695L77.0698 30.3999C75.7461 29.8603 75.1467 28.6069 74.8776 27.4913C77.3367 27.2849 78.6582 25.2469 79.0608 24.0086ZM44.9996 7.41672L44.9733 7.42313L44.9951 7.39517L44.9996 7.41672Z" fill="white"/>
<path d="M50.583 7.31128C48.5657 7.31348 47.0539 7.96273 46.7236 8.72592L50.583 10.2221L54.4425 8.72592C54.1144 7.96273 52.6025 7.31348 50.583 7.31128Z" fill="white"/>
<path d="M50.6226 46.9207H50.6182H50.5854H50.5482H50.5461C49.323 46.9293 47.6404 46.682 46.8288 46.45L45.853 49.0447C46.4962 49.2704 48.6754 49.7003 50.5854 49.7003C52.491 49.7003 54.6725 49.2682 55.3135 49.0447L54.3399 46.45C53.5258 46.6843 51.8456 46.9293 50.6226 46.9207Z" fill="white"/>
<path d="M58.0064 44.3412C57.2799 44.7453 55.6588 45.3516 54.7158 45.6332L55.5078 47.7765C56.9672 47.3853 58.1705 46.9273 59.166 46.4372L57.5228 45.8998L58.0064 44.3412Z" fill="white"/>
<path d="M43.1615 44.3412L43.6473 45.8998L42.002 46.4372C42.9953 46.9273 44.2052 47.3853 45.6579 47.7765L46.4499 45.6332C45.5113 45.3516 43.8879 44.7433 43.1615 44.3412Z" fill="white"/>
<path d="M50.5828 4.83067C52.1034 4.83067 53.5956 5.18746 54.742 5.81525C54.8471 5.46908 54.9936 5.04985 55.1928 4.61139L54.7595 4.66289L54.3044 4.7102L54.1118 4.3039L53.5322 3.10003L52.4753 3.64185L52.0641 3.8482L51.7358 3.52998L50.5871 2.41211L49.4408 3.52998L49.1125 3.8482L48.7012 3.64185L47.6379 3.10003L47.0647 4.3039L46.8677 4.7102L46.4126 4.66289L45.9795 4.61139C46.1786 5.05206 46.323 5.46908 46.4302 5.81525C47.5788 5.18746 49.0666 4.83067 50.5828 4.83067Z" fill="white"/>
<path d="M73.799 18.744C73.9958 18.8106 74.1971 18.8406 74.3962 18.8406C75.256 18.8406 76.0875 18.2946 76.3741 17.6691C76.3741 17.6691 74.7966 17.5745 73.101 15.8827C72.5606 15.3344 71.9895 15.171 71.4994 15.171C70.738 15.171 70.167 15.5666 70.167 15.5666C72.2149 16.6372 72.6327 18.357 73.799 18.744Z" fill="white"/>
<path d="M26.7692 18.8406C26.9683 18.8406 27.1696 18.8106 27.3621 18.744C28.5327 18.357 28.9527 16.6372 31.0006 15.5666C31.0006 15.5666 30.4274 15.171 29.6703 15.171C29.1781 15.171 28.607 15.3344 28.0644 15.8827C26.3709 17.5745 24.7935 17.6691 24.7935 17.6691C25.0757 18.2946 25.9093 18.8406 26.7692 18.8406Z" fill="white"/>
<path d="M74.3543 25.7327C74.3894 25.7348 74.4201 25.7348 74.4572 25.7348C76.6036 25.7348 77.3321 23.4754 77.3321 23.4754H77.2905C76.8967 23.4754 73.7046 23.3851 71.4488 20.5667C69.9633 18.7137 68.7468 17.0842 66.3423 16.4435L66.106 16.4026L66.0535 16.1662C65.9878 15.805 66.2395 15.4675 66.8106 15.1021C70.1274 12.9673 67.876 10.2457 67.876 10.2457C67.876 10.2457 66.9287 12.4234 64.8085 12.4234C64.7582 12.4234 64.7036 12.4213 64.6511 12.4213C64.4104 12.4084 64.1785 12.3998 63.9444 12.3504L63.5527 12.275C63.5527 12.275 64.1566 10.6607 62.6995 9.17734C61.6011 8.05725 60.2643 7.86804 59.492 7.86804C59.1026 7.86804 58.8553 7.91755 58.8553 7.91755C59.5882 8.85914 60.1177 10.4199 59.271 11.383C58.5403 12.2106 56.7549 12.2514 56.7549 13.4854C56.7549 14.0078 57.2515 14.6183 58.1443 15.1666C60.8288 16.8282 63.4936 19.0319 64.6007 21.9856C65.9857 25.6704 64.4257 28.1146 62.1984 29.5163C62.1984 29.5163 62.8964 30.1482 63.9094 30.2278C64.1151 30.2472 64.3163 30.2558 64.5045 30.2558C66.6421 30.2558 67.747 29.2712 67.747 29.2712C67.747 29.2712 67.5653 30.6319 66.4518 31.896C65.4256 33.0634 64.0778 33.7492 62.0234 33.7792C62.0234 33.7792 61.9578 34.7166 62.8679 35.527C63.45 36.0386 64.7955 36.2064 64.7955 36.2064C64.7955 36.2064 62.2771 36.7071 61.9994 40.3618C61.8483 42.3418 61.3341 43.0297 61.3341 43.0297H61.3801C67.224 43.0297 67.073 38.1046 67.073 38.1046C67.073 38.1046 67.4801 39.5621 69.1101 39.9426C69.3069 39.9942 69.5169 40.0136 69.7183 40.0136C70.2433 40.0136 70.6984 39.8932 70.6984 39.8932C70.6984 39.8932 69.8451 38.1239 70.6919 35.6495C71.3942 33.5965 71.2803 32.0745 71.2803 32.0745C71.2803 32.0745 72.0681 33.2439 74.0197 33.2548H74.0393C75.665 33.2548 76.3738 32.0444 76.3738 32.0444C72.4772 30.4558 72.8624 25.3264 72.8624 25.3264C72.8624 25.3264 73.3677 25.6961 74.3543 25.7327ZM73.1817 31.0898C71.5976 30.3225 70.5956 28.2844 70.3527 27.5492C70.0902 31.5908 68.0818 34.3963 65.7341 37.0963C64.5155 38.4958 64.0909 39.8566 64.0909 39.8566C64.0909 39.8566 64.3251 38.3152 65.3797 37.0597C67.5697 34.4736 69.6503 31.2555 69.8058 27.5342C69.9129 24.9372 69.2325 22.8305 68.1714 21.0956C68.7643 22.9035 68.6813 25.1178 66.6661 27.1838C66.6661 27.1838 70.6766 22.4608 65.0691 17.6194C62.8242 15.777 60.3693 14.6398 59.1048 13.8337C63.6731 15.2977 65.9026 13.6854 65.9026 13.6854C64.4432 14.928 62.555 14.9064 61.3846 14.728C61.7018 14.8806 62.0321 15.0397 62.3888 15.2267C66.2395 17.2818 69.7008 20.6635 70.2915 25.3478V25.3113C71.1885 29.9096 73.1817 31.0898 73.1817 31.0898Z" fill="white"/>
<path d="M36.3707 36.2064C36.3707 36.2064 37.7163 36.0408 38.2983 35.527C39.2062 34.7166 39.1428 33.7792 39.1428 33.7792C37.0861 33.7513 35.7407 33.0634 34.7078 31.8982C33.603 30.6342 33.4192 29.2734 33.4192 29.2734C33.4192 29.2734 34.5241 30.2579 36.6595 30.2579C36.8521 30.2579 37.0511 30.2492 37.2569 30.23C38.2698 30.1504 38.9699 29.5183 38.9699 29.5183C36.7427 28.1167 35.1805 25.6704 36.5632 21.9856C37.6726 19.034 40.3352 16.8282 43.0198 15.1666C43.9124 14.6183 44.409 14.0099 44.409 13.4854C44.409 12.2514 42.6259 12.2106 41.8952 11.383C41.0484 10.4199 41.5801 8.85692 42.3108 7.91755C42.3108 7.91755 42.068 7.86804 41.6763 7.86804C40.9063 7.86804 39.5694 8.05725 38.4711 9.17734C37.0096 10.6607 37.6156 12.275 37.6156 12.275L37.2239 12.3504C36.9899 12.3998 36.7558 12.4084 36.5173 12.4213C36.4626 12.4213 36.4144 12.4234 36.3619 12.4234C34.2375 12.4234 33.2946 10.2479 33.2946 10.2479C33.2946 10.2479 31.0431 12.9696 34.3579 15.1042C34.9289 15.4697 35.1782 15.8072 35.1127 16.1683L35.0601 16.4049L34.8195 16.4456C32.4194 17.0863 31.2007 18.7159 29.7152 20.569C27.4637 23.383 24.2759 23.4754 23.8778 23.4754H23.834C23.834 23.4754 24.5625 25.7348 26.7089 25.7348C26.7439 25.7348 26.7745 25.7348 26.8117 25.7327C27.7986 25.6983 28.3062 25.3264 28.3062 25.3264C28.3062 25.3264 28.6868 30.4535 24.7946 32.0444C24.7946 32.0444 25.5034 33.2548 27.129 33.2548H27.1486C29.1025 33.2439 29.888 32.0745 29.888 32.0745C29.888 32.0745 29.7742 33.5965 30.4742 35.6495C31.321 38.1239 30.4722 39.8932 30.4722 39.8932C30.4722 39.8932 30.9273 40.0136 31.4501 40.0136C31.6536 40.0136 31.8614 39.9942 32.0562 39.9426C33.684 39.5621 34.0931 38.1046 34.0931 38.1046C34.0931 38.1046 33.9443 43.0297 39.7882 43.0297H39.8298C39.8298 43.0297 39.3179 42.3418 39.1691 40.3618C38.8889 36.7071 36.3707 36.2064 36.3707 36.2064ZM35.4321 37.0963C33.0845 34.3963 31.0782 31.5908 30.8135 27.5492C30.5706 28.2824 29.5729 30.3225 27.9889 31.0898C27.9889 31.0898 29.9798 29.9096 30.8747 25.3113V25.3478C31.4676 20.6656 34.9267 17.2818 38.7797 15.2267C39.1318 15.0377 39.4665 14.8784 39.7817 14.728C38.6111 14.9064 36.723 14.928 35.2637 13.6854C35.2637 13.6854 37.4932 15.2977 42.0592 13.8337C40.7946 14.6398 38.342 15.777 36.0972 17.6194C30.4875 22.4608 34.5001 27.1838 34.5001 27.1838C32.4828 25.1158 32.4018 22.9035 32.9948 21.0956C31.9314 22.8326 31.2532 24.9372 31.3625 27.5342C31.5157 31.2555 33.5964 34.4736 35.7822 37.0597C36.8389 38.3131 37.0774 39.8566 37.0774 39.8566C37.0774 39.8566 36.6485 38.4958 35.4321 37.0963Z" fill="white"/>
<path d="M46.2627 18.1999C46.3589 18.301 46.4529 18.4107 46.5427 18.5202C46.5647 18.5461 46.5843 18.5697 46.6061 18.5998C46.6892 18.7095 46.7747 18.8255 46.8556 18.9438C46.873 18.9674 46.8906 18.9954 46.9103 19.0233C47.0088 19.1695 47.1006 19.32 47.1925 19.4748C48.0349 20.9045 49.3848 21.7578 50.5816 21.7601C51.7806 21.7578 53.1261 20.9045 53.9728 19.4748C54.0668 19.3157 54.1609 19.161 54.2594 19.0168C54.2747 18.9954 54.2901 18.976 54.3032 18.9545C54.3863 18.832 54.4738 18.7117 54.5657 18.5955C54.5854 18.5697 54.603 18.5482 54.6204 18.5268C54.7145 18.4128 54.8108 18.301 54.9092 18.1979C54.9267 18.1806 54.9399 18.1656 54.9552 18.1527C55.384 17.7206 55.896 17.3917 56.5655 17.2089L56.2679 17.0391H56.2503L55.0647 16.3619L53.846 15.6761L50.5903 17.4175L50.5816 17.4109L50.575 17.4175L47.3172 15.6761L46.1007 16.3598L44.9127 17.037H44.8997L44.5977 17.2068C45.2693 17.3895 45.7791 17.7141 46.2101 18.1462C46.2298 18.1635 46.243 18.1828 46.2627 18.1999ZM49.2645 18.0602H50.6428H52.019V18.989C51.6951 18.5998 51.0651 18.6794 51.0651 18.6794V20.0187C51.0651 20.0187 51.0892 20.6766 51.3233 20.9625H50.6428H49.9602C50.1986 20.6786 50.2206 20.0187 50.2206 20.0187V18.6794C50.2206 18.6794 49.5927 18.5998 49.2645 18.989V18.0602Z" fill="white"/>
<path d="M50.3005 16.2587V10.8219L46.7778 9.64807L47.7078 14.9171L50.3005 16.2587ZM49.5434 12.1568V13.0297L49.3727 12.9523C49.3639 12.9458 49.1145 12.89 48.677 12.5503C47.9549 11.9999 47.9419 11.4926 47.9419 11.4926L49.5434 12.1568Z" fill="white"/>
<path d="M53.46 14.9171L54.3856 9.64807L50.8652 10.8219V16.2587L53.46 14.9171ZM51.6222 12.1568L53.2237 11.4948C53.2237 11.4948 53.2107 12.002 52.4864 12.5524C52.051 12.892 51.7994 12.948 51.7907 12.9544L51.6201 13.0318V12.1568H51.6222Z" fill="white"/>
<path d="M45.3183 28.8629C45.6618 28.9855 46.0776 29.0113 46.2898 29.0113C46.2985 28.9855 46.3095 28.9533 46.3205 28.9145C46.3402 28.8523 46.3576 28.792 46.3707 28.7232C46.4297 28.4223 46.4517 28.0805 46.456 27.8612C46.3116 27.773 46.1081 27.6161 45.9943 27.3818C45.8631 27.1109 45.6772 26.9862 45.4036 26.9862C45.0493 26.9862 44.6686 27.1948 44.5067 27.2935C44.3776 28.0439 44.9398 28.7254 45.3183 28.8629Z" fill="white"/>
<path d="M53.1103 25.9775C52.456 26.6762 51.1761 27.893 51.1126 27.9554L51.0361 28.0327L46.9907 27.9704C46.9885 28.3638 46.9228 28.6992 46.8594 28.9442C46.8485 28.9851 46.8375 29.0281 46.8267 29.0711L51.64 29.9203C52.141 29.5764 53.5194 28.5874 54.0532 28.2005C53.6637 27.6415 53.6267 26.9794 53.7142 26.5128C53.4603 26.3516 53.2656 26.1711 53.1103 25.9775Z" fill="white"/>
<path d="M53.6589 21.1968C52.7269 22.106 51.8321 22.4415 51.0335 22.5189C50.889 22.5339 50.7425 22.5425 50.5937 22.5425H50.5827H50.5739C50.4251 22.5425 50.2764 22.5339 50.1321 22.5189C49.992 22.506 49.8455 22.4845 49.6988 22.4522C49.6463 22.6565 49.5806 23.0842 49.7689 23.4885C49.9374 23.856 50.2809 24.1291 50.7819 24.3097L50.9503 24.3741L50.9526 24.5526C50.9526 24.6063 50.9919 25.7629 52.2762 26.0832C52.4862 25.8704 52.6766 25.679 52.8166 25.5199C52.5541 24.9137 52.6919 24.2946 53.0726 23.9915C53.055 24.056 52.8889 25.5737 54.1271 26.1368L54.3306 26.2315L54.2693 26.4444C54.2496 26.5088 53.8362 27.9771 55.3349 28.5231L55.5996 28.6221L55.4815 28.8757C55.4553 28.9316 54.8667 30.2645 56.2515 31.0212H59.2555V28.6779C58.188 28.5489 57.735 27.7063 57.6191 27.1087C57.1223 27.0248 56.7374 26.8141 56.4748 26.4702C55.8447 25.6555 56.3873 24.9094 56.3939 24.8685C56.3916 24.875 56.3939 25.6705 56.8927 26.1606C57.1399 26.397 57.4331 26.5798 57.8772 26.6207L58.096 26.6401L58.1157 26.8593C58.1201 26.9065 58.2404 27.9815 59.2578 28.1513L59.2555 23.3658C59.2555 22.6243 59.4766 21.8783 59.7413 21.1903H53.6589V21.1968Z" fill="white"/>
<path d="M45.5745 23.3893L45.4937 26.4376L45.8458 26.4893L46.7079 23.5656L46.2702 22.667L45.5745 23.3893Z" fill="white"/>
<path d="M55.079 37.3693C55.1053 37.3693 55.1359 37.3737 55.1644 37.3802C55.7004 37.5306 55.8361 39.431 56.7769 39.6009C56.8687 39.6202 56.954 39.6245 57.0285 39.6245C57.2998 39.6245 57.4616 39.5105 57.6367 39.3084C57.6367 39.3084 57.164 38.5775 56.8097 38.0852C56.3392 37.4403 55.9739 36.66 55.0986 36.66C55.079 36.66 55.0528 36.66 55.0309 36.6621C54.7421 36.6771 54.565 36.8147 54.565 36.8147C54.2104 36.5954 53.88 36.5202 53.5804 36.5202C53.0312 36.5202 52.6045 36.7674 52.3923 36.7674H52.3835L50.4276 36.5783C50.1213 36.5503 49.8806 36.2472 49.7931 36.129C49.7711 36.0967 49.7602 36.0774 49.7602 36.0774C49.7602 36.0257 49.7602 35.9721 49.7559 35.9247C49.6902 34.3532 48.452 33.6804 48.012 33.6697C48.012 33.6697 48.0646 33.3707 47.9443 33.2568L47.5132 33.7707L46.0977 33.072L47.1063 34.2307L46.2508 35.1745C46.1437 35.2819 46.1568 35.4281 46.2005 35.4883L46.5703 35.8087L47.0384 35.5291C47.0626 35.5119 47.1041 35.5077 47.1566 35.5077C47.2857 35.5077 47.4804 35.5399 47.6555 35.5399C47.8458 35.5399 48.012 35.4991 48.0319 35.3228C47.9727 35.9054 47.4236 36.9179 47.7845 37.7133L48.0516 38.3131L46.323 38.0681L45.5135 39.4116C45.2642 39.8589 45.2246 40.3425 45.4654 40.6048L45.7674 40.9767C45.7674 40.9767 46.1918 40.5339 46.288 40.2436L46.1502 40.0953C46.0342 39.9706 46.0408 39.8589 46.1109 39.7233L46.6183 38.8958L48.6597 39.3686L48.7669 39.1881C48.9048 38.9624 49.1039 38.8936 49.3227 38.8936C49.4123 38.8936 49.5043 38.9044 49.6005 38.9194C49.979 38.9924 50.6026 39.0913 51.2261 39.0913C51.911 39.0913 52.5892 38.971 52.9502 38.5732C53.6897 39.6503 55.1884 39.8222 55.0703 40.3682L54.6765 42.2128C54.9368 42.202 55.1884 42.1849 55.4269 42.1526L55.801 40.2328C55.8426 40.0243 55.882 39.7427 55.882 39.7427C55.7376 39.5987 55.3875 39.2934 55.1906 38.9236C54.9258 38.4249 55.0703 38.1648 54.823 37.5156C54.8318 37.5198 54.9061 37.3693 55.079 37.3693ZM47.4432 34.6735C47.3426 34.6715 47.2704 34.5876 47.2748 34.4886C47.2836 34.3941 47.3644 34.3189 47.463 34.3274C47.5636 34.3317 47.6358 34.4177 47.6315 34.5123C47.6226 34.6069 47.5395 34.6799 47.4432 34.6735Z" fill="white"/>
<path d="M44.6558 39.1149C44.6558 39.1149 45.332 38.8419 45.3932 38.6463L45.3035 38.4248C45.24 38.2807 45.2489 38.1238 45.3714 38.0378L46.1021 37.5412L47.323 37.7712C47.323 37.7712 47.102 37.5004 47.1239 37.1371L45.96 36.8942L44.8616 37.5519C44.3912 37.8981 44.3562 38.4634 44.5115 38.799L44.6558 39.1149Z" fill="white"/>
<path d="M53.2847 42.2407C53.5034 42.232 53.7441 42.2277 54.0089 42.2277C54.0089 42.2277 54.6368 40.4241 54.6718 40.366C54.3195 40.2134 53.5888 39.833 53.3065 39.6587C53.4926 39.9319 53.9454 40.2456 53.8557 40.4865L53.2847 42.2407Z" fill="white"/>
<path d="M59.2623 31.5438H41.9058V37.9587C41.9058 40.5814 43.8377 42.2238 46.6885 42.2238C49.0712 42.2238 49.6991 42.314 50.5852 43.1783C51.1956 42.5807 51.7011 42.357 52.7381 42.2732L52.7622 42.1743L53.3091 40.5126C53.2785 40.476 52.3836 39.4763 52.3836 39.4763C52.0292 39.5925 51.7316 39.6118 51.2307 39.6118C50.7165 39.6118 50.1366 39.5538 49.5087 39.4377C49.4453 39.4227 49.3863 39.4183 49.3271 39.4183C49.2505 39.4183 49.244 39.4248 49.2243 39.4613L49.1149 39.6376L48.9158 39.9602L48.5417 39.8763L46.8767 39.4915L46.6492 39.8612L46.6842 39.8999L46.8875 40.1192L46.798 40.4051C46.6755 40.7791 46.2772 41.2155 46.1568 41.336L45.7411 41.7745L45.3627 41.3037L45.0782 40.9533C44.7785 40.6244 44.7084 40.1192 44.8769 39.5903C44.8725 39.5946 44.8661 39.5968 44.8594 39.5968L44.389 39.7881L44.1768 39.3367L44.028 39.0163C43.772 38.4531 43.8661 37.6298 44.5552 37.1331L45.8965 36.3893L47.1721 36.6365C47.2027 36.5162 47.2486 36.0863 47.2858 35.9766C47.2617 35.9744 47.2377 35.968 47.2137 35.968L46.4784 36.2367L45.7696 35.7551C45.7696 35.7551 45.4918 35.4929 45.7433 35.2306L46.4303 34.2095L44.691 32.064L47.3646 33.1431L47.5417 32.926L47.9028 32.5026L48.3119 32.8852C48.428 32.9948 48.4936 33.1303 48.5263 33.2657C49.2637 33.5473 50.583 34.3793 50.6989 35.7314L50.2854 35.8949V35.9056C50.3795 36.0153 50.4582 36.0604 50.4824 36.0647L52.3902 36.2497C52.4383 36.241 52.4996 36.2194 52.5674 36.2001C52.8037 36.1206 53.1603 36.0066 53.5827 36.0066C53.9261 36.0066 54.2587 36.084 54.578 36.2303C54.6962 36.1873 54.8406 36.155 55.007 36.1443L55.0988 36.142C56.1205 36.142 56.6281 36.8923 57.0351 37.49C57.1029 37.5931 57.1708 37.6921 57.2409 37.7888C57.5974 38.2833 58.0634 39.0077 58.0831 39.0379L58.2932 39.3603L58.035 39.6548C57.8359 39.8805 57.5383 40.145 57.0264 40.145C56.9213 40.145 56.8054 40.1342 56.6807 40.1106C56.5712 40.0912 56.4729 40.059 56.3765 40.0203C56.3611 40.1192 56.3415 40.2375 56.3218 40.3385L55.987 42.0539C57.9891 41.5703 59.2603 40.0848 59.2603 37.9608L59.2623 31.5438Z" fill="#FFDD2D"/>
<path d="M41.9057 31.0278H55.4029C54.7289 30.3442 54.7376 29.4779 54.9105 28.9147C54.7136 28.8223 54.5517 28.7104 54.4073 28.59C53.88 28.9727 52.2696 30.125 51.8497 30.413L51.76 30.4732L46.4629 29.5316H46.3557C46.2289 29.5316 46.0428 29.5273 45.8395 29.5037C45.7825 29.738 45.5769 29.8993 45.3406 29.8993C45.3143 29.8993 45.2837 29.8971 45.2553 29.8906C45.1175 29.8669 44.997 29.7982 44.9162 29.6842C44.8329 29.5724 44.8002 29.4392 44.8242 29.3016L44.8439 29.1899C44.297 28.8114 43.7938 27.9666 44.0169 27.0766L44.0388 26.982L44.1154 26.9282C44.1262 26.9196 44.2182 26.8595 44.3538 26.782L43.9688 26.724C43.8243 26.6983 43.7281 26.567 43.7501 26.4273C43.7741 26.2854 43.9097 26.1844 44.0519 26.2124L44.9687 26.3543L45.0518 23.1812L46.417 21.7623L47.2682 23.523L46.369 26.5756L47.1785 26.7003C47.3207 26.7219 47.4191 26.8529 47.3972 26.997C47.3753 27.1239 47.266 27.2119 47.1369 27.2119C47.1237 27.2119 47.1084 27.2119 47.0954 27.2099L46.4367 27.1045C46.4455 27.1239 46.4586 27.1346 46.4674 27.1561C46.5375 27.2979 46.6927 27.4012 46.7846 27.4442L50.8234 27.5065C50.9942 27.3432 51.4186 26.9346 51.854 26.5026C50.8607 26.1328 50.4998 25.2901 50.4384 24.7312C49.8826 24.4989 49.4998 24.1508 49.2876 23.6972C49.0293 23.1361 49.1214 22.5751 49.1891 22.3019C48.6509 22.1085 48.0842 21.7559 47.5066 21.1926H41.4243C41.6846 21.8805 41.9057 22.6265 41.9057 23.3682V31.0278Z" fill="#FFDD2D"/>
<path d="M47.4645 34.3273C47.366 34.3187 47.2827 34.394 47.2763 34.4886C47.2697 34.5874 47.344 34.6713 47.4448 34.6734C47.541 34.682 47.6263 34.6089 47.635 34.5122C47.635 34.4176 47.565 34.3296 47.4645 34.3273Z" fill="black"/>
<path d="M59.2381 45.9596L58.2383 45.5834L58.5139 44.5687L58.818 43.4617C58.818 43.4617 57.0459 44.4053 54.5494 45.1148C53.8406 45.3147 53.3045 45.405 53.3045 45.405V46.1574C53.3045 46.1574 51.9698 46.3854 50.62 46.3854H50.6046H50.585H50.5588H50.5434C49.1934 46.3854 47.8589 46.1574 47.8589 46.1574V45.405C47.8589 45.405 47.3206 45.3147 46.614 45.1148C44.1175 44.4053 42.3475 43.4617 42.3475 43.4617L42.6473 44.5687L42.9296 45.5834L41.9274 45.9596L40.8159 46.3681C42.0915 46.9722 43.8572 47.8536 45.4741 48.2878L45.0934 49.3111C45.0934 49.3111 47.1434 50.229 50.5588 50.2376V50.2399H50.5697H50.585H50.5981H50.6069V50.2376C54.0265 50.229 56.0744 49.3111 56.0744 49.3111L55.6915 48.2878C57.3084 47.8536 59.0784 46.9722 60.3474 46.3681L59.2381 45.9596ZM42.0018 46.4369L43.6471 45.8994L43.1615 44.3409C43.8856 44.745 45.5112 45.3512 46.452 45.6328L45.6577 47.7762C44.205 47.3828 42.9951 46.9249 42.0018 46.4369ZM50.585 49.7003C48.675 49.7003 46.4935 49.268 45.8525 49.0445L46.8284 46.4498C47.6379 46.6819 49.3226 46.9292 50.5455 46.9206H50.5478H50.585H50.6178H50.6222C51.8452 46.9292 53.5255 46.6819 54.3394 46.4498L55.3131 49.0445C54.6719 49.2703 52.4927 49.7003 50.585 49.7003ZM55.5077 47.7762L54.7158 45.6328C55.6588 45.3512 57.28 44.745 58.0063 44.3409L57.5229 45.8994L59.1659 46.4369C58.1703 46.9249 56.9671 47.3828 55.5077 47.7762Z" fill="black"/>
<path d="M50.5828 5.45839C52.6176 5.45839 54.2455 6.12045 55.1446 6.82771C55.1446 6.82771 55.4116 5.24772 56.3239 3.85253L54.6852 4.03524L53.8276 2.24448L52.1801 3.07851L50.5828 1.52649L48.99 3.07851L47.3404 2.24448L46.4849 4.03524L44.8462 3.85253C45.7585 5.24772 46.0255 6.82771 46.0255 6.82771C46.9269 6.12045 48.5503 5.45839 50.5828 5.45839ZM46.4105 4.66292L46.8656 4.71023L47.0625 4.30393L47.6358 3.10007L48.6991 3.63966L49.1104 3.84602L49.4387 3.52792L50.5851 2.41005L51.7337 3.52792L52.0619 3.84602L52.4732 3.63966L53.53 3.10007L54.1097 4.30393L54.3023 4.71023L54.7574 4.66292L55.1906 4.6113C54.9915 5.05209 54.845 5.46911 54.7399 5.81517C53.5934 5.18749 52.1013 4.83059 50.5808 4.83059C49.0666 4.83059 47.5766 5.18749 46.4259 5.81517C46.3187 5.46911 46.1743 5.04988 45.9751 4.6113L46.4105 4.66292Z" fill="black"/>
<path d="M74.4547 26.425C77.0867 26.425 77.9662 23.7937 78.0034 23.6819L78.2966 22.7554L77.3099 22.7854H77.3055C76.9576 22.7854 74.0544 22.7102 71.9954 20.1391L71.8007 19.9004C70.4552 18.2194 69.1796 16.6221 66.8998 15.8933C66.9655 15.8352 67.0596 15.7622 67.1887 15.6805C68.3985 14.898 69.1031 13.9478 69.2803 12.845C69.5384 11.1852 68.462 9.86324 68.4138 9.80941L67.6809 8.91944L67.2237 9.97498C67.1931 10.0416 66.4229 11.7314 64.8039 11.7314H64.6835C64.5719 11.7249 64.467 11.7205 64.3619 11.712C64.4187 10.9574 64.2787 9.79007 63.2024 8.69585C61.9092 7.37803 60.3209 7.1803 59.4894 7.1803C59.0453 7.1803 58.7499 7.23402 58.7193 7.23833L57.6122 7.4533L58.2948 8.33686C58.8309 9.01836 59.3166 10.2759 58.7411 10.9338C58.5574 11.1422 58.1789 11.3121 57.8157 11.4819C57.0696 11.8195 56.0522 12.2881 56.0522 13.4835C56.0522 14.2573 56.6627 15.0656 57.7698 15.7536C61.0472 17.7786 63.0689 19.8918 63.9418 22.2244C65.2918 25.8124 63.5304 27.8589 61.8195 28.936L61.0516 29.4218L61.7233 30.028C61.813 30.1054 62.6356 30.817 63.8499 30.9201C64.0796 30.9352 64.3006 30.9481 64.5063 30.9481C65.2852 30.9481 65.9482 30.8277 66.4864 30.6665C66.3376 30.9223 66.156 31.1824 65.9262 31.4447C64.9482 32.5582 63.745 33.0656 62.0142 33.0915L61.371 33.1022L61.3207 33.7364C61.3142 33.8632 61.2659 35.0392 62.3993 36.0388C62.5721 36.1936 62.7822 36.3204 63.001 36.4257C62.2331 37.105 61.452 38.2874 61.301 40.3146C61.1741 42.0064 60.7628 42.6321 60.7584 42.6386L60.0473 43.7048L61.3317 43.7221C63.4539 43.7221 65.0795 43.1459 66.2063 42.0064C66.8713 41.3315 67.2521 40.5705 67.4774 39.8954C67.8472 40.205 68.3242 40.4759 68.9455 40.62C69.1819 40.6736 69.44 40.7038 69.7179 40.7038C70.3174 40.7038 70.8183 40.5791 70.8753 40.5662L71.6958 40.3513L71.3325 39.5987C71.3063 39.5386 70.6215 38.0295 71.3588 35.8754C71.6761 34.9445 71.8379 34.1104 71.9167 33.4612C72.4331 33.7256 73.1244 33.9449 74.0193 33.947C76.0496 33.947 76.9446 32.4572 76.986 32.3949L77.3864 31.7113L76.6447 31.4103C74.2249 30.4236 73.689 27.7729 73.5817 26.3369C73.8005 26.3777 74.0498 26.4164 74.3321 26.425H74.4547ZM76.3734 32.0446C76.3734 32.0446 75.6646 33.2548 74.039 33.2548H74.0193C72.0677 33.2441 71.28 32.0746 71.28 32.0746C71.28 32.0746 71.3938 33.5967 70.6893 35.6496C69.8426 38.1241 70.6958 39.8933 70.6958 39.8933C70.6958 39.8933 70.2408 40.0137 69.7157 40.0137C69.5144 40.0137 69.3044 39.9943 69.1075 39.9427C67.4774 39.5622 67.0706 38.1046 67.0706 38.1046C67.0706 38.1046 67.2214 43.0299 61.3776 43.0299H61.3317C61.3317 43.0299 61.8458 42.342 61.9989 40.3619C62.2768 36.7073 64.7951 36.2064 64.7951 36.2064C64.7951 36.2064 63.4517 36.0409 62.8697 35.5272C61.9596 34.7166 62.023 33.7794 62.023 33.7794C64.0796 33.7514 65.4253 33.0635 66.4513 31.8962C67.5628 30.6321 67.7466 29.2713 67.7466 29.2713C67.7466 29.2713 66.6417 30.2559 64.504 30.2559C64.3159 30.2559 64.1146 30.2473 63.9091 30.2279C62.8982 30.1484 62.1981 29.5164 62.1981 29.5164C64.4232 28.1147 65.9852 25.6683 64.6004 21.9835C63.4911 19.0319 60.8262 16.8262 58.1439 15.1644C57.2512 14.6164 56.7545 14.0079 56.7545 13.4835C56.7545 12.2494 58.5398 12.2107 59.2728 11.3809C60.1174 10.4179 59.5879 8.8549 58.8549 7.91552C58.8549 7.91552 59.1022 7.86601 59.4917 7.86601C60.2639 7.86601 61.6008 8.05733 62.6992 9.17532C64.1584 10.6586 63.5524 12.2731 63.5524 12.2731L63.9441 12.3484C64.1781 12.3978 64.41 12.4064 64.6508 12.417C64.7033 12.417 64.7556 12.4193 64.8082 12.4193C66.9283 12.4193 67.8756 10.2416 67.8756 10.2416C67.8756 10.2416 70.1292 12.9653 66.8123 15.0979C66.2413 15.4634 65.9898 15.8009 66.0553 16.162L66.1078 16.3985L66.3441 16.4393C68.7486 17.08 69.9651 18.7095 71.4508 20.5627C73.7065 23.3809 76.8986 23.4712 77.2924 23.4712H77.334C77.334 23.4712 76.6054 25.7306 74.4591 25.7306C74.424 25.7306 74.3934 25.7306 74.3563 25.7285C73.3694 25.6941 72.864 25.3222 72.864 25.3222C72.864 25.3222 72.4768 30.4537 76.3734 32.0446Z" fill="black"/>
<path d="M69.8321 16.177C70.8145 16.6907 71.3855 17.3787 71.8866 17.9892C72.3788 18.5847 72.847 19.1587 73.5777 19.3973C73.8381 19.4854 74.1139 19.5263 74.3939 19.5263C75.4923 19.5263 76.5949 18.8663 77.0128 17.9526L77.4329 17.0369L76.4155 16.9766C76.3674 16.9746 75.059 16.8583 73.6019 15.3945C73.0023 14.7946 72.2782 14.4786 71.497 14.4786C70.5431 14.4786 69.8364 14.9473 69.7577 14.9945L68.8213 15.6417L69.8321 16.177ZM71.4993 15.1708C71.9894 15.1708 72.5604 15.3342 73.1008 15.8825C74.7964 17.5742 76.3739 17.6689 76.3739 17.6689C76.0873 18.2924 75.256 18.8404 74.396 18.8404C74.1969 18.8404 73.9978 18.8104 73.7988 18.7438C72.6327 18.3568 72.2147 16.637 70.1646 15.5664C70.1646 15.5664 70.7378 15.1708 71.4993 15.1708Z" fill="black"/>
<path d="M70.2912 25.3114V25.3457C69.7006 20.6636 66.2392 17.2821 62.3885 15.2246C62.0318 15.0377 61.7037 14.8786 61.3844 14.726C62.557 14.9044 64.4451 14.9259 65.9023 13.6833C65.9023 13.6833 63.6729 15.2956 59.1045 13.8316C60.3691 14.6378 62.8261 15.7751 65.0687 17.6174C70.6763 22.4587 66.6636 27.1817 66.6636 27.1817C68.6788 25.1158 68.7619 22.9015 68.1689 21.0936C69.2301 22.8284 69.9084 24.9352 69.8033 27.5321C69.648 31.2533 67.5673 34.4716 65.3772 37.0578C64.3249 38.3131 64.0885 39.8546 64.0885 39.8546C64.0885 39.8546 64.5129 38.4938 65.7316 37.0943C68.0793 34.3942 70.0855 31.5888 70.3481 27.5471C70.591 28.2803 71.5909 30.3204 73.177 31.0879C73.1814 31.09 71.1883 29.9098 70.2912 25.3114Z" fill="black"/>
<path d="M40.4066 42.636C40.4043 42.6296 39.9975 42.004 39.8662 40.3122C39.7129 38.2849 38.9341 37.1026 38.164 36.4232C38.3871 36.3201 38.5928 36.1932 38.7656 36.0362C39.8968 35.0366 39.8487 33.8607 39.8421 33.7338L39.7984 33.0996L39.1507 33.0889C37.4244 33.0609 36.2189 32.5536 35.2409 31.4422C35.0134 31.18 34.8295 30.9198 34.6807 30.664C35.2191 30.8252 35.8776 30.9456 36.6586 30.9456C36.8687 30.9456 37.0853 30.9327 37.315 30.9177C38.5293 30.8144 39.352 30.1051 39.4439 30.0255L40.1156 29.4193L39.3476 28.9333C37.6302 27.8542 35.8754 25.8077 37.2231 22.2218C38.0961 19.8894 40.1156 17.7761 43.3974 15.751C44.5045 15.0631 45.1106 14.2548 45.1106 13.4809C45.1106 12.2857 44.0953 11.8148 43.3493 11.4795C42.9862 11.3096 42.6076 11.1398 42.4238 10.9313C41.8463 10.2756 42.3341 9.0158 42.868 8.33429L43.555 7.45073L42.4436 7.23576C42.4107 7.23156 42.1197 7.17773 41.6733 7.17773C40.842 7.17773 39.2579 7.37557 37.9626 8.69339C36.8841 9.78972 36.7418 10.9571 36.7965 11.7095C36.6915 11.7181 36.5866 11.7224 36.4771 11.7288H36.359C34.7355 11.7288 33.9676 10.0391 33.937 9.97241L33.4797 8.91688L32.7401 9.80696C32.6986 9.86067 31.6177 11.1849 31.8803 12.8423C32.0554 13.9452 32.7598 14.8954 33.9697 15.678C34.1011 15.7596 34.1929 15.8327 34.2586 15.8908C31.9809 16.6195 30.7077 18.219 29.362 19.9001L29.1673 20.1388C27.1107 22.7098 24.2008 22.785 23.853 22.785L22.8618 22.755L23.1637 23.6816C23.1987 23.7933 24.076 26.4246 26.7103 26.4246L26.8372 26.4204C27.115 26.4117 27.3645 26.3752 27.5877 26.3322C27.4782 27.7661 26.9422 30.4168 24.5202 31.4057L23.7807 31.7066L24.1811 32.3903C24.2205 32.4525 25.1176 33.9424 27.1523 33.9424C28.0405 33.9401 28.7318 33.721 29.2504 33.4565C29.3292 34.1058 29.4911 34.9399 29.8083 35.8707C30.5456 38.0248 29.8587 39.5339 29.8325 39.5941L29.4693 40.3466L30.2919 40.5615C30.3465 40.5743 30.852 40.6992 31.4492 40.6992C31.7293 40.6992 31.9876 40.669 32.2195 40.6153C32.8429 40.4713 33.3243 40.2003 33.6897 39.8908C33.9129 40.5658 34.2958 41.3268 34.9586 42.0018C36.0877 43.1413 37.711 43.7173 39.8334 43.7173L41.1199 43.7002L40.4066 42.636ZM39.7852 43.0294C33.9413 43.0294 34.0901 38.1042 34.0901 38.1042C34.0901 38.1042 33.6831 39.5618 32.0531 39.9424C31.8584 39.9939 31.6506 40.0133 31.4472 40.0133C30.922 40.0133 30.4691 39.893 30.4691 39.893C30.4691 39.893 31.3181 38.1236 30.4713 35.6493C29.7712 33.5962 29.8849 32.0742 29.8849 32.0742C29.8849 32.0742 29.0995 33.2437 27.1457 33.2545H27.126C25.5004 33.2545 24.7915 32.0441 24.7915 32.0441C28.686 30.4554 28.3031 25.3261 28.3031 25.3261C28.3031 25.3261 27.7977 25.6958 26.8087 25.7323C26.7738 25.7345 26.7409 25.7345 26.7059 25.7345C24.5574 25.7345 23.831 23.4751 23.831 23.4751H23.8747C24.2708 23.4751 27.4586 23.3849 29.7144 20.5665C31.1999 18.7135 32.4185 17.0861 34.8188 16.4432L35.0594 16.4024L35.1118 16.166C35.1775 15.8049 34.928 15.4673 34.3571 15.1017C31.0401 12.967 33.2937 10.2455 33.2937 10.2455C33.2937 10.2455 34.2366 12.421 36.3611 12.421C36.4136 12.421 36.4618 12.419 36.5165 12.419C36.755 12.406 36.9913 12.3974 37.2231 12.348L37.6148 12.2727C37.6148 12.2727 37.0087 10.6582 38.4703 9.17485C39.5686 8.05487 40.9055 7.86566 41.6755 7.86566C42.0672 7.86566 42.3101 7.91517 42.3101 7.91517C41.5793 8.85675 41.0499 10.4175 41.8944 11.3805C42.6251 12.2083 44.4082 12.2491 44.4082 13.483C44.4082 14.0055 43.9116 14.616 43.0189 15.1641C40.3343 16.8259 37.6695 19.0315 36.5624 21.9832C35.1797 25.6679 36.7397 28.1122 38.9692 29.516C38.9692 29.516 38.2689 30.1481 37.256 30.2275C37.0503 30.2469 36.8512 30.2555 36.6586 30.2555C34.5232 30.2555 33.4184 29.2709 33.4184 29.2709C33.4184 29.2709 33.6022 30.6317 34.707 31.8958C35.7398 33.0632 37.0853 33.7511 39.142 33.779C39.142 33.779 39.2076 34.7163 38.2975 35.5268C37.7133 36.0384 36.3699 36.206 36.3699 36.206C36.3699 36.206 38.8904 36.707 39.166 40.3616C39.317 42.3415 39.8267 43.0294 39.8267 43.0294H39.7852Z" fill="black"/>
<path d="M26.7699 19.5286C27.0521 19.5286 27.3279 19.4878 27.5883 19.3997C28.3233 19.161 28.7894 18.587 29.2816 17.9916C29.7848 17.3811 30.3515 16.6932 31.3339 16.1793L32.3446 15.6462L31.4061 14.999C31.3273 14.9496 30.6228 14.4832 29.671 14.4832C28.8878 14.4832 28.1615 14.7971 27.5641 15.399C26.1071 16.8608 24.8009 16.9791 24.7527 16.9812L23.7354 17.0392L24.1532 17.9571C24.5733 18.8665 25.6737 19.5286 26.7699 19.5286ZM28.0652 15.8848C28.6079 15.3366 29.1788 15.1733 29.671 15.1733C30.428 15.1733 31.0014 15.5688 31.0014 15.5688C28.9535 16.6415 28.5334 18.3592 27.3628 18.7461C27.1703 18.8128 26.969 18.8429 26.7699 18.8429C25.91 18.8429 25.0787 18.2969 24.7942 17.6713C24.7942 17.6691 26.3695 17.5745 28.0652 15.8848Z" fill="black"/>
<path d="M31.3618 27.5343C31.2523 24.9373 31.9306 22.8306 32.9939 21.0958C32.401 22.9036 32.482 25.118 34.4992 27.1838C34.4992 27.1838 30.4866 22.4607 36.0964 17.6196C38.3412 15.7772 40.796 14.6399 42.0584 13.8337C37.4924 15.2978 35.2629 13.6854 35.2629 13.6854C36.7199 14.928 38.6082 14.9066 39.7809 14.7259C39.4636 14.8786 39.1311 15.0376 38.7787 15.2248C34.9238 17.282 31.4646 20.6636 30.8717 25.3458V25.3093C29.9769 29.9076 27.9858 31.0878 27.9858 31.0878C29.57 30.3203 30.5676 28.2823 30.8105 27.547C31.0752 31.5887 33.0814 34.3941 35.4291 37.0943C36.6478 38.4937 37.0766 39.8545 37.0766 39.8545C37.0766 39.8545 36.8381 38.3132 35.7813 37.0577C33.5956 34.4759 31.5149 31.2555 31.3618 27.5343Z" fill="black"/>
<path d="M49.2637 18.0602V18.989C49.5898 18.5998 50.2199 18.6794 50.2199 18.6794V20.0186C50.2199 20.0186 50.198 20.6765 49.9595 20.9625H50.6421H51.3226C51.0885 20.6788 51.0644 20.0186 51.0644 20.0186V18.6794C51.0644 18.6794 51.6945 18.5998 52.0183 18.989V18.0602H50.6421H49.2637Z" fill="black"/>
<path d="M48.6771 12.5524C49.1125 12.8922 49.3641 12.948 49.3728 12.9545L49.5435 13.0319V12.1569L47.9419 11.4948C47.9419 11.4969 47.9572 12.0021 48.6771 12.5524Z" fill="black"/>
<path d="M52.4863 12.5524C53.2105 12.0021 53.2237 11.4948 53.2237 11.4948L51.6221 12.1569V13.0319L51.7906 12.9545C51.8015 12.948 52.0509 12.8922 52.4863 12.5524Z" fill="black"/>
<path d="M55.3718 8.9903C55.3718 7.66397 53.0985 6.47083 50.589 6.47083H50.5869H50.5803H50.5737C48.0642 6.47083 45.791 7.66397 45.791 8.9903L45.8413 9.31713L46.8433 14.9688L45.837 15.5428L43.2334 17.0369H43.2421C43.2421 17.0369 42.6557 17.3315 42.3844 17.5142C41.3933 18.1913 41.1832 19.1781 41.7587 19.5865C41.9009 18.7826 42.5484 17.9398 43.7606 17.9398C44.6336 17.9398 45.2987 18.3827 45.837 19.047C45.9748 19.2147 46.106 19.393 46.2285 19.5865C46.3795 19.8295 46.5304 20.0423 46.6815 20.2487H39.9756C40.4678 21.2224 40.9359 22.2544 40.9359 23.3744V37.9584C40.9359 41.4884 43.6993 43.1738 46.6881 43.1738C48.9984 43.1738 49.3091 43.0706 50.5846 44.3175C51.8536 43.0684 52.1643 43.1738 54.4768 43.1738C57.4678 43.1738 60.2267 41.4884 60.2267 37.9584V23.3744C60.2267 22.2544 60.6949 21.2224 61.1893 20.2487H54.4814C54.6301 20.0445 54.781 19.8295 54.932 19.5865C55.0567 19.393 55.1858 19.2147 55.3214 19.047C55.8641 18.3805 56.5269 17.9398 57.4 17.9398C58.612 17.9398 59.2574 18.7803 59.4019 19.5865C59.9773 19.1781 59.7695 18.1913 58.7717 17.5142C58.5048 17.3315 57.9185 17.0369 57.9185 17.0369H57.9272L55.3236 15.5428L54.3216 14.9688L55.3236 9.31713L55.3718 8.9903ZM46.7777 9.64816L50.3003 10.822V16.2587L47.7076 14.9152L46.7777 9.64816ZM47.5063 21.1968C48.0839 21.762 48.6505 22.1126 49.1889 22.306C49.1188 22.579 49.0268 23.1422 49.2871 23.7034C49.4995 24.1547 49.8846 24.503 50.4381 24.7352C50.4993 25.2942 50.8582 26.1348 51.8536 26.5066C51.4182 26.9387 50.9937 27.3451 50.8209 27.5106L46.7843 27.4482C46.6924 27.4031 46.537 27.3021 46.467 27.158C46.4582 27.1387 46.4452 27.1279 46.4385 27.1064L47.0972 27.2117C47.1125 27.2139 47.1256 27.2139 47.1387 27.2139C47.2657 27.2139 47.3772 27.1279 47.3991 26.999C47.421 26.855 47.3225 26.7238 47.1803 26.7023L46.3708 26.5776L47.27 23.5271L46.4189 21.7664L45.0537 23.1852L44.9705 26.3583L44.0538 26.2164C43.9115 26.1884 43.7759 26.2917 43.7519 26.4314C43.73 26.5711 43.8262 26.7023 43.9706 26.7281L44.3558 26.7861C44.2178 26.8635 44.1282 26.9237 44.1172 26.9324L44.0385 26.986L44.0166 27.0806C43.7934 27.9706 44.2988 28.8154 44.8437 29.1938L44.8239 29.3057C44.802 29.4433 44.8327 29.5766 44.9157 29.6884C44.9945 29.8023 45.117 29.871 45.2528 29.8947C45.2811 29.8989 45.3118 29.9011 45.3381 29.9011C45.5744 29.9011 45.78 29.7399 45.839 29.5056C46.0426 29.5293 46.2286 29.5336 46.3554 29.5336H46.4627L51.7595 30.4729L51.8492 30.4149C52.2716 30.1247 53.8796 28.9725 54.4069 28.5919C54.5513 28.7145 54.7132 28.8262 54.9102 28.9187C54.7394 29.482 54.7284 30.3483 55.4046 31.0319H41.9052V23.3765C41.9052 22.6349 41.6842 21.8889 41.4239 21.201H47.5063V21.1968ZM54.0524 28.2007C53.5165 28.5876 52.1381 29.5766 51.6392 29.9205L46.8259 29.0714C46.8368 29.0283 46.8476 28.9875 46.8586 28.9445C46.9221 28.6994 46.9856 28.3641 46.9899 27.9706L51.0354 28.0351L51.1119 27.9578C51.1732 27.8976 52.4554 26.6808 53.1094 25.9799C53.2649 26.1713 53.4595 26.3541 53.7134 26.5153C53.6259 26.9796 53.663 27.6417 54.0524 28.2007ZM45.9945 27.3816C46.1082 27.6159 46.3139 27.7729 46.456 27.861C46.4517 28.0803 46.4299 28.4221 46.3708 28.723C46.3576 28.7898 46.3401 28.8521 46.3204 28.9144C46.3094 28.9531 46.2986 28.9853 46.2898 29.0111C46.0776 29.0111 45.6597 28.9853 45.3184 28.8628C44.9399 28.7252 44.3753 28.0437 44.5066 27.2934C44.6708 27.1946 45.0492 26.986 45.4036 26.986C45.6772 26.984 45.8632 27.1107 45.9945 27.3816ZM45.4934 26.4379L45.5744 23.3917L46.2701 22.6672L46.7078 23.5658L45.8457 26.4894L45.4934 26.4379ZM54.0087 42.23C53.7461 42.23 53.5033 42.2344 53.2845 42.2429L53.8577 40.4909C53.9475 40.248 53.4945 39.9363 53.3087 39.6632C53.5908 39.8374 54.3216 40.2178 54.6739 40.3705C54.6366 40.4264 54.0087 42.23 54.0087 42.23ZM55.8072 40.2393L55.4331 42.1569C55.1945 42.1892 54.9408 42.2064 54.6804 42.2172L55.0743 40.3726C55.1924 39.8245 53.6936 39.6547 52.9542 38.5776C52.5932 38.9775 51.9127 39.0957 51.23 39.0957C50.6066 39.0957 49.983 38.9968 49.6044 38.9238C49.5082 38.9086 49.4163 38.8979 49.3267 38.8979C49.1078 38.8979 48.9087 38.9645 48.7709 39.1925L48.6614 39.3731L46.6202 38.9001L46.1126 39.7255C46.0404 39.8589 46.036 39.9728 46.1519 40.0974L46.2898 40.2458C46.1957 40.5383 45.7713 40.9789 45.7713 40.9789L45.4672 40.607C45.2265 40.3426 45.2658 39.861 45.5174 39.4139L46.327 38.0703L48.0555 38.3153L47.7863 37.7134C47.4253 36.918 47.9745 35.9054 48.0335 35.3229C48.0139 35.4992 47.8497 35.5379 47.6572 35.5379C47.4823 35.5379 47.2875 35.5056 47.1584 35.5056C47.1082 35.5056 47.0643 35.5099 47.0402 35.527L46.572 35.8066L46.2023 35.4862C46.1586 35.424 46.1432 35.2799 46.2527 35.1724L47.1082 34.2308L46.0973 33.072L47.5129 33.7708L47.9439 33.257C48.0619 33.3709 48.0117 33.6696 48.0117 33.6696C48.4536 33.6804 49.692 34.3533 49.7576 35.9226C49.762 35.97 49.7621 36.0236 49.7621 36.0752C49.7621 36.0752 49.773 36.0946 49.7948 36.1269C49.8823 36.2451 50.1229 36.5482 50.4292 36.5761L52.3854 36.7654H52.3941C52.6084 36.7654 53.0351 36.5181 53.582 36.5181C53.8796 36.5181 54.2122 36.5934 54.5666 36.8127C54.5666 36.8127 54.7438 36.6751 55.0327 36.6601C55.0546 36.6579 55.0786 36.6579 55.1005 36.6579C55.9779 36.6579 56.341 37.4361 56.8114 38.0832C57.1659 38.5754 57.6384 39.3064 57.6384 39.3064C57.4634 39.5105 57.3015 39.6224 57.0302 39.6224C56.9559 39.6224 56.8704 39.6159 56.7786 39.5988C55.8378 39.4289 55.7021 37.5285 55.1661 37.378C55.1378 37.3694 55.1071 37.3673 55.0808 37.3673C54.9079 37.3673 54.8314 37.5177 54.8314 37.5177C55.0764 38.1649 54.9342 38.4272 55.1968 38.9259C55.3937 39.2956 55.7437 39.6008 55.8881 39.7449C55.8881 39.7492 55.8488 40.0287 55.8072 40.2393ZM45.3031 38.4249L45.3928 38.6463C45.3337 38.8399 44.6554 39.1151 44.6554 39.1151L44.5088 38.8012C44.3535 38.4659 44.3863 37.9004 44.859 37.5543L45.9572 36.8964L47.1212 37.1394C47.0993 37.5027 47.3203 37.7736 47.3203 37.7736L46.0994 37.5436L45.3686 38.0402C45.2461 38.124 45.2374 38.281 45.3031 38.4249ZM55.9909 42.0515L56.3257 40.3361C56.3432 40.2351 56.3651 40.1168 56.3804 40.018C56.4745 40.0567 56.5751 40.0888 56.6846 40.1083C56.8091 40.1318 56.9252 40.1427 57.0302 40.1427C57.5421 40.1427 57.8397 39.8781 58.0388 39.6525L58.297 39.3579L58.087 39.0355C58.0673 39.0032 57.6034 38.2809 57.2446 37.7864C57.1746 37.6897 57.1067 37.593 57.0389 37.4877C56.632 36.89 56.1221 36.1398 55.1005 36.1398L55.0086 36.1419C54.8402 36.1526 54.6957 36.1849 54.5798 36.2279C54.2581 36.0796 53.9277 36.0043 53.5843 36.0043C53.1619 36.0043 52.8054 36.1183 52.569 36.1979C52.5012 36.2171 52.44 36.2387 52.3918 36.2473L50.4818 36.0624C50.4578 36.0581 50.379 36.013 50.285 35.9012V35.8926L50.6984 35.7292C50.5826 34.377 49.2609 33.5449 48.5236 33.2633C48.4909 33.1279 48.4252 32.9925 48.3092 32.8829L47.8979 32.5003L47.5369 32.9259L47.3598 33.1429L44.6861 32.0638L46.4255 34.2092L45.7385 35.2304C45.4869 35.4926 45.7647 35.7549 45.7647 35.7549L46.4735 36.2343L47.2087 35.9656C47.235 35.9656 47.2569 35.9721 47.281 35.9742C47.246 36.0839 47.2 36.5138 47.1694 36.6342L45.8938 36.3869L44.5526 37.1307C43.8634 37.6274 43.7693 38.4508 44.0253 39.0139L44.1741 39.3343L44.3863 39.7857L44.8544 39.5944C44.8611 39.5923 44.8677 39.5902 44.872 39.5858C44.7036 40.1147 44.7714 40.6177 45.0733 40.9489L45.3578 41.3013L45.7362 41.7722L46.1519 41.3336C46.2744 41.2132 46.6705 40.7768 46.793 40.4027L46.8827 40.1168L46.6792 39.8975L46.6465 39.8589L46.8739 39.4891L48.5389 39.8739L48.913 39.9578L49.1121 39.6353L49.2216 39.459C49.2413 39.4225 49.2479 39.416 49.3244 39.416C49.3835 39.416 49.4425 39.4225 49.506 39.4354C50.1339 39.5514 50.7138 39.6094 51.2279 39.6094C51.7267 39.6094 52.0243 39.5902 52.381 39.474C52.381 39.474 53.2757 40.4716 53.3064 40.5103L52.7595 42.1698L52.7353 42.2708C51.6983 42.3526 51.1928 42.5761 50.5826 43.176C49.6963 42.3118 49.0684 42.2214 46.6858 42.2214C43.8349 42.2214 41.903 40.579 41.903 37.9563V31.5436H59.2574L59.2619 37.9563C59.2641 40.0847 57.9929 41.5679 55.9909 42.0515ZM59.7433 21.1968C59.4784 21.8847 59.2574 22.6306 59.2574 23.3724L59.2597 28.1576C58.2423 27.99 58.122 26.913 58.1176 26.8657L58.098 26.6464L57.8792 26.627C57.4371 26.5862 57.144 26.4014 56.8967 26.1648C56.398 25.6747 56.3957 24.8793 56.398 24.8729C56.3914 24.9136 55.8488 25.6596 56.4788 26.4744C56.7436 26.8183 57.1264 27.029 57.6231 27.1129C57.7391 27.7105 58.192 28.5532 59.2597 28.6822V31.0254H56.2579C54.8729 30.2687 55.4594 28.9358 55.4877 28.8801L55.6059 28.6264L55.3411 28.5275C53.8424 27.9815 54.2538 26.511 54.2756 26.4486L54.3369 26.2337L54.1335 26.139C52.895 25.5758 53.0635 24.0559 53.0788 23.9937C52.6982 24.2967 52.5603 24.9159 52.8228 25.5221C52.6807 25.6812 52.4903 25.8746 52.2824 26.0854C51.0004 25.765 50.961 24.6063 50.961 24.5525L50.9587 24.374L50.7903 24.3096C50.2893 24.1269 49.9458 23.8538 49.7773 23.4862C49.587 23.0798 49.6548 22.6542 49.7073 22.45C49.8539 22.4823 50.0004 22.5059 50.1405 22.5166C50.285 22.5318 50.4338 22.5403 50.5826 22.5403H50.5913H50.6021C50.7509 22.5403 50.8975 22.5318 51.0419 22.5166C51.8405 22.4393 52.7353 22.1018 53.6673 21.1946H59.7433V21.1968ZM55.0655 16.3597L56.2513 17.0369H56.2689L56.5664 17.2068C55.8968 17.3895 55.3849 17.7185 54.956 18.1504C54.9407 18.1634 54.9255 18.1807 54.9102 18.1957C54.8117 18.2988 54.7132 18.4106 54.6213 18.5246C54.6039 18.546 54.5863 18.5697 54.5666 18.5934C54.4748 18.7094 54.3894 18.8277 54.3063 18.9524C54.293 18.9739 54.2778 18.9954 54.2625 19.0146C54.1641 19.1587 54.07 19.3136 53.9759 19.4726C53.1314 20.9022 51.7836 21.7557 50.5846 21.7579C49.3879 21.7557 48.0402 20.9022 47.1957 19.4726C47.1036 19.3178 47.0118 19.1673 46.9134 19.0212C46.8936 18.9933 46.8761 18.9653 46.8586 18.9416C46.7756 18.8233 46.6924 18.7073 46.607 18.5977C46.5852 18.5676 46.5655 18.5439 46.5436 18.5181C46.4517 18.4085 46.3576 18.2988 46.2635 18.1978C46.2438 18.1827 46.2307 18.1634 46.2111 18.1462C45.78 17.7141 45.2702 17.3873 44.5985 17.2068L44.9004 17.0369H44.9137L46.0994 16.3597L47.3181 15.674L50.5737 17.4153L50.5803 17.4089L50.589 17.4153L53.8446 15.674L55.0655 16.3597ZM53.4595 14.9172L50.8646 16.2609V10.822L54.385 9.64816L53.4595 14.9172ZM50.5826 10.2243L46.723 8.72592C47.0512 7.96273 48.5652 7.31349 50.5826 7.31138C52.6019 7.31349 54.1159 7.96273 54.4418 8.72592L50.5826 10.2243Z" fill="black"/>
<path d="M6.94242 71.9845V65.255H10.9598V62.8061H0V65.255H4.01721V71.9845H6.94242ZM14.9581 68.1473V62.8061H12.1304V71.9845H14.6267L19.5019 66.6432V71.9845H22.3296V62.8061H19.8334L14.9581 68.1473ZM31.8426 68.5716V71.9845H34.6703V62.8061H31.8426V66.1611H27.2987V62.8061H24.4712V71.9845H27.2987V68.5716H31.8426ZM42.5452 71.9845C43.1887 71.9845 43.7738 71.9267 44.3198 71.7724C45.7824 71.3674 46.738 70.1912 46.738 68.5907C46.738 67.0675 45.9188 66.007 44.6123 65.5248C43.9883 65.2935 43.2473 65.2741 42.5452 65.2741H39.6395V62.8061H36.8118V71.9845H42.5452ZM42.0577 67.4339C42.4477 67.4339 42.8181 67.4339 43.1497 67.5496C43.6177 67.7038 43.8908 68.0894 43.8908 68.5522C43.8908 69.0343 43.6177 69.4393 43.1692 69.6321C42.8572 69.767 42.5452 69.767 42.0577 69.767H39.6395V67.4339H42.0577ZM51.808 68.5137L55.1817 71.9845H58.9455L54.2457 67.2025L58.7699 62.8061H55.2208L51.808 66.2577H51.028V62.8061H48.2002V71.9845H51.028V68.5137H51.808ZM64.764 62.5554C60.9612 62.5554 58.6795 64.6764 58.6795 67.4145C58.6795 70.1528 60.9612 72.2738 64.764 72.2738C68.5471 72.2738 70.8288 70.1528 70.8288 67.4145C70.8288 64.6764 68.5471 62.5554 64.764 62.5554ZM64.764 70.037C62.8723 70.037 61.6632 68.9186 61.6632 67.4145C61.6632 65.9105 62.8723 64.8114 64.764 64.8114C66.636 64.8114 67.8647 65.9105 67.8647 67.4145C67.8647 68.9186 66.636 70.037 64.764 70.037ZM80.246 62.2854H77.4183V63.2109C73.8691 63.2881 71.7434 64.7728 71.7434 67.3952C71.7434 70.0177 73.8691 71.3868 77.4183 71.464V72.3895H80.246V71.464C83.8147 71.3868 85.9403 70.0177 85.9403 67.3952C85.9403 64.7728 83.8147 63.2881 80.246 63.2109V62.2854ZM77.4183 69.4971C75.4682 69.4199 74.6101 68.6294 74.6101 67.3952C74.6101 66.1611 75.4682 65.2741 77.4183 65.1971V69.4971ZM80.246 65.1971C82.2157 65.2741 83.0542 66.1611 83.0542 67.3952C83.0542 68.6294 82.2157 69.4199 80.246 69.4971V65.1971ZM95.3481 62.2854H92.5204V63.2109C88.9712 63.2881 86.8455 64.7728 86.8455 67.3952C86.8455 70.0177 88.9712 71.3868 92.5204 71.464V72.3895H95.3481V71.464C98.9164 71.3868 101.043 70.0177 101.043 67.3952C101.043 64.7728 98.9164 63.2881 95.3481 63.2109V62.2854ZM92.5204 69.4971C90.5703 69.4199 89.7122 68.6294 89.7122 67.3952C89.7122 66.1611 90.5703 65.2741 92.5204 65.1971V69.4971ZM95.3481 65.1971C97.3179 65.2741 98.1563 66.1611 98.1563 67.3952C98.1563 68.6294 97.3179 69.4199 95.3481 69.4971V65.1971Z" fill="black"/>
</svg>
