<svg width="140" height="34" viewBox="0 0 140 34" fill="none" xmlns="http://www.w3.org/2000/svg">
<path d="M73.0754 9.13016H68.5517L65.3503 14.7562H63.7024L63.6498 2.58044H59.3672V24.5702H63.6498L63.7024 18.5349H65.3397L69.5907 24.5702H74.3351L68.7929 16.5721L73.0754 9.13016Z" fill="black"/>
<path d="M105.488 16.3727C104.618 15.8097 103.675 15.3682 102.685 15.0607L101.741 14.7038L101.489 14.6093C100.901 14.3889 100.282 14.158 100.261 13.5597C100.255 13.3825 100.294 13.2068 100.376 13.0489C100.456 12.891 100.576 12.7562 100.723 12.657C101.033 12.4433 101.396 12.3197 101.772 12.3002C102.592 12.2435 103.405 12.4859 104.06 12.9824L104.176 13.0559L106.464 10.4213L106.349 10.3269C106.064 10.0729 105.755 9.84784 105.425 9.65509C104.835 9.31742 104.193 9.0798 103.525 8.95183C102.563 8.74718 101.569 8.74718 100.607 8.95183C99.6772 9.0749 98.7951 9.43649 98.0462 10.0015C97.567 10.3762 97.1668 10.8416 96.8676 11.3711C96.569 11.9005 96.3774 12.4837 96.3036 13.0874C96.1725 14.1767 96.449 15.2759 97.0804 16.1733C97.9188 17.1019 99.0153 17.7597 100.229 18.0626L100.418 18.1256L100.848 18.2725C102.402 18.7974 102.843 19.0073 103.095 19.3222C103.212 19.4806 103.278 19.6711 103.284 19.868C103.284 20.6132 102.37 20.9176 101.751 21.1066C101.318 21.1879 100.873 21.1796 100.443 21.0821C100.014 20.9846 99.6088 20.8 99.2533 20.5397C98.6777 20.155 98.1853 19.6589 97.8045 19.0808C97.5633 19.3327 95.1908 21.6734 95.233 21.7153L95.3067 21.8203C96.4495 23.2513 98.051 24.2448 99.841 24.6333C100.25 24.7124 100.664 24.765 101.08 24.7908H101.51C102.924 24.8204 104.309 24.3894 105.456 23.5627C106.233 23.0137 106.828 22.2465 107.168 21.3584C107.374 20.7623 107.447 20.1281 107.381 19.5006C107.316 18.8732 107.114 18.2676 106.789 17.7267C106.458 17.1874 106.014 16.7256 105.488 16.3727Z" fill="black"/>
<path d="M119.323 16.3727C118.456 15.8097 117.517 15.3682 116.531 15.0606L115.576 14.7038L115.334 14.6093C114.736 14.3888 114.127 14.1579 114.096 13.5597C114.098 13.3828 114.143 13.209 114.225 13.0522C114.307 12.8955 114.424 12.7601 114.568 12.657C114.878 12.4432 115.242 12.3197 115.618 12.3001C116.438 12.2454 117.25 12.4875 117.906 12.9824L118.011 13.0558L120.299 10.4212L120.194 10.3268C119.907 10.0703 119.594 9.84516 119.26 9.65505C118.673 9.31779 118.035 9.08012 117.37 8.95178C116.405 8.74687 115.408 8.74687 114.442 8.95178C113.513 9.07849 112.632 9.43971 111.881 10.0014C111.399 10.3726 110.995 10.8354 110.692 11.3632C110.39 11.891 110.195 12.4733 110.118 13.0768C109.98 14.1665 110.257 15.268 110.894 16.1628C111.733 17.0914 112.829 17.7491 114.043 18.0521L114.222 18.1151L114.652 18.262C116.216 18.7868 116.657 18.9968 116.909 19.3116C117.03 19.4674 117.093 19.6603 117.087 19.8574C117.087 20.6027 116.184 20.9071 115.565 21.096C115.131 21.1776 114.684 21.1693 114.252 21.0719C113.821 20.9744 113.414 20.7897 113.057 20.5292C112.486 20.1388 111.995 19.6437 111.608 19.0702C111.377 19.3221 109.005 21.6628 109.036 21.7048L109.12 21.8098C110.263 23.2408 111.865 24.2342 113.655 24.6228C114.064 24.7025 114.478 24.7551 114.894 24.7802H115.324C116.738 24.8098 118.123 24.3788 119.27 23.5521C120.047 23.0032 120.642 22.236 120.982 21.3479C121.187 20.7518 121.261 20.1176 121.195 19.4901C121.13 18.8626 120.928 18.2571 120.603 17.7162C120.276 17.1833 119.839 16.7255 119.323 16.3727Z" fill="black"/>
<path d="M87.1406 9.13027V10.6417H86.952C85.7797 9.468 84.1914 8.80418 82.533 8.79439C81.5161 8.77427 80.506 8.9686 79.5697 9.36462C78.6328 9.7607 77.7897 10.3496 77.0956 11.0931C75.6958 12.6606 74.9453 14.7022 74.9964 16.803C74.9422 18.9392 75.691 21.018 77.0956 22.6285C77.7733 23.3725 78.6028 23.9618 79.5286 24.3567C80.4539 24.7515 81.4535 24.9425 82.4593 24.9167C84.1203 24.8855 85.7176 24.2726 86.9726 23.1848H87.1406V24.5389H91.5911V9.13027H87.1406ZM87.3612 16.887C87.406 18.1288 86.991 19.3434 86.1958 20.2984C85.815 20.725 85.3447 21.0628 84.8186 21.2877C84.2931 21.5126 83.7238 21.6192 83.1524 21.5999C82.5978 21.6092 82.048 21.4932 81.5446 21.2606C81.0411 21.028 80.5966 20.6847 80.2448 20.2563C79.4591 19.2816 79.0562 18.0537 79.111 16.803C79.0752 15.59 79.486 14.406 80.2654 13.4757C80.6245 13.0539 81.0722 12.7165 81.5767 12.4879C82.0812 12.2593 82.6299 12.145 83.1834 12.1532C83.7517 12.1355 84.3162 12.244 84.8371 12.4709C85.3579 12.6978 85.8224 13.0374 86.1958 13.4652C86.991 14.4244 87.4055 15.6422 87.3612 16.887Z" fill="black"/>
<path d="M135.549 9.13011V10.6416H135.36C134.191 9.47042 132.607 8.80676 130.952 8.79422C129.934 8.77532 128.923 8.97007 127.984 9.36599C127.046 9.76197 126.201 10.3503 125.504 11.0929C124.104 12.6604 123.354 14.702 123.405 16.8029C123.351 18.9391 124.1 21.0179 125.504 22.6284C126.182 23.3723 127.011 23.9617 127.937 24.3565C128.863 24.7514 129.862 24.9424 130.868 24.9166C132.529 24.8854 134.126 24.2725 135.381 23.1847H135.549V24.5387H140V9.13011H135.549ZM135.77 16.8869C135.819 18.1294 135.404 19.3457 134.604 20.2982C134.224 20.7249 133.753 21.0627 133.227 21.2875C132.701 21.5125 132.132 21.619 131.561 21.5998C131.006 21.6091 130.457 21.4931 129.953 21.2605C129.45 21.0278 129.005 20.6845 128.653 20.2562C127.868 19.2815 127.464 18.0536 127.52 16.8029C127.484 15.5898 127.895 14.4059 128.674 13.4756C129.033 13.0537 129.481 12.7164 129.985 12.4878C130.49 12.2592 131.039 12.1448 131.592 12.1531C132.16 12.1354 132.725 12.2439 133.246 12.4708C133.767 12.6976 134.231 13.0373 134.604 13.4651C135.404 14.4218 135.819 15.6413 135.77 16.8869Z" fill="black"/>
<path d="M30.1334 0C20.894 0 13.5444 7.45454 13.5444 16.5889C13.5444 25.8283 20.999 33.1779 30.1334 33.1779C39.2678 33.1779 46.7223 25.7233 46.7223 16.5889C46.7223 7.45454 39.2678 0 30.1334 0ZM30.1334 22.6785C26.7736 22.6785 23.9388 19.8437 23.9388 16.4839C23.9388 13.1242 26.7736 10.2893 30.1334 10.2893C33.4932 10.2893 36.328 13.1242 36.328 16.4839C36.223 19.9487 33.4932 22.6785 30.1334 22.6785Z" fill="url(#paint0_linear_222_530)"/>
<path d="M13.4391 4.72473V28.8732H7.55949L0 4.72473H13.4391Z" fill="url(#paint1_linear_222_530)"/>
<defs>
<linearGradient id="paint0_linear_222_530" x1="30.1334" y1="0" x2="30.1334" y2="33.1779" gradientUnits="userSpaceOnUse">
<stop stop-color="#0160D1"/>
<stop offset="1" stop-color="#00479C"/>
</linearGradient>
<linearGradient id="paint1_linear_222_530" x1="6.71957" y1="4.72473" x2="6.71957" y2="28.8732" gradientUnits="userSpaceOnUse">
<stop stop-color="#0160D1"/>
<stop offset="1" stop-color="#00479C"/>
</linearGradient>
</defs>
</svg>
