<svg width="155" height="76" viewBox="0 0 155 76" fill="none" xmlns="http://www.w3.org/2000/svg">
<mask id="mask0_222_379" style="mask-type:alpha" maskUnits="userSpaceOnUse" x="56" y="0" width="43" height="42">
<path d="M77.8133 41.7594C89.3449 41.7594 98.693 32.4113 98.693 20.8797C98.693 9.34817 89.3449 0 77.8133 0C66.2818 0 56.9336 9.34817 56.9336 20.8797C56.9336 32.4113 66.2818 41.7594 77.8133 41.7594Z" fill="white"/>
</mask>
<g mask="url(#mask0_222_379)">
<path d="M56.9336 0.00195312H98.693V41.7614H56.9336V0.00195312Z" fill="url(#paint0_linear_222_379)"/>
<path d="M56.9336 25.6953H69.7827V41.7566H56.9336V25.6953Z" fill="url(#paint1_linear_222_379)"/>
<path d="M69.7832 20.559C69.7832 17.8607 69.7832 16.5116 70.3084 15.4805C70.7704 14.5739 71.5074 13.8368 72.414 13.3748C73.4452 12.8496 74.7943 12.8496 77.4926 12.8496H85.8445V41.76H69.7832V20.559Z" fill="url(#paint2_linear_222_379)"/>
<path d="M85.8438 -0.00195312H98.6928V41.7575H85.8438V-0.00195312Z" fill="url(#paint3_linear_222_379)"/>
</g>
<path d="M8.06107 72.1467H10.9171V55.7189H6.75608C2.57268 55.7189 0.380309 57.874 0.380309 61.0432C0.380309 63.5711 1.58089 65.0551 3.73598 66.5987L0 72.1467H3.09467L7.2557 65.935L5.81649 64.9656C4.06409 63.7799 3.21399 62.8627 3.21399 60.8717C3.21399 59.1267 4.4444 57.9411 6.78591 57.9411H8.06107V72.1467ZM45.6222 71.3488V69.0521C44.7497 69.6412 43.2807 70.1632 41.9086 70.1632C39.8504 70.1632 39.0749 69.1938 38.9556 67.2102H45.7415V65.7188C45.7415 61.5801 43.922 60.0216 41.1032 60.0216C37.6804 60.0216 36.0474 62.6465 36.0474 66.2408C36.0474 70.3794 38.0831 72.3854 41.6774 72.3854C43.4671 72.3854 44.7945 71.9156 45.6222 71.3488ZM63.2059 72.3854C64.5109 72.3854 65.4281 72.1467 66.1142 71.6546V69.3578C65.4057 69.8574 64.5556 70.1632 63.3774 70.1632C61.364 70.1632 60.5363 68.6046 60.5363 66.1438C60.5363 63.5711 61.5579 62.2438 63.3998 62.2438C64.4885 62.2438 65.5474 62.6241 66.1142 62.982V60.5883C65.525 60.2602 64.4885 60.0216 63.0941 60.0216C59.4998 60.0216 57.628 62.6017 57.628 66.2184C57.628 70.1855 59.4476 72.3854 63.2059 72.3854ZM19.8581 60.2602V64.9656H16.0998V60.2602H13.281V72.1467H16.0998V67.1878H19.8581V72.1467H22.6694V60.2602H19.8581ZM35.3613 69.9245H34.1085V60.2602H25.9058V61.2744C25.9058 64.1826 25.7193 67.941 24.7276 69.9245H23.8476V74.8686H26.4501V72.1467H32.7588V74.8686H35.3613V69.9245ZM54.6079 72.1467H57.7921L53.2806 65.7411L57.2552 60.2602H54.4141L50.4469 65.7411V60.2602H47.6281V72.1467H50.4469V66.3079L54.6079 72.1467ZM41.0585 62.2438C42.453 62.2438 42.878 63.4071 42.878 64.891V65.1297H38.9556C39.0302 63.2356 39.7088 62.2438 41.0585 62.2438ZM31.2972 69.9245H27.3226C28.1056 68.1349 28.3219 64.891 28.3219 62.8404V62.4824H31.2972V69.9245ZM78.4332 72.1467H80.894L84.2497 59.7382V72.1467H87.061V55.7189H83.2281L79.9246 67.8962L76.6137 55.7189H72.736V72.1467H75.0775V59.7382L78.4332 72.1467ZM98.5225 71.3488V69.0521C97.65 69.6412 96.1884 70.1632 94.8163 70.1632C92.7582 70.1632 91.9752 69.1938 91.8559 67.2102H98.6418V65.7188C98.6418 61.5801 96.8223 60.0216 94.011 60.0216C90.5807 60.0216 88.9551 62.6465 88.9551 66.2408C88.9551 70.3794 90.9834 72.3854 94.5777 72.3854C96.3748 72.3854 97.6948 71.9156 98.5225 71.3488ZM93.9662 62.2438C95.3607 62.2438 95.7857 63.4071 95.7857 64.891V65.1297H91.8559C91.9304 63.2356 92.6165 62.2438 93.9662 62.2438ZM109.261 62.4824V60.2602H99.8275V62.4824H103.138V72.1467H105.95V62.4824H109.261ZM113.511 60.2602H110.909V75.577H113.727V70.7523C114.436 71.8186 115.472 72.3854 116.68 72.3854C119.425 72.3854 121.311 70.1855 121.311 66.196C121.311 62.2214 119.469 60.0216 116.822 60.0216C115.495 60.0216 114.413 60.6405 113.653 61.7964L113.511 60.2602ZM115.972 70.1632C114.481 70.1632 113.727 68.9626 113.727 66.2184C113.727 63.4518 114.525 62.2438 116.114 62.2438C117.65 62.2438 118.403 63.4518 118.403 66.196C118.403 68.9626 117.605 70.1632 115.972 70.1632ZM123.205 60.2602V72.1467H125.636L129.991 64.8016V72.1467H132.728V60.2602H130.297L125.949 67.6129V60.2602H123.205ZM142.072 72.1467H145.256L140.744 65.7411L144.719 60.2602H141.878L137.911 65.7411V60.2602H135.092V72.1467H137.911V66.3079L142.072 72.1467ZM154.831 64.0409C154.831 61.1551 153.369 60.0738 150.386 60.0738C148.522 60.0738 147.053 60.6629 146.203 61.1551V63.4966C146.963 62.9298 148.619 62.3184 150.058 62.3184C151.408 62.3184 152.019 62.7882 152.019 64.0633V64.727H151.572C147.269 64.727 145.353 66.1438 145.353 68.5599C145.353 70.9685 146.822 72.3183 148.992 72.3183C150.647 72.3183 151.356 71.7739 151.9 71.2072H152.019C152.042 71.5129 152.139 71.9156 152.236 72.1467H154.972C154.883 71.1848 154.831 70.2154 154.831 69.246V64.0409ZM152.019 69.3131C151.669 69.8351 151.005 70.2601 150.013 70.2601C148.828 70.2601 148.239 69.5517 148.239 68.4853C148.239 67.0909 149.208 66.5987 151.617 66.5987H152.019V69.3131Z" fill="#272727"/>
<defs>
<linearGradient id="paint0_linear_222_379" x1="86.8607" y1="30.2759" x2="52.4091" y2="-17.7474" gradientUnits="userSpaceOnUse">
<stop stop-color="#4643B9"/>
<stop offset="1" stop-color="#1E8AFF"/>
</linearGradient>
<linearGradient id="paint1_linear_222_379" x1="70.6291" y1="36.1994" x2="32.6473" y2="29.5838" gradientUnits="userSpaceOnUse">
<stop stop-color="#FF002E"/>
<stop offset="1" stop-color="#FFADA1"/>
</linearGradient>
<linearGradient id="paint2_linear_222_379" x1="168.56" y1="105.202" x2="178.122" y2="27.0045" gradientUnits="userSpaceOnUse">
<stop stop-color="#3C3BA0"/>
<stop offset="0.49" stop-color="#1E8AFF"/>
<stop offset="1" stop-color="#00B2FF"/>
</linearGradient>
<linearGradient id="paint3_linear_222_379" x1="85.8437" y1="2.14545" x2="122.21" y2="20.9372" gradientUnits="userSpaceOnUse">
<stop stop-color="#FFEA1A"/>
<stop offset="1" stop-color="#FFB800"/>
</linearGradient>
</defs>
</svg>
