<svg width="14" height="14" viewBox="0 0 14 14" fill="none" xmlns="http://www.w3.org/2000/svg">
<path d="M5.24992 9.43251L3.22576 7.40835C3.11669 7.29928 2.96875 7.238 2.81451 7.238C2.66026 7.238 2.51233 7.29928 2.40326 7.40835C2.29419 7.51742 2.23291 7.66535 2.23291 7.8196C2.23291 7.89597 2.24795 7.9716 2.27718 8.04216C2.30641 8.11273 2.34925 8.17684 2.40326 8.23085L4.84159 10.6692C5.06909 10.8967 5.43659 10.8967 5.66409 10.6692L11.8358 4.49751C11.9448 4.38844 12.0061 4.24051 12.0061 4.08626C12.0061 3.93202 11.9448 3.78408 11.8358 3.67501C11.7267 3.56594 11.5788 3.50467 11.4245 3.50467C11.2703 3.50467 11.1223 3.56594 11.0133 3.67501L5.24992 9.43251Z" fill="white"/>
</svg>
