<svg width="16" height="18" viewBox="0 0 16 18" fill="none" xmlns="http://www.w3.org/2000/svg">
<path d="M11.7253 0C14.4711 0 16 1.58222 16 4.29333V13.4756C16 16.2311 14.4711 17.7778 11.7253 17.7778H4.27556C1.57333 17.7778 0 16.2311 0 13.4756V4.29333C0 1.58222 1.57333 0 4.27556 0H11.7253ZM4.51556 12.2133C4.24889 12.1867 3.99111 12.3111 3.84889 12.5422C3.70667 12.7644 3.70667 13.0578 3.84889 13.2889C3.99111 13.5111 4.24889 13.6444 4.51556 13.6089H11.4844C11.8391 13.5733 12.1067 13.2702 12.1067 12.9156C12.1067 12.5511 11.8391 12.2489 11.4844 12.2133H4.51556ZM11.4844 8.15911H4.51556C4.13244 8.15911 3.82222 8.47111 3.82222 8.85333C3.82222 9.23556 4.13244 9.54667 4.51556 9.54667H11.4844C11.8667 9.54667 12.1778 9.23556 12.1778 8.85333C12.1778 8.47111 11.8667 8.15911 11.4844 8.15911ZM7.17244 4.13333H4.51556V4.14222C4.13244 4.14222 3.82222 4.45333 3.82222 4.83556C3.82222 5.21778 4.13244 5.52889 4.51556 5.52889H7.17244C7.55556 5.52889 7.86667 5.21778 7.86667 4.82578C7.86667 4.44444 7.55556 4.13333 7.17244 4.13333Z" fill="url(#paint0_linear_1_820)"/>
<defs>
<linearGradient id="paint0_linear_1_820" x1="0" y1="0" x2="17.6796" y2="15.9116" gradientUnits="userSpaceOnUse">
<stop stop-color="white" stop-opacity="0"/>
<stop offset="1" stop-color="white"/>
</linearGradient>
</defs>
</svg>
