<svg width="24" height="24" viewBox="0 0 24 24" fill="none" xmlns="http://www.w3.org/2000/svg">
<g clip-path="url(#clip0_1_1016)">
<path d="M18.8454 3.29651C20.1971 4.30318 21.2889 5.6182 22.0297 7.13209C22.7705 8.64598 23.139 10.3149 23.1044 12C23.1056 13.172 22.9149 14.3362 22.5399 15.4465M21.8894 17.009C20.9992 18.7646 19.6329 20.2341 17.9466 21.2493C16.2604 22.2646 14.3224 22.7847 12.3544 22.75C10.8621 22.7519 9.38596 22.4421 8.02036 21.8405M6.57936 21.307C5.09724 20.3254 3.86987 19.0054 2.99857 17.4559C2.12727 15.9064 1.63704 14.1719 1.56836 12.3955M1.73286 10.6385C2.28786 5.22301 6.79186 1.25001 12.3544 1.25001C14.0921 1.24759 15.8044 1.66802 17.3434 2.47501" stroke="white" stroke-linecap="round" stroke-linejoin="round"/>
<path d="M9.70476 4.53909C10.6237 4.19816 11.6053 4.05934 12.5828 4.13209C14.649 4.13209 16.6306 4.95286 18.0916 6.41384C19.5527 7.87483 20.3736 9.85638 20.3738 11.9226C20.4186 13.719 19.8229 15.4728 18.6933 16.8703C17.5636 18.2678 15.9737 19.2179 14.2078 19.5506M12.5828 19.7136C11.49 19.7278 10.4069 19.5072 9.40672 19.0665C8.40659 18.6259 7.51278 17.9756 6.78576 17.1596M5.88276 15.9016C5.16647 14.6981 4.78946 13.3231 4.79176 11.9226C4.75724 10.6239 5.05486 9.33789 5.65641 8.1864C6.25797 7.03491 7.14355 6.05606 8.22926 5.34259" stroke="white" stroke-linecap="round" stroke-linejoin="round"/>
<path d="M15.0448 7.85589C15.7571 8.26852 16.343 8.86805 16.7393 9.58963C17.1355 10.3112 17.3269 11.1274 17.2928 11.9499C17.2926 12.9403 16.9852 13.9063 16.413 14.7147C15.8408 15.5231 15.0319 16.1342 14.0979 16.4636C13.1639 16.793 12.1506 16.8246 11.1979 16.554C10.2451 16.2834 9.39978 15.7239 8.77833 14.9527C8.15688 14.1815 7.78994 13.2365 7.7281 12.248C7.66625 11.2595 7.91253 10.2762 8.433 9.43355C8.95347 8.5909 9.7225 7.93043 10.6341 7.54318C11.5457 7.15593 12.5549 7.06097 13.5228 7.27139" stroke="white" stroke-linecap="round" stroke-linejoin="round"/>
<path d="M8.89597 5.71186C9.29803 5.71186 9.62397 5.38592 9.62397 4.98386C9.62397 4.5818 9.29803 4.25586 8.89597 4.25586C8.49391 4.25586 8.16797 4.5818 8.16797 4.98386C8.16797 5.38592 8.49391 5.71186 8.89597 5.71186Z" stroke="white" stroke-linecap="round" stroke-linejoin="round"/>
<path d="M1.62448 12.2705C2.02655 12.2705 2.35248 11.9446 2.35248 11.5425C2.35248 11.1405 2.02655 10.8145 1.62448 10.8145C1.22242 10.8145 0.896484 11.1405 0.896484 11.5425C0.896484 11.9446 1.22242 12.2705 1.62448 12.2705Z" stroke="white" stroke-linecap="round" stroke-linejoin="round"/>
<path d="M7.21823 22.2372C7.6203 22.2372 7.94623 21.9113 7.94623 21.5092C7.94623 21.1072 7.6203 20.7812 7.21823 20.7812C6.81617 20.7812 6.49023 21.1072 6.49023 21.5092C6.49023 21.9113 6.81617 22.2372 7.21823 22.2372Z" stroke="white" stroke-linecap="round" stroke-linejoin="round"/>
<path d="M22.269 16.999C22.6711 16.999 22.997 16.6731 22.997 16.271C22.997 15.869 22.6711 15.543 22.269 15.543C21.867 15.543 21.541 15.869 21.541 16.271C21.541 16.6731 21.867 16.999 22.269 16.999Z" stroke="white" stroke-linecap="round" stroke-linejoin="round"/>
<path d="M18.1499 3.6767C18.5519 3.6767 18.8779 3.35077 18.8779 2.9487C18.8779 2.54664 18.5519 2.2207 18.1499 2.2207C17.7478 2.2207 17.4219 2.54664 17.4219 2.9487C17.4219 3.35077 17.7478 3.6767 18.1499 3.6767Z" stroke="white" stroke-linecap="round" stroke-linejoin="round"/>
<path d="M6.353 17.2529C6.75506 17.2529 7.081 16.9269 7.081 16.5249C7.081 16.1228 6.75506 15.7969 6.353 15.7969C5.95094 15.7969 5.625 16.1228 5.625 16.5249C5.625 16.9269 5.95094 17.2529 6.353 17.2529Z" stroke="white" stroke-linecap="round" stroke-linejoin="round"/>
<path d="M14.2358 8.20209C14.6379 8.20209 14.9638 7.87616 14.9638 7.47409C14.9638 7.07203 14.6379 6.74609 14.2358 6.74609C13.8337 6.74609 13.5078 7.07203 13.5078 7.47409C13.5078 7.87616 13.8337 8.20209 14.2358 8.20209Z" stroke="white" stroke-linecap="round" stroke-linejoin="round"/>
<path d="M13.3706 20.2744C13.7726 20.2744 14.0986 19.9484 14.0986 19.5464C14.0986 19.1443 13.7726 18.8184 13.3706 18.8184C12.9685 18.8184 12.6426 19.1443 12.6426 19.5464C12.6426 19.9484 12.9685 20.2744 13.3706 20.2744Z" stroke="white" stroke-linecap="round" stroke-linejoin="round"/>
</g>
<defs>
<clipPath id="clip0_1_1016">
<rect width="24" height="24" fill="white"/>
</clipPath>
</defs>
</svg>
