<svg width="146" height="40" viewBox="0 0 146 40" fill="none" xmlns="http://www.w3.org/2000/svg">
<g clip-path="url(#clip0_1113_177)">
<path d="M75.5024 26.5214C74.8533 26.8934 74.1122 27.2663 73.2791 27.4514C72.4453 27.6372 71.6115 27.7306 70.7773 27.7306C68.4613 27.7306 66.6102 26.9862 65.3133 25.5903C63.9236 24.2878 63.2742 22.4278 63.2742 20.0076C63.2742 17.6815 64.0168 15.8207 65.5906 14.4245C67.0718 13.1214 69.0182 12.4711 71.3337 12.4711C72.0741 12.4711 72.8153 12.5633 73.649 12.7493C74.3901 12.9357 75.1307 13.1214 75.8733 13.4942C75.7808 13.6799 75.6871 13.96 75.5944 14.2391C75.5024 14.6102 75.5024 14.8907 75.4097 15.0752L75.3161 15.1684C75.1308 14.8907 74.8533 14.7037 74.4834 14.4245C73.4638 13.6799 72.3526 13.3066 71.241 13.3066C69.2957 13.3066 67.9071 13.96 66.7949 15.3548C65.8681 16.564 65.3133 18.147 65.3133 20.1003C65.3133 22.1488 65.8681 23.8227 66.8875 25.0324C67.9992 26.2425 69.3882 26.8934 71.0558 26.8934C71.7969 26.8934 72.631 26.7075 73.4638 26.4285C74.2054 26.1489 74.946 25.6839 75.5944 25.1255L75.5024 26.5214ZM60.773 12.842H61.8857C61.7004 13.3066 61.1436 14.9825 60.1256 17.8675C58.9213 21.1247 57.9949 23.9156 57.2538 26.1489C56.1422 29.2194 55.4936 31.1739 55.2151 32.1057L54.7525 32.0121L54.0109 32.1057C54.382 31.2667 54.8452 29.9638 55.4936 28.2904C55.679 27.7306 55.9573 27.0792 56.2347 26.3348C55.8637 25.3116 55.5863 24.1957 55.2151 23.1722C54.4747 20.9392 53.734 18.8911 53.1778 17.0292C52.3445 14.7037 51.8813 13.3066 51.6956 12.842H53.5487C54.0109 14.5175 54.5677 16.2855 55.1226 17.961C55.7716 20.0076 56.4201 21.8679 57.0685 23.5435H57.2538C58.0865 21.2175 58.7354 19.0784 59.3839 17.3097C60.1256 15.0752 60.5888 13.5864 60.773 12.842ZM42.896 19.9149H45.0264C46.0456 19.8214 46.8784 19.4496 47.5277 18.7983C48.0825 18.147 48.3611 17.403 48.3611 16.378C48.3611 15.635 48.1764 14.9825 47.8055 14.5175C47.4348 14.0531 46.9713 13.7734 46.4157 13.6799C45.9536 13.6799 45.4893 13.5864 45.2114 13.5864H42.896V19.9149ZM42.896 27.4514L41.9695 27.3587L41.0427 27.4514V12.842H44.8416C46.8784 12.842 48.3611 13.0285 49.1944 13.5864C49.9366 14.0531 50.3058 14.9825 50.3058 16.2855C50.3058 17.5885 49.9366 18.5187 49.1944 19.2642C48.4545 19.9149 47.3427 20.3792 45.7675 20.6591C45.5814 20.7523 45.3038 20.7523 45.0264 20.7523H42.896V27.4514ZM78.6515 20.5664C78.9289 20.5664 79.2073 20.5664 79.2999 20.3792C79.4858 20.2873 79.5778 20.1003 79.5778 19.8214C79.5778 19.4496 79.4858 19.2642 79.3926 19.1714C79.2999 19.0784 79.1146 19.0784 78.9289 19.0784H78.6515V20.5664ZM77.9109 18.7054H79.2999C79.6711 18.7054 79.9484 18.7983 80.1332 18.9845C80.3189 19.1714 80.4111 19.3577 80.4111 19.6357C80.4111 19.9149 80.3189 20.1003 80.1332 20.2873C80.0411 20.4733 79.763 20.6591 79.4858 20.6591C79.6711 20.9392 79.8557 21.2175 79.9484 21.4965C80.1332 21.6832 80.3189 21.9612 80.5048 22.2411L80.6901 22.6132H79.8557L78.8362 20.7523H78.6515V22.6132H77.9109V18.7054ZM76.3355 20.6591C76.3355 21.4965 76.6134 22.1488 77.1693 22.7069C77.6324 23.2641 78.2814 23.6366 79.1146 23.6366C79.8557 23.6366 80.5048 23.2641 81.06 22.7069C81.6154 22.1488 81.8938 21.4965 81.8938 20.6591C81.8938 19.8214 81.6154 19.1714 81.06 18.6116C80.5048 18.0534 79.8557 17.7741 79.1146 17.7741C78.2814 17.7741 77.6324 18.0534 77.1693 18.6116C76.6134 19.1714 76.3355 19.8214 76.3355 20.6591ZM75.7808 20.6591C75.7808 19.7286 76.0582 18.8911 76.7056 18.2401C77.3551 17.5885 78.1889 17.2171 79.1146 17.2171C80.0411 17.2171 80.7821 17.5885 81.4301 18.2401C82.079 18.8911 82.4502 19.7286 82.4502 20.6591C82.4502 21.5903 82.079 22.4278 81.4301 23.0792C80.7821 23.8227 80.0411 24.1019 79.1146 24.1019C78.1889 24.1019 77.3551 23.8227 76.7056 23.0792C76.0582 22.4278 75.7808 21.5903 75.7808 20.6591ZM141.549 27.4514L140.621 27.3587L139.694 27.4514V13.8672H137.379C136.825 13.8672 136.082 13.96 135.064 14.0531V12.842H145.994V14.0531C145.532 14.0531 144.882 13.96 144.049 13.96C143.214 13.8672 142.382 13.8672 141.549 13.8672V27.4514ZM124.133 26.1489C121.817 26.1489 119.966 25.5903 118.576 24.3811C117.186 23.2641 116.539 21.7753 116.539 20.0076C116.539 18.2401 117.186 16.7508 118.483 15.635C119.875 14.5175 121.817 13.96 124.133 13.96V12.842H126.078V13.96C128.394 13.96 130.339 14.5175 131.636 15.635C133.026 16.7508 133.674 18.2401 133.674 20.0076C133.674 21.7753 133.026 23.2641 131.73 24.3811C130.339 25.5903 128.394 26.1489 126.078 26.1489V27.4514C125.802 27.4514 125.614 27.3587 125.337 27.3587H124.689C124.504 27.3587 124.319 27.4514 124.133 27.4514V26.1489ZM124.133 25.4046V14.6102C122.465 14.6102 121.076 15.1684 120.059 16.1922C119.131 17.2171 118.669 18.4258 118.669 20.0076C118.669 21.5903 119.131 22.7996 120.152 23.8227C121.169 24.847 122.465 25.4046 124.133 25.4046ZM126.078 14.6102V25.4046C127.747 25.4046 129.044 24.847 130.061 23.8227C131.081 22.7996 131.636 21.5903 131.636 20.0076C131.636 18.5187 131.081 17.3098 130.154 16.2855C129.133 15.1684 127.747 14.6102 126.078 14.6102ZM111.722 15.262C111.257 14.6102 110.61 14.0531 109.775 13.6799C109.035 13.4002 108.201 13.2132 107.367 13.2132C105.422 13.2132 104.033 13.8672 102.921 15.1684C101.809 16.4711 101.346 18.2401 101.346 20.3792C101.346 22.5207 101.901 24.1019 103.014 25.3116C104.125 26.4285 105.422 26.9862 107.089 26.9862C109.128 26.9862 110.703 26.1489 111.814 24.3811C112.647 22.9854 113.111 21.5903 113.111 20.0076C113.111 18.9845 113.018 18.147 112.833 17.403C112.647 16.6568 112.277 15.9142 111.722 15.262ZM99.2149 20.1003C99.2149 17.8675 99.9566 16.0062 101.531 14.5175C102.921 13.1214 104.867 12.4711 107.089 12.4711C109.313 12.4711 111.165 13.0285 112.647 14.2391C114.315 15.5419 115.149 17.403 115.149 19.8214C115.149 22.1488 114.406 24.1019 112.926 25.4983C111.444 26.9862 109.498 27.7306 107.089 27.7306C104.682 27.7306 102.829 26.9862 101.346 25.6839C99.9566 24.2878 99.2149 22.4278 99.2149 20.1003ZM97.4548 26.5214C96.8064 26.8934 96.159 27.2663 95.3251 27.4514C94.492 27.6372 93.6582 27.7306 92.7313 27.7306C90.4154 27.7306 88.5626 26.9862 87.2667 25.5903C85.8767 24.2878 85.2287 22.4278 85.2287 20.0076C85.2287 17.6815 86.062 15.8207 87.5442 14.4245C89.0274 13.1214 90.9708 12.4711 93.2872 12.4711C94.0288 12.4711 94.7699 12.5633 95.6021 12.7493C96.4378 12.9357 97.1774 13.1214 97.919 13.4942C97.826 13.6799 97.7337 13.96 97.6411 14.2391C97.5485 14.6102 97.4548 14.8907 97.4548 15.0752L97.2701 15.1684C97.0853 14.8907 96.8064 14.7037 96.4378 14.4245C95.4178 13.6799 94.3062 13.3066 93.1934 13.3066C91.3424 13.3066 89.8605 13.96 88.8416 15.3548C87.8226 16.564 87.3584 18.147 87.3584 20.1003C87.3584 22.1488 87.8226 23.8227 88.9347 25.0324C89.9517 26.2425 91.3424 26.8934 93.0088 26.8934C93.8436 26.8934 94.5837 26.7075 95.4178 26.4285C96.2516 26.1489 96.9916 25.6839 97.5485 25.1255L97.4548 26.5214Z" fill="white"/>
<path d="M32.9678 8.80308C34.6202 8.53665 36.2735 9.3986 36.6675 10.9278C37.0637 12.454 35.9406 13.9796 34.0911 14.2416C32.7713 14.4448 31.5148 13.8476 30.9217 12.9856L24.8411 13.9127C24.7109 15.5073 24.1153 17.1647 23.1912 18.6248L28.0808 22.9407C29.2677 22.3427 30.7902 22.4743 31.9772 23.4706C33.6302 24.8647 34.0911 27.5186 32.8356 29.3066C31.5148 31.1698 29.0695 31.3001 27.4198 29.643C26.2962 28.4437 25.8994 26.787 26.2962 25.3246L21.4723 20.6172C20.1518 21.942 18.5645 22.8737 16.8462 23.2709L16.3853 30.9707C17.4425 31.5672 18.2348 33.094 18.1687 34.9516C18.0367 37.6067 16.3188 39.9301 14.3366 39.9301C12.3552 39.9301 11.0997 37.7436 11.43 35.1518C11.6272 33.358 12.5535 31.8328 13.7397 31.1033L14.5349 23.5376C12.8817 23.4706 11.5624 22.8737 10.5718 21.8755L5.88034 27.0555C5.94632 28.3157 5.48457 29.8412 4.42632 31.0367C2.973 32.5638 1.2559 32.6947 0.594317 31.2377C0.000896487 29.8412 0.594317 27.6509 1.91681 26.2581C2.90765 25.1964 4.02803 24.8647 4.82357 25.2641L9.38003 20.351C8.78742 19.2237 8.52206 17.8296 8.65628 16.3694L4.02803 17.0993C3.43488 18.0293 2.44287 18.7554 1.58458 18.8911C0.397523 19.0858 -0.196926 18.096 0.265806 16.7003C0.662298 15.4406 1.91681 14.2416 3.0404 14.0471C3.8982 13.9127 4.42632 14.3088 4.55816 15.1039L9.11874 14.3088C9.51086 12.9856 10.241 11.7233 11.1651 10.6619L8.72194 8.27078C7.9286 8.67136 7.13584 8.73768 6.67137 8.27078C6.14409 7.74101 6.47587 6.54538 7.39829 5.74618C8.25903 4.88412 9.44802 4.6209 10.0414 5.15251C10.5039 5.5517 10.5039 6.21492 10.109 6.94446L12.6196 9.20239C13.6764 8.3332 14.8663 7.674 16.1204 7.27814L16.452 3.42745C15.7911 3.29653 15.3279 2.83067 15.4594 2.16768C15.5259 1.30389 16.5181 0.370323 17.5747 0.1063C18.6955 -0.155769 19.554 0.307336 19.4906 1.23986C19.4906 1.90193 18.9605 2.62734 18.1687 3.02929L17.9045 6.94446C19.2255 6.8117 20.4154 7.01147 21.4058 7.47136L24.8411 3.8255C24.5108 3.22619 24.6438 2.364 25.2384 1.70274C26.097 0.840897 27.5505 0.50722 28.6077 0.968714C29.6661 1.50216 29.8612 2.62734 29.0033 3.62745C28.3435 4.35228 27.2858 4.75573 26.3605 4.6209L22.8597 8.47205C23.7213 9.26906 24.379 10.3978 24.7109 11.7897L30.5248 10.7929C30.8537 9.80009 31.7799 9.00366 32.9678 8.80308Z" fill="#FC7C14"/>
<path fill-rule="evenodd" clip-rule="evenodd" d="M14.6681 13.251C14.6681 13.9797 14.7319 13.8476 14.7319 14.5784C15.3278 13.9797 18.8275 11.7898 17.7062 11.7233C17.0455 11.7233 16.1203 11.9217 14.7319 13.251H14.6681ZM14.6681 18.1636C14.7319 18.5607 14.7319 18.8912 14.7319 19.1561V19.6852C14.6681 19.8206 14.6681 19.8883 14.5348 19.9478H14.1389C13.9411 20.0198 13.873 20.0198 13.809 20.0198C13.7396 19.9478 13.6763 19.8883 13.6086 19.8206V18.5607C13.6763 18.0289 13.6763 17.5644 13.6763 17.0314C13.6763 16.9003 13.7396 16.4991 13.7396 16.0369C13.1461 15.9064 13.0827 15.5741 13.809 15.1759C13.809 14.8416 13.809 14.6439 13.873 14.3089C13.873 13.5818 12.95 14.907 12.95 14.0471C14.1389 12.7871 17.5091 9.80012 18.9604 11.06C19.6232 12.1217 17.3108 13.7097 15.1284 15.1039C16.584 15.3069 21.2733 18.096 19.8189 19.8206C19.6232 20.0861 19.0282 20.0198 18.8275 19.6852C17.6407 17.894 16.0547 16.2359 14.6681 16.1691V18.1636Z" fill="white"/>
</g>
<defs>
<clipPath id="clip0_1113_177">
<rect width="146" height="40" fill="white"/>
</clipPath>
</defs>
</svg>
