<svg width="143" height="40" viewBox="0 0 143 40" fill="none" xmlns="http://www.w3.org/2000/svg">
<path d="M9.99996 -0.000244141C4.47749 -0.000244141 0 4.47658 0 9.99963V30.0001C0 35.5229 4.47749 39.9998 9.99996 39.9998H30.0004C35.5232 39.9998 40.0006 35.5229 40.0006 30.0001V-0.000244141H9.99996Z" fill="#B1EC52"/>
<path d="M10.9331 15.972C10.606 14.5414 12.0333 13.2756 13.8795 13.2756C15.5426 13.2756 17.2095 13.6485 17.8438 15.9672H19.9757V19.5058C17.3178 17.3209 11.5554 18.6918 10.9331 15.972ZM33.0537 14.9924H28.2513L23.6827 19.996V9.99923H19.9757V12.4214C19.8547 12.2653 19.7272 12.1101 19.5844 11.9587C18.2364 10.5317 16.2943 9.80824 13.8113 9.80824C10.9398 9.80824 9.30718 11.0934 8.44308 12.1713C7.36985 13.5095 6.89069 15.3361 7.2223 16.8243C8.08131 20.677 11.6563 21.2923 14.2825 21.6337C16.3559 21.9034 18.3395 22.2798 18.2869 24.1279C18.232 26.0458 16.0701 26.5174 14.6509 26.5174C10.955 26.5174 10.8304 23.7855 10.8304 23.7855H6.85547C6.91354 24.8114 7.22357 26.4584 8.48654 27.8717C9.86941 29.4203 11.9435 30.2051 14.6509 30.2051C16.7278 30.2051 18.6197 29.5285 19.9757 28.3271V29.9782H23.6827V25.2592L24.9942 23.8246L28.7384 29.9782H33.0524L27.6039 20.9654L33.0537 14.9924Z" fill="#424B52"/>
<path d="M56.7174 18.9488C56.6139 18.7619 56.4689 18.575 56.3236 18.3884C56.1573 18.2225 55.9707 18.0565 55.7219 17.9112C55.4934 17.7658 55.2031 17.6623 54.8712 17.5586C54.5389 17.4754 54.1658 17.4339 53.7092 17.4339C53.5226 17.4339 53.2944 17.4549 53.0453 17.4961C52.7962 17.5586 52.5265 17.6414 52.2567 17.7658C51.987 17.9112 51.7173 18.0981 51.4476 18.3265C51.1987 18.5544 50.9497 18.866 50.7627 19.2391C50.5349 19.6336 50.3686 20.0896 50.2439 20.6291C50.1198 21.1685 50.0576 21.8117 50.0576 22.5587C50.0576 23.3679 50.1405 24.0733 50.3064 24.7165C50.4724 25.3601 50.7215 25.8996 51.0324 26.3349C51.3441 26.7709 51.7382 27.1025 52.1945 27.331C52.6302 27.5591 53.1487 27.6836 53.7092 27.6836C54.3733 27.6836 54.8918 27.5798 55.3069 27.3932C55.7219 27.1857 56.0539 26.9365 56.3026 26.6462C56.5518 26.3562 56.7387 26.0446 56.8421 25.7333C56.9665 25.4223 57.0705 25.1316 57.1324 24.9035H60.2239C60.0582 25.837 59.7884 26.6462 59.394 27.331C58.9999 28.0155 58.5226 28.5756 57.9626 29.0322C57.4021 29.4888 56.7799 29.8207 56.0745 30.0489C55.3687 30.2774 54.6221 30.3809 53.8339 30.3809C52.734 30.3809 51.7382 30.1943 50.8874 29.8207C50.0367 29.4679 49.3107 28.9288 48.7297 28.2649C48.1486 27.5798 47.7129 26.7499 47.4016 25.7749C47.0906 24.8206 46.9453 23.7417 46.9453 22.5587C46.9453 21.6461 47.0284 20.816 47.215 20.069C47.381 19.322 47.6301 18.6581 47.9411 18.0775C48.2524 17.4961 48.6255 17.0191 49.0616 16.5831C49.4766 16.1681 49.9329 15.8155 50.4518 15.5458C50.9497 15.276 51.4685 15.0686 52.0286 14.9235C52.5887 14.7988 53.1487 14.7366 53.7092 14.7366C54.5183 14.7366 55.2447 14.8201 55.8669 14.9857C56.4895 15.1726 57.0497 15.3801 57.5266 15.6705C58.0039 15.9609 58.3983 16.2722 58.7302 16.6454C59.0621 17.0191 59.3524 17.3926 59.5603 17.7658C59.7679 18.1602 59.9129 18.5544 60.0376 18.9278C60.141 19.322 60.2032 19.6749 60.2239 20.0068H57.1118L56.9665 19.5089C56.9043 19.322 56.8215 19.1564 56.7174 18.9488Z" fill="white"/>
<path d="M68.5112 18.9699H72.3293L67.7645 23.5553L72.5158 30.0078H68.781L65.5442 25.3393L64.3824 26.5223V30.0078H61.5195V18.9699H64.3824V23.1612L68.5112 18.9699Z" fill="white"/>
<path d="M75.1171 25.7129C75.2005 26.1276 75.3455 26.5011 75.5737 26.8124C75.7813 27.1444 76.051 27.4141 76.3829 27.601C76.7148 27.7879 77.1298 27.8913 77.6281 27.8913C78.1463 27.8913 78.5823 27.7879 78.9142 27.601C79.2464 27.4141 79.5162 27.1444 79.7234 26.8334C79.9309 26.5221 80.0763 26.1695 80.159 25.7542C80.2419 25.3391 80.2834 24.9243 80.2834 24.4887C80.2834 24.0529 80.2419 23.6379 80.159 23.2231C80.0763 22.8081 79.9309 22.4346 79.7234 22.1236C79.5162 21.812 79.2464 21.5632 78.9142 21.3557C78.5823 21.1687 78.1463 21.086 77.6281 21.086C77.1298 21.086 76.7148 21.1897 76.3829 21.3766C76.051 21.5632 75.7813 21.8326 75.5737 22.1442C75.3455 22.4761 75.2005 22.8287 75.1171 23.2437C75.0342 23.6585 74.9721 24.0736 74.9721 24.4887C74.9721 24.9037 75.0342 25.3184 75.1171 25.7129ZM72.3785 22.1442C72.6276 21.4179 73.0008 20.7956 73.4987 20.2768C73.9969 19.7582 74.5779 19.3638 75.2834 19.0732C75.9884 18.7828 76.7563 18.6378 77.6281 18.6378C78.52 18.6378 79.3086 18.7828 80.0137 19.0732C80.7192 19.3638 81.3002 19.7582 81.7771 20.2768C82.2548 20.7956 82.6285 21.4179 82.8982 22.1442C83.1467 22.85 83.271 23.6379 83.271 24.4887C83.271 25.3391 83.1467 26.1276 82.8982 26.8334C82.6285 27.5594 82.2548 28.1817 81.7771 28.7005C81.3002 29.1984 80.7192 29.6135 80.0137 29.9042C79.3086 30.1945 78.52 30.3398 77.6281 30.3398C76.7563 30.3398 75.9884 30.1945 75.2834 29.9042C74.5779 29.6135 73.9969 29.1984 73.4987 28.7005C73.0008 28.1817 72.6276 27.5594 72.3785 26.8334C72.1294 26.1276 71.9844 25.3391 71.9844 24.4887C71.9844 23.6379 72.1294 22.85 72.3785 22.1442Z" fill="white"/>
<path d="M88.6665 21.2932L88.6259 23.3476C88.5836 24.5092 88.5008 25.526 88.3968 26.3974C88.2725 27.2691 88.0857 27.9951 87.8371 28.5758C87.5674 29.1571 87.2148 29.5926 86.7786 29.9042C86.3431 30.1945 85.7623 30.3398 85.0775 30.3398C84.7452 30.3398 84.4755 30.3189 84.227 30.2983C83.9776 30.2567 83.7907 30.1945 83.625 30.132V27.7254C83.729 27.7666 83.8533 27.8085 83.9987 27.85C84.1433 27.8707 84.3098 27.8913 84.517 27.8913C84.7452 27.8913 84.9321 27.8292 85.0978 27.6838C85.2643 27.5594 85.4097 27.3313 85.534 26.9787C85.6583 26.6255 85.7412 26.1482 85.824 25.526C85.8866 24.9037 85.928 24.1152 85.9492 23.1403L86.032 18.9697H94.9119V30.0076H92.0695V21.2932H88.6665Z" fill="white"/>
<path d="M103.994 18.9699H107.811L103.247 23.5553L107.998 30.0078H104.264L101.026 25.3393L99.8647 26.5223V30.0078H97.002V18.9699H99.8647V23.1612L103.994 18.9699Z" fill="white"/>
<path d="M110.6 25.7129C110.683 26.1276 110.828 26.5011 111.057 26.8124C111.264 27.1444 111.533 27.4141 111.866 27.601C112.198 27.7879 112.612 27.8913 113.111 27.8913C113.629 27.8913 114.065 27.7879 114.397 27.601C114.729 27.4141 114.999 27.1444 115.206 26.8334C115.414 26.5221 115.559 26.1695 115.642 25.7542C115.725 25.3391 115.767 24.9243 115.767 24.4887C115.767 24.0529 115.725 23.6379 115.642 23.2231C115.559 22.8081 115.414 22.4346 115.206 22.1236C114.999 21.812 114.729 21.5632 114.397 21.3557C114.065 21.1687 113.629 21.086 113.111 21.086C112.612 21.086 112.198 21.1897 111.866 21.3766C111.533 21.5632 111.264 21.8326 111.057 22.1442C110.828 22.4761 110.683 22.8287 110.6 23.2437C110.517 23.6585 110.455 24.0736 110.455 24.4887C110.455 24.9037 110.517 25.3184 110.6 25.7129ZM107.862 22.1442C108.11 21.4179 108.484 20.7956 108.982 20.2768C109.48 19.7582 110.061 19.3638 110.766 19.0732C111.472 18.7828 112.239 18.6378 113.111 18.6378C114.003 18.6378 114.792 18.7828 115.497 19.0732C116.202 19.3638 116.783 19.7582 117.261 20.2768C117.737 20.7956 118.111 21.4179 118.381 22.1442C118.629 22.85 118.754 23.6379 118.754 24.4887C118.754 25.3391 118.629 26.1276 118.381 26.8334C118.111 27.5594 117.737 28.1817 117.261 28.7005C116.783 29.1984 116.202 29.6135 115.497 29.9042C114.792 30.1945 114.003 30.3398 113.111 30.3398C112.239 30.3398 111.472 30.1945 110.766 29.9042C110.061 29.6135 109.48 29.1984 108.982 28.7005C108.484 28.1817 108.11 27.5594 107.862 26.8334C107.612 26.1276 107.467 25.3391 107.467 24.4887C107.467 23.6379 107.612 22.85 107.862 22.1442Z" fill="white"/>
<path d="M126.173 27.8503C126.422 27.7462 126.609 27.6425 126.754 27.4975C126.879 27.373 126.983 27.2274 127.024 27.0617C127.065 26.8955 127.086 26.7504 127.086 26.6051C127.086 26.3354 127.065 26.1072 126.983 25.9207C126.92 25.7544 126.816 25.6091 126.65 25.5056C126.505 25.3812 126.298 25.3186 126.048 25.2771C125.8 25.2359 125.509 25.2149 125.156 25.2149H122.957V27.9744H125.156C125.571 27.9744 125.924 27.9331 126.173 27.8503ZM125.987 23.2233C126.194 23.1612 126.359 23.0986 126.485 22.9952C126.609 22.9118 126.712 22.7877 126.754 22.642C126.816 22.497 126.837 22.3101 126.837 22.1238C126.837 21.9575 126.816 21.8122 126.754 21.6672C126.712 21.5425 126.609 21.4181 126.485 21.3146C126.381 21.2312 126.214 21.1483 126.007 21.0862C125.8 21.0236 125.55 21.003 125.239 21.003H122.957V23.3062H125.156C125.488 23.3062 125.758 23.2649 125.987 23.2233ZM127.273 19.0943C127.729 19.1981 128.144 19.3438 128.517 19.5507C128.87 19.7791 129.16 20.0694 129.368 20.4433C129.576 20.8165 129.68 21.2934 129.68 21.8747C129.68 22.2067 129.658 22.497 129.576 22.7255C129.514 22.9743 129.41 23.1818 129.286 23.3478C129.16 23.5346 129.016 23.6797 128.87 23.7834C128.704 23.9078 128.559 24.0119 128.372 24.0947C128.933 24.2817 129.347 24.5926 129.638 25.0283C129.928 25.464 130.074 25.9622 130.074 26.5636C130.074 27.0824 129.991 27.5596 129.825 27.9744C129.638 28.3898 129.389 28.763 129.057 29.0533C128.725 29.3646 128.33 29.5928 127.853 29.7591C127.377 29.9247 126.857 30.0078 126.277 30.0078H120.094V18.9699H125.8C126.318 18.9699 126.796 19.0112 127.273 19.0943Z" fill="white"/>
<path d="M133.975 25.7129C134.058 26.1276 134.203 26.5011 134.432 26.8124C134.639 27.1444 134.908 27.4141 135.241 27.601C135.573 27.7879 135.987 27.8913 136.486 27.8913C137.004 27.8913 137.44 27.7879 137.772 27.601C138.104 27.4141 138.374 27.1444 138.581 26.8334C138.789 26.5221 138.934 26.1695 139.017 25.7542C139.1 25.3391 139.142 24.9243 139.142 24.4887C139.142 24.0529 139.1 23.6379 139.017 23.2231C138.934 22.8081 138.789 22.4346 138.581 22.1236C138.374 21.812 138.104 21.5632 137.772 21.3557C137.44 21.1687 137.004 21.086 136.486 21.086C135.987 21.086 135.573 21.1897 135.241 21.3766C134.908 21.5632 134.639 21.8326 134.432 22.1442C134.203 22.4761 134.058 22.8287 133.975 23.2437C133.892 23.6585 133.83 24.0736 133.83 24.4887C133.83 24.9037 133.892 25.3184 133.975 25.7129ZM131.237 22.1442C131.485 21.4179 131.859 20.7956 132.357 20.2768C132.855 19.7582 133.436 19.3638 134.141 19.0732C134.846 18.7828 135.614 18.6378 136.486 18.6378C137.378 18.6378 138.166 18.7828 138.872 19.0732C139.577 19.3638 140.158 19.7582 140.635 20.2768C141.112 20.7956 141.486 21.4179 141.756 22.1442C142.004 22.85 142.129 23.6379 142.129 24.4887C142.129 25.3391 142.004 26.1276 141.756 26.8334C141.486 27.5594 141.112 28.1817 140.635 28.7005C140.158 29.1984 139.577 29.6135 138.872 29.9042C138.166 30.1945 137.378 30.3398 136.486 30.3398C135.614 30.3398 134.846 30.1945 134.141 29.9042C133.436 29.6135 132.855 29.1984 132.357 28.7005C131.859 28.1817 131.485 27.5594 131.237 26.8334C130.987 26.1276 130.842 25.3391 130.842 24.4887C130.842 23.6379 130.987 22.85 131.237 22.1442Z" fill="white"/>
</svg>
